<?xml version="1.0" encoding="UTF-8"?><svg id="a" xmlns="http://www.w3.org/2000/svg" viewBox="0 0 243.47 579.6"><defs><style>.b{fill:#669;}.c{fill:#f2f2f2;}</style></defs><path class="c" d="M243.47,.7c-.33,.09-.65,.18-.99,.24-2.88,.52-5.89-.2-8.86-.39-4-.26-7.98,.47-11.93,.97-3.95,.51-8.19,.78-11.87-.3-1.14-.34-2.2-.8-3.39-1.05s-2.6-.25-3.57,.27c-.51,.28-.86,.67-1.36,.96-1.01,.58-2.5,.63-3.79,.41-1.29-.22-2.45-.68-3.68-1.03-5.37-1.53-12.03-.75-16.3,1.9-3.17,1.97-8.22,2.37-12.32,1.45-1.28-.29-2.48-.71-3.75-1.02-1.41-.35-2.88-.56-4.38-.65-7.42-.48-14.95,1.88-22.23,.8-2.92-.43-5.61-1.4-8.51-1.9-4.62-.81-9.5-.42-14.24-.03-5.2,.43-10.41,.87-15.61,1.3-8.06,.67-16.53,.23-24.62-.2-4.29-.23-8.58-.57-12.89-.59-5.78-.03-11.55,.53-17.32,.28-.87-.04-1.77-.09-2.56-.34-.73-.23-1.33-.61-2.05-.83-2.68-.84-5.63,.55-8.48,1.08-1.49,.28-3.05,.32-4.59,.36l-12.13,.3C8.07,2.05,4.04,1.61,0,1.45V579.45c12.45,.74,25.95-1.53,38.65-1.83,9.05-.21,18.1-.42,27.14-.64,4-.09,8.09-.2,11.83-1.15,3.84-.98,7.08-2.79,10.8-3.95,3.72-1.16,8.51-1.55,11.67,.21,.27-2.8,5.5-4.8,9.24-3.53-1.5,.81,1.39,1.95,3.31,1.79,4.5-.38,9-.75,13.5-1.13,7.53-.63,15.65-1.44,21.04-5.02,3.04-2.01,5.63-5,9.91-5.03,4.4-.03,7.23,3.17,11.34,4.22,2.6,.67,5.5,.42,8.27,.22,17.17-1.24,34.56-.27,51.55,1.78,5.1,.62,10.17,1.36,15.21,2.17V.7Z"/><g><path class="b" d="M60.81,378.88c2.28-6.57,3.42-13.47,5.55-20.09,2.12-6.58,4.7-12.99,7.38-19.36l-.82,1.95c6.76-16.01,12.64-32.36,19.39-48.37l-.82,1.95c3.46-8.2,7.03-16.35,10.27-24.64,2.91-7.43,5.47-14.99,8.57-22.35l-.82,1.95c2.59-6.1,5.48-12.09,8.95-17.75,1.4-2.28,2.91-4.49,4.27-6.79s2.63-4.41,4.2-6.45l-1.28,1.65c.89-1.12,1.84-2.17,2.95-3.07l-1.65,1.28c.56-.43,1.13-.79,1.75-1.11h-8.25c.33,.15,.63,.34,.92,.55l-1.65-1.28c.52,.41,.96,.89,1.37,1.41l-1.28-1.65c1.22,1.6,2.09,3.41,2.88,5.25l-.82-1.95c1.08,2.55,1.92,5.2,2.94,7.77,1.78,4.46,3.37,9,4.89,13.56,3.04,9.17,5.97,18.39,8.56,27.7,5.21,18.76,9.11,37.87,14.66,56.53,1.59,5.34,3.28,10.64,5.01,15.94,.84,2.56,1.69,5.12,2.54,7.67,1,3.01,2.45,5.82,3.69,8.73l-.82-1.95c.32,.78,.54,1.49,.65,2.33l-.29-2.17c.46,3.72,.67,8.28,3.94,10.82,1.79,1.39,3.41,2.39,5.78,2.39,2.01,0,4.4-.89,5.78-2.39s2.49-3.6,2.39-5.78c-.09-2.01-.73-4.49-2.39-5.78-.2-.16-.35-.3-.51-.51l1.28,1.65c-.14-.23-.26-.44-.36-.69l.82,1.95c-.24-.66-.36-1.33-.46-2.02l.29,2.17c-.24-1.9-.24-3.91-.91-5.71-.88-2.39-2.07-4.65-3.08-6.99l.82,1.95c-1.56-3.77-2.67-7.78-3.93-11.67s-2.61-8.11-3.84-12.19c-2.41-7.95-4.49-15.98-6.49-24.04-4.02-16.19-7.83-32.45-12.88-48.36-2.48-7.78-4.87-15.59-7.72-23.25-1.01-2.73-2.09-5.43-3.08-8.17-1.1-3.02-2.25-6.09-3.81-8.91-2.04-3.67-5.28-7.43-9.67-8.01-5.66-.76-10,4.29-13.07,8.36-1.81,2.39-3.27,5.01-4.82,7.57-1.76,2.92-3.71,5.72-5.39,8.7-8.03,14.24-12.73,29.96-18.92,45.01-.79,1.93-1.6,3.86-2.41,5.78l.82-1.95c-3.94,9.34-7.95,18.64-11.62,28.09s-6.85,18.07-10.61,26.98l.82-1.95c-3.22,7.6-6.49,15.19-9.14,23.02-1.21,3.59-2.3,7.22-3.2,10.89s-1.79,7.7-3.09,11.44c-1.4,4.05,1.6,9.12,5.71,10.06,4.55,1.04,8.56-1.38,10.06-5.71h0Z"/><path class="b" d="M72.35,312.98h89.39c4.28,0,8.37-3.76,8.18-8.18s-3.59-8.18-8.18-8.18H72.35c-4.28,0-8.37,3.76-8.18,8.18s3.59,8.18,8.18,8.18h0Z"/></g></svg>