<?xml version="1.0" encoding="UTF-8"?><svg id="a" xmlns="http://www.w3.org/2000/svg" viewBox="0 0 85.66 96.97"><defs><style>.b{fill:#fff;stroke-width:2.74px;}.b,.c{stroke:#669;stroke-miterlimit:10;}.c{fill:none;stroke-width:4px;}</style></defs><path class="c" d="M14.48,48.32l17.52,3.04c.16,.02,.31,.01,.47,0l18.68-1.62c.16-.02,.32-.02,.48,0l18.63,.92c1.15,.12,2.01,1.09,2.01,2.24l11.39,39.62c0,1.35-1.17,2.39-2.51,2.24l-24.69-2.19c-.15-.02-.31-.02-.46,0l-26.88,2.4c-.21,.02-.41,0-.61-.03l-24.67-3.27c-1.07-.2-1.85-1.14-1.84-2.24L12,50.54c.01-1.32,1.16-2.35,2.47-2.22Z"/><line class="c" x1="32.23" y1="51.39" x2="28.82" y2="94.99"/><line class="c" x1="51.39" y1="49.72" x2="56.23" y2="92.54"/><path class="b" d="M61.51,33.31h0l-19.17,38.45L23.79,33.32h0c-1.71-3.09-2.68-6.63-2.68-10.41C21.12,11.01,30.76,1.37,42.65,1.37s21.54,9.64,21.54,21.54c0,3.77-.97,7.32-2.68,10.41Z"/></svg>