<?xml version="1.0" encoding="UTF-8"?><svg id="a" xmlns="http://www.w3.org/2000/svg" viewBox="0 0 268.91 577.05"><defs><style>.b{fill:#669;}.c{fill:#f2f2f2;}</style></defs><path class="c" d="M268.91,.74c-3.48-.16-6.96-.37-10.43-.67-.8-.07-1.65-.14-2.4,.06-1.02,.27-1.62,.98-2.01,1.67-.53-.94-2.22-1.36-3.72-1.3-1.49,.06-2.89,.49-4.33,.78-4.44,.88-9.19,.35-13.79-.05-5.26-.46-10.57-.74-15.87-.58-7.74,.24-15.46,1.44-23.17,.91-13.86,1.17-27.83-1.14-41.78-.64-3.57,.13-7.11,.43-10.67,.63-5.06,.28-10.14,.33-15.22,.32-1.65,0-3.32-.02-4.9-.33-2.35-.48-4.51-1.63-6.96-1.45-.47,.03-.95,.12-1.3,.34-.44,.27-.6,.68-.86,1.05-.88,1.24-3.25,1.91-5.19,1.46-5.26-1.2-10.93,.68-16.49,.55-2.35-.06-4.65-.48-6.99-.69-6.04-.54-12.18,.33-18.27,.14-2.76-.08-5.52-.39-8.28-.26-2.25,.1-4.45,.49-6.7,.54-6.86,.15-13.76-2.8-20.28-1.34-1.38,.31-2.7,.79-4.15,.95-1.75,.18-3.57,.18-5.33,.3-3.54,.24-7.08,.6-10.48,1.3-1.96,.4-4,.92-6,.62-1.23-.18-2.29-.66-3.37-1.1V572.8c2.13,.14,4.25,.17,6.36-.09,2.23-.27,4.41-.84,6.68-.84,3.64,0,7.18,1.49,10.73,.96,1.4-.21,2.66-.72,4.06-.93,2.25-.34,4.57,.14,6.83,.43,5.26,.67,10.81,.29,15.75-1.09,4.42,.77,8.72,1.85,12.26,3.79,4.06,3.02,9.09,2.31,13.82,.08,3.19-1.44,6.57-3.18,10.41-2.97,2.52,.14,4.75,1.11,7.21,1.48,3.01,.46,6.15,.02,9.23,.12,3.8,.12,7.55,1.08,11.33,.74,2.57-.23,5.03-1.05,7.63-.96,3.33,.11,6.91,1.66,9.7,.45,1.02-.55,2.04-1.12,3.42-1.18,7.08-.83,14.49-.33,21.17,1.45,4.94,1.38,11.07,3.62,16.1,1.3,1.82-.88,3.08-2.38,5.27-2.73,3.74-.58,7.07,1.87,10.94,1.57,4.93-.38,9.84-.75,14.8-.88,9.9-.27,19.85,.1,29.64,1.11,1.51,.16,3.06,.32,4.54,.09,1.48-.24,2.89-1,3.06-2.01,.08-.5-.14-1-.14-1.5-.01-2.33,4.15-3.48,7.55-4.01l19.81-3.11c.25-.04,.5-.08,.75-.13V.74Z"/><g><path class="b" d="M85.05,249.63c0,8.07-.23,16.07-.91,24.11s-1.39,15.7-1.94,23.56c-1.11,15.77-1.32,31.59-2.8,47.34-.73,7.79-1.89,15.52-2.75,23.29-.42,3.86-.75,7.74-.83,11.62-.1,4.56-.32,9.19,1.86,13.36,1.72,3.28,4.52,6.3,7.88,7.91,3.92,1.87,8.07,2.68,12.34,3.25,7.68,1.03,15.48,1.35,23.22,1.48,8.76,.15,17.56,.04,26.29-.78,4.92-.46,9.85-1.08,14.71-2,4.35-.82,8.63-1.96,12.95-2.92,4.18-.93,7.02-6,5.71-10.06-1.42-4.39-5.58-6.7-10.06-5.71-6.39,1.42-12.7,3.03-19.19,3.91l2.17-.29c-9.26,1.23-18.6,1.55-27.94,1.53s-17.94-.22-26.77-1.38l2.17,.29c-3.04-.42-6.15-.97-8.99-2.14l1.95,.82c-.78-.35-1.51-.76-2.2-1.27l1.65,1.28c-.65-.52-1.2-1.1-1.72-1.75l1.28,1.65c-.58-.78-1.11-1.59-1.52-2.47l.82,1.95c-.25-.63-.41-1.26-.51-1.93l.29,2.17c-.23-1.96-.09-3.98-.07-5.95,.02-2.19,.13-4.38,.28-6.57,.32-4.43,.87-8.85,1.44-13.25,1.15-8.87,2.11-17.74,2.72-26.67,.62-9.04,.95-18.1,1.37-27.15,.42-8.94,1.19-17.86,1.96-26.77,.44-5.07,.95-10.15,1.21-15.24s.25-10.17,.25-15.26c0-4.28-3.76-8.37-8.18-8.18s-8.18,3.59-8.18,8.18h0Z"/><path class="b" d="M83.51,252.95c15.47-.01,30.91-1.04,46.36-1.41s30.75-.53,46.13-.92c8.68-.22,17.36-.62,26.05-.59,4.28,.02,8.37-3.77,8.18-8.18s-3.59-8.16-8.18-8.18c-7.69-.03-15.38,.3-23.07,.51s-15.54,.37-23.32,.52c-15.34,.29-30.67,.58-46.01,1.21-8.71,.35-17.42,.68-26.14,.68-4.28,0-8.37,3.76-8.18,8.18s3.59,8.18,8.18,8.18h0Z"/><path class="b" d="M99.06,324.85c8.46-.02,16.9-.83,25.34-1.36,4.18-.27,8.37-.53,12.56-.56,2.14-.02,4.29,.03,6.43-.09s4.12-.43,6.19-.41c4.28,.05,8.37-3.79,8.18-8.18s-3.59-8.13-8.18-8.18c-2.08-.02-4.13,.29-6.19,.41s-4.29,.07-6.43,.09c-4.19,.04-8.38,.3-12.56,.56-8.44,.54-16.88,1.35-25.34,1.36-4.28,0-8.37,3.75-8.18,8.18s3.59,8.19,8.18,8.18h0Z"/></g></svg>