<?xml version="1.0" encoding="UTF-8"?><svg id="a" xmlns="http://www.w3.org/2000/svg" viewBox="0 0 252.24 572.31"><defs><style>.b{fill:#669;}.c{fill:#f2f2f2;}</style></defs><path class="c" d="M252.24,1.24c-1.21-.06-2.43-.09-3.64-.03-2.25,.1-4.45,.49-6.7,.54-6.86,.15-13.76-2.8-20.28-1.34-1.38,.31-2.7,.79-4.15,.95-1.75,.18-3.57,.18-5.33,.3-3.54,.24-7.08,.6-10.48,1.3-1.96,.4-4,.92-6,.62-1.63-.24-2.96-1-4.44-1.52-4.22-1.49-9.31-1.04-14.06-.69-11.59,.85-23.32,.81-34.89-.12-3.43-.28-6.97-.62-10.3,0-2.87,.53-5.91,1.75-8.59,.88-9.71-3.15-21.84-1.1-32.64-1.07-3.68,0-7.4,.1-10.95,.77-2.49,.46-4.97,1.21-7.54,1.02-1.71-.12-3.28-.65-4.89-1.03-1.56-.36-3.23-.6-4.88-.51-1.75,.09-2.84,.24-4.44,.8-.82,.28-1.72,.46-2.63,.6-4.58,.72-10.22,.91-14.84,.21-4.74-.71-9.76-.87-14.62-1.21-2.07-.15-4.23-.1-6.25,.22-2.02,.32-4.03,.76-6.1,.79-.55,0-1.12-.02-1.64,.1-.52,.12-.8,.33-.99,.68-1.58,2.88-3.16,5.75-4.74,8.63-.3,.55-.61,1.14-.43,1.71,.18,.56,.78,1,1.33,1.43,5.83,4.67,9.06,11.98,5.29,17.72-1.79,1.57-5.66,1.46-7.47,3.02-2.85,2.72,1.51,5.64,2.59,8.25,1.46,3.67-2.43,7.28-3.24,11.04-.56,2.58,.41,5.29,2.64,7.42,.76,.72,1.7,1.58,1.2,2.39-.41,.66-1.6,.93-2.3,1.48-1.76,1.38,.33,3.36,1.32,5.05,1,1.7,.73,3.71-.69,5.27-.62,.68-1.46,1.3-1.81,2.06-.67,1.48,.66,2.98,1.46,4.42,1.33,2.4,1.21,5.13-.31,7.48-.53,.81-1.23,1.72-.69,2.52,.38,.57,1.26,.9,1.86,1.38,1.73,1.39,.58,3.47,.68,5.28,.1,1.82,1.56,3.47,2.59,5.16,1.03,1.69,1.58,3.75,.04,5.25-.96,.94-2.56,1.47-3.86,2.19-1.31,.72-2.42,1.87-1.85,2.94,.29,.55,.96,.95,1.47,1.42,3.21,3.01-.94,7.9,2.76,10.64-.83,2.26-4.1,4.09-5.26,6.29-.94,1.77-.75,3.7-.56,5.57,1.27,12.2,2.53,24.41,3.8,36.61,.19,1.85,.38,3.74-.24,5.54-.61,1.78-1.97,3.4-2.72,5.16-2.29,5.33,1.23,11.05,.23,16.55-.57,3.16-2.63,6.24-2.1,9.4,.75,4.5,6.61,8.34,5.93,12.84-.55,3.7-6.03,7.39-3.2,11.16-3.51,6.61,3.94,13.61,1.85,20.49-.91,3-3.77,5.66-4.36,8.7-1.4,7.23,10.95,14.79,3.14,21.68-.78,1.03-.73,3.38-.31,4.53,.47,.44,1.71,.23,2.13,.69,.67,.74-1.83,1.55-1.14,2.27,.23,.24,.71,.3,1.05,.48,1.25,.63-.08,2.11,.8,2.98,.66,.66,2.36,.71,2.69,1.48,.21,.48-.28,.96-.75,1.36-1.88,1.6-3.51,3.38-4.49,5.31-.71,1.41-2.1,3.57-.3,4.75,.76,.5,1.71,1,1.77,1.71,.04,.43-.26,.88,.03,1.26,.41,.53,1.55,.46,2.42,.32,.63,1.95-1.08,3.88-1.26,5.87-.24,2.53,1.97,5.19,.42,7.5-.88,1.31-2.92,2.43-2.56,3.84,.19,.75,1.04,1.34,1.67,1.97,3.01,4.14,3.32,9.05,4.67,13.54,.27,2.85,2.79,5.21,2.18,8.09-.2,1.73-.71,3.47-.29,5.19,2.85,5.51,4.85,11.48,1.66,17.18-.63,1.26-1.44,2.59-.9,3.86,.32,.74,1.06,1.36,1.61,2.04,1.86,2.3,1.17,5.39-1.6,7.23-.73,.49-1.62,.92-1.93,1.58-.25,.52-.09,1.08-.02,1.62,.31,2.43-1.37,4.94-4.31,6.4-2.51,1.24-5.95,1.85-7.42,3.69-1.1,1.37-.64,3.22,1.05,4.28,1.15,.72,2.75,1.1,3.69,1.94,1.39,1.26,.77,3.01,.72,4.57-.1,2.91,1.97,5.63,3.99,8.21,.6,.76,.38,1.49,.56,2.34,.18,.85-.06,1.85-1.13,2.33-.35,.16-.78,.25-1.02,.48-.76,.72,.84,2.06-.34,2.45-.37,.13-.81,.04-1.23,.05-2.4,.17-2.15,2.35-3.36,3.34-1.28,1.06-4.3,1.45-4.05,2.8,.27,1.5,4.08,1.21,5.34,2.47,.72,.72,.34,1.71,.78,2.54,.6,1.13,2.95,1.65,4.45,.98-.79,1.38,1.5,2.63,2.23,4.03,1.09,2.89-1.84,5.84-1.24,8.74,.36,1.05,1.59,1.85,2.55,2.72,1.98,1.78,2.9,3.97,3.74,6.12,2.09,5.36,3.87,10.77,5.33,16.23,.63,2.34,1.43,4.94,4.33,6.31,2.21,1.04,5.09,1.1,7.77,1.36,4.37,.43,8.6,1.5,12.28,3.13,5.55,2.45,8.73,6.58,15.21,7.58,1.61,.25,3.36,.41,4.58,1.16,1.22,.74,1.64,1.91,2.68,2.77,3.6,2.97,11.82,.73,15.87,3.42,2.04,1.35,2.24,3.47,3.07,5.31,1.82,4.03,7.43,7.16,13.68,7.64,3.73,.05,5.7,1.04,5.35,3.68-.45,5.45-5.06,10.76-3.31,16.09,.66,2.01,2.2,4.01,1.48,6-.44,1.21-1.67,2.22-2.2,3.41-2.03,5.26,7.32,8.44,9.71,12.84,1.66,3.04,.88,7.21,5.15,8.75,1.64,.59,3.61,.57,5.48,.53,13.03-.28,26.06-.56,39.09-.84,6.86-.15,13.75-.29,20.54,.35,4.89,.46,9.83,1.33,14.69,.75,2.23-.27,4.41-.84,6.68-.84,3.64,0,7.18,1.49,10.73,.96,1.4-.21,2.66-.72,4.06-.93,2.25-.34,4.57,.14,6.83,.43,5.26,.67,10.81,.29,15.75-1.09,3.35,.58,6.62,1.35,9.55,2.53V1.24Z"/><g><path class="b" d="M99.63,255.79c0,9.16,.11,18.32-.02,27.48-.12,9.19-.64,18.34-1.22,27.51-1.16,18.28-2.19,36.57-3.24,54.86-.29,5.09-.63,10.19-.83,15.28s.08,10.33-.52,15.43c-.23,1.94,1.08,4.46,2.39,5.78,1.42,1.42,3.74,2.49,5.78,2.39s4.31-.79,5.78-2.39c1.56-1.7,2.13-3.5,2.39-5.78,.53-4.54,.3-9.15,.46-13.71s.43-9.04,.7-13.56c.54-9.16,.93-18.33,1.48-27.5,1.09-18.27,2.75-36.55,3.12-54.85,.21-10.31,.08-20.63,.08-30.95,0-4.28-3.76-8.37-8.18-8.18s-8.18,3.59-8.18,8.18h0Z"/><path class="b" d="M100.6,261.23l.4-.17-1.95,.82c1.37-.54,2.78-.85,4.24-1.05l-2.17,.29c4.23-.52,8.49-.35,12.74-.47s8.49-.25,12.74-.28c8.6-.07,17.28-.29,25.82,.82l-2.17-.29c5.1,.7,10.24,1.82,14.99,3.81l-1.95-.82c1.84,.81,3.57,1.78,5.17,2.99l-1.65-1.28c1.07,.84,2.04,1.77,2.88,2.85l-1.28-1.65c.82,1.12,1.46,2.35,2.01,3.63l-.82-1.95c1.02,2.5,1.53,5.09,1.9,7.75l-.29-2.17c.34,2.62,.48,5.24,.17,7.87l.29-2.17c-.22,1.64-.62,3.22-1.24,4.75l.82-1.95c-.78,1.78-1.87,3.38-3.04,4.92l1.28-1.65c-1.66,2.11-3.56,3.98-5.67,5.64l1.65-1.28c-6.78,5.21-14.36,9.42-22.22,12.75l1.95-.82c-10.47,4.39-21.51,7.51-32.5,10.27s-22.55,4.81-33.92,6.83c-6.39,1.14-12.79,2.47-19.22,3.35l2.17-.29c-.61,.08-1.23,.13-1.84,.17-2.18,.14-4.2,.82-5.78,2.39-1.42,1.42-2.49,3.74-2.39,5.78,.19,4.2,3.6,8.47,8.18,8.18s9.1-1.36,13.6-2.13c4.1-.7,8.19-1.43,12.28-2.16,8.24-1.47,16.48-2.91,24.65-4.77,7.98-1.82,15.89-3.96,23.71-6.36,8.25-2.53,16.4-5.54,24.1-9.44,3.49-1.77,6.87-3.72,10.14-5.87,3.51-2.3,7.05-4.75,10.03-7.71s5.7-6.58,7.37-10.52,2.35-8.62,2.05-13.07c-.28-4.07-.81-8.4-2.31-12.23-1.13-2.87-2.35-5.22-4.27-7.63-1.42-1.78-3.19-3.16-5.03-4.49-3.49-2.53-7.72-4.06-11.84-5.24-4.53-1.29-9.18-2.03-13.86-2.55-8.25-.9-16.62-.65-24.91-.58-4.16,.03-8.32,.22-12.48,.28s-8.03-.03-12.01,.46c-1.52,.19-3.06,.36-4.55,.73s-2.83,1-4.21,1.61c-1.75,.77-3.27,3.13-3.76,4.89-.54,1.96-.3,4.56,.82,6.3s2.8,3.28,4.89,3.76c2.28,.52,4.17,.11,6.3-.82h0Z"/></g></svg>