<?xml version="1.0" encoding="UTF-8"?><svg id="a" xmlns="http://www.w3.org/2000/svg" viewBox="0 0 193.29 578.79"><defs><style>.b{fill:#669;}.c{fill:#f2f2f2;}</style></defs><path class="c" d="M193.29,.79c-3.95-.15-7.91-.03-11.85,.47-2.71,.34-5.35,.88-8.08,1.15-7.46,.72-14.96-.67-22.4-1.5C142.59-.03,134.05-.24,125.6,.27c-4.97,.3-9.93,.85-14.92,.82-3.02-.02-6.05-.25-9.04-.01-4.14,.33-8.34,1.56-12.34,.76-1.63-.33-3.22-.99-4.9-.81-1.25,.13-2.87,.61-3.51-.11-3.6-.54-7.32-.03-10.98,.22-4.72,.33-9.47,.19-14.21,.23-6.17,.05-12.32,.41-18.41,1.06-2.84,.3-5.86,.66-8.52-.07-.8-.22-1.53-.53-2.33-.74-3.3-.87-6.96,.06-10.46,.43-2.9,.31-5.85,.21-8.78,.12-2.17,0-4.34,0-6.5-.02V575.08H0c.43,.21,.87,.41,1.38,.39,.6-.03,1.05-.35,1.54-.58,4.29-2.11,10.63,2.16,15.37,.54,1.9-.65,2.87-2.06,3.88-3.31,2.51-3.11,6.04-5.79,9.54-8.43,1.73-1.31,3.54-2.66,5.92-3.39,4.48-1.38,10.59-.48,13.85-2.96,.64-.49,1.14-1.09,2-1.38,1.4-.48,3.1,.07,4.66-.05,3.45-.25,5.94-3.6,9.14-2.7,.48-.47,.95-.93,1.43-1.4,.43,2.75,.86,5.5,1.29,8.25,.44,2.82,.86,5.75-.58,8.41-.57,1.06-1.43,2.06-1.66,3.17-.23,1.11,.42,2.43,1.99,2.82,2.47,.61,6.03-1.18,7.47,.29,4.13,.41,8.72,.71,12.9,.6,3.89-.1,7.73-.64,11.62-.68,5.2-.05,10.39,.8,15.56,.46,2.05-.14,4.07-.46,6.13-.48,2.06-.02,4.24,.32,5.68,1.31,.43-1.27,.38-2.61-.15-3.86,2.79-.54,5.91,.27,8.64-.39,1.08-.26,2.02-.74,3.07-1.06,5.4-1.63,12.21,1.28,17.47-.54,.97-.34,1.86-.85,2.25-1.54,.31-.55,.28-1.16,.64-1.69,.53-.79,1.85-1.25,3.15-1.31s2.57,.25,3.73,.64c3.69,1.23,6.63,3.43,8.06,6.01,.85,1.54,1.41,3.4,3.6,4.13,4.35,1.45,8.96,2.16,13.72,2.44V.79Z"/><g><path class="b" d="M53.3,248.38c-.02,3.1-.08,6.19-.46,9.27l.29-2.17c-.58,4.29-1.74,8.53-2.74,12.75s-2,8.37-3,12.55c-2.03,8.44-4.02,16.89-5.7,25.41s-3.34,17.05-5.21,25.54c-1.85,8.38-3.76,16.74-5.47,25.15-2.05,10.08-3.77,20.23-4.91,30.45-.22,1.95,1.07,4.46,2.39,5.78,1.42,1.42,3.74,2.49,5.78,2.39s4.31-.79,5.78-2.39c1.56-1.7,2.14-3.51,2.39-5.78,.2-1.76,.41-3.52,.65-5.27l-.29,2.17c2.38-17.66,6.59-34.99,10.37-52.39,1.88-8.67,3.43-17.4,5.26-26.08s3.99-17.57,6.09-26.32c1.17-4.89,2.34-9.78,3.44-14.69,1.21-5.42,1.65-10.83,1.69-16.36,.03-4.28-3.78-8.37-8.18-8.18s-8.14,3.59-8.18,8.18h0Z"/><path class="b" d="M38.56,252.27l-.03-.73-6,7.88c6.76-2.48,13.98-3.52,21.08-4.48l-2.17,.29c10.88-1.45,21.86-1.9,32.82-2.11,10.79-.21,21.59-.46,32.38-.58,5.99-.07,11.98,.08,17.92,.86l-2.17-.29c5.01,.69,10.1,1.75,14.79,3.7l-1.95-.82c1.09,.47,2.13,1.02,3.09,1.73l-1.65-1.28c.67,.53,1.26,1.11,1.78,1.79l-1.28-1.65c.48,.66,.87,1.35,1.2,2.1l-.82-1.95c.59,1.41,.97,2.9,1.19,4.41l-.29-2.17c.1,.88,.12,1.73,.03,2.61l.29-2.17c-.11,.76-.3,1.47-.57,2.19l.82-1.95c-.46,1.06-1.07,1.99-1.76,2.91l1.28-1.65c-2.52,3.23-5.66,5.85-8.73,8.54-3.31,2.9-6.68,5.7-10.15,8.39l1.65-1.28c-19.71,15.21-40.82,28.98-63.02,40.27-6.24,3.18-12.58,6.16-19.03,8.9l1.95-.82c-7.67,3.24-15.51,6.07-23.6,8.06-3.96,.97-6.38,5.08-5.86,8.97,.49,3.67,3.98,7.51,8.03,7.09,2.07-.22,4.11-.15,6.17,.1l-2.17-.29c6.38,.89,12.62,3,18.55,5.47l-1.95-.82c9.36,3.96,18.06,9.18,26.8,14.32,9.29,5.47,18.52,11.01,27.75,16.59,4.17,2.53,8.75,4.35,12.66,7.32l-1.65-1.28c.68,.54,1.33,1.1,1.94,1.71,3.03,3.02,8.57,3.26,11.56,0s3.24-8.34,0-11.56c-4.71-4.69-10.84-7.01-16.41-10.41-6.37-3.88-12.73-7.77-19.16-11.55-12.68-7.46-25.17-15.31-38.88-20.79-3.67-1.47-7.42-2.71-11.26-3.66-4.52-1.12-9.28-2.01-13.95-1.52l2.17,16.06c10.15-2.5,19.9-6.34,29.45-10.57,8.92-3.96,17.65-8.34,26.17-13.09,17.05-9.5,33.37-20.38,48.97-32.1,4.34-3.26,8.63-6.6,12.74-10.14,3.54-3.05,7.29-6.05,10.27-9.67,2.09-2.55,4.04-5.19,4.81-8.47s.58-6.29-.16-9.44c-1.2-5.12-4.09-9.48-8.58-12.25-3.81-2.35-8.58-3.62-12.91-4.57-5.33-1.17-10.81-1.79-16.26-2.06-9.93-.48-19.91,.12-29.84,.25s-20.37,.22-30.53,.88-20.98,1.79-31.14,4.18c-2.29,.54-4.55,1.2-6.76,2.01-3.31,1.22-6.14,4.1-6,7.88l.03,.73c.15,4.27,3.65,8.38,8.18,8.18s8.34-3.6,8.18-8.18h0Z"/></g></svg>