<?xml version="1.0" encoding="UTF-8"?><svg id="a" xmlns="http://www.w3.org/2000/svg" viewBox="0 0 88.02 89.15"><defs><style>.b{fill:none;stroke:#fff;stroke-miterlimit:10;stroke-width:3px;}</style></defs><path class="b" d="M82.61,45.11c6.63-5.26,4.63-18.81-4.45-30.28C69.06,3.36,56.32-1.67,49.69,3.58c-6.04,4.79-4.92,16.47,2.2,27.17L2.11,70.22l4.76,6,4.24-3.36,11.24,14.18,4.32-3.43-11.24-14.18,7.45-5.9,11.24,14.18,4.32-3.43-11.24-14.18,29.46-23.35c8.8,9.38,19.92,13.14,25.96,8.35Zm-23.1-15.49c-5.86-7.39-7.63-15.73-3.95-18.64s11.4,.71,17.25,8.1c5.85,7.39,7.62,15.73,3.95,18.64s-11.39-.72-17.25-8.1Z"/></svg>