<?xml version="1.0" encoding="UTF-8" standalone="no"?>
<svg
   id="a"
   viewBox="0 0 84.4 96.34"
   version="1.1"
   sodipodi:docname="mapa.svg"
   inkscape:version="1.1 (c68e22c387, 2021-05-23)"
   xmlns:inkscape="http://www.inkscape.org/namespaces/inkscape"
   xmlns:sodipodi="http://sodipodi.sourceforge.net/DTD/sodipodi-0.dtd"
   xmlns="http://www.w3.org/2000/svg"
   xmlns:svg="http://www.w3.org/2000/svg">
  <sodipodi:namedview
     id="namedview15"
     pagecolor="#505050"
     bordercolor="#ffffff"
     borderopacity="1"
     inkscape:pageshadow="0"
     inkscape:pageopacity="0"
     inkscape:pagecheckerboard="1"
     showgrid="false"
     inkscape:zoom="45.254834"
     inkscape:cx="44.60297"
     inkscape:cy="56.115552"
     inkscape:window-width="2560"
     inkscape:window-height="1057"
     inkscape:window-x="1072"
     inkscape:window-y="302"
     inkscape:window-maximized="1"
     inkscape:current-layer="a" />
  <defs
     id="defs4">
    <style
       id="style2">.b{fill:none;}.b,.c{stroke:#fff;stroke-miterlimit:10;stroke-width:2.74px;}.c{fill:#669;}</style>
  </defs>
  <path
     class="b"
     d="M 52.461474,50.073553 69.63,50.66 c 1.15,0.12 2.01,1.09 2.01,2.24 l 11.39,39.62 c 0,1.35 -1.17,2.39 -2.51,2.24 L 55.83,92.57 c -0.15,-0.02 -0.31,-0.02 -0.46,0 l -26.88,2.4 c -0.21,0.02 -0.41,0 -0.61,-0.03 L 3.21,91.67 C 2.14,91.47 1.36,90.53 1.37,89.43 l 10,-38.89 c 0.01,-1.32 1.16,-2.35 2.47,-2.22 h 0.01 l 17.52,3.04 c 0.16,0.02 0.31,0.01 0.47,0"
     id="path6"
     sodipodi:nodetypes="cccccccccccccccc" />
  <line
     class="b"
     x1="31.6"
     y1="51.39"
     x2="28.19"
     y2="94.99"
     id="line8" />
  <path
     id="line10"
     class="b"
     style="fill:none;stroke:#ffffff;stroke-width:2.74px;stroke-miterlimit:10"
     d="m 50.870483,53.299729 4.729515,39.240272"
     sodipodi:nodetypes="cc" />
  <path
     class="c"
     d="M60.88,33.31h0l-19.17,38.45L23.16,33.32h0c-1.71-3.09-2.68-6.63-2.68-10.41C20.49,11.01,30.13,1.37,42.02,1.37s21.54,9.64,21.54,21.54c0,3.77-.97,7.32-2.68,10.41Z"
     id="path12"
     style="fill:none" />
</svg>
