<?xml version="1.0" encoding="UTF-8" standalone="no"?>
<svg
   id="a"
   viewBox="0 0 69.13 78.41"
   version="1.1"
   sodipodi:docname="power.svg"
   inkscape:version="1.1 (c68e22c387, 2021-05-23)"
   xmlns:inkscape="http://www.inkscape.org/namespaces/inkscape"
   xmlns:sodipodi="http://sodipodi.sourceforge.net/DTD/sodipodi-0.dtd"
   xmlns="http://www.w3.org/2000/svg"
   xmlns:svg="http://www.w3.org/2000/svg">
  <sodipodi:namedview
     id="namedview13"
     pagecolor="#505050"
     bordercolor="#ffffff"
     borderopacity="1"
     inkscape:pageshadow="0"
     inkscape:pageopacity="0"
     inkscape:pagecheckerboard="1"
     showgrid="false"
     inkscape:zoom="8"
     inkscape:cx="3.3125"
     inkscape:cy="42.8125"
     inkscape:window-width="2560"
     inkscape:window-height="1027"
     inkscape:window-x="1072"
     inkscape:window-y="302"
     inkscape:window-maximized="1"
     inkscape:current-layer="a" />
  <defs
     id="defs4">
    <style
       id="style2">.b{fill:#fff;}.c{fill:#669;}.d{fill:none;stroke:#fff;stroke-miterlimit:10;stroke-width:4px;}</style>
  </defs>
  <path
     id="circle6"
     style="color:#000000;fill:#ffffff;stroke-miterlimit:10;-inkscape-stroke:none"
     d="m 57.179688,18.390625 c -1.082996,0 -1.960938,0.902426 -1.960938,2.015625 0.0011,0.510032 0.190215,1.000683 0.529297,1.373047 6.13e-4,0.002 0.0034,0.01204 0.0039,0.01367 5.785765,5.559401 9.388672,13.37276 9.388672,22.046875 0,16.907017 -13.663296,30.570312 -30.570313,30.570312 C 17.663293,74.41016 4,60.746861 4,43.839844 4,35.273787 7.5122695,27.545559 13.171875,22 c 0,0 -0.0048,0.0245 0,0 0.38901,-0.379336 0.615787,-0.933212 0.617187,-1.484375 0,-1.113199 -0.877941,-2.015625 -1.960937,-2.015625 -0.408906,0.0018 -0.807031,0.134978 -1.138672,0.380859 -0.0018,2.05e-4 -0.0041,-1.71e-4 -0.0059,0 -0.172033,0.1511 -0.222321,0.19636 -0.408203,0.410157 C 3.9414842,25.559499 0,34.241057 0,43.839844 c 0,19.068775 15.501537,34.570312 34.570312,34.570312 19.068776,0 34.570313,-15.501537 34.570313,-34.570312 0,-9.709336 -4.029674,-18.483454 -10.492187,-24.767578 -0.371937,-0.433052 -0.906759,-0.681261 -1.46875,-0.681641 z"
     sodipodi:nodetypes="ccccssscccccccssscc" />
  <rect
     class="b"
     x="32.48"
     width="4"
     height="43"
     rx="1.42"
     ry="1.42"
     id="rect10" />
</svg>
