<?xml version="1.0" encoding="UTF-8"?><svg id="a" xmlns="http://www.w3.org/2000/svg" viewBox="0 0 274.36 584.57"><defs><style>.b{fill:#669;}.c{fill:#f2f2f2;}</style></defs><path class="c" d="M271.39,527.79l1.04-3.13c-4.87-5.71-6.46-12.63-4.37-19.05,.56-1.72-3.33-3.06-3.59-4.82-.44-2.91,7.19-3.8,7.54-6.71,.15-1.27-1.2-2.37-2.15-3.48-1.89-2.21-2.28-4.97-1.04-7.37,.56-1.09,1.43-2.09,1.97-3.19,.73-1.5,.8-3.1,.87-4.68,.19-4.7,.39-9.4,.58-14.1,.09-2.07,.16-4.21-.93-6.15-.94-1.67-2.73-3.19-2.8-4.98-.07-1.78,1.58-3.35,2.79-4.94,1.21-1.59,1.94-3.67,.23-5.04-.52-.42-1.23-.73-1.62-1.21-1.12-1.38,1.05-2.92,1.38-4.48,.34-1.59-1.3-3.03-2.43-4.45-2.57-3.23-2.67-7.28-.27-10.56-2.1-1.26-3.06-3.76-2.76-5.64,1.05-.28,2.17-.45,3.31-.5,1.32-2.66,2.66-5.53,1.49-8.22-.72-1.66-2.34-3.1-3.1-4.75-.46-.99-.54-2.17,.46-2.96,.97-.77,2.71-.98,3.55-1.81,1.34-1.34-.61-3.08-2.6-3.99-2-.91-4.48-1.93-4.5-3.54-.02-2.01,3.61-2.93,6.02-4.14,3.75-1.88,5.02-5.66,2.83-8.43-1.48-1.88-4.28-3.35-4.55-5.59-.26-2.16-.15-4.44-.63-6.59-.15-.67,.29-1.15,.03-1.77-.21-.52-1.28-.63-1.29-1.51,0-.92-.02-1.85,.24-2.75,.19-.67,.53-1.34,.46-2.02-.06-.55-.37-1.07-.61-1.6-.61-1.4-.61-2.91,0-4.31-2.01-.98-2.65-3.14-1.8-4.71,.72-1.33,2.45-2.29,3.6-3.49,2.77-2.87,1.84-6.65,.41-9.93s-3.28-6.71-2.05-10.03c.35-.93,.93-1.82,1.17-2.76,.53-2.13-.9-4.42-3.54-5.67,2.08-2.38-.03-5.35-.13-8.1-.05-1.5,.53-3,1.67-4.29,.64-.72,1.44-1.38,1.92-2.16,2.55-4.13-5.23-8.75-2.78-12.91,1.89-3.22,1.77-6.55,.79-9.94-.46-1.58-1.21-3.14-1.27-4.76-.11-3.14,2.43-6.13,2.19-9.26-.13-1.7-1.06-3.31-1.5-4.99-.52-2-.3-4.06-.08-6.09,.61-5.64,1.21-11.28,1.82-16.93,.18-1.68,.31-3.5-1.06-4.92-.74-.77-1.86-1.34-2.67-2.08-2.59-2.39-1.25-5.73,.46-8.46,1.71-2.72,3.73-5.74,2.18-8.51-3.75-6.71-.91-14.63-1.35-21.79-.1-1.63-.23-3.32-1.4-4.75-.91-1.11-2.39-1.96-3.53-2.97-1.14-1.01-1.95-2.36-1.26-3.54,1.31-2.24,6.95-2.38,7.76-4.72,.7-2.01-2.74-3.45-4.2-5.27-1.48-1.83-.86-4.07-1.06-6.14-.29-3.02-2.38-6.12-.85-8.97,.91-1.7,3.09-3.33,2.31-5.06-.69-1.53-3.47-2.34-4.04-3.9-.22-.6-.07-1.22,.06-1.83,1.16-5.24,.89-10.33,.35-15.59-.34-3.33-2.56-8.8-.42-11.89,1.05-1.52,3.3-2.59,4.12-4.17,.57-1.1,.37-2.3,.16-3.46-.6-3.35-1.21-6.71-1.81-10.06-.11-.61-.17-1.33,.52-1.75,.51-.31,1.25-.34,1.87-.53,2.56-.78,1.63-3.28,1.63-5.16,0-1.66,1.13-3.3,3.01-4.38,.87-.5,1.91-.89,2.57-1.52,.77-.73,.93-1.66,1.06-2.55,.45-3.1,.79-6.52-1.95-9.05-.85-.78-1.95-1.44-2.74-2.25-2.46-2.55-1.17-6.05,1.53-8.49,1.11-1,2.44-1.91,3.25-3.03s.99-2.57-.19-3.54c-1.56-1.29-4.93-1.33-5.94-2.84-.32-.49-.32-1.04-.31-1.57,.04-2.28,.08-4.56,.12-6.84,.06-3.37-1.86-7.17,1.71-9.54,.83-.55,1.85-1.09,2-1.87,.09-.48-.17-.95-.5-1.38-2.28-2.92-8.03-4.84-7.74-8.12,.15-1.76,2.1-3.19,2.97-4.85,1.24-2.4-.07-5.28-3.09-6.81-14.38,1.49-29.17,1.17-43.38-.92-9.9-1.46-19.49-3.77-29.4-5.21-9.91-1.45-20.4-2-30.07,.05-1.49,.31-3,.69-4.55,.6-1.96-.12-3.62-.98-5.41-1.52-4.36-1.31-9.91-.57-13.18,1.75-.51-1.93-2.32-4.43-5.12-3.86-1.87,.39-2.92,2.11-4.87,2.01-1.5-.08-2.32-1.22-3.65-1.68-1.85-.64-4.02,.15-5.88,.77-12.99,4.32-29.13,.57-42.81,3.81-19.93,4.73-41.79,.83-62.93,.39-3.21-.07-6.45-.15-9.66-.34V580.47c2.15,.5,4.11,1.34,6.23,1.91,13.21,3.58,29.69-4.09,41.92,.81,6.35,2.55,14.11-.95,21.52-.87,2.52,.03,4.97,.49,7.44,.8,15.09,1.89,30.32-2.06,45.62-2.84,6.84-.35,13.71-.06,20.56,.23,9.87,.42,19.74,.84,29.61,1.26,2.79,.12,5.62,.24,8.36-.14,1.6-.22,3.15-.61,4.76-.82,3.54-.44,7.16,.04,10.71,.41,10.53,1.12,21.27,1.33,31.87,.63,3.7-.24,7.51-.6,11.1,.06,2.28,.42,4.35,1.22,6.56,1.77,4.43,1.1,9.42,1.16,13.91,.17,1.07-.24,2.19-.57,2.77-1.22,.64-.71,.48-1.62,.86-2.41,.34-.69,1.07-1.26,1.71-1.85,3.83-3.49,4.8-7.98,5.64-12.27,.69-3.48,1.26-7.31-1.68-10.21-1.15-1.14-2.81-2.09-3.41-3.41-2.11-4.65,10.2-8.7,6.9-13.03-.48-.63-1.26-1.15-1.65-1.81-1.06-1.8,1.13-3.63,2.41-5.37,1.28-1.74,.54-4.67-2.35-4.48Z"/><g><path class="b" d="M71.48,398.1c.04-.45,.09-.9,.15-1.35l-.29,2.17c.78-5.6,2.79-10.92,4.04-16.42s2.23-11.4,3.19-17.13c1.95-11.68,4.5-23.19,7.17-34.73,2.67-11.54,5.38-23.08,7.93-34.65s5-23.15,8.03-34.62c1.67-6.34,3.26-12.73,5.3-18.96,1-3.04,2.1-6.05,3.2-9.06,1.01-2.78,1.35-5.46,1.73-8.4l-.29,2.17c.18-1.31,.4-2.6,.89-3.83l-.82,1.95c.19-.43,.41-.83,.68-1.22l-1.28,1.65c.29-.37,.59-.68,.96-.97l-1.65,1.28,.23-.16h-8.25c.16,.07,.31,.17,.45,.28l-1.65-1.28c.22,.19,.41,.39,.6,.62l-1.28-1.65c1.26,1.71,2.13,3.86,3.15,5.72,1.38,2.5,2.65,5.06,3.77,7.69l-.82-1.95c2.09,5,4.27,9.92,6.69,14.76,2.1,4.21,4.28,8.38,6.34,12.61,4.2,8.64,8.39,17.33,12.13,26.18l-.82-1.95c7.69,18.34,13.14,37.54,20.32,56.07,2.2,5.68,4.82,11.15,7.21,16.74l-.82-1.95c1.86,4.42,3.01,8.97,3.9,13.67,.44,2.32,.91,4.64,1.74,6.86,1.02,2.71,2.32,5.3,3.46,7.96l-.82-1.95c1.57,3.75,1.9,7.74,3.08,11.6,.57,1.86,1.35,3.66,2.01,5.48,.9,2.5,1.86,5,3.07,7.36,1.96,3.81,7.61,5.24,11.19,2.93,3.88-2.5,5.03-7.11,2.93-11.19-.34-.67-.66-1.35-.96-2.04l.82,1.95c-1.75-4.19-3.38-8.54-4.27-13-.44-2.19-.87-4.36-1.69-6.44-1.03-2.63-2.27-5.15-3.38-7.75l.82,1.95c-2.11-5.07-2.45-10.61-4-15.84-1.75-5.87-4.63-11.29-7.02-16.91l.82,1.95c-3.1-7.36-5.7-14.9-8.3-22.45s-5.29-15.13-8.01-22.67c-2.86-7.91-5.81-15.74-9.23-23.43-3.14-7.06-6.49-14.03-9.85-20.98-3.82-7.9-8.08-15.58-11.51-23.67l.82,1.95c-1.71-4.1-3.46-8.12-5.6-12.01-1.87-3.4-3.39-7.41-7.02-9.34-2.49-1.32-5.79-1.65-8.25,0-2.96,1.98-4.87,4.65-5.92,8.05-.69,2.25-.81,4.67-1.12,6.99l.29-2.17c-.3,2.18-1.12,4.15-1.87,6.22-.99,2.71-1.96,5.43-2.84,8.17-1.78,5.55-3.19,11.24-4.69,16.87-3.02,11.38-5.51,22.85-8.02,34.36-2.51,11.49-5.2,22.95-7.85,34.41-2.63,11.38-5.27,22.74-7.2,34.26-1.07,6.36-2.08,12.74-3.5,19.04-1.52,6.78-3.86,13.22-4.53,20.19-.19,1.97,1.05,4.44,2.39,5.78,1.42,1.42,3.74,2.49,5.78,2.39s4.31-.79,5.78-2.39,2.18-3.51,2.39-5.78h0Z"/><path class="b" d="M85.4,336.31c4.62,0,9.25,0,13.87,0,3.67,0,7.38-.17,11.04,.08,2.54,.18,5.08,.4,7.63,.34,3.72-.09,8.41-.67,10.99-3.74,1.42-1.7,2.39-3.49,2.39-5.78,0-2.01-.89-4.4-2.39-5.78-3.03-2.78-8.63-3.5-11.56,0-.1,.12-.19,.21-.31,.31l1.65-1.28c-.23,.17-.48,.3-.74,.41l1.95-.82c-.62,.23-1.25,.36-1.9,.46l2.17-.29c-3.93,.49-7.83-.24-11.75-.26-7.68-.04-15.36,0-23.04,0-4.28,0-8.37,3.76-8.18,8.18s3.59,8.18,8.18,8.18h0Z"/></g></svg>