<?xml version="1.0" encoding="UTF-8"?><svg id="a" xmlns="http://www.w3.org/2000/svg" viewBox="0 0 223.48 586.87"><defs><style>.b{fill:#669;}.c{fill:#f2f2f2;}</style></defs><path class="c" d="M198.36,3.5c-5.58-1.47-11.04-3.83-17.01-3.46-6.12,.38-11.22,3.59-17.34,4-6.76,.45-12.9-2.6-19.6-3.34-3.69-.41-7.48-.11-11.18,.28-11.7,1.25-23.39,3.45-35.2,2.78-3.91-.23-7.91-.76-11.69-.06-1.49,.28-2.9,.74-4.4,.98-2.47,.39-5.05,.16-7.57-.05-5.59-.45-11.2-.72-16.82-.95-2.45-.1-5.32-.49-7.72-.29-2.79,.23-5.11,1.05-7.99,.43-1.67-.36-3.14-1.13-4.88-1.29-3.76-.36-7.15,2.17-10.91,1.8-1.67-.17-3.09-.89-4.66-1.31-1.57-.43-3.67-.45-4.64,.47-.15,.14-.27,.31-.48,.41-.92,.46-1.78-.59-2.62-1.11-1.3-.82-3.89,.04-3.71,1.22-.82,.47-1.78-.41-2.58-.9-1.21-.74-3.12-.59-4.66-.2-.9,.23-1.79,.5-2.7,.7V580.67c1.02-.21,2.05-.41,3.07-.62,1.5-.3,3.1-.61,4.61-.32,2.04,.39,3.32,1.73,5.14,2.45,5.54,2.2,11.97-2.05,18.41-2.28,2.54-.09,5.01,.46,7.45,.93,5.23,1.01,10.61,1.68,16.03,1.99,3.1,.18,6.38,.21,9.11-.78,2.73-.99,4.57-3.36,3.19-5.22,2.15-1.18,5.46-.46,7.61,.72,2.15,1.18,3.85,2.78,6.38,3.55,5.25,1.61,11.18-.99,16.96-1.07,3.34-.04,6.55,.77,9.7,1.49,8.92,2.06,18.13,3.54,27.47,4.43,2,.19,4.2,.32,5.88-.43s2.08-2.75,.26-3.33c.34-1.01,2.63-1.05,3.87-.43s2.05,1.61,3.41,2.11c1.59,.58,3.53,.35,5.33,.25,10.58-.59,20.97,3.81,31.4,2.51,9.96-1.24,18.88-7.51,28.58-5.56,2.37,.48,4.46,1.42,6.75,2.04,.94,.25,1.89,.44,2.86,.59V6.11c-8.52-.18-17.2-.52-25.12-2.61Z"/><path class="b" d="M83.73,227.89c12.69,2.24,25.46,1.09,38.25,1.24,12.99,.14,25.87,.57,38.76-1.44,6.38-.99,12.67-2.6,19.06-3.52l-2.17,.29c.85-.1,1.68-.15,2.54-.06l-2.17-.29c.43,.08,.83,.19,1.24,.35l-1.95-.82c.28,.14,.53,.28,.79,.46l-1.65-1.28c.41,.32,.75,.66,1.08,1.06l-1.28-1.65c.38,.51,.68,1.05,.94,1.63l-.82-1.95c.59,1.41,.91,2.89,1.12,4.39l-.29-2.17c.47,3.72,.24,7.47,.08,11.21s-.1,7.62-.1,11.43v23.87c0,15.88,.01,31.76-.03,47.64-.01,4.44-.02,8.88,0,13.32,.03,4.16,.17,8.32-.37,12.46l.29-2.17c-.49,3.44-1.45,6.75-2.79,9.96l.82-1.95c-1.81,4.23-4.18,8.16-6.98,11.81l1.28-1.65c-4.83,6.21-10.82,11.71-17.03,16.52l1.65-1.28c-4.8,3.68-10,6.51-15.56,8.86l1.95-.82c-15.98,6.69-33.08,10.57-50.2,12.88l2.17-.29c-5.1,.68-10.21,1.29-15.32,1.84-2.52,.27-5.04,.51-7.56,.76-1.75,.17-3.52,.44-5.28,.21l2.17,.29c-.49-.08-.96-.21-1.42-.38l1.95,.82c-.37-.17-.71-.36-1.05-.59l1.65,1.28c-.45-.35-.83-.73-1.18-1.18l1.28,1.65c-.15-.2-.3-.41-.43-.63-2.33-3.58-7.35-5.4-11.19-2.93-3.58,2.31-5.43,7.35-2.93,11.19,1.99,3.06,4.75,5.54,8.38,6.42,2.48,.6,4.83,.52,7.32,.27,5.44-.55,10.88-1.09,16.3-1.74,11.37-1.37,22.7-2.99,33.83-5.74,10.46-2.59,20.84-5.93,30.65-10.43,9.68-4.45,17.89-11.26,25.41-18.72s14.03-16.89,16.89-27.37c1.39-5.08,1.71-10.4,1.65-15.64-.06-5.59-.06-11.18-.04-16.77,.06-22.43,.03-44.85,.03-67.28,0-5.45-.11-10.91,.12-16.36s.48-10.58-.93-15.65c-.78-2.81-2.18-5.69-4.36-7.69-2.74-2.52-6.41-3.85-10.14-3.5-2.69,.25-5.3,.88-7.96,1.35s-5.31,1-7.97,1.5-5.32,.97-8,1.34l2.17-.29c-8.84,1.18-17.78,1.11-26.68,.96s-17.59,.02-26.4,.1c-4.9,.04-9.81-.09-14.68-.73l2.17,.29c-.93-.13-1.86-.27-2.79-.44-2.21-.39-4.3-.35-6.3,.82-1.7,.99-3.31,2.94-3.76,4.89-.91,3.98,1.21,9.26,5.71,10.06h0Z"/></svg>