<?xml version="1.0" encoding="UTF-8"?><svg id="a" xmlns="http://www.w3.org/2000/svg" viewBox="0 0 263.46 581.29"><defs><style>.b{fill:#669;}.c{fill:#f2f2f2;}</style></defs><path class="c" d="M258.61,2.16c-1.67-.17-3.09-.89-4.66-1.31-1.57-.43-3.67-.45-4.64,.47-.15,.14-.27,.31-.48,.41-.92,.46-1.78-.59-2.62-1.11-1.3-.82-3.89,.04-3.71,1.22-.82,.47-1.78-.41-2.58-.9-1.21-.74-3.12-.59-4.66-.2-1.54,.39-3.04,.97-4.68,.94-1.4-1.47-4.82-1.83-6.83-.73-.43,.24-.82,.54-1.36,.64-.91,.18-1.81-.26-2.74-.4-2.33-.35-4.24,1.17-6.41,1.85-1.23,.39-2.6,.51-3.94,.61-2.92,.22-5.84,.38-8.78,.48-1.02,.03-2.05,.06-3.04-.11-1.18-.2-2.21-.66-3.28-1.04-4.9-1.74-10.72-1.75-16.26-1.72C167.87,.19,157.35-.17,147.16,.07c-1.11,.03-2.25,.07-3.23,.42-1.13,.41-1.86,1.17-2.8,1.74-2.29,1.39-5.64,1.59-8.74,1.73-4.47,.19-8.94,.38-13.4,.57-.39,.02-.78,.03-1.15-.05-.65-.14-1.08-.54-1.65-.79-1.58-.7-3.68-.11-5.29,.55s-3.45,1.43-5.25,1.05c-.87-.18-1.57-.62-2.29-.99-4.18-2.16-9.74-2.57-15-2.91-4.9-.31-9.82-.09-14.63,.63-3.53,.52-7.14,1.32-10.69,.86-3.36-.43-6.53-1.98-9.89-1.55-1.79,.22-3.33,.98-5.08,1.3-2.88,.52-5.89-.2-8.86-.39-4-.26-7.98,.47-11.93,.97-3.95,.51-8.19,.78-11.87-.3-1.14-.34-2.2-.8-3.39-1.05s-2.6-.25-3.57,.27c-.51,.28-.86,.67-1.36,.96-1.01,.58-2.5,.63-3.79,.41-1.15-.2-2.21-.58-3.3-.91V564.79c11.34,.09,22.68,.96,33.84,2.31,6.79,.82,13.53,1.81,20.21,2.96,3.05,.53,6.22,1.14,8.5,2.59,2.28,1.45,3.3,4.01,1.41,5.69,12.77-.35,25.54-.7,38.31-1.06,2.2-.06,4.47-.11,6.5,.45,1.69,.47,3.2,1.36,5.03,1.4,3.08,.07,5-2.19,7.73-3.14,4.61-1.6,10.77,.76,15.23-1.01,1.37-.54,2.38-1.42,3.67-2.06,4.95-2.46,12.01-.75,17.24,1.43,5.24,2.18,10.87,4.88,16.94,4.15,10.3-1.25,20.96,1.36,31.43,1.51,2,.03,4.01,.06,5.94,.41,1.44,.26,2.83,.69,4.31,.81,1.93,.16,3.85-.22,5.7-.6,4.55-.92,9.1-1.85,13.65-2.77,1.5-.31,3.1-.61,4.61-.32,2.04,.39,3.32,1.73,5.14,2.45,5.44,2.16,11.74-1.89,18.06-2.26V1.44c-1.59,.47-3.18,.89-4.85,.72Z"/><path class="b" d="M81.74,222.36c8.57,0,17.15,.47,25.67,1.28s16.81,2.02,25.29,2.47,17.25,.56,25.88,.76,17.2,.62,25.81,.83c4.79,.12,9.58,.18,14.37,.18,3.26,0,6.53-.84,9.79-.46l-2.17-.29c.45,.07,.87,.16,1.29,.32l-1.95-.82c.25,.11,.48,.23,.69,.4l-1.65-1.28c.13,.11,.25,.23,.36,.37l-1.28-1.65c.1,.14,.18,.28,.25,.43l-.82-1.95c.08,.2,.13,.4,.17,.61l-.29-2.17c.04,.33,.03,.66-.01,.99l.29-2.17c-.1,.63-.29,1.23-.53,1.81l.82-1.95c-.9,2.11-2.25,4.01-3.64,5.82l1.28-1.65c-1.94,2.5-4.05,4.85-6.22,7.15-2.56,2.71-5.03,5.5-7.65,8.15-8.66,8.78-18.21,16.6-27.52,24.66-9.5,8.22-18.4,16.95-26.91,26.19s-16.98,18.87-25.99,27.81c-5.22,5.18-10.45,10.34-15.55,15.64-2.54,2.64-5.07,5.29-7.5,8.03-2.71,3.08-4.83,6.58-7.3,9.84l1.28-1.65c-1.72,2.2-3.72,4.16-5.18,6.55-.95,1.56-1.21,3.43-.97,5.21,.25,1.9,1.02,3.21,2.25,4.69,2.81,3.4,7.24,5.37,11.36,6.62,3.37,1.02,6.88,1.64,10.33,2.31,9.62,1.86,19.4,2.67,29.1,3.97l-2.17-.29c9.53,1.3,19.01,2.02,28.62,2.29s18.23,.52,27.35,.85c5.13,.18,10.25,.32,15.38,.29,4.28-.02,8.37-3.75,8.18-8.18s-3.59-8.2-8.18-8.18c-8.72,.04-17.42-.39-26.13-.71s-17.23-.34-25.83-.79c-4.96-.26-9.91-.66-14.83-1.32l2.17,.29c-7.35-1-14.72-1.8-22.08-2.79l2.17,.29c-4.3-.59-8.55-1.33-12.8-2.21-3.25-.67-6.52-1.29-9.59-2.56l1.95,.82c-1.24-.54-2.42-1.17-3.49-2l1.65,1.28c-.59-.48-1.11-.99-1.6-1.57l1.28,9.91c.29-.47,.6-.92,.93-1.36l-1.28,1.65c1.67-2.12,3.47-4.09,5.06-6.29,1.31-1.82,2.53-3.72,3.9-5.5l-1.28,1.65c3.6-4.59,7.9-8.73,11.98-12.88s8.12-8.15,12.2-12.2c8.03-7.97,15.57-16.38,23.19-24.73s15.3-16.43,23.65-23.95,16.58-14.17,24.67-21.49c6.07-5.49,11.65-11.39,17.24-17.34,1.97-2.09,3.87-4.24,5.64-6.51,2.48-3.18,4.81-6.34,6.08-10.22,1.62-4.93-.15-10.58-4.84-13.1s-9.94-1.04-15.07-1.02c-12.08,.03-24.13-.55-36.2-.9-12.1-.35-24.23-.29-36.3-1.27-5.97-.49-11.91-1.34-17.87-1.95s-11.99-1-18-1.23c-2.97-.11-5.93-.17-8.9-.17-4.28,0-8.37,3.76-8.18,8.18s3.59,8.17,8.18,8.18h0Z"/></svg>