<?xml version="1.0" encoding="UTF-8"?><svg id="a" xmlns="http://www.w3.org/2000/svg" viewBox="0 0 871.83 323"><defs><style>.b{fill:#669;}.c{fill:#f2f2f2;}</style></defs><path class="c" d="M6.03,5.78l-2.61,4.75c-.17,.3-.34,.63-.23,.94,.1,.31,.43,.55,.73,.79,3.21,2.57,4.99,6.59,2.91,9.75-.98,.86-3.11,.8-4.11,1.66-1.57,1.5,.83,3.11,1.43,4.54,.8,2.02-1.34,4.01-1.78,6.08-.31,1.42,.22,2.91,1.45,4.08,.42,.4,.94,.87,.66,1.32-.23,.37-.88,.51-1.26,.81-.97,.76,.18,1.85,.73,2.78,.55,.94,.4,2.04-.38,2.9-.34,.38-.81,.71-1,1.14-.37,.81,.36,1.64,.8,2.43,.73,1.32,.67,2.83-.17,4.11-.29,.45-.67,.94-.38,1.39,.21,.31,.69,.49,1.02,.76,.95,.77,.32,1.91,.38,2.91,.06,1,.86,1.91,1.42,2.84s.87,2.06,.02,2.89c-.53,.51-1.41,.81-2.13,1.21s-1.33,1.03-1.02,1.62c.16,.3,.53,.52,.81,.78,1.77,1.66-.52,4.35,1.52,5.86-.46,1.25-2.26,2.25-2.9,3.46-.52,.97-.41,2.04-.31,3.07l2.09,20.15c.11,1.02,.21,2.06-.13,3.05-.33,.98-1.08,1.87-1.5,2.84-1.26,2.93,.67,6.08,.13,9.11-.32,1.74-1.45,3.43-1.16,5.17,.41,2.48,3.64,4.59,3.26,7.07-.3,2.03-3.32,4.07-1.76,6.14-1.93,3.64,2.17,7.49,1.02,11.28-.5,1.65-2.07,3.11-2.4,4.79-.77,3.98,6.03,8.14,1.73,11.93-.43,.57-.4,1.86-.17,2.49,.26,.24,.94,.13,1.17,.38,.37,.41-1.01,.85-.63,1.25,.13,.13,.39,.17,.58,.26,.69,.35-.04,1.16,.44,1.64,.36,.36,1.3,.39,1.48,.81,.11,.27-.16,.53-.41,.75-1.03,.88-1.93,1.86-2.47,2.92-.39,.78-1.15,1.97-.17,2.61,.42,.27,.94,.55,.97,.94,.02,.23-.14,.49,.02,.7,.22,.29,.86,.26,1.33,.18,.35,1.07-.59,2.14-.7,3.23-.13,1.39,1.09,2.86,.23,4.13-.48,.72-1.61,1.34-1.41,2.12,.11,.41,.57,.74,.92,1.09,1.65,2.28,1.83,4.98,2.57,7.45,.15,1.57,1.53,2.86,1.2,4.45-.11,.95-.39,1.91-.16,2.85,1.57,3.03,2.67,6.32,.91,9.45-.35,.69-.79,1.42-.49,2.13,.18,.41,.59,.75,.89,1.12,1.02,1.27,.65,2.97-.88,3.98-.4,.27-.89,.51-1.06,.87-.14,.28-.05,.59-.01,.89,.17,1.34-.76,2.72-2.37,3.52-1.38,.68-3.27,1.02-4.08,2.03-.6,.76-.35,1.77,.58,2.36,.63,.4,1.52,.6,2.03,1.07,.76,.69,.42,1.65,.4,2.52-.05,1.6,1.09,3.1,2.2,4.52,.33,.42,.21,.82,.31,1.29s-.03,1.02-.62,1.28c-.19,.09-.43,.14-.56,.27-.42,.4,.46,1.13-.19,1.35-.2,.07-.45,.02-.68,.03-1.32,.09-1.18,1.29-1.85,1.84-.71,.58-2.36,.8-2.23,1.54,.15,.83,2.24,.67,2.94,1.36,.4,.4,.19,.94,.43,1.4,.33,.62,1.63,.91,2.45,.54-.43,.76,.83,1.45,1.23,2.22,.6,1.59-1.01,3.22-.68,4.81,.2,.58,.88,1.02,1.41,1.49,1.09,.98,1.6,2.19,2.06,3.37,1.15,2.95,2.13,5.93,2.93,8.93,.35,1.29,.78,2.72,2.38,3.47,1.22,.57,2.8,.61,4.28,.75,2.41,.24,4.73,.83,6.76,1.72,3.06,1.35,4.81,3.62,8.37,4.17,.89,.14,1.85,.23,2.52,.64,.67,.41,.9,1.05,1.48,1.52,1.98,1.63,6.5,.4,8.74,1.88,1.12,.75,1.23,1.91,1.69,2.92,1,2.22,4.09,3.94,7.53,4.21,2.05,.03,3.13,.57,2.94,2.02-.25,3-2.78,5.92-1.82,8.85,.36,1.1,1.21,2.21,.81,3.3-.24,.66-.92,1.22-1.21,1.88-1.12,2.9,4.03,4.65,5.34,7.07,.91,1.68,.49,3.97,2.83,4.82,.9,.33,1.99,.31,3.01,.29l21.52-.46c3.77-.08,7.57-.16,11.31,.19,2.69,.25,5.41,.73,8.09,.41,1.23-.15,2.42-.46,3.67-.46,2,0,3.95,.82,5.9,.53,.77-.12,1.46-.4,2.23-.51,1.24-.19,2.51,.08,3.76,.24,2.89,.37,5.95,.16,8.67-.6,2.43,.42,4.8,1.02,6.75,2.08,2.24,1.66,5,1.27,7.61,.04,1.76-.79,3.61-1.75,5.73-1.64,1.38,.07,2.62,.61,3.97,.82,1.66,.25,3.38,0,5.08,.06,2.09,.07,4.16,.59,6.23,.41,1.42-.13,2.77-.58,4.2-.53,1.83,.06,3.8,.92,5.34,.25,.56-.3,1.12-.61,1.88-.65,3.89-.46,7.98-.18,11.65,.8,2.72,.76,6.09,1.99,8.86,.71,1-.49,1.7-1.31,2.9-1.5,2.06-.32,3.89,1.03,6.02,.86,2.71-.21,5.41-.41,8.15-.49,5.45-.15,10.92,.05,16.31,.61,.83,.09,1.68,.18,2.5,.05s1.59-.55,1.69-1.11c.05-.28-.08-.55-.08-.83,0-1.28,2.29-1.91,4.15-2.21l10.9-1.71c.55-.09,1.15-.2,1.43-.52,.23-.27,.17-.61,.36-.89,.43-.65,2.01-.59,2.63-.01s.49,1.38,.09,2.03-1.03,1.25-1.37,1.92-.3,1.5,.47,1.99c1.08,.67,2.93,.33,4.16,.87,.32,.15,.64,.36,1.03,.34,.33-.01,.58-.19,.85-.32,2.36-1.16,5.85,1.19,8.46,.3,1.05-.36,1.58-1.13,2.14-1.82,1.38-1.71,3.32-3.18,5.25-4.64,.95-.72,1.95-1.46,3.26-1.87,2.47-.76,5.83-.26,7.62-1.63,.35-.27,.63-.6,1.1-.76,.77-.26,1.71,.04,2.57-.03,1.9-.14,3.27-1.98,5.03-1.48l.79-.77,.71,4.54c.24,1.55,.47,3.16-.32,4.63-.32,.58-.79,1.13-.91,1.74s.23,1.34,1.1,1.55c1.36,.34,3.32-.65,4.11,.16,2.28,.23,4.8,.39,7.1,.33,2.14-.05,4.25-.35,6.39-.37,2.86-.03,5.72,.44,8.57,.25,1.13-.08,2.24-.25,3.37-.26s2.33,.18,3.13,.72c.23-.7,.21-1.43-.08-2.12,1.54-.3,3.25,.15,4.76-.21,.6-.14,1.11-.41,1.69-.58,2.97-.9,6.72,.71,9.61-.3,.54-.19,1.02-.47,1.24-.85,.17-.3,.16-.64,.35-.93,.29-.44,1.02-.69,1.73-.72s1.41,.14,2.05,.35c2.03,.68,3.65,1.89,4.43,3.31,.47,.85,.77,1.87,1.98,2.27,8.65,2.88,19.16,.57,28.82,.34l14.94-.35c2.2-.05,4.45-.11,6.51-.63,2.11-.54,3.9-1.54,5.95-2.18s4.69-.85,6.42,.12c.15-1.54,3.03-2.64,5.09-1.94-.83,.45,.77,1.07,1.82,.98l7.43-.62c4.15-.35,8.61-.79,11.58-2.76,1.67-1.11,3.1-2.75,5.45-2.77,2.42-.02,3.98,1.74,6.24,2.32,1.43,.37,3.03,.23,4.55,.12,9.45-.68,19.02-.15,28.37,.98,3.74,.45,7.45,.99,11.12,1.63,1.68,.29,3.42,.63,4.68,1.43s1.82,2.21,.77,3.13l21.09-.58c1.21-.03,2.46-.06,3.58,.25,.93,.26,1.76,.75,2.77,.77,1.69,.04,2.75-1.2,4.26-1.73,2.54-.88,5.93,.42,8.38-.56,.76-.3,1.31-.78,2.02-1.13,2.72-1.36,6.61-.41,9.49,.79,2.88,1.2,5.98,2.69,9.32,2.28,5.67-.69,11.54,.75,17.3,.83,1.1,.02,2.21,.03,3.27,.22,.79,.14,1.56,.38,2.37,.45,1.06,.09,2.12-.12,3.14-.33l7.51-1.52c.83-.17,1.71-.34,2.54-.18,1.12,.21,1.82,.95,2.83,1.35,3.05,1.21,6.59-1.13,10.13-1.26,1.4-.05,2.76,.25,4.1,.51,2.88,.56,5.84,.92,8.82,1.1,1.7,.1,3.51,.12,5.02-.43s2.52-1.85,1.76-2.87c1.18-.65,3-.25,4.19,.4,1.18,.65,2.12,1.53,3.51,1.95,2.89,.88,6.16-.55,9.33-.59,1.84-.02,3.6,.42,5.34,.82,4.91,1.13,9.98,1.95,15.12,2.44,1.1,.1,2.31,.18,3.24-.24s1.14-1.51,.14-1.83c.19-.56,1.44-.58,2.13-.24s1.13,.89,1.88,1.16c.88,.32,1.94,.19,2.94,.14,5.82-.32,11.54,2.09,17.28,1.38,5.48-.68,10.39-4.13,15.73-3.06,1.3,.26,2.45,.78,3.71,1.12,7.27,1.97,16.34-2.25,23.07,.44,3.5,1.4,7.77-.52,11.84-.48,1.39,.01,2.74,.27,4.1,.44,8.3,1.04,16.69-1.14,25.11-1.56,3.76-.19,7.55-.03,11.32,.13l16.3,.69c1.54,.07,3.09,.13,4.6-.08,.88-.12,1.73-.34,2.62-.45,1.95-.24,3.94,.02,5.9,.23,5.79,.62,11.7,.73,17.54,.35,2.04-.13,4.13-.33,6.11,.03,1.25,.23,2.39,.67,3.61,.97,2.44,.61,5.19,.64,7.66,.09,.59-.13,1.21-.32,1.53-.67,.35-.39,.26-.89,.48-1.33,.18-.38,.59-.69,.94-1.02,2.11-1.92,2.64-4.39,3.11-6.75,.38-1.91,.69-4.02-.92-5.62-.63-.63-1.55-1.15-1.88-1.88-1.16-2.56,5.61-4.79,3.8-7.17-.26-.35-.7-.63-.91-1-.58-.99,.62-2,1.32-2.96s.29-2.57-1.29-2.47l.57-1.72c-2.68-3.14-3.55-6.95-2.41-10.49,.31-.95-1.83-1.68-1.98-2.65-.24-1.6,3.96-2.09,4.15-3.69,.08-.7-.66-1.3-1.18-1.91-1.04-1.21-1.25-2.73-.57-4.06,.31-.6,.79-1.15,1.08-1.75,.4-.83,.44-1.71,.48-2.58l.32-7.76c.05-1.14,.09-2.32-.51-3.39-.52-.92-1.5-1.76-1.54-2.74-.04-.98,.87-1.84,1.54-2.72,.67-.87,1.07-2.02,.13-2.77-.29-.23-.68-.4-.89-.67-.61-.76,.58-1.61,.76-2.46,.18-.88-.71-1.67-1.34-2.45-1.41-1.78-1.47-4-.15-5.81-1.16-.7-1.68-2.07-1.52-3.1,.58-.16,1.2-.25,1.82-.28,.73-1.47,1.46-3.04,.82-4.52-.4-.92-1.29-1.71-1.71-2.62-.25-.54-.3-1.19,.25-1.63,.53-.42,1.49-.54,1.95-1,.74-.74-.33-1.7-1.43-2.2s-2.47-1.06-2.47-1.95c-.01-1.11,1.99-1.61,3.31-2.28,2.06-1.04,2.76-3.11,1.56-4.64-.82-1.04-2.35-1.84-2.5-3.07-.14-1.19-.08-2.45-.35-3.62-.08-.37,.16-.63,.02-.98-.12-.29-.7-.34-.71-.83,0-.51,0-1.02,.13-1.51,.1-.37,.29-.74,.25-1.11-.03-.3-.21-.59-.33-.88-.33-.77-.34-1.6,0-2.37-1.11-.54-1.46-1.73-.99-2.59,.4-.73,1.35-1.26,1.98-1.92,1.52-1.58,1.01-3.66,.22-5.46s-1.81-3.69-1.13-5.52c.19-.51,.51-1,.64-1.52,.29-1.17-.49-2.43-1.95-3.12,1.15-1.31-.02-2.94-.07-4.46-.03-.82,.29-1.65,.92-2.36,.35-.4,.79-.76,1.06-1.19,1.4-2.27-2.88-4.81-1.53-7.1,1.04-1.77,.97-3.6,.43-5.47-.25-.87-.67-1.73-.7-2.62-.06-1.73,1.33-3.37,1.2-5.1-.07-.93-.59-1.82-.82-2.75-.28-1.1-.16-2.23-.05-3.35l1-9.32c.1-.93,.17-1.93-.58-2.71-.41-.42-1.03-.74-1.47-1.15-1.43-1.32-.69-3.16,.25-4.66s2.05-3.16,1.2-4.69c-2.06-3.69-.5-8.05-.74-11.99-.05-.9-.12-1.83-.77-2.61-.5-.61-1.31-1.08-1.94-1.64s-1.07-1.3-.69-1.95c.72-1.23,3.82-1.31,4.27-2.6,.38-1.1-1.51-1.9-2.31-2.9-.81-1.01-.47-2.24-.58-3.38-.16-1.66-1.31-3.37-.47-4.94,.5-.94,1.7-1.83,1.27-2.78-.38-.84-1.91-1.29-2.22-2.15-.12-.33-.04-.67,.03-1.01,.64-2.89,.49-5.68,.19-8.58-.19-1.83-1.41-4.85-.23-6.55,.58-.84,1.82-1.43,2.27-2.3,.31-.61,.2-1.27,.09-1.9l-1-5.54c-.06-.34-.09-.73,.29-.96,.28-.17,.69-.19,1.03-.29,1.41-.43,.9-1.81,.9-2.84,0-.91,.62-1.82,1.66-2.41,.48-.28,1.05-.49,1.42-.84,.42-.4,.51-.92,.58-1.4,.25-1.71,.43-3.59-1.07-4.98-.47-.43-1.08-.79-1.51-1.24-1.36-1.4-.64-3.33,.84-4.67,.61-.55,1.34-1.05,1.79-1.67s.54-1.41-.1-1.95c-.86-.71-2.72-.73-3.27-1.56-.18-.27-.18-.57-.17-.86l.07-3.76c.03-1.85-1.03-3.95,.94-5.25,.46-.3,1.02-.6,1.1-1.03,.05-.26-.09-.52-.28-.76-1.25-1.6-4.42-2.66-4.26-4.47,.08-.97,1.16-1.76,1.63-2.67,.68-1.32-.04-2.91-1.7-3.75-7.91,.82-16.05,.65-23.87-.51-5.45-.8-10.73-2.07-16.18-2.87-5.45-.8-11.23-1.1-16.55,.03-.82,.17-1.65,.38-2.51,.33-1.08-.07-1.99-.54-2.98-.84-2.4-.72-5.45-.31-7.26,.97-.28-1.06-1.28-2.44-2.82-2.12-1.03,.21-1.61,1.16-2.68,1.11-.82-.04-1.28-.67-2.01-.92-1.02-.35-2.21,.08-3.24,.42-7.15,2.38-16.04,.31-23.56,2.1-10.97,2.6-23,.46-34.64,.22-4.79-.1-9.68-.27-14.14-1.44-3.07-.81-6.08-2.11-9.36-1.9-3.37,.21-6.18,1.98-9.54,2.2-3.72,.25-7.1-1.43-10.79-1.84-2.03-.23-4.12-.06-6.15,.15-6.44,.69-12.87,1.9-19.37,1.53-2.15-.12-4.36-.42-6.44-.03-.82,.15-1.59,.41-2.42,.54-1.36,.21-2.78,.09-4.17-.03-3.08-.25-6.17-.4-9.26-.52-1.35-.05-2.93-.27-4.25-.16-1.54,.13-2.81,.58-4.4,.24-.92-.2-1.73-.62-2.69-.71-2.07-.2-3.93,1.2-6,.99-.92-.09-1.7-.49-2.56-.72s-2.02-.25-2.55,.26c-.08,.08-.15,.17-.26,.22-.51,.25-.98-.32-1.44-.61-.72-.45-2.14,.02-2.04,.67-.45,.26-.98-.22-1.42-.49-.66-.41-1.72-.32-2.57-.11s-1.67,.53-2.58,.52c-.77-.81-2.65-1.01-3.76-.4-.24,.13-.45,.3-.75,.35-.5,.1-1-.14-1.51-.22-1.28-.19-2.34,.64-3.53,1.02-.67,.21-1.43,.28-2.17,.34-1.61,.12-3.22,.21-4.83,.27-.56,.02-1.13,.03-1.67-.06-.65-.11-1.22-.36-1.81-.57-2.7-.95-5.9-.96-8.95-.95-5.54-.59-11.33-.79-16.94-.66-.61,.01-1.24,.04-1.78,.23-.62,.22-1.02,.64-1.54,.96-1.26,.77-3.11,.88-4.81,.95l-7.38,.32c-.21,0-.43,.02-.63-.03-.36-.08-.6-.3-.91-.44-.87-.38-2.03-.06-2.91,.3s-1.9,.79-2.89,.58c-.48-.1-.86-.34-1.26-.54-2.3-1.19-5.36-1.41-8.25-1.6-2.7-.17-5.4-.05-8.05,.35-1.94,.29-3.93,.73-5.88,.47-1.85-.24-3.59-1.09-5.44-.86-.98,.12-1.83,.54-2.8,.72-1.58,.29-3.24-.11-4.87-.22-2.2-.14-4.39,.26-6.57,.54s-4.51,.43-6.53-.17c-.63-.19-1.21-.44-1.87-.58s-1.43-.14-1.96,.15c-.28,.15-.47,.37-.75,.53-.55,.32-1.38,.35-2.09,.22s-1.35-.38-2.02-.57c-2.95-.84-6.62-.41-8.97,1.05-1.74,1.08-4.52,1.31-6.78,.8-.7-.16-1.37-.39-2.06-.56-.77-.19-1.59-.31-2.41-.36-4.09-.26-8.23,1.03-12.23,.44-1.61-.24-3.09-.77-4.68-1.05-2.54-.45-5.23-.23-7.84-.02l-8.59,.71c-4.44,.37-9.1,.12-13.55-.11-2.36-.12-4.72-.31-7.09-.32-3.18-.02-6.36,.29-9.53,.16-.48-.02-.97-.05-1.41-.19-.4-.13-.73-.33-1.13-.46-1.47-.47-3.1,.3-4.66,.59-.82,.15-1.68,.18-2.53,.2l-6.67,.16c-4.35-.68-8.78-.97-13.17-.41-1.49,.19-2.95,.49-4.45,.63-4.11,.4-8.23-.37-12.33-.83-4.6-.51-9.3-.63-13.95-.35-2.74,.16-5.46,.47-8.21,.45-1.66-.01-3.33-.14-4.98,0-2.28,.18-4.59,.86-6.79,.42-.9-.18-1.77-.54-2.7-.45-.69,.07-1.58,.34-1.93-.06-1.98-.3-4.03-.02-6.04,.12-2.6,.18-5.21,.11-7.82,.13-3.39,.03-6.78,.22-10.13,.58-1.56,.17-3.22,.36-4.69-.04-.44-.12-.84-.29-1.28-.41-1.81-.48-3.83,.03-5.76,.24-1.59,.17-3.22,.12-4.83,.07-5.79,.02-11.58-.09-17.32-.59-.44-.04-.91-.08-1.32,.03-.56,.15-.89,.54-1.11,.92-.29-.51-1.22-.75-2.04-.72s-1.59,.27-2.38,.43c-2.44,.48-5.06,.2-7.59-.03-2.89-.25-5.82-.41-8.73-.32-4.26,.13-8.51,.79-12.75,.5-7.63,.64-15.32-.63-22.99-.35-1.96,.07-3.91,.24-5.87,.34-2.78,.15-5.58,.18-8.38,.17-.91,0-1.83,0-2.69-.18-1.29-.26-2.48-.9-3.83-.8-.26,.02-.52,.07-.71,.19-.24,.15-.33,.38-.47,.57-.48,.68-1.79,1.05-2.86,.81-2.89-.66-6.02,.38-9.07,.3-1.3-.03-2.56-.26-3.85-.38-3.33-.3-6.7,.18-10.06,.08-1.52-.05-3.04-.21-4.56-.14-1.24,.06-2.45,.27-3.69,.3-3.78,.08-7.58-1.54-11.16-.74-.76,.17-1.48,.44-2.29,.52-.96,.1-1.96,.1-2.93,.16-1.95,.13-3.89,.33-5.77,.72-1.08,.22-2.2,.51-3.3,.34-.9-.13-1.63-.55-2.44-.84-2.32-.82-5.12-.57-7.74-.38-6.38,.47-12.83,.44-19.2-.07-1.89-.15-3.83-.34-5.67,0-1.58,.29-3.25,.96-4.73,.49-5.35-1.73-12.02-.6-17.96-.59-2.03,0-4.08,.06-6.03,.42-1.37,.26-2.74,.67-4.15,.56-.94-.07-1.8-.36-2.69-.57-.86-.2-1.78-.33-2.69-.28-.97,.05-1.56,.13-2.44,.44-.45,.16-.95,.25-1.45,.33-2.52,.39-5.62,.5-8.17,.12-2.61-.39-5.37-.48-8.05-.67-1.14-.08-2.33-.05-3.44,.12s-2.22,.42-3.36,.43c-.3,0-.62,0-.9,.06s-.44,.18-.55,.37Z"/><g><path class="b" d="M54.84,144.64c0,10.09-.04,20.12-.67,30.19s-1.21,20.19-1.79,30.29c-.16,2.77-.34,5.53-.45,8.3s.03,5.74-.29,8.58c-.26,2.35,2.26,4.6,4.5,4.5,2.66-.12,4.22-1.98,4.5-4.5s.16-4.91,.25-7.36,.23-5.05,.38-7.57c.3-4.99,.51-9.99,.81-14.98,.6-10.09,1.52-20.18,1.73-30.28,.12-5.72,.05-11.45,.04-17.17,0-2.35-2.07-4.61-4.5-4.5s-4.5,1.98-4.5,4.5h0Z"/><path class="b" d="M54.29,148.08c.4-.17,.81-.32,1.23-.43,.28-.07,.57-.13,.86-.18-.1,.02-.63,.04-.1,.02,.99-.04,1.98-.12,2.98-.14,2.15-.04,4.3-.11,6.46-.16,4.21-.1,8.44-.13,12.65-.02,.96,.03,1.91,.07,2.86,.14,.56,.04,1.11,.09,1.67,.16,.24,.03,.48,.05,.71,.08-.49-.07,.03,.01,.23,.04,2.1,.36,4.14,.87,6.15,1.56,.48,.17,.09,.01,0-.03,.21,.09,.42,.19,.62,.29,.38,.19,.75,.39,1.11,.62,.25,.15,1.08,.91,.51,.33,.14,.14,.29,.26,.43,.4,.06,.06,.61,.67,.29,.27-.26-.32,.32,.56,.42,.74,.1,.2,.21,.39,.29,.6-.27-.63,0,.08,.03,.18,.24,.9,.43,1.78,.6,2.7,.13,.7-.05-.7,0,0,.01,.2,.04,.4,.06,.6,.03,.4,.05,.81,.06,1.21s-.02,.8-.03,1.2c0,.22-.16,.83,.02-.01-.05,.26-.1,.52-.16,.78-.1,.38-.21,.77-.36,1.14,.3-.71-.14,.14-.28,.37s-.3,.45-.44,.67c-.03,.05-.41,.59-.11,.18s-.09,.11-.13,.16c-.17,.2-.33,.39-.51,.58-.57,.63-1.21,1.17-1.83,1.74-.37,.34,.05-.03,.12-.08-.18,.14-.37,.27-.56,.41-.5,.36-1,.71-1.52,1.06-1.68,1.13-3.41,2.16-5.2,3.1-.88,.47-1.78,.91-2.69,1.33-.42,.19-.84,.38-1.27,.57,0,0-.69,.29-.32,.14,.3-.12-.46,.18-.54,.21-1.94,.77-3.92,1.46-5.91,2.1-3.98,1.27-8.01,2.38-12.06,3.37-4.63,1.12-9.31,2-14.01,2.84-2.32,.41-4.65,.83-6.97,1.23-1.2,.21-2.41,.41-3.61,.62-.64,.11-1.27,.24-1.9,.35-.24,.04-.48,.09-.72,.13-.86,.13,1.03-.08-.48,.03-2.34,.17-4.61,1.95-4.5,4.5,.1,2.29,1.99,4.68,4.5,4.5s5.12-.77,7.66-1.2c2.33-.4,4.65-.81,6.97-1.23,4.62-.82,9.23-1.64,13.8-2.7,8.98-2.09,18.16-4.61,26.37-8.9,3.88-2.03,8.04-4.47,11.01-7.74,3.25-3.57,4.97-7.78,4.58-12.65-.18-2.2-.48-4.48-1.28-6.55-1.06-2.73-2.62-4.8-4.99-6.52-3.88-2.81-9.04-3.72-13.69-4.29-5.14-.63-10.38-.43-15.54-.38-2.62,.03-5.23,.14-7.85,.18s-5.59,0-8.09,1.05c-2.16,.91-3.96,3.02-3.14,5.54,.67,2.08,3.21,4.12,5.54,3.14h0Z"/></g><g><path class="b" d="M152.64,140.44c0,8.82-.96,17.53-1.58,26.32-.63,8.95-.74,17.91-1.62,26.84-.43,4.38-1.12,8.73-1.55,13.11-.22,2.19-.33,4.38-.34,6.58-.02,2.35,.08,4.61,1.41,6.65,2.49,3.8,6.43,4.92,10.71,5.49s8.6,.75,12.9,.82c4.8,.08,9.61,.02,14.39-.43,5.18-.48,10.15-1.58,15.22-2.71,2.3-.51,3.87-3.3,3.14-5.54-.78-2.41-3.07-3.69-5.54-3.14-2.02,.45-4.03,.97-6.05,1.39-.93,.19-1.86,.36-2.8,.51-.47,.07-.94,.14-1.4,.21,.1-.01,.56-.07,.02,0-.39,.05-.78,.09-1.18,.14-4.04,.44-8.1,.57-12.17,.59-4.03,.02-8.06-.12-12.08-.39-.93-.06-1.86-.14-2.78-.24-.22-.02-.43-.05-.65-.07,.09,.01,.65,.11,.12,.01-.49-.09-.99-.16-1.48-.27-.81-.17-1.58-.45-2.37-.65,1,.26,.08-.06-.21-.17-.48-.18,.41,.19,.33,.27,0,0-.43-.39-.41-.41,.03-.04,.49,.77,.23,.31-.08-.14-.18-.28-.27-.41-.03-.05-.31-.55-.12-.13,.22,.47-.09-.2-.04-.22,.08-.03,0,.82,.05,.22,.02-.19,0-.41,0-.6,0-.57,.01-1.15,.02-1.72,.01-2.03,.14-4.06,.34-6.09,.42-4.22,1.08-8.4,1.5-12.62,.85-8.44,1.01-16.9,1.54-25.36,.29-4.68,.72-9.36,1.12-14.03s.59-9.49,.59-14.26c0-2.35-2.07-4.61-4.5-4.5s-4.5,1.98-4.5,4.5h0Z"/><path class="b" d="M151.79,142.26c8.48-.01,16.94-.57,25.42-.77,8.47-.21,16.95-.29,25.43-.51,4.8-.12,9.6-.34,14.4-.32,2.35,0,4.61-2.08,4.5-4.5s-1.98-4.49-4.5-4.5c-8.45-.03-16.92,.4-25.37,.56s-16.87,.32-25.31,.66c-4.85,.2-9.71,.38-14.56,.38-2.35,0-4.61,2.07-4.5,4.5s1.98,4.5,4.5,4.5h0Z"/><path class="b" d="M160.35,181.84c4.73-.02,9.44-.47,14.16-.76,2.27-.14,4.54-.28,6.81-.3s4.56-.28,6.84-.28,4.61-2.07,4.5-4.5-1.98-4.5-4.5-4.5c-2.28,0-4.56,.26-6.84,.28s-4.54,.15-6.81,.3c-4.71,.3-9.43,.75-14.16,.76-2.35,0-4.61,2.06-4.5,4.5s1.98,4.51,4.5,4.5h0Z"/></g><g><path class="b" d="M290.78,139.19c0,1.23-.02,2.46-.11,3.68-.02,.23-.05,.46-.06,.68-.03,.75,.12-.58-.02,.17-.13,.71-.27,1.41-.43,2.11-.55,2.47-1.14,4.94-1.73,7.4-1.2,5.01-2.43,10.01-3.49,15.05s-1.93,9.95-3.01,14.91-2.2,9.8-3.22,14.73c-1.21,5.87-2.23,11.77-2.9,17.73-.27,2.35,2.26,4.6,4.5,4.5,2.67-.12,4.22-1.99,4.5-4.5,.07-.64,.15-1.27,.23-1.91,.01-.08,.11-.88,.03-.23,.04-.32,.09-.63,.13-.95,.18-1.26,.38-2.53,.59-3.79,.41-2.44,.87-4.87,1.36-7.29,1-4.92,2.12-9.82,3.2-14.73s2-9.92,3.02-14.88,2.25-10.05,3.45-15.06c1.41-5.86,2.91-11.58,2.95-17.64,.02-2.35-2.08-4.61-4.5-4.5s-4.48,1.98-4.5,4.5h0Z"/><path class="b" d="M282.67,141.33v-.4l-3.32,4.34c2.46-.89,5.01-1.43,7.59-1.86,1.14-.19,2.28-.36,3.42-.52,.79-.11-.56,.07,.24-.03,.32-.04,.64-.08,.96-.12,.72-.08,1.44-.16,2.16-.23,5.31-.51,10.65-.66,15.98-.74s10.53-.22,15.8-.29c2.63-.03,5.27,0,7.89,.23,.61,.05,1.23,.12,1.84,.2-.77-.1,.96,.17,1.1,.19,1.23,.23,2.45,.51,3.65,.86,.53,.15,1.05,.32,1.57,.5,.12,.04,.5,.13,.62,.23-.61-.48-.54-.26-.23-.08,.1,.06,.95,.61,.99,.58-.31,.16-.68-.67-.27-.17,.63,.77,.09-.09,0-.04,.04-.02,.26,.56,.3,.52-.02,.03-.35-1.11-.08-.18,.14,.5,.27,.98,.38,1.49-.03-.14-.15-.96-.05-.11,.05,.38,.25,.53,.07-.14,.03,.13-.17,.62-.19,.69,.21-.63,0-.21-.18,.15-.3,.6,.38-.39-.07,.11-.19,.21-.37,.43-.56,.64-.34,.37-.69,.72-1.05,1.07-.92,.89-1.9,1.72-2.87,2.56s-1.85,1.61-2.79,2.39c-.48,.39-.96,.78-1.44,1.17-.24,.19-.49,.38-.73,.57l-.37,.29c.24-.18,.24-.18,0,0-8.06,6.14-16.51,11.84-25.28,16.9-4.93,2.84-9.98,5.47-15.15,7.84-.64,.29-1.28,.58-1.93,.87-.29,.13-.58,.25-.86,.38,.02,0-1.28,.55-.66,.29-1.31,.55-2.63,1.07-3.96,1.57-2.79,1.04-5.63,1.94-8.53,2.66-2.18,.54-3.51,2.79-3.22,4.94,.27,2.03,2.19,4.12,4.42,3.9,2.7-.26,3.72,.07,6.42,.81,1.16,.32,2.31,.69,3.45,1.1,.57,.21,1.13,.43,1.69,.65,.5,.21,.56,.23,.18,.07,.28,.12,.56,.24,.83,.36,4.38,1.96,8.52,4.4,12.65,6.84,4.35,2.56,8.71,5.09,13.02,7.72,1.92,1.17,3.81,2.35,5.8,3.39,.92,.48,1.84,.96,2.72,1.5,.43,.26,.85,.54,1.26,.83-.86-.62,.31,.32,.47,.47,1.68,1.65,4.71,1.8,6.36,0s1.8-4.6,0-6.36c-2.58-2.53-5.86-3.82-8.9-5.65-3.54-2.12-7.04-4.3-10.59-6.39-7.05-4.14-13.99-8.52-21.62-11.55-4.23-1.68-9.14-3.24-13.74-2.8l1.2,8.84c10.89-2.7,21.29-7.8,31.04-13.26s18.63-11.41,27.3-18.01c2.34-1.78,4.64-3.6,6.85-5.53,1.88-1.65,3.81-3.24,5.37-5.21,2.24-2.82,3.03-5.8,2.25-9.34-.59-2.68-2.04-4.95-4.28-6.53-1.9-1.34-4.34-2.04-6.58-2.6-2.94-.73-5.98-1.12-9-1.31-5.49-.35-11,0-16.49,.07-6.46,.09-12.94,.12-19.39,.61-3.42,.26-6.82,.69-10.21,1.21-3.03,.47-6.05,1.03-8.95,2.08-1.82,.66-3.38,2.26-3.3,4.34v.4c.1,2.35,2.02,4.61,4.51,4.5s4.59-1.98,4.5-4.5h0Z"/></g><g><path class="b" d="M401.29,210.65c1.1-3.23,1.69-6.61,2.68-9.87s2.11-6.18,3.34-9.21c1.15-2.83,2.51-5.91,3.84-9.26s2.51-6.5,3.77-9.75c.61-1.59,1.24-3.17,1.87-4.75,.3-.74,.6-1.48,.91-2.22,.15-.37,.31-.74,.46-1.1,.09-.22,.19-.44,.28-.66-.14,.34-.11,.26,.11-.25,1.4-3.29,2.81-6.58,4.17-9.89,1.27-3.12,2.41-6.28,3.59-9.43,.56-1.49,1.13-2.97,1.73-4.44,.11-.28,.23-.56,.35-.84-.33,.78,.26-.59,.26-.59,.37-.83,.74-1.66,1.13-2.47,1.48-3.1,3.29-5.94,5.07-8.87,.69-1.13,1.34-2.29,2.08-3.38,.17-.25,.34-.49,.51-.73-.65,.88,.12-.11,.28-.28,.1-.11,.45-.57,.58-.57-.51,.37-.57,.42-.17,.14,.17-.11,.34-.2,.51-.29h-4.54c.32,.16,.85,.6-.18-.21,.12,.09,.26,.24,.34,.36-.86-1.13,.07,.18,.24,.49,.23,.41,.39,.86,.62,1.26,.34,.57-.39-1.02-.02-.05,.11,.29,.23,.58,.34,.87,.81,2.14,1.63,4.28,2.41,6.43,2.15,5.99,4.07,12.1,5.79,18.23,3.45,12.25,5.97,24.74,9.82,36.89,1.12,3.52,2.13,7.16,3.61,10.55,.3,.69,.67,1.36,.94,2.06-.25-.65-.12-.24-.07-.09,.26,.75-.12-1.11,.02,.05,.24,1.93,.52,3.96,2.1,5.32,1.78,1.53,4.64,1.88,6.36,0,1.55-1.68,1.91-4.73,0-6.36,.12,.1,.76,1.71,.54,.89s.04,.32,.01,.3c-.08-.06-.09-.77-.1-.89-.05-.39-.1-1.11-.23-1.59-.22-.82-.6-1.59-.95-2.37-.14-.31-.29-.62-.43-.93-.12-.25-.23-.5-.34-.75,.16,.37,.18,.41,.07,.11-.35-1.53-1.02-3.06-1.51-4.55-.55-1.69-1.1-3.38-1.63-5.07-2.06-6.57-3.75-13.23-5.39-19.91-3.2-13.03-6.78-25.91-11.52-38.47-.82-2.18-1.52-4.43-2.66-6.47-1.82-3.26-5.28-5.9-8.94-3.4-2.51,1.71-4.16,4.32-5.68,6.89-1.44,2.42-3.02,4.73-4.34,7.22-3.14,5.94-5.32,12.29-7.71,18.55-.57,1.49-1.16,2.97-1.77,4.45-.3,.74-.61,1.47-.92,2.21-.6,1.43,.15-.36-.2,.47-.22,.51-.44,1.03-.65,1.54-1.4,3.3-2.82,6.59-4.15,9.91-1.45,3.61-2.82,7.25-4.22,10.88-1.46,3.77-2.76,6.87-4.18,10.28s-2.82,6.91-3.95,10.47-1.76,7.24-2.96,10.76c-.76,2.23,.87,5.02,3.14,5.54,2.5,.57,4.72-.76,5.54-3.14h0Z"/><path class="b" d="M407.65,174.38h49.2c2.35,0,4.61-2.07,4.5-4.5s-1.98-4.5-4.5-4.5h-49.2c-2.35,0-4.61,2.07-4.5,4.5s1.98,4.5,4.5,4.5h0Z"/></g><path class="b" d="M519.81,123.57c6.65,.01,13.26,.58,19.87,1.35s13.41,.94,20.15,1.09,13.54,.49,20.32,.58c1.57,.02,3.16,.08,4.73,.02,1.09-.04,2.16-.23,3.25-.28,.44-.02,2.06,.19,.65-.06l.24,.07c-.55-.14-1.03-.42-1.43-.83,.07,.07-.76-1.08-.48-.61-.26-.43-.47-1.46-.47-1.72,0,.64-.13-.45,.12-.69-.04,.03-.05,.25-.07,.32-.03,.11-.07,.22-.11,.33-.16,.41-.08,.23,.23-.55-.41,.34-.76,1.36-1.07,1.82-.19,.27-.39,.69-.65,.9,.82-.64,.39-.49,.08-.12-.16,.2-.32,.39-.48,.58-.92,1.1-1.9,2.15-2.89,3.19-3.52,3.7-7.05,7.3-10.89,10.68-4.62,4.06-9.39,7.95-13.87,12.16-4.59,4.31-8.82,8.99-13.05,13.65-4.82,5.31-9.83,10.4-14.89,15.48-2.6,2.61-5.18,5.23-7.64,7.97-1.25,1.39-2.33,2.9-3.39,4.43-.21,.3-.43,.59-.63,.9-.19,.25-.17,.24,.04-.04-.19,.22-.37,.44-.56,.66-.72,.83-1.43,1.68-2.02,2.62-1.13,1.79-.57,3.96,.7,5.45,2.48,2.91,6.47,3.79,10.04,4.53,4.4,.91,8.83,1.47,13.29,2,1.1,.13,2.2,.26,3.29,.4,.23,.03,.47,.06,.7,.09-.1-.01-.56-.08-.03,0,.88,.13,1.77,.25,2.66,.36,2.28,.29,4.57,.47,6.86,.6,4.57,.26,9.16,.29,13.73,.43,5.16,.16,10.32,.45,15.48,.43,2.35,0,4.61-2.06,4.5-4.5s-1.98-4.51-4.5-4.5c-4.34,.02-8.68-.17-13.01-.34s-8.84-.21-13.26-.38c-2.12-.08-4.24-.2-6.36-.38-1.06-.09-2.13-.2-3.19-.33,.03,0-.78-.1-.38-.05s-.38-.05-.36-.05c-.87-.12-1.73-.24-2.6-.35-2.12-.27-4.24-.51-6.36-.77-.47-.06-.94-.12-1.41-.18-.53-.07-.08-.01,.02,0-.24-.03-.47-.07-.7-.1-1.09-.16-2.18-.33-3.27-.53-1.86-.34-3.73-.7-5.56-1.17-.46-.12-.92-.25-1.37-.4-.17-.06-.33-.12-.5-.18-.51-.18-.18-.13,.11,.05-.37-.23-.78-.46-1.17-.67,.14,.08,.45,.53,.28,.19-.09-.18-.42-.43-.55-.58l.7,5.45c.71-1.12-.57,.55,.33-.47,.24-.27,.48-.54,.71-.82,.62-.74,1.2-1.51,1.76-2.3,.46-.65,.92-1.31,1.37-1.97,.06-.09,.51-.67,.09-.14,.33-.42,.7-.81,1.06-1.21,2.32-2.54,4.72-5.01,7.14-7.45,4.63-4.65,9.26-9.26,13.68-14.11s8.74-9.71,13.44-14.24,9.56-8.48,14.37-12.68c4.06-3.55,7.8-7.32,11.51-11.22,2.36-2.47,4.99-5.13,6.46-8.24,1.08-2.27,1.54-4.7,.16-6.98-1.77-2.92-5.35-2.98-8.35-2.67s-6.17,.13-9.24,.06c-3.56-.08-7.12-.22-10.68-.35-7.79-.28-15.63-.14-23.4-.89-7.77-.75-15.45-1.71-23.28-1.72-2.35,0-4.61,2.07-4.5,4.5s1.98,4.49,4.5,4.5h0Z"/><path class="b" d="M648.91,125.43c7.01,1.22,14.05,.6,21.12,.68s14.46,.31,21.66-.85c3.14-.51,6.31-1.07,9.42-1.76,1.18-.26-.91,.01,.25-.02,.36,0,.68,.18-.22-.05l-.5-.21c-.33-.19-.57-.45-.74-.78-.02,0,.34,.48,.32,.54l-.2-.49c.07,.2,.14,.41,.19,.62,.08,.3,.14,.61,.2,.92,.03,.17,.04,.65,0-.03,.04,.6,.08,1.2,.08,1.8,.03,3.29-.17,6.58-.17,9.88v10.89c0,7.09,0,14.19,0,21.28,0,3.42-.02,6.84-.02,10.26s.23,6.82-.08,10.19c-.02,.26-.05,.52-.08,.78,.14-1.1-.05,.18-.08,.34-.13,.64-.29,1.28-.48,1.91-.2,.67-.43,1.33-.7,1.97,.32-.78-.24,.49-.25,.52-.19,.38-.38,.76-.58,1.14-.74,1.37-1.59,2.72-2.56,3.94,.45-.56-.02,0-.09,.1-.28,.32-.55,.65-.83,.97-.57,.64-1.16,1.25-1.76,1.85-1.04,1.03-2.1,2.04-3.19,3.01-.56,.5-1.13,.99-1.71,1.47,0,0-1.16,.92-.5,.41-.41,.32-.83,.62-1.25,.91-1.23,.86-2.52,1.63-3.86,2.31-1.64,.83-2.53,1.21-3.81,1.71-6.87,2.67-14.08,4.54-21.35,5.74-.93,.15-1.85,.3-2.78,.43-.48,.07-.96,.14-1.44,.2,.72-.1-.6,.08-.73,.09-1.93,.25-3.85,.48-5.78,.69s-3.89,.4-5.83,.6c-.61,.06-1.36-.03-1.94,.1-.54,.12,1.04,.27,.19-.01,.38,.09,.7,.28,.97,.57-.32-.34-.31-.31,.04,.1-1.32-1.95-4.02-2.99-6.16-1.61-1.94,1.25-3.03,4.07-1.61,6.16,1.19,1.76,2.68,3.06,4.79,3.57,1.58,.39,3.14,.18,4.73,.03,3.7-.36,7.4-.77,11.1-1.25,7.43-.97,14.75-2.32,21.91-4.55,3.5-1.09,6.94-2.33,10.27-3.84s6.24-3.43,9.07-5.71c5.3-4.29,10.28-9.45,13.03-15.77,1.47-3.38,2.27-6.79,2.39-10.49s-.02-7.35-.01-11.01c.02-7.56,.02-15.11,.02-22.67s-.21-15.09,.02-22.62c.11-3.39,.49-7.01-.65-10.29-.67-1.94-1.82-3.7-3.65-4.72-2.01-1.11-4.16-.96-6.33-.56-1.81,.33-3.62,.7-5.43,1.04-1.09,.21-2.19,.42-3.29,.6-.39,.07-.78,.13-1.18,.19-.24,.04-.47,.07-.71,.11,.41-.05,.33-.05-.23,.02-4.23,.44-8.47,.48-12.72,.41s-8.32-.1-12.48-.01c-2.04,.04-4.07,.08-6.11,.02-.93-.03-1.87-.07-2.8-.15-.46-.04-.93-.09-1.39-.13-.55-.07-.61-.07-.18-.02-.3-.05-.61-.1-.91-.15-2.31-.4-4.96,.62-5.54,3.14-.5,2.19,.66,5.11,3.14,5.54h0Z"/><g><path class="b" d="M760.17,219.51c.14-1.41-.21,.84,.08-.57,.06-.29,.11-.59,.18-.88,.18-.82,.39-1.62,.61-2.43,.44-1.6,.92-3.19,1.29-4.81,.74-3.28,1.28-6.59,1.83-9.9,1.14-6.81,2.68-13.51,4.24-20.23,3.08-13.3,5.74-26.71,9.32-39.9,.99-3.64,2.03-7.23,3.32-10.78,.62-1.7,1.04-3.16,1.27-4.95,.03-.2,.03-.41,.08-.6-.31,1.35,.03-.06,.1-.33,.02-.07,.15-.58,.17-.57-.29,.62-.32,.72-.09,.3-.2,.36-.49,.64-.85,.84h-4.54c-.26-.15-.96-1.27-.66-.54,.12,.29,.28,.57,.42,.85,.34,.69,.75,1.36,1.11,2.04s.69,1.3,1.01,1.96c.19,.4,.38,.8,.56,1.2,.21,.49,.24,.54,.07,.15,.12,.29,.24,.57,.36,.86,1.47,3.51,3.18,6.91,4.9,10.3,1.63,3.2,3.16,6.45,4.7,9.7,.74,1.56,1.47,3.12,2.18,4.69,.87,1.94,1.27,2.84,1.94,4.55,2.82,7.12,5.25,14.42,7.75,21.66,1.16,3.36,2.37,6.7,3.74,9.98,.75,1.79,1.52,3.56,2.36,5.31,.63,1.31-.26-.76,.26,.59,.16,.42,.32,.84,.47,1.26,.29,.85,.55,1.71,.77,2.58,.49,1.95,.7,3.96,1.28,5.88,.38,1.23,.92,2.42,1.45,3.59,.18,.4,.38,.8,.55,1.21-.32-.73,.16,.43,.21,.58,.65,1.93,.77,3.99,1.48,5.9,.79,2.13,1.52,4.32,2.55,6.35s4.2,2.88,6.16,1.61c2.15-1.39,2.75-3.9,1.61-6.16,0,0-.61-1.36-.29-.58-.17-.42-.32-.85-.48-1.28-.31-.85-.65-1.7-.95-2.55-.6-1.71-.75-3.53-1.26-5.27-.32-1.08-.79-2.13-1.25-3.15-.18-.4-.36-.81-.55-1.21-.38-.81-.16-.33-.08-.15-.77-1.87-1.03-3.87-1.44-5.84-.77-3.69-2.35-7.02-3.88-10.44-.19-.42-.37-.85-.56-1.28,.32,.75-.26-.65-.26-.64-.35-.86-.68-1.72-1.01-2.58-.66-1.73-1.28-3.48-1.89-5.23-2.52-7.24-4.96-14.51-7.71-21.66s-6.17-14.23-9.65-21.12c-.91-1.8-1.84-3.6-2.73-5.41-.41-.84-.81-1.68-1.2-2.52-.19-.42-.38-.85-.57-1.27-.21-.5-.25-.57-.1-.21-.12-.28-.23-.56-.35-.84-.83-2-1.75-3.94-2.81-5.82s-1.79-3.67-3.68-4.8c-1.29-.77-3.27-.9-4.54,0-1.66,1.18-2.7,2.56-3.29,4.52-.15,.49-.22,1-.29,1.51,.07-.48-.14,1.71-.24,1.81,.09-.65,.11-.8,.06-.46-.02,.14-.04,.28-.07,.42-.29,1.43-.96,2.84-1.45,4.21-.57,1.6-1.11,3.21-1.58,4.84-1.94,6.8-3.74,13.66-5.21,20.57s-3.09,14.07-4.71,21.09-3.31,13.76-4.51,20.74c-.66,3.86-1.25,7.73-2.07,11.56s-2.23,7.73-2.64,11.79c-.24,2.35,2.24,4.6,4.5,4.5,2.64-.12,4.24-1.98,4.5-4.5h0Z"/><path class="b" d="M767.83,185.5c2.62,0,5.24,0,7.85,0,1.99,0,3.99-.09,5.97,.05,3.2,.22,7.75,.83,10.13-1.88,1.55-1.77,1.87-4.65,0-6.36-1.7-1.56-4.7-1.89-6.36,0-.33,.37,.69-.49,.63-.46-.44,.28,.92-.25,.6-.24-.19,0-1.13,.21-.21,.1s-.23,0-.47,.01c-.35,.01-.71,.01-1.06,0-1.25-.02-2.5-.15-3.75-.21-4.42-.23-8.9-.02-13.32-.02-2.35,0-4.61,2.07-4.5,4.5s1.98,4.5,4.5,4.5h0Z"/></g></svg>