<?xml version="1.0" encoding="UTF-8"?><svg id="a" xmlns="http://www.w3.org/2000/svg" viewBox="0 0 180.29 180.73"><defs><style>.b{stroke-width:5.26px;}.b,.c,.d,.e{stroke-miterlimit:10;}.b,.c,.d,.f{fill:none;stroke:#da783c;}.c{stroke-width:1.91px;}.d{stroke-width:5.56px;}.g{fill:#da783c;}.e{fill:#dfd7cd;stroke:#dfd7cd;stroke-width:7.98px;}.f{stroke-linecap:round;stroke-linejoin:round;stroke-width:5.56px;}</style></defs><circle class="d" cx="92.98" cy="88.32" r="67.38"/><rect class="e" x="8.88" y="36.17" width="87.52" height="42.51" transform="translate(16.55 -11.61) rotate(14.91)"/><g><line class="f" x1="60.71" y1="2.78" x2="52.49" y2="33.65"/><line class="f" x1="83.5" y1="41.99" x2="52.63" y2="33.77"/></g><rect class="e" x="83.9" y="103.2" width="87.52" height="42.51" transform="translate(36.32 -28.66) rotate(14.91)"/><g><line class="f" x1="94.64" y1="136.5" x2="124.48" y2="147.93"/><line class="f" x1="113.06" y1="177.95" x2="124.49" y2="148.11"/></g><g><path class="c" d="M126.75,78.39v31.99c0,2.27-1.84,4.1-4.1,4.1H63.14c-2.27,0-4.1-1.84-4.1-4.1v-31.99c0-2.27,1.84-4.1,4.1-4.1h16.95v-9.32c0-1.46,1.18-2.64,2.64-2.64h20.51c1.46,0,2.64,1.18,2.64,2.64v9.32h16.76c2.27,0,4.1,1.84,4.1,4.1Z"/><circle class="b" cx="92.89" cy="93.55" r="14"/><circle class="g" cx="113.11" cy="82.18" r="3.35"/></g></svg>
