<?xml version="1.0" encoding="UTF-8"?><svg id="a" xmlns="http://www.w3.org/2000/svg" viewBox="0 0 218.25 218.25"><defs><style>.b{fill:#dfd7cd;}.c{fill:#da783c;}.d{stroke-width:3.78px;}.d,.e,.f{fill:none;stroke:#dfd7cd;stroke-miterlimit:10;}.e{stroke-width:9.77px;}.f{stroke-width:2.41px;}</style></defs><circle class="c" cx="109.12" cy="109.12" r="109.12"/><g><path class="d" d="M179.57,102.59v63.12c0,4.47-3.62,8.09-8.09,8.09H54.08c-4.47,0-8.09-3.62-8.09-8.09v-63.12c0-4.47,3.62-8.09,8.09-8.09h33.45v-18.38c0-2.88,2.34-5.22,5.22-5.22h40.46c2.88,0,5.22,2.34,5.22,5.22v18.38h33.06c4.47,0,8.09,3.62,8.09,8.09Z"/><circle class="e" cx="112.78" cy="132.5" r="27.61"/><circle class="b" cx="152.67" cy="110.08" r="6.61"/><rect class="f" x="54.25" y="80.58" width="20.3" height="13.69" rx="5.44" ry="5.44"/><g><rect class="b" x="37.73" y="44.23" width="2.83" height="34.46" rx="1.42" ry="1.42" transform="translate(-31.99 45.68) rotate(-45)"/><rect class="b" x="54.02" y="35.97" width="2.83" height="34.46" rx="1.42" ry="1.42" transform="translate(-11.9 16.19) rotate(-15.03)"/><rect class="b" x="71.95" y="35.97" width="2.83" height="34.46" rx="1.42" ry="1.42" transform="translate(16.37 -17.26) rotate(15.08)"/><rect class="b" x="87.06" y="44" width="2.83" height="34.46" rx="1.42" ry="1.42" transform="translate(69.21 -44.63) rotate(45)"/></g></g></svg>