<?xml version="1.0" encoding="UTF-8"?><svg id="a" xmlns="http://www.w3.org/2000/svg" viewBox="0 0 128.57 112.59"><defs><style>.b{stroke-width:3.53px;}.b,.c{fill:#dfd7cd;}.b,.c,.d{stroke:#da783c;stroke-miterlimit:10;}.e{fill:#da783c;}.c{stroke-linecap:round;stroke-width:3.53px;}.d{fill:none;stroke-width:9.72px;}</style></defs><path class="b" d="M126.81,31.43v59.08c0,4.18-3.39,7.57-7.57,7.57H9.34c-4.18,0-7.57-3.39-7.57-7.57V31.43c0-4.18,3.39-7.57,7.57-7.57h31.31V6.65c0-2.7,2.19-4.88,4.88-4.88h37.87c2.7,0,4.88,2.19,4.88,4.88V23.86h30.95c4.18,0,7.57,3.39,7.57,7.57Z"/><circle class="d" cx="64.29" cy="59.43" r="25.85"/><circle class="e" cx="101.62" cy="38.44" r="6.19"/><g><line class="c" x1="115.46" y1="8.03" x2="12.67" y2="110.82"/><line class="c" x1="12.67" y1="8.03" x2="115.46" y2="110.82"/></g></svg>