<?xml version="1.0" encoding="UTF-8"?><svg id="a" xmlns="http://www.w3.org/2000/svg" viewBox="0 0 140.14 341.67"><defs><style>.b{fill:#dfd7cd;}.c{fill:#669;}</style></defs><path class="c" d="M76.12,341.67c-18.4,0-44.81-2.4-66.41-12-19.2-13.6-4-25.61-4-25.61,0,0,9.6-16.8,16-21.6,4.8-5.6,8-11.2,18.4-13.6,5.6-7.2,14.4-11.2,15.2-31.21,.8-20,.8-24,0-32.81-1.6-.8-3.2-2.4-3.2-4-3.2-2.4-7.2-12.8,0-19.2,4.8-8,6.79-7.62,6.2-15.01s-1.4-28.2-6.2-29.8c-4.8-1.6-36.01-20.8-36.01-36.81-.8-1.6-1.6-2.4-1.6-2.4l-3.2-1.6s-4-19.2,.8-19.2c1.6-8,5.6-24,21.6-32.81,1.6-4.8,2.4-9.6,20-15.2,0-2.4-.8-4.8-.8-4.8,0,0,7.2,1.4,7.2-4.1-3.2-2.2-10.33-7.69-3.17-16.2,2.33-2.61,9.57-3.71,9.57-3.71h7.09s7.24,1.09,9.57,3.71c7.17,8.51,.03,14-3.17,16.2,0,5.5,7.2,4.1,7.2,4.1,0,0-.8,2.4-.8,4.8,17.6,5.6,18.4,10.4,20,15.2,16,8.8,20,24.8,21.6,32.81,4.8,0,.8,19.2,.8,19.2l-3.2,1.6s-.8,.8-1.6,2.4c0,16-31.21,35.21-36.01,36.81s-5.6,22.4-6.2,29.8c-.6,7.39,1.4,7.01,6.2,15.01,7.2,6.4,3.2,16.8,0,19.2,0,1.6-1.6,3.2-3.2,4-.8,8.8-.8,12.8,0,32.81,.8,20,9.6,24,15.2,31.21,10.4,2.4,13.6,8,18.4,13.6,6.4,4.8,16,21.6,16,21.6,0,0,15.2,12-4,25.61-21.6,9.6-48.01,12-66.41,12"/><path class="b" d="M67.93,3.52c.51,1.02,.27,2.35-.56,3.12-.5,.47-1.16,.72-1.81,.92-1.37,.42-2.88,.65-4.21,.1-1.32-.55-2.31-2.1-1.81-3.44,.3-.8,1.04-1.36,1.84-1.65,1.85-.66,5.46-1.18,6.55,.93Z"/><path class="b" d="M57.59,7.88c-.42,.11-.33,.75-.08,1.11,.44,.62,1.06,1.08,1.58,1.64,2.26,2.41,2.42,6.15,4.33,8.84,.29,.41,.65,.81,1.13,.97s1.1-.04,1.26-.52c.22-.66-.47-1.22-1-1.66-.9-.76-1.57-1.82-1.73-2.99-.29-2.09,.96-3.1,2.47-4.18,.78-.55,2.39-1.72,1.12-2.43-.83-.46-3.14,.54-4,.7-.8,.15-1.74,.38-2.54,.15-.74-.22-1.81-1.79-2.53-1.61Z"/><path class="b" d="M71.16,41.66c.63-.55,1.19-1.59,.18-2.09-.52-.26-2.27,.38-2.83,.49-4.97,.96-10.06,1.33-15.12,1.11-2.58-.11-5.16-.38-7.71-.8-1.76-.29-4.41-1.53-6.14-.87-.65,.25-1.2,.89-1.1,1.58,.06,.4,.32,.74,.59,1.04,1.37,1.55,3.17,2.73,5.14,3.37,1.05,.34,2.15,.53,3.24,.7,4.12,.63,8.32,.95,12.44,.36s8.18-2.13,11.31-4.89Z"/><path class="b" d="M52.42,103.62c1.29-1.17,2.01-2.84,2.51-4.51,1.15-3.83,1.36-7.92,2.69-11.69,1.4-3.95,4.04-7.45,7.46-9.88,2.72-1.93,6.09-3.39,7.5-6.41,.91-1.95,.8-4.26,.08-6.28s-2.02-3.79-3.44-5.4c-2.38-2.69-5.16-5.03-8.23-6.9-1.64-1-3.4-1.88-5.29-2.23-1.28-.24-2.59-.22-3.88-.15-10.02,.54-21.65,5.26-25.23,15.43-2.88,8.18-.69,17.15,3.49,24.46,3.46,6.05,10.36,15.78,18.37,15.17,1.46-.11,2.88-.62,3.97-1.61Z"/><path class="b" d="M69.77,179.07c.04,1.57,0,3.15-.2,4.78-.06,.49-.13,1-.38,1.43-.58,.99-2.11,.87-3.09,.88-1.5,.02-3.02,.03-4.49-.29-1.36-.3-3.51-.96-3.5-2.58,.01-1.44,1.56-3.49,2.21-4.74,1.67-3.19,3.46-6.41,4.1-9.99,.38-2.12,.34-4.28,.3-6.43-.05-2.74-.1-5.49-.46-8.21-.33-2.47-.92-4.91-.96-7.39-.02-1.27,.12-2.61,.87-3.64s2.27-1.57,3.34-.9,1.8,1.25,2.21,2.45,.46,2.48,.48,3.74c.06,3.93-.09,7.87-.45,11.79-.35,3.78-.82,7.63-.54,11.43,.2,2.62,.49,5.13,.57,7.68Z"/><path class="b" d="M71.88,190.09c-.88-1.49-3.88-2.16-5.47-2.24-2.9-.14-13.7-1.04-11.64,4.91,.27,.78,.86,1.41,1.44,2.01,1.51,1.55,3.04,3.08,4.59,4.59,.49,.48,1.04,.98,1.72,1.06,.81,.1,1.55-.43,2.2-.92l4.2-3.21c1-.76,2.02-1.55,2.69-2.62s.9-2.5,.26-3.58Z"/><path class="b" d="M61.43,241.11c-2.25,11.88-6.91,23.26-13.36,33.49-1.83,2.9-3.8,5.72-5.18,8.85-.54,1.22-.98,2.61-.51,3.85,.23,.61,.66,1.12,1.14,1.57,2.17,2.05,5.28,2.91,8.26,2.74s5.83-1.29,8.42-2.77c4.33-2.47,8.1-6.03,10.39-10.45,2.3-4.42,3.03-9.72,1.57-14.49-.54-1.77-1.37-3.44-1.93-5.2-1.24-3.87-1.18-8.01-1.16-12.07,.03-6.3-.08-12.59-.32-18.89-.08-2.19-.19-4.43-.98-6.48-.54-1.42-2.46-3.51-3.81-1.67-1.06,1.44-.59,5.09-.72,6.83-.38,4.92-.89,9.83-1.81,14.67Z"/><path class="b" d="M60.81,301.58c2.57,.17,5.22,.21,7.57,1.26,.38,.17,.82,.52,.67,.91-.12,.3-.5,.37-.82,.4-6.31,.52-12.65,.63-18.98,.33-.91-.04-1.91-.07-2.65,.47-.6,.44-.9,1.19-1.11,1.9-.79,2.66-.79,5.53-.16,8.24,.13,.54,.28,1.11,.17,1.65-.23,1.17-1.53,1.81-2.72,1.92-2.34,.2-4.59-1.02-6.39-2.54-2.02-1.7-3.78-4.33-2.98-6.84,.71-2.25,3.25-3.63,3.72-5.94,.32-1.59-.44-3.21-1.42-4.5-.58-.75-4.22-4.07-3.37-5.05,.78-.91,4.42,1.44,5.09,1.75,4.72,2.2,9.7,3.85,14.8,4.88,2.83,.57,5.7,.96,8.58,1.16Z"/><path class="b" d="M46.69,334.43c2.15,.52,4.37,.99,6.55,.63-.07-1.12-.89-2.08-1.86-2.64s-2.09-.8-3.18-1.07c-6.21-1.56-12-4.44-18-6.69-2.15-.81-4.4-1.55-6.7-1.46-.72,.03,.8,2.69,.95,2.88,2.22,2.77,6.29,3.42,9.51,4.57,4.17,1.49,8.42,2.75,12.73,3.8Z"/></svg>