<?xml version="1.0" encoding="UTF-8"?><svg id="a" xmlns="http://www.w3.org/2000/svg" viewBox="0 0 211.38 300.77"><defs><style>.b{fill:#dfd7cd;}.c{fill:#669;}.d{fill:none;stroke:#dfd7cd;stroke-miterlimit:10;stroke-width:2.2px;}</style></defs><path class="c" d="M61.29,10.24l7.87,41.02s-22.48-.56-24.16,0S1.16,120.94,1.16,120.94L25.89,252.44s33.72,47.77,96.65,48.33c61.25-13.49,87.66-60.13,87.66-113.51-14.61-68.56-31.47-134.31-31.47-134.31l-80.92-1.69L87.7,4.62s-17.98-13.49-26.41,5.62Z"/><path class="d" d="M44.99,51.26l26.79,136.93s82.42,82.42,138.43-.94c-18.76-82.64-31.47-134.31-31.47-134.31l-133.74-1.69Z"/><path class="d" d="M44.99,51.26l26.79,136.93s-1.28,68.33-24.22,78.2c-3.84,1.65-8.32,.57-11.21-2.45-7.76-8.13-10.46-11.5-10.46-11.5L1.16,119.26,44.99,51.26Z"/><path class="b" d="M98,76.55s-2.25,24.35,14.61,25.47c8.24,.75,12.36-.75,16.48,16.48,3,10.49,4.87,17.23-1.5,17.61-6.37,.37-14.61,0-14.61,0,0,0-3.37-3-3.37,6.37s-1.08,17.01,5.27,16.93c6.35-.08,19.83,0,19.83,0,0,0,7.49,1.62,5.99-21.52,8.24,10.95,17.61,23.31,17.61,23.31,0,0,4.12,3.87,2.25-9.87-4.12-11.11-14.99-23.48-16.48-24.98-1.5-1.5-6.37-9.74-9.74-26.97-1.5-7.12,1.5-20.23-14.61-22.85-6.37-1.12-9.37,.75-11.99,0s-8.24-9.74-9.74,0Z"/><path class="b" d="M16.71,121.13s-2.62,27.78,5.62,29.25c7.49-8.27,12.06-19.46,14.14-21.01,2.34,1.12,3.47,3.03,3.09,6.38s1.5,12.35,5.43,22.09c2.06,14.24,4.68,28.1,3.93,29.97,3.75-8.99,4.76-22.85,.13-31.84-4.63-16.48-6.12-16.11-6.87-22.85-.75-6.74,2.81-16.23,.75-20.98-1.24-3.33-4.5-17.23-13.11-4.12-8.62,13.11-9.74,16.11-9.74,16.11,0,0-.37,3-3.37-3Z"/><path class="b" d="M28.7,157.85s-7.12,10.12-1.87,24.35c4.12,15.73,6.74,19.11,5.62,27.72,4.87-12.36,3.89-14.99,.26-28.85-2.13-7.87-6.26-17.61-4.01-23.23Z"/></svg>