<?xml version="1.0" encoding="UTF-8"?><svg id="a" xmlns="http://www.w3.org/2000/svg" viewBox="0 0 297.33 204.46"><defs><style>.b{fill:#dfd7cd;}.c{fill:#669;}</style></defs><path class="c" d="M20.76,57.54c17.32-12.07,114.13-114.13,247.29-13.83,50.15,29.4,46.69,141.8-96.84,159.1C27.67,220.09-36.31,97.31,20.76,57.54Z"/><path class="b" d="M39.26,48.12C31.84,58.53,.85,111.46,104.9,150.26c20.03,7.47,41.62,9.95,62.73,6.56,67.98-10.92,131.95-60.97,82.25-120.9-5.11-5.11-1.83-5.19,26.38,19.62,.86,.76,1.58,1.67,2.12,2.68,12.2,23,35.87,76.89-50.79,123.6-3.38,1.82-6.96,3.3-10.66,4.33-74.66,20.79-155.88,16.15-205.28-64.36-2.14-11.52-15.98-28.81,6.5-58.21,5.4-6.75,16.06-13.49,20.48-16.13,.43-.26,.9,.25,.61,.66Z"/><path class="b" d="M89.43,51.61l-17.51,35.02c-.44,.88,.27,1.9,1.25,1.79l45.48-4.87c.42-.05,.84,.13,1.1,.46l34.79,43.08c.54,.66,1.57,.6,2.02-.12l28.1-44.64c.23-.36,.63-.58,1.05-.58h50.74c.96,0,1.56-1.05,1.07-1.88l-21.08-35.68c-.18-.31-.22-.69-.11-1.03l6.33-18.99c.22-.67-.15-1.39-.83-1.59l-40.21-11.73s-.06-.02-.09-.03L153.29,.1c-.16-.06-.33-.09-.5-.08l-15.25,.65c-.13,0-.25,.03-.37,.07l-22.97,8.35s-.07,.03-.11,.05l-48.6,23.12c-.88,.42-.96,1.63-.15,2.16l23.67,15.59c.53,.35,.71,1.03,.43,1.6Z"/><ellipse class="c" cx="153.05" cy="41.98" rx="49.29" ry="34.59"/><path class="c" d="M98.58,21.59l-21.77,9.97c-1.44,.66-1.46,2.69-.04,3.39l12.79,6.24c.9,.44,1.98,.1,2.46-.78l8.98-16.21c.88-1.58-.78-3.37-2.42-2.61Z"/><path class="c" d="M94.57,59.5l-9.22,14.98c-.99,1.6,.24,3.65,2.12,3.54l19.68-1.18c1.9-.11,2.87-2.33,1.65-3.8-3.08-3.71-7.79-9.57-10.28-13.55-.92-1.47-3.04-1.46-3.95,.01Z"/><path class="c" d="M134.89,81.75c10.38,19.02,19.02,29.4,19.02,29.4,0,0,28.99-32.86,20.55-29.4-18.82,3.46-39.57,0-39.57,0Z"/><path class="c" d="M211.71,50.74c-1.1-1.07-2.91-.73-3.52,.67-2.14,4.93-7.09,15.6-11.05,18.23-4.15,2.77,16.06,3.32,24.3,3.43,1.59,.02,2.67-1.62,2-3.06-2.29-5.01-7.12-14.8-11.74-19.28Z"/><path class="c" d="M199.38,21.25c-.96-.42-1.84,.76-1.14,1.54,3.67,4.17,7.56,9.67,7.56,12.27,0,2.83,4.65-4.28,6.33-6.95,.32-.51,.12-1.18-.44-1.43l-12.31-5.43Z"/><path class="c" d="M131.43,5.66s11.72-2.32,24.02-1.16c-1.53-.57-4.99-4.03-4.99-4.03l-12.18,.17-6.84,5.02Z"/></svg>