<?xml version="1.0" encoding="UTF-8"?><svg id="a" xmlns="http://www.w3.org/2000/svg" viewBox="0 0 223.68 308.54"><defs><style>.b{fill:#dfd7cd;}.c{fill:#669;}</style></defs><path class="c" d="M26.81,294.57c-.61-.45-1.23-.92-1.84-1.4-6.74-5.32-4.27-14.02-1.33-21.34,1.67-4.15,4.74-7.96,8.95-9.46,3.66-1.3,7.86-.78,11.35-2.49,3.68-1.8,5.84-5.73,7.02-9.65s1.63-8.05,3.1-11.87c3.5-9.09,11.59-13.62,20.74-14.94,8.67-1.25,9.39-3.84,10.56-12.01,1.37-9.53,11.74-17.35,11.74-17.35l.17-8.34h-5.11v-7.32c3.4,.17,4.09-2.38,4.09-5.45,2.89-.51,3.23-1.87,3.23-4.43,.68-2.72,.34-3.74-2.04-5.45-1.19-7.32-5.62-4.6-5.62-4.6v-10.89C-10.8,135.33,2.98,17.37,2.98,17.37c0,0-10.21-14.81,7.15-15.06,17.36-.26,10.98,12.26,9.19,13.28-1.79,1.02-7.32,114.13,82.3,114.89l-.09-9.53S26.64,114.39,31.75,20.43c0-2.38-.17-4.43-.17-4.43,0,0-11.91-11.07,6.13-13.71,9.7,.09,17.87,4.85,10.89,11.83-.85,14.47-1.87,80.51,52.26,89.02,.51-6.64,.17-9.87,.17-9.87,0,0-43.4-.85-42.13-70.3,0-3.51-.13-4.21-.13-4.21,0,0-14.43-15.26,9.7-16.47,14.87,.83,24.38,8.81,8.36,17.75-.64,11.55-2.62,53.49,24.32,55.79-.13-9.57-.13-11.74-.13-11.74l2.68-3.7s-5.23-3.45-1.15-7.15c1.15-.64,1.02-2.94-.77-4.72-1.15-1.91-1.53-5.23,.38-6.89,1.91-1.66,1.79-1.28,.13-2.94-1.66-1.66-.77-2.81,.38-4.47,.51-3.83,.26-12.63,.26-12.64,0-.24-1.24-1.1-1.42-1.27-1.08-1.03-2.09-2.13-3-3.32-1.98-2.57-3.95-6.09-2.81-9.42,.68-2,2.37-3.43,4.16-4.43,3.04-1.71,6.9-2.81,10.36-3.04,1.29-.09,2.59-.17,3.87,.04,27.45,4.6,6.64,21.45,6.64,21.45,0,0-.26,8.81,.26,12.64,1.15,1.66,2.04,2.81,.38,4.47s-1.79,1.28,.13,2.94c1.91,1.66,1.53,4.98,.38,6.89-1.79,1.79-1.91,4.09-.77,4.72,4.09,3.7-1.15,7.15-1.15,7.15l2.68,3.7s0,2.17-.13,11.74c26.94-2.3,24.96-44.23,24.32-55.79-16.02-8.94-6.51-16.91,8.36-17.75,24.13,1.21,9.7,16.47,9.7,16.47,0,0-.13,.7-.13,4.21,1.28,69.45-42.13,70.3-42.13,70.3,0,0-.34,3.23,.17,9.87,54.13-8.51,53.11-74.55,52.26-89.02-6.98-6.98,1.19-11.74,10.89-11.83,18.04,2.63,6.13,13.71,6.13,13.71,0,0-.17,2.04-.17,4.43,5.11,93.96-69.79,100.51-69.79,100.51l-.09,9.53c89.62-.77,84.09-113.87,82.3-114.89-1.79-1.02-8.17-13.53,9.19-13.28,17.36,.26,7.15,15.06,7.15,15.06,0,0,13.79,117.96-88.85,130.21v10.89s-4.43-2.72-5.62,4.6c-2.38,1.7-2.72,2.72-2.04,5.45,0,2.55,.34,3.91,3.23,4.43,0,3.06,.68,5.62,4.09,5.45v7.32h-5.11l.17,8.34s10.37,7.82,11.74,17.35c2.35,16.38,18.94,9.09,28.34,20.63,4.26,5.23,6.52,11.9,7.17,18.62,.19,1.97,.27,4.02,1.14,5.8,2.13,4.33,7.73,5.22,12.13,7.21,7.43,3.36,11.31,11,13.21,18.55,6.01,23.82-43.28,24.51-57.37,25.51-21.97,1.56-44.01,.58-65.98-.42-19.08-.87-34.6-1.35-50.14-12.74Z"/><g><path class="b" d="M103.43,212.19c.38,.59,.9,1.18,1.6,1.26,.53,.05,1.04-.21,1.44-.55,1.65-1.41,2.84-6.81-.08-7.55-3.54-.9-4.28,4.81-2.96,6.85Z"/><path class="b" d="M110.55,212.3c.55,.84,1.45,1.38,2.12,2.13,.89,1.01,1.36,2.41,2.48,3.15,.1,.07,.23,.13,.33,.06,.06-.04,.08-.1,.11-.17,.61-1.57,.7-3.29,.77-4.98,.1-2.35,.27-9-3.81-7.77-2.52,.76-3.26,5.65-2.01,7.56Z"/><path class="b" d="M119.08,206.67c-.26,1.83-.4,3.67-.43,5.51-.01,.91,0,1.84,.25,2.72,.7,2.5,3.06,4.12,5.25,5.52,.66,.42,1.55,.83,2.16,.35,.29-.22,.42-.6,.46-.96,.21-1.77-1.4-3.18-2.11-4.82-.45-1.05-.53-2.22-.61-3.36l-.27-4.04c-.06-.96-.15-1.97-.73-2.73-1.49-1.96-3.75,.1-3.99,1.81Z"/><path class="b" d="M126.07,204.67c-.2,1.35,.24,2.73,.85,3.95s1.39,2.36,1.94,3.62c.74,1.7,1.03,3.55,1.27,5.38,.21,1.6,.61,3.5,2.11,4.1,.52,.21,1.1,.22,1.66,.21,1.29-.02,2.58-.12,3.86-.29,.34-.05,.7-.11,.96-.33,.39-.34,.41-.96,.22-1.45s-.54-.88-.82-1.32c-1.26-1.96-1.02-4.5-1.64-6.76-.3-1.1-.8-2.13-1.34-3.14-.72-1.33-1.51-2.62-2.36-3.87-1.67-2.43-6.04-4.62-6.71-.1Z"/><path class="b" d="M112.47,185.66c-1.94-.48-3.84-1.26-5.84-1.38-1.65-.09-3.32,.28-4.77,1.07-.67,.36-1.31,.84-1.67,1.51s-.38,1.57,.11,2.14c1.1,1.27,3.75,.28,4.5,1.78,.19,.38,.18,.82,.17,1.24-.05,1.83-.13,3.66-.23,5.49,.88-.34,1.36-1.31,1.56-2.23s.23-1.9,.61-2.77,1.29-1.62,2.21-1.4c.88,.21,1.36,1.19,1.42,2.09s-.18,1.8-.17,2.7c0,.51,.14,1.1,.59,1.35,.59,.34,1.39-.14,1.65-.77s.16-1.35,.11-2.04-.02-1.44,.44-1.96c.64-.73,1.9-.61,2.6,.06s.93,1.71,.9,2.68c-.03,.86-.13,1.93,.6,2.38,.63,.39,1.49-.02,1.88-.65s.43-1.39,.52-2.13,.24-1.51,.77-2.02c.12-.12,.27-.22,.44-.24,.49-.07,.78,.51,.93,.98,.39,1.2,.91,2.46,1.96,3.15s2.78,.46,3.2-.73c.37-1.04-.39-2.1-.66-3.17-.62-2.46,1.08-6.37-2.67-6.64-3.78-.27-7.38,.44-11.16-.5Z"/><path class="b" d="M124.04,178.86c-.9-.28-1.59-.99-2.37-1.52-2.56-1.75-6.31-1.5-8.61,.59-.44,.4-.85,.92-.82,1.51l6.58,.21c.39,.01,.78,.03,1.14,.18,.68,.3,1.04,1.03,1.51,1.62,.88,1.1,2.24,1.74,3.63,2.01,1.39,.27,2.81,.2,4.22,.14,.51-.02,1.09-.08,1.4-.48,.92-1.18,.68-3.94-.78-4.58-1.81-.8-3.98,.93-5.89,.33Z"/><path class="b" d="M117.39,157.14c-.87,.27-1.8,.24-2.71,.21-4.12-.15-8.24-.2-12.36-.17-.91,0-1.89,.04-2.61,.6s-.9,1.85-.11,2.31c.4,.24,.9,.18,1.36,.26,1.04,.17,1.82,1.01,2.63,1.68s1.94,1.23,2.89,.76c.5-.25,.85-.75,1.37-.97,1.03-.43,2.26,.64,2.16,1.75s-1.22,1.95-2.33,1.96c-.41,0-.83-.08-1.21,.07s-.65,.66-.38,.96c.16,.18,.43,.2,.67,.2l5.94,.15c-.29-.93-.58-1.9-.43-2.86s.86-1.92,1.83-1.99c1.03-.08,1.97,1.18,1.44,2.07-.28,.47-.82,.7-1.22,1.08s-.57,1.13-.1,1.41c.18,.11,.4,.11,.62,.11l6.11-.07c.43,0,.9-.03,1.21-.32,.46-.43,.33-1.16,.41-1.78,.18-1.36,1.42-2.27,2.37-3.26,.86-.9,1.54-1.97,1.97-3.14,.46-1.23,.64-2.64,.08-3.83-2.32-4.9-7.18,2.06-9.62,2.83Z"/><path class="b" d="M82.57,138.91c-5.55-2.46-10.51-6.15-14.82-10.43-.55-.55-1.33-1.15-2.02-.8-.32,.16-.52,.49-.69,.8-1.3,2.26-2.59,5.21-1.02,7.3,.56,.76,1.42,1.24,2.25,1.67,5.87,3.03,13.1,5.79,19.75,6.26,3.61,.26,7.22,.51,10.84,.77,1.51,.11,3.47,.57,4.88-.16,1.34-.69,1.71-1.56,.25-2.32-2.37-1.24-7.25-.39-9.95-.68-3.26-.35-6.46-1.06-9.47-2.4Z"/><path class="b" d="M53.85,127.53c-.3,.52-.58,1.07-.59,1.67-.03,1.32,1.17,2.31,2.31,2.99,.65,.39,1.34,.76,2.1,.83s1.59-.25,1.93-.92c.35-.7,.1-1.53,.17-2.31,.14-1.5,1.44-2.6,2.1-3.95,.37-.75,.53-1.6,.48-2.44-.02-.23-.06-.48-.23-.65-1.01-.97-3.52,.04-4.46,.65-1.55,1.02-2.87,2.55-3.8,4.13Z"/><path class="b" d="M45.17,124.67c.92,.23,1.86,.42,2.8,.57,.48,.07,1,.13,1.44-.09,.69-.35,.89-1.22,1.25-1.91,.58-1.12,4.47-4.08,2.42-5.27-1.44-.83-3.81,1.77-5.72,1.24-1.51-.41-2.19-1.59-3.54-.31-2.01,1.92-1.18,5.12,1.36,5.76Z"/><path class="b" d="M34.87,111.57c-.42,.13-.88,.14-1.24,.39-.56,.39-.62,1.23-.31,1.84s.87,1.03,1.42,1.44l1.31,.97c.42,.31,.86,.63,1.37,.73s1.12-.07,1.36-.54c.15-.3,.13-.66,.22-.98,.2-.66,.86-1.07,1.51-1.29s1.36-.35,1.92-.75,.95-1.19,.6-1.78c-.19-.33-.56-.52-.9-.71-.96-.52-3.34-3.12-4.4-2.83-1.31,.36-1.19,3.01-2.86,3.52Z"/><path class="b" d="M30.05,103.63c-.49,.11-1,.16-1.41,.45-.36,.25-.58,.64-.77,1.03-.18,.38-.33,.81-.2,1.21,.14,.45,.6,.73,1.07,.84,1.53,.35,2.96-.8,4.12-1.87l1.08-1c.36-.33,.73-.68,.93-1.12,.57-1.24-.48-1.81-1.47-1.55-1.08,.29-1.97,1.71-3.34,2Z"/><path class="b" d="M26.37,97.69c-.67,.06-1.35-.06-2.01,.04-.66,.1-1.36,.51-1.47,1.17-.12,.68,.43,1.31,1.06,1.61,.93,.44,2.04,.34,3-.03s1.8-.98,2.63-1.59l1.7-1.25c.33-.25,.68-.5,.89-.86,1.1-1.89-1.11-1.16-1.73-.89-1.38,.61-2.47,1.67-4.07,1.81Z"/><path class="b" d="M26.89,84.77c.13-.12,.19-.26,.19-.43-1.59-1.17-7.49,2.27-8.86,3.2-.25,.17-.51,.37-.58,.66-.12,.48,.37,.93,.86,.98s.96-.19,1.4-.41l4.04-2.08c1.05-.54,2.12-1.1,2.96-1.92Z"/><path class="b" d="M17.3,70.51c.64,.4,.87,1.33,.49,1.98-.29,.51-.85,.78-1.35,1.1-.82,.52-1.53,1.2-2.09,1.99-.17,.24-.33,.52-.31,.82,.04,.58,.74,.88,1.32,.89s1.21-.12,1.73,.15c.65,.33,.89,1.16,1.5,1.56,.75,.49,1.83,.13,2.39-.57s.73-1.63,.81-2.53c.17-1.79,.07-3.69-.81-5.26-1.75-3.13-7.39-2.43-3.68-.12Z"/><path class="b" d="M15.77,51.22c-1.08,1.62-3.76,1.79-4.44,3.62-.13,.33-.14,.76,.13,.99,.13,.12,.32,.16,.49,.19,1.65,.35,3.35,.43,5.03,.26,.26-.03,.54-.07,.73-.24,.14-.13,.22-.31,.29-.48,1.05-2.56,1.58-5.33,1.56-8.1-.02-1.83-1.5-2.3-2.53-.9-.96,1.3-.33,3.28-1.25,4.66Z"/><path class="b" d="M8.03,13.86c-.03,.2,.1,.4,.24,.55,.72,.83,1.78,1.25,2.67,1.89,2.5,1.81,3.33,5.58,1.8,8.27-.58,1.02-1.45,1.89-1.88,2.98-1.04,2.62,.61,6.01-1.11,8.24-.47,.6-1.13,1.03-1.6,1.63s-.71,1.52-.22,2.1c.43,.52,1.2,.54,1.88,.53l2.5-.06c.65-.02,1.34-.04,1.92-.35,1.21-.63,1.53-2.19,1.7-3.54,1.06-8.36,1.66-16.77,1.8-25.19,.06-3.36-2.84-1.54-4.46-.53-1.08,.67-5.07,2.33-5.22,3.48Z"/><path class="b" d="M141.13,138.91c5.55-2.46,10.51-6.15,14.82-10.43,.55-.55,1.33-1.15,2.02-.8,.32,.16,.52,.49,.69,.8,1.3,2.26,2.59,5.21,1.02,7.3-.56,.76-1.42,1.24-2.25,1.67-5.87,3.03-13.1,5.79-19.75,6.26-3.61,.26-7.22,.51-10.84,.77-1.51,.11-3.47,.57-4.88-.16-1.34-.69-1.71-1.56-.25-2.32,2.37-1.24,7.25-.39,9.95-.68,3.26-.35,6.46-1.06,9.47-2.4Z"/><path class="b" d="M169.85,127.53c.3,.52,.58,1.07,.59,1.67,.03,1.32-1.17,2.31-2.31,2.99-.65,.39-1.34,.76-2.1,.83s-1.59-.25-1.93-.92c-.35-.7-.1-1.53-.17-2.31-.14-1.5-1.44-2.6-2.1-3.95-.37-.75-.53-1.6-.48-2.44,.02-.23,.06-.48,.23-.65,1.01-.97,3.52,.04,4.46,.65,1.55,1.02,2.87,2.55,3.8,4.13Z"/><path class="b" d="M178.54,124.67c-.92,.23-1.86,.42-2.8,.57-.48,.07-1,.13-1.44-.09-.69-.35-.89-1.22-1.25-1.91-.58-1.12-4.47-4.08-2.42-5.27,1.44-.83,3.81,1.77,5.72,1.24,1.51-.41,2.19-1.59,3.54-.31,2.01,1.92,1.18,5.12-1.36,5.76Z"/><path class="b" d="M188.84,111.57c.42,.13,.88,.14,1.24,.39,.56,.39,.62,1.23,.31,1.84s-.87,1.03-1.42,1.44l-1.31,.97c-.42,.31-.86,.63-1.37,.73s-1.12-.07-1.36-.54c-.15-.3-.13-.66-.22-.98-.2-.66-.86-1.07-1.51-1.29s-1.36-.35-1.92-.75-.95-1.19-.6-1.78c.19-.33,.56-.52,.9-.71,.96-.52,3.34-3.12,4.4-2.83,1.31,.36,1.19,3.01,2.86,3.52Z"/><path class="b" d="M193.65,103.63c.49,.11,1,.16,1.41,.45,.36,.25,.58,.64,.77,1.03,.18,.38,.33,.81,.2,1.21-.14,.45-.6,.73-1.07,.84-1.53,.35-2.96-.8-4.12-1.87l-1.08-1c-.36-.33-.73-.68-.93-1.12-.57-1.24,.48-1.81,1.47-1.55,1.08,.29,1.97,1.71,3.34,2Z"/><path class="b" d="M197.34,97.69c.67,.06,1.35-.06,2.01,.04s1.36,.51,1.47,1.17c.12,.68-.43,1.31-1.06,1.61-.93,.44-2.04,.34-3-.03s-1.8-.98-2.63-1.59l-1.7-1.25c-.33-.25-.68-.5-.89-.86-1.1-1.89,1.11-1.16,1.73-.89,1.38,.61,2.47,1.67,4.07,1.81Z"/><path class="b" d="M196.82,84.77c-.13-.12-.19-.26-.19-.43,1.59-1.17,7.49,2.27,8.86,3.2,.25,.17,.51,.37,.58,.66,.12,.48-.37,.93-.86,.98s-.96-.19-1.4-.41l-4.04-2.08c-1.05-.54-2.12-1.1-2.96-1.92Z"/><path class="b" d="M206.41,70.51c-.64,.4-.87,1.33-.49,1.98,.29,.51,.85,.78,1.35,1.1,.82,.52,1.53,1.2,2.09,1.99,.17,.24,.33,.52,.31,.82-.04,.58-.74,.88-1.32,.89s-1.21-.12-1.73,.15c-.65,.33-.89,1.16-1.5,1.56-.75,.49-1.83,.13-2.39-.57s-.73-1.63-.81-2.53c-.17-1.79-.07-3.69,.81-5.26,1.75-3.13,7.39-2.43,3.68-.12Z"/><path class="b" d="M207.94,51.22c1.08,1.62,3.76,1.79,4.44,3.62,.13,.33,.14,.76-.13,.99-.13,.12-.32,.16-.49,.19-1.65,.35-3.35,.43-5.03,.26-.26-.03-.54-.07-.73-.24-.14-.13-.22-.31-.29-.48-1.05-2.56-1.58-5.33-1.56-8.1,.02-1.83,1.5-2.3,2.53-.9,.96,1.3,.33,3.28,1.25,4.66Z"/><path class="b" d="M215.68,13.86c.03,.2-.1,.4-.24,.55-.72,.83-1.78,1.25-2.67,1.89-2.5,1.81-3.33,5.58-1.8,8.27,.58,1.02,1.45,1.89,1.88,2.98,1.04,2.62-.61,6.01,1.11,8.24,.47,.6,1.13,1.03,1.6,1.63s.71,1.52,.22,2.1c-.43,.52-1.2,.54-1.88,.53l-2.5-.06c-.65-.02-1.34-.04-1.92-.35-1.21-.63-1.53-2.19-1.7-3.54-1.06-8.36-1.66-16.77-1.8-25.19-.06-3.36,2.84-1.54,4.46-.53,1.08,.67,5.07,2.33,5.22,3.48Z"/><path class="b" d="M79.6,110.44c3.72,1.79,7.65,3.15,11.67,4.06,3.47,.79,7.03,1.7,10.59,1.49,3.33-.19-.96-1.99-2.18-2.12-3.33-.35-6.84-.59-9.93-2.01-3.56-1.63-6.92-3.64-10.59-5.12-.53-.21-1.06-.42-1.62-.52-1.65-.29-2.86,.62-1.34,2.05,.98,.93,2.19,1.57,3.41,2.15Z"/><path class="b" d="M71.14,101.85l-1.75,2.17c-.28,.35-.57,.72-.59,1.17-.03,.74,.67,1.27,1.29,1.67l1.29,.82c.24,.15,.53,.32,.81,.23,.36-.12,.46-.57,.53-.94,.5-2.95,2.25-5.5,3.66-8.13,.09-.17,.18-.36,.15-.54-.05-.24-.3-.39-.54-.41-1.82-.13-3.88,2.78-4.85,3.98Z"/><path class="b" d="M62.69,100.65c-.09,.12-.17,.25-.2,.4-.05,.35,.27,.63,.56,.84,.57,.41,1.3,.84,1.94,.54,.44-.21,.67-.69,.88-1.13,.54-1.11,1.23-2.16,2.05-3.09,.52-.78,1.38-1.37,1.29-2.41-2.8-.34-5.04,2.78-6.51,4.85Z"/><path class="b" d="M56.6,91.28c-.4,.28-.84,.65-.8,1.14,.04,.41,.41,.69,.76,.92,.47,.32,1.04,.65,1.57,.46,.26-.09,.47-.3,.67-.49l2.1-2.11c.82-.82,2.4-3.31,.06-2.78-1.35,.31-3.22,2.07-4.36,2.86Z"/><path class="b" d="M50.35,80.69c-1.36,.5-2.56,1.41-3.41,2.59-.12,.17-.24,.35-.23,.55,0,.47,.62,.68,1.09,.64,.66-.05,1.29-.3,1.88-.61,.69-.35,1.38-.83,1.66-1.55s-.07-1.71-.83-1.85c-.57-.1-1.1,.27-1.55,.63"/><path class="b" d="M46.39,74.86c-.78,.01-1.55,.26-2.19,.7-.29,.2-.56,.45-.63,.79-.14,.63,.52,1.21,1.17,1.23s1.23-.35,1.75-.74c.61-.45,1.19-.94,1.73-1.47,.22-.21,.44-.47,.39-.77-.08-.45-.7-.53-1.14-.44-.77,.16-1.5,.51-2.11,1.01"/><path class="b" d="M45.05,70.09c-.14,.46-.56,.87-.44,1.33,.1,.38,.55,.57,.94,.6,.66,.06,1.48-.35,1.43-1.01-.03-.45-.47-.79-.92-.85s-.9,.07-1.33,.2"/><path class="b" d="M44.04,54.14c-.38,.32-.87,.47-1.3,.72s-.82,.7-.74,1.19c.06,.37,.38,.67,.73,.8s.74,.13,1.12,.12c.74-.02,1.51-.06,2.19-.34s1.29-.88,1.39-1.62c.07-.49-.09-.98-.27-1.44-.27-.69-1.13-2.23-2.1-1.67-.64,.37-.38,1.69-1.03,2.23Z"/><path class="b" d="M37.5,10.37c-.98-.07-2-.13-2.91,.25s-1.66,1.33-1.46,2.29c.26,1.27,1.81,1.73,2.7,2.67,1.91,2.01,.35,5.53,1.66,7.97,.72,1.34,2.22,2.15,2.88,3.52,.52,1.07,.45,2.32,.35,3.5-.21,2.25-.53,4.49-.98,6.71-.13,.64-.26,1.32,0,1.92,.48,1.13,2.16,1.3,3.16,.59,1.01-.71,1.46-1.96,1.75-3.16,1.87-3.75,.02-8.92-.6-12.71-.27-1.66-.54-3.37-.11-5,.56-2.1,2.25-3.92,2.11-6.09-.04-.58-.22-1.17-.65-1.57-1.48-1.38-6.02-.76-7.9-.89Z"/><path class="b" d="M45.94,44.48c1.27-.58,1.8-1.75,.03-1.95-2.68-.31-6.45-1.05-9.08-.38-.6,.15-1.15,.48-1.56,.93-.17,.18-.32,.41-.32,.66,0,.53,.64,.8,1.17,.9,2.46,.46,4.99,.35,7.49,.24,.78-.03,1.57-.07,2.28-.4Z"/><path class="b" d="M143.96,110.44c-3.72,1.79-7.65,3.15-11.67,4.06-3.47,.79-7.03,1.7-10.59,1.49-3.33-.19,.96-1.99,2.18-2.12,3.33-.35,6.84-.59,9.93-2.01,3.56-1.63,6.92-3.64,10.59-5.12,.53-.21,1.06-.42,1.62-.52,1.65-.29,2.86,.62,1.34,2.05-.98,.93-2.19,1.57-3.41,2.15Z"/><path class="b" d="M152.42,101.85l1.75,2.17c.28,.35,.57,.72,.59,1.17,.03,.74-.67,1.27-1.29,1.67l-1.29,.82c-.24,.15-.53,.32-.81,.23-.36-.12-.46-.57-.53-.94-.5-2.95-2.25-5.5-3.66-8.13-.09-.17-.18-.36-.15-.54,.05-.24,.3-.39,.54-.41,1.82-.13,3.88,2.78,4.85,3.98Z"/><path class="b" d="M160.87,100.65c.09,.12,.17,.25,.2,.4,.05,.35-.27,.63-.56,.84-.57,.41-1.3,.84-1.94,.54-.44-.21-.67-.69-.88-1.13-.54-1.11-1.23-2.16-2.05-3.09-.52-.78-1.38-1.37-1.29-2.41,2.8-.34,5.04,2.78,6.51,4.85Z"/><path class="b" d="M166.96,91.28c.4,.28,.84,.65,.8,1.14-.04,.41-.41,.69-.76,.92-.47,.32-1.04,.65-1.57,.46-.26-.09-.47-.3-.67-.49l-2.1-2.11c-.82-.82-2.4-3.31-.06-2.78,1.35,.31,3.22,2.07,4.36,2.86Z"/><path class="b" d="M173.21,80.69c1.36,.5,2.56,1.41,3.41,2.59,.12,.17,.24,.35,.23,.55,0,.47-.62,.68-1.09,.64-.66-.05-1.29-.3-1.88-.61-.69-.35-1.38-.83-1.66-1.55s.07-1.71,.83-1.85c.57-.1,1.1,.27,1.55,.63"/><path class="b" d="M177.17,74.86c.78,.01,1.55,.26,2.19,.7,.29,.2,.56,.45,.63,.79,.14,.63-.52,1.21-1.17,1.23s-1.23-.35-1.75-.74c-.61-.45-1.19-.94-1.73-1.47-.22-.21-.44-.47-.39-.77,.08-.45,.7-.53,1.14-.44,.77,.16,1.5,.51,2.11,1.01"/><path class="b" d="M178.51,70.09c.14,.46,.56,.87,.44,1.33-.1,.38-.55,.57-.94,.6-.66,.06-1.48-.35-1.43-1.01,.03-.45,.47-.79,.92-.85s.9,.07,1.33,.2"/><path class="b" d="M179.52,54.14c.38,.32,.87,.47,1.3,.72s.82,.7,.74,1.19c-.06,.37-.38,.67-.73,.8s-.74,.13-1.12,.12c-.74-.02-1.51-.06-2.19-.34s-1.29-.88-1.39-1.62c-.07-.49,.09-.98,.27-1.44,.27-.69,1.13-2.23,2.1-1.67,.64,.37,.38,1.69,1.03,2.23Z"/><path class="b" d="M186.07,10.37c.98-.07,2-.13,2.91,.25s1.66,1.33,1.46,2.29c-.26,1.27-1.81,1.73-2.7,2.67-1.91,2.01-.35,5.53-1.66,7.97-.72,1.34-2.22,2.15-2.88,3.52-.52,1.07-.45,2.32-.35,3.5,.21,2.25,.53,4.49,.98,6.71,.13,.64,.26,1.32,0,1.92-.48,1.13-2.16,1.3-3.16,.59s-1.46-1.96-1.75-3.16c-1.87-3.75-.02-8.92,.6-12.71,.27-1.66,.54-3.37,.11-5-.56-2.1-2.25-3.92-2.11-6.09,.04-.58,.22-1.17,.65-1.57,1.48-1.38,6.02-.76,7.9-.89Z"/><path class="b" d="M177.63,44.48c-1.27-.58-1.8-1.75-.03-1.95,2.68-.31,6.45-1.05,9.08-.38,.6,.15,1.15,.48,1.56,.93,.17,.18,.32,.41,.32,.66,0,.53-.64,.8-1.17,.9-2.46,.46-4.99,.35-7.49,.24-.78-.03-1.57-.07-2.28-.4Z"/><path class="b" d="M100.98,87.72c-.75-.66-2.09-.37-3-.54-1.18-.22-2.34-.56-3.47-.97-2.28-.83-4.43-1.99-6.51-3.22-.68-.4-1.36-.82-1.93-1.38-.8-.77-1.33-1.78-1.77-2.8-.33-.78-.8-1.72-1.65-1.72-.49,0-.93,.36-1.17,.79-.88,1.61,.28,3.39,1.29,4.63,.89,1.1,2.06,1.94,3.26,2.69,4.17,2.59,9.35,3.89,14.25,3.82,.32,0,.68-.03,.88-.28,.24-.3,.11-.77-.18-1.02Z"/><path class="b" d="M78.29,73.7c-.21,.55-.32,1.26,.12,1.66,.19,.17,.45,.25,.71,.27,.68,.04,1.31-.31,1.9-.64l1.65-.94c.57-.32,1.15-.66,1.59-1.14,1.31-1.44,.07-3.84-1.88-3.3-1.71,.47-3.48,2.51-4.1,4.09Z"/><path class="b" d="M73.05,69.88c.87,.12,1.77,.23,2.59-.07,.31-.11,.59-.28,.87-.45l3.39-2.02c.63-.38,1.33-.85,1.42-1.58,.21-1.73-3.1-3.55-4.44-2.49-.7,.55-3.66,6.63-3.83,6.61Z"/><path class="b" d="M75.95,55.64c-2.69-.64-5.64-.09-7.92,1.49-.38,.26-.75,.56-1.01,.94-.18,.26-.3,.57-.24,.88,.12,.56,.84,.78,1.39,.65s1.01-.51,1.52-.77c2.01-1.01,4.49-.04,6.66-.63,.58-.16,1.19-.49,1.33-1.08,.16-.65-.38-1.31-1.01-1.54s-1.33-.12-2-.02"/><path class="b" d="M67.78,52.62c-.3,.23-.64,.56-.53,.93,1.44,.11,2.92-.43,3.95-1.43,.31-.3,.56-.67,.43-1.1-1.4-.23-2.81,.79-3.86,1.6Z"/><path class="b" d="M63.3,41.32c-.46,.03-1.02,.16-1.13,.6-.08,.34,.18,.67,.46,.87,.71,.49,1.62,.54,2.49,.54,2.14,0,4.27-.15,6.39-.47,.79-.12,2.73-.33,1.47-1.19-.91-.62-2.74-.59-3.78-.61-1.96-.04-3.94,.11-5.9,.25Z"/><path class="b" d="M72.74,26.91c-.28-1.09-.77-2.32-.56-3.47,.15-.8,.74-1.6,1.08-2.35,.84-1.83,2.14-3.42,3.62-4.77,.75-.68,1.6-1.43,1.69-2.44,.1-1.15-.88-2.13-1.91-2.64-2.69-1.34-5.8-.71-8.68-.72-2.47,0-5.43-.47-7.35,1.51-.21,.21-.4,.46-.44,.75-.04,.28,.07,.57,.21,.82,.9,1.54,3.11,1.83,4.16,3.27,.6,.82,.74,1.9,.69,2.92s-.26,2.03-.26,3.04c0,.41,.03,.84,.18,1.22,.28,.73,.93,1.23,1.52,1.74,1.3,1.1,2.6,2.68,2.16,4.33-.57,2.14-3.75,2.95-3.95,5.16-.02,.25,0,.51,.13,.72,.13,.21,.35,.34,.56,.45,2.25,1.11,5.15-.13,6.47-2.27s1.31-4.86,.68-7.28Z"/><path class="b" d="M121.45,87.58c.75-.66,2.09-.37,3-.54,1.18-.22,2.34-.56,3.47-.97,2.28-.83,4.43-1.99,6.51-3.22,.68-.4,1.36-.82,1.93-1.38,.8-.77,1.33-1.78,1.77-2.8,.33-.78,.8-1.72,1.65-1.72,.49,0,.93,.36,1.17,.79,.88,1.61-.28,3.39-1.29,4.63-.89,1.1-2.06,1.94-3.26,2.69-4.17,2.59-9.35,3.89-14.25,3.82-.32,0-.68-.03-.88-.28-.24-.3-.11-.77,.18-1.02Z"/><path class="b" d="M144.15,73.55c.21,.55,.32,1.26-.12,1.66-.19,.17-.45,.25-.71,.27-.68,.04-1.31-.31-1.9-.64l-1.65-.94c-.57-.32-1.15-.66-1.59-1.14-1.31-1.44-.07-3.84,1.88-3.3,1.71,.47,3.48,2.51,4.1,4.09Z"/><path class="b" d="M149.38,69.74c-.87,.12-1.77,.23-2.59-.07-.31-.11-.59-.28-.87-.45l-3.39-2.02c-.63-.38-1.33-.85-1.42-1.58-.21-1.73,3.1-3.55,4.44-2.49,.7,.55,3.66,6.63,3.83,6.61Z"/><path class="b" d="M146.49,55.5c2.69-.64,5.64-.09,7.92,1.49,.38,.26,.75,.56,1.01,.94,.18,.26,.3,.57,.24,.88-.12,.56-.84,.78-1.39,.65s-1.01-.51-1.52-.77c-2.01-1.01-4.49-.04-6.66-.63-.58-.16-1.19-.49-1.33-1.08-.16-.65,.38-1.31,1.01-1.54s1.33-.12,2-.02"/><path class="b" d="M154.66,52.47c.3,.23,.64,.56,.53,.93-1.44,.11-2.92-.43-3.95-1.43-.31-.3-.56-.67-.43-1.1,1.4-.23,2.81,.79,3.86,1.6Z"/><path class="b" d="M159.14,41.17c.46,.03,1.02,.16,1.13,.6,.08,.34-.18,.67-.46,.87-.71,.49-1.62,.54-2.49,.54-2.14,0-4.27-.15-6.39-.47-.79-.12-2.73-.33-1.47-1.19,.91-.62,2.74-.59,3.78-.61,1.96-.04,3.94,.11,5.9,.25Z"/><path class="b" d="M149.7,26.77c.28-1.09,.77-2.32,.56-3.47-.15-.8-.74-1.6-1.08-2.35-.84-1.83-2.14-3.42-3.62-4.77-.75-.68-1.6-1.43-1.69-2.44-.1-1.15,.88-2.13,1.91-2.64,2.69-1.34,5.8-.71,8.68-.72,2.47,0,5.43-.47,7.35,1.51,.21,.21,.4,.46,.44,.75,.04,.28-.07,.57-.21,.82-.9,1.54-3.11,1.83-4.16,3.27-.6,.82-.74,1.9-.69,2.92s.26,2.03,.26,3.04c0,.41-.03,.84-.18,1.22-.28,.73-.93,1.23-1.52,1.74-1.3,1.1-2.6,2.68-2.16,4.33,.57,2.14,3.75,2.95,3.95,5.16,.02,.25,0,.51-.13,.72-.13,.21-.35,.34-.56,.45-2.25,1.11-5.15-.13-6.47-2.27s-1.31-4.86-.68-7.28Z"/><path class="b" d="M110.46,12.46c-2.19,.66-4.55,.34-6.82,.03,.14,1.7,2.22,2.45,3.92,2.49,1.7,.05,3.65-.12,4.84,1.09,.6,.61,.88,1.47,1.03,2.31,.54,3.09-.43,6.26-.19,9.39,.14,1.78,.67,3.53,.73,5.32s-.47,3.76-1.95,4.75c-.96,.65-2.18,.79-3.23,1.27s-2.03,1.59-1.68,2.7c2.43-.52,5.01-.28,7.3,.69,.21,.09,.44,.19,.67,.17,.31-.03,.56-.26,.78-.49,1.01-1.06,1.86-2.27,2.51-3.58,.18-.36,.35-.74,.38-1.14,.04-.6-.23-1.17-.48-1.72-1.6-3.57-2.22-7.57-1.78-11.45,.19-1.73,.62-3.49,1.68-4.87,.68-.89,1.59-1.57,2.32-2.42,1.69-1.96,2.31-4.81,1.57-7.29-.61-2.06-3.95-6.7-6.41-4.54-1.14,1-.83,2.95-1.41,4.21-.7,1.52-2.2,2.63-3.77,3.1Z"/><path class="b" d="M111.07,58.38c-.47,0-.97,.02-1.35,.31s-.48,.94-.08,1.2c.13,.08,.29,.11,.44,.13,1.98,.27,3.98,.43,5.98,.45,.31,0,.63,0,.92-.12,.29-.13,.51-.39,.72-.63,1.2-1.45,2.65-3.56,1.53-5.47-.69-1.17-1.98-1.8-2.5-.5-.4,.98,.7,2.27,.09,3.36-.98,1.75-4.07,1.25-5.73,1.27Z"/><path class="b" d="M112.9,68.96c-.27,.27-.64,.44-.99,.59l-6.01,2.67c-.54,.24-1.16,.59-1.21,1.17-.05,.63,.59,1.09,1.18,1.32,1.12,.42,2.32,.52,3.51,.62,2.68,.21,5.52,.39,7.9-.86,.35-.18,.69-.4,.94-.7,.29-.35,.44-.8,.56-1.24,.62-2.32,.48-4.83-.39-7.07-.27-.7-.63-1.4-1.2-1.89-4-3.51-3.28,4.38-4.29,5.39Z"/><path class="b" d="M119.77,104.87c.78-1.98,3.33-10.81-.55-10.95-.6-.02-1.19,.18-1.77,.34-3.52,.98-7.25,.54-10.87,.09-1.17-.15-2.35-.3-3.52-.14,.23,.65,.85,1.1,1.49,1.36s1.34,.37,1.99,.61c3.19,1.17,4.48,5.26,6.32,7.81,.46,.64,.99,1.27,1.68,1.65,1.09,.6,2.4,.5,3.64,.4,.36-.03,.73-.07,1.02-.28,.29-.21,.44-.55,.57-.88Z"/><path class="b" d="M107.23,120.75c-.47-.03-1.07,.03-1.19,.48-.09,.34,.17,.66,.46,.86,.77,.53,1.76,.58,2.64,.87,.97,.32,1.84,.94,2.45,1.76,.82,1.09,1.15,2.46,1.59,3.75,.44,1.29,1.04,2.58,2.09,3.44,1.06,.86,2.67,1.15,3.78,.36,1.2-.86,1.38-2.54,1.45-4.01,.08-1.7,.3-3.46,.24-5.16-.07-1.79-1-1.55-2.45-1.63-3.68-.21-7.37-.48-11.05-.72Z"/><path class="b" d="M97.95,262.27c1.07,.02,2.42-.15,2.74-1.17-1.03-1.72-3.41-1.89-5.41-1.91-6.16-.05-12.31-.45-18.43-1.22-5.34-.67-11.79-.66-15.97-4.33l-4.47-3.93c-.24-.22-.5-.44-.81-.53-.95-.29-1.79,.65-2.34,1.47l-2.49,3.74c-.6,.91-1.22,2.09-.63,3.01,.38,.6,1.13,.81,1.82,.99,3.2,.81,6.27,.74,9.54,1.17,4.06,.53,8.13,.99,12.21,1.37,8.03,.75,16.15,1.34,24.22,1.34Z"/><path class="b" d="M111.19,267.21c-1.55,.01-3.68,.66-3.41,2.18,13.24,2.29,26.71,3.29,40.14,3,11.73-.26,24.55-1.2,34.03,5.72,4.32,3.15,7.49,7.73,9.36,12.74,.55,1.49,1.66,3.38,3.16,2.87,.76-.26,1.17-1.07,1.46-1.82,5.14-13.57-5.58-25.63-17.92-29.42-4.9-1.51-9.02-.93-13.96-.02-8.07,1.47-16.22,2.52-24.38,3.3-9.46,.9-18.97,1.39-28.47,1.46Z"/><path class="b" d="M118.85,225.57c-2.09-.06-4.49,.03-5.81,1.64,2.05,1.46,4.7,1.73,7.21,1.92,10.06,.75,20.34,.95,29.85,4.33,1.81,.64,3.59,1.4,5.15,2.52,1.83,1.3,3.29,3.05,4.73,4.77,2.3,2.75,4.62,5.49,6.94,8.22,2.96-4.79,.89-11.46-3.35-15.16-4.57-3.99-11.92-5.68-17.76-6.82-8.57-1.68-18.23-1.17-26.94-1.41Z"/><path class="b" d="M31.61,266.69c-1.64,1.1-3.11,2.77-3.19,4.75-.01,.26,.01,.55,.19,.74,.19,.21,.5,.24,.79,.24,1.74,.02,3.43-.53,5.11-1,7.15-2,14.61-2.57,21.99-3.45,8.72-1.03,.35-7.2-4.78-6.67-6.04,.63-15.02,1.98-20.1,5.39Z"/></g></svg>