<?xml version="1.0" encoding="UTF-8"?><svg id="a" xmlns="http://www.w3.org/2000/svg" viewBox="0 0 170.45 344.07"><defs><style>.b{fill:#dfd7cd;}.c{fill:#669;}.d{stroke-linecap:round;stroke-width:.9px;}.d,.e{fill:none;stroke:#dfd7cd;stroke-miterlimit:10;}.e{stroke-width:2.71px;}</style></defs><path class="c" d="M149.2,340.13c5.37-4.81,8.75-8.11,4.38-17.06-3.41-6.42,.4-4.01,1.77-5.5,5.06-1.92,3.33-8.99,3.21-11.84s.2-2.01,1.89-2.65c1.36-1.48,.28-6.86-.16-10.55s.52-1.16,2.73-2.97-.04-7.7,1.01-10.03c3.37-1.28,5.9-2.25,6.42-3.41-7.42-27.09-17.28-37.81-22.82-47.28-5.53-9.47-56.5-135.78-61.75-154.59-5.25-18.81-8.66-20.28-11.83-21.01-2.77-4.74-6.78-5.14-11.32-4.38C42.85-3.38,33.29,7.01,28.24,8.93,20.58-3.59,14.33,.72,14.33,.72h0s-7.38,.88-4.78,15.33c-5.06,1.92-19.1,.52,.79,52.77-3.89,2.45-6.62,5.42-5.54,10.79-1.89,2.65-3.46,6.02,5.13,23.56,8.58,17.54,54.49,145.77,56.65,156.53s1.92,25.32,14.39,50.49c1.16,.52,3.69-.44,7.06-1.72,2.33,1.04,4.57,6.94,7.42,6.82s1.89-2.65,4.01,.4,4.89,7.79,6.9,7.99c1.69-.64,1.36-1.48,3.17,.72,1.81,2.21,5.21,8.63,10.27,6.71,2.01,.2,3.25-4.13,4.98,2.93,2.69,9.59,7.44,10.6,14.61,9.84,0,0,6.15-.45,9.81-3.73Z"/><rect class="e" x="7.9" y="64.5" width="68.54" height="16.23" rx="5" ry="5" transform="translate(-23.07 19.75) rotate(-20.84)"/><line class="d" x1="18.04" y1="81.8" x2="67.97" y2="62.8"/><rect class="e" x="80.84" y="268.81" width="80.71" height="19.12" rx="5.89" ry="5.89" transform="translate(-91.09 61.31) rotate(-20.84)"/><line class="d" x1="92.79" y1="289.18" x2="151.58" y2="266.81"/><path class="b" d="M46.87,136.93s8.67,2.49,12.32,14.61l16.95-6.45s5.18-24.16,3.57-28.38c-1.6-4.21-9.79-15.57-9.18-21.59-4.53,.76-8.23,1.2-9.91,1.84,.76,4.53,1.96,12.76,8.5,12.2,5.3,3.77,7.74,7.67,.11,23.11-.84,.32-1.57,3.49-2.45-3.89-.88-7.38,.89-12.88-6.53-19.71-2.77-4.74-4.08-10.03-4.08-10.03,0,0-8.81,2.7-8.6,3.91s1.84,13.12,10.75,11.18c2.98,2.75,5.5,11.91,1.12,23.22-4.45-4.09-9.87-10.72-9.5-22.44-2.65-1.89-6.14-3.45-4.69-9.79-5.7,.24-9.39,.68-8.75,2.36s-.37,11.72,9.03,11.04c1.6,4.21,1.36,18.78,1.36,18.78Z"/><path class="d" d="M88.02,308.46s71.68-26.8,76-28.92"/><path class="d" d="M98.03,314.19s21.07-14.4,62.33-23.72"/><path class="d" d="M108.06,322.99s12.45-13.15,50.78-19.41"/><path class="d" d="M123.08,330.12s8.54-9.26,29.17-11.1"/><rect class="d" x="48.71" y="85.45" width="64.03" height="179.46" rx="9.85" ry="9.85" transform="translate(-57.03 40.17) rotate(-20.84)"/></svg>