<?xml version="1.0" encoding="UTF-8"?><svg id="a" xmlns="http://www.w3.org/2000/svg" viewBox="0 0 246.04 302.97"><defs><style>.b{fill:#dfd7cd;}.c{fill:#669;}</style></defs><path class="c" d="M12.23,.06C7.07,.63,.21,3.97,0,17.62c-.02,1.42,.28,2.82,.87,4.1,9.8,21.38,36.79,68.93,39.26,87.61s-2.21,64.25,9.19,92.15c11.4,27.9,32.25,65.63,98.52,91.76,24.67,10.47,70.93,12.2,92.91,6.57,4.73-1.21,6.4-1.82,3.98-9.39-3.06-18.72-12.15-54.37-20.04-68.27-1.96-3.45-5.82-5.34-9.74-4.73-22.99,3.6-78.04,7.19-99.88-14.65-23.13-23.12-27.01-24.72-38.91-50.29-.55-1.18-.85-2.47-.89-3.77-.91-32.09-1.43-51.54-.47-57.13,.98-5.7,3.18-26.2-32.6-63.45C34.14,19.44,24.81,8.54,20.43,3.37,18.41,.99,15.35-.29,12.23,.06Z"/><path class="b" d="M151.84,232.47c-1.84-1.8,23.4,6.54,66.06-10.62,.74-.3,1.56,.19,1.63,.99,.32,3.34,1.43,6.48,2.19,8.33,.37,.89-.17,1.88-1.11,2.05-8.19,1.51-40.69,7.18-48.88,3.71-15.22-3.92-16.95-1.57-19.9-4.45Z"/><path class="b" d="M220.58,217.7s5.69,39.64,24.16,72.72c1.79,3.48,1.23,5.24,1.23,5.24,0,0,.4,2.73-1.56,.8s-25.99-62.97-25.58-79.33c.56-1.76,1.73-2.35,1.76,.56Z"/><path class="b" d="M223.24,285.51c-.75-1.45-2.22-2.37-3.85-2.46-14.17-.75-88.66-5.72-111.36-28.31-25.12-25.01-46.98-47.54-43.96-38.82,3.02,8.73,28.24,41.95,46.61,55.65,17.63,13.14,63.11,29.84,110.03,27.1,3.38-.2,5.7-3.45,4.88-6.73-.74-2.93-1.62-5.03-2.35-6.43Z"/><path class="b" d="M50.93,45.13s14.36,16.05,16.84,29.45c1.23,5.24,4.34,22.72,.5,29.6-6.46,13.09-11.63,20.16-13.86,30.11-1,15.19-.84,29.79,1.61,40.27,4.97,26.8-6.11,28.09-10.61-9.23-.95-33.27-5.25-53.08,7.99-70.16,9.1-22.29-12.24-52.3-22.3-63.34S4.95-10.57,24.47,13.16c19.53,23.73,26.46,31.97,26.46,31.97Z"/></svg>