<?xml version="1.0" encoding="UTF-8"?><svg id="a" xmlns="http://www.w3.org/2000/svg" viewBox="0 0 339.57 329.73"><defs><style>.b{stroke:#dfd7cd;stroke-miterlimit:10;stroke-width:2.05px;}.b,.c{fill:#669;}.d{fill:#dfd7cd;}</style></defs><path class="c" d="M250.35,305.34c-30.04,21.85-180.94,33.46-180.94,15.7-19.8-25.26,50.9-281.54,50.9-281.54l8.51-19.57,13.66-10.92,22.53-4.1,17.75,4.1,8.88,7.51,7.51,10.92,6.15,24.58,32.09,165.24,12.97,88.08Z"/><path class="b" d="M91.6,297.49s23.9-107.88,25.95-137.93,4.78-116.08,8.19-127.68c3.41-11.61,14.34-19.8,21.17-21.17,6.83-1.37,21.38-4.78,35.27,0,12.07,7.51,17.3,17.75,17.99,23.22s-.68,62.14,2.73,79.89c3.41,17.75,12.97,43.02,10.92,76.47-2.05,33.46,14.91,107.2,14.91,107.2l2.85,15.7s29.36,2.05,40.97-2.05c11.61-4.1,21.85-3.41,27.31-4.78s0-7.15,0-7.15c0,0,5.46-4.46,13.66-3.09s19.8-4.1,24.58-5.46c4.78-1.37-30.04-88.47-42.33-100.23-12.29-11.75-17.07-11.75-21.17-19.26-4.1-7.51-33.46-62.14-36.19-68.96S202.9,29.83,200.17,25.05c-2.73-4.78-31.41-48.48-74.43-4.78C91.6,79.68,58.83,161.61,54.73,171.17S11.71,274.96,8.3,285.2c-3.41,10.24-8.88,21.85-6.83,24.58s5.3,3.76,7.77,3.93c2.47,.17,1.79,4.95,1.79,7,0,2.05,19.12,4.1,25.95,2.05,6.83-2.05,37.55,2.73,40.29,4.1,2.73,1.37,14.34-29.36,14.34-29.36Z"/><path class="d" d="M105.13,233.24s-52.45-6.08-62.01,2.12c-10.24,11.61,2.05,4.78,2.05,4.78,0,0,8.19-4.78,22.53-3.41,14.34,1.37,33.4,3.53,36.16,2.79,1.39-4.84,1.26-6.27,1.26-6.27Z"/><path class="d" d="M22.94,248.29s2.43-1.33,7.89-2.01c5.46-2.05,6.83-2.73,6.83-2.73l-4.1,8.19s-3.41-.68-8.19,2.05c-4.78,1.37-5.05,.95-5.05,.95l2.62-6.45Z"/><path class="d" d="M32.2,257.89c0-1.37,0-4.78,2.73-7.51,1.37-.68,10.92-3.41,12.29-3.41s13.66-2.73,39.6,1.37c14.34,1.37,14.92,1.57,14.92,1.57l-1.39,6.73s-35.78-4.67-49.48-4.74c-2.21-.01-4.38,.57-6.35,1.58-2.61,1.32-5.3,2.17-6.79,2.52-.85,.21-1.64,.58-2.35,1.08-1.39,.98-3.17,2.18-3.17,.83Z"/><path class="d" d="M30.83,260.62s-6.83,1.37-8.19,1.37-4.85-.78-5.5,.63-4.34,10.85-4.34,10.85c0,0,3.7-3.97,6.43-4.65s8.19,0,8.19-.68,3.41-7.51,3.41-7.51Z"/><path class="d" d="M10.84,278.42s11.11-2.1,13.84-1.42c1.37-4.1,3.12-11.01,7.36-10.97,4.39-1.96,5.61-4.05,11.76-4.05s51.2,.11,54.62,3.81c-1.36,5.35-3.54,16.64-3.54,16.64,0,0-45.61-5.42-51.76-3.38-6.15,2.05-16.67,5.13-21.31,5.64-2.45,5.11-3.96,8.7-3.96,8.7,0,0-8.52-5.63-11.09-3.84,2.21-7.09,4.07-11.13,4.07-11.13Z"/><path class="d" d="M92.5,293.4s-50.06-9.56-75.22,2.73c-.78,2.73-5.56,14.34-5.56,17.07,2.73,5.46,20.48-4.1,71.92,3.61,3.88-5.65,8.87-23.41,8.87-23.41Z"/><path class="d" d="M9.86,313.88s-6.34,0-8.84-4.51c-.24-5.72,2.81-11.88,2.81-11.88,0,0,11.29-1.38,13,0,1.71,1.38,.34,11.62,.34,11.62,0,0-1.65,4.77-7.31,4.78Z"/><path class="d" d="M215.42,224.36s52.45-6.08,62.01,2.12c10.24,11.61-2.05,4.78-2.05,4.78,0,0-8.19-4.78-22.53-3.41s-34.21,3.47-36.97,2.73c-1.39-4.84-.46-6.21-.46-6.21Z"/><path class="d" d="M287.66,249.01c0-1.37,0-4.78-2.73-7.51-1.37-.68-10.92-3.41-12.29-3.41s-13.66-2.73-39.6,1.37c-14.34,1.37-14.92,1.57-14.92,1.57l.48,6.63s36.69-4.57,50.39-4.64c2.21-.01,4.38,.57,6.35,1.58,2.61,1.32,5.3,2.17,6.79,2.52,.85,.21,1.64,.58,2.35,1.08,1.39,.98,3.17,2.18,3.17,.83Z"/><path class="d" d="M226.11,283.84s45.16-8.88,70.32,3.41c.78,2.73,5.56,14.34,5.56,17.07-2.73,5.46-19.68-4.29-71.11,3.41-3.88-5.65-4.78-23.9-4.78-23.9Z"/><path class="d" d="M220.91,258.69s20.91-3.53,33.2-2.16,30.04,0,36.19,4.78c2.05,5.46,3.41,14.34,3.41,14.34,0,0-14.93-7.47-29.65-6.46s-40.63,2.98-40.63,2.98l-2.52-13.47Z"/><path class="d" d="M295.08,280.74s26.38-.06,39.48-6.68c4.22,8.41,4.4,13.46,3.97,15.72-3.59,2.46-9.14,2.95-12.64,4.99-9.04,1.35-10.19,1.67-17.09,1.17-6.89-.5-8.94,3.28-8.94,3.28l-4.78-18.48Z"/><path class="d" d="M291.72,265.93s12.24,.16,19.07-2.57c6.83-2.73,16.73-8.5,17.58-6.3s3.34,8.87,3.34,8.87c0,0-8.03,3.02-14.82,5.34-5.49,1.88-10.77,3.3-14.67,3.16-1.76-.06-3.51,.19-5.17,.76-2.51,.86-3.32,.45-3.32,.45l-2-9.72Z"/><path class="d" d="M288.48,252.36c-.13-.7,.36-1.36,1.06-1.45,3.27-.41,11.81-1.62,15.09-3.26,4.1-2.05,17.11-7.97,17.09-7.06s3.71,9.03,3.71,9.03c0,0-11.24,2.12-12.6,3.49-1.37,1.37-4.58,2.12-8.77,3.45-3.3,1.04-10.35,1.69-13.2,1.92-.7,.06-1.33-.43-1.46-1.13l-.91-5Z"/><path class="d" d="M282.17,233.25c-.05-.36,.17-.7,.52-.8,2.04-.6,8.93-2.56,12.39-2.56,4.1,0,11.61-2.73,13.66-4.1,1.52-1.01,3.83-1.76,4.92-2.08,.35-.1,.72,.07,.87,.4l3.02,6.76c.17,.39-.02,.84-.42,.99-2.8,1.01-12.71,4.57-15.13,5.33-2.59,.82-14.24,.89-17.25,1.94-.37,.13-.77-.06-.91-.42-1.16-2.84-1.55-4.6-1.67-5.46Z"/></svg>