<?xml version="1.0" encoding="UTF-8"?><svg id="a" xmlns="http://www.w3.org/2000/svg" viewBox="0 0 208.41 315.83"><defs><style>.b{fill:#669;}.c{fill:none;stroke:#dfd7cd;stroke-miterlimit:10;stroke-width:2px;}</style></defs><path class="b" d="M138.38,249.33c-8.36,.24-16.7,.66-25.07,.82-12.48,.24-24.96,.2-37.44,.16-3.09,0-6.18-.25-9.27-.12-.73,.03-3.81-.11-4.18,.61s1.09,2.21,1,3.21c-.11,1.18-.87,2.23-1.81,2.95s-2.06,1.17-3.17,1.6c-4.7,1.81-9.48,3.38-14.28,4.87-1.16,.36-2.32,.72-3.48,1.07-.78,.24-2.54,.21-3.09,.87-1.14,1.37-.47,3.63,.57,4.81,.58,.66,1.34,1.14,1.92,1.8s.97,1.62,.6,2.41c-.24,.52-.75,.85-1.13,1.28-1.24,1.43-.9,3.7-.65,5.42,.33,2.21,.73,4.4,.99,6.62,.55,4.52,1.01,9.05,1.4,13.59,.36,4.21,.9,7.8-1.54,11.58-.78,1.2-1.81,2.32-3.17,2.76-2.02,.66-4.3-.39-5.64-2.04-1.35-1.65-1.93-3.77-2.35-5.86-1.24-6.27-.74-12.09,.41-18.31,.73-3.99,2.22-8.98-.12-12.65-.36-.56-.77-1.09-1.04-1.7s-.36-1.34-.06-1.93c.62-1.21,1.9-1.41,2.23-2.96,.25-1.14,.02-2.42-.09-3.52-.04-.39-.1-.81-.37-1.09-.27-.28-.68-.36-1.07-.42-4.57-.76-9.11-1.62-13.64-2.58-2.66-.57-8.81-.98-8.68-4.98,.09-2.78,3.9-3.69,6.68-3.66v-.31l-.18-4.65-.34-9.52-.48-13.51-.59-16.61-.67-18.82-.72-20.15-.74-20.6-.72-20.16-.67-18.83-.6-16.62-.48-13.52-.34-9.54-.11-3c-.04-1.16-.4-3.1,.16-3.98,.34-.53,1.02-.79,1.3-1.36,.36-.71-.03-1.62,.33-2.32,.23-.44,.74-.74,.81-1.24,.04-.26-.06-.52-.13-.77-.28-1.05-.03-2.23,.65-3.09,1.01-1.25-.57-1.1-1.45-1.21-1.74-.22-3.43-.58-5.1-1.13-.66-.22-1.33-.46-1.87-.9S-.05,51,0,50.31c.07-.97,.93-1.66,1.75-2.18,3.86-2.45,7.88-3.08,12.23-4.01,3.55-.76,7.31-2.03,9.15-5.42,.86-1.59,1.2-3.63,.26-5.18-.34-.56-.83-1.03-1.08-1.63-.65-1.54,.39-3.39-.21-4.94-.52-1.35-2.17-2.13-2.42-3.55-.18-1.03,.43-2.03,1.16-2.78s1.6-1.38,2.14-2.27c.87-1.44,.71-3.24,.52-4.91-.32-2.87-.09-6.39,1.53-8.79,.31-.47,.74-.95,1.3-.97,.26-.01,.5,.08,.74,.18,3.09,1.39,3.95,5.45,3.43,8.8-.56,3.64-.44,5.16,1.82,8.1,.81,1.05,1.48,2.44,.97,3.66-.36,.86-1.23,1.24-1.75,1.96s-.53,1.77-.26,2.63c.21,.68,.62,1.35,.54,2.06-.03,.23-.11,.44-.18,.66l-.98,2.72c-.76,2.11,.56,4.5,2.31,5.72,2.29,1.61,5.2,2.01,7.87,2.62,3.24,.74,6.8,1.09,9.94,2.44,3.26,1.41,7.31,4.48,2.96,7.36-.77,.51-1.62,.91-2.37,1.45-.82,.59-1.26,.56-2.21,.87-.15,.89,.23,1.84,.94,2.39,.28,.22,.62,.39,.84,.67,.5,.66,.18,1.68,.67,2.34,.21,.29,.56,.47,.78,.76,.42,.53,.34,1.28,.3,1.95s.04,1.46,.6,1.83c.32,.2,.73,.23,1.01,.49,.95,.89,.4,1.47,1.79,1.92,1.19,.39,3.61-.14,4.91-.17,3.55-.06,7.1-.12,10.65-.19l21.83-.38c8.83,0,17.68-.31,26.51-.46l12.79-.22c2.6-.05,5.19,.11,7.79,.19,2.35,.07,4.95,.36,7.1-.81,.24-.13,.47-.29,.62-.51,.28-.45,.18-1.09,.54-1.47,.26-.27,.67-.33,.98-.55,.54-.4,.57-1.19,.49-1.86s-.2-1.41,.19-1.96c.21-.3,.54-.5,.74-.8,.44-.69,.07-1.69,.53-2.38,.2-.3,.53-.48,.8-.72,.68-.59,.99-1.57,.79-2.45-.97-.26-1.4-.19-2.26-.74-.78-.5-1.65-.84-2.45-1.3-4.51-2.61-.66-5.92,2.52-7.52,3.05-1.54,6.59-2.1,9.78-3.03,2.63-.77,5.5-1.34,7.7-3.09,1.67-1.33,2.85-3.79,1.96-5.85l-1.14-2.66c-.09-.21-.18-.42-.22-.65-.13-.7,.24-1.39,.41-2.09,.21-.88,.14-1.91-.42-2.61s-1.45-1.01-1.86-1.85c-.58-1.19,0-2.62,.75-3.72,2.08-3.07,2.11-4.59,1.33-8.19-.71-3.31-.1-7.41,2.9-8.99,.23-.12,.47-.22,.73-.23,.56,0,1.02,.44,1.36,.89,1.76,2.3,2.2,5.79,2.05,8.68-.09,1.68-.14,3.49,.81,4.87,.59,.86,1.5,1.44,2.27,2.14s1.45,1.67,1.32,2.7c-.17,1.44-1.76,2.31-2.21,3.69-.51,1.59,.64,3.38,.08,4.95-.22,.61-.68,1.11-.98,1.69-.84,1.6-.39,3.62,.57,5.15,2.04,3.27,5.88,4.32,9.46,4.86,4.4,.67,8.45,1.06,12.45,3.27,.85,.47,1.75,1.11,1.88,2.07,.09,.69-.27,1.38-.78,1.85s-1.17,.76-1.81,1.01c-1.64,.64-3.3,1.11-5.02,1.43-.87,.17-2.45,.1-1.37,1.29,.73,.81,1.05,1.97,.83,3.04-.05,.26-.13,.52-.08,.78,.1,.49,.62,.76,.88,1.19,.41,.68,.07,1.62,.47,2.3,.32,.54,1.01,.77,1.38,1.27,.62,.84,.37,2.8,.4,3.96l.07,3,.23,9.55,.33,13.53,.4,16.63,.46,18.84,.49,20.16,.5,20.6,.49,20.16,.46,18.83,.4,16.61,.33,13.51,.23,9.52,.11,4.65v.31c2.78-.2,6.63,.48,6.89,3.25,.37,3.98-5.74,4.76-8.36,5.49-4.46,1.24-8.95,2.37-13.46,3.4-.38,.09-.79,.19-1.04,.48-.25,.3-.29,.72-.3,1.11-.04,1.1-.19,2.4,.12,3.52,.43,1.52,1.72,1.64,2.41,2.82,.34,.57,.28,1.3,.06,1.93s-.61,1.18-.94,1.76c-2.12,3.8-.33,8.7,.64,12.64,1.52,6.14,2.36,11.93,1.51,18.26-.29,2.11-.75,4.27-1.99,5.99s-3.45,2.9-5.51,2.37c-1.38-.36-2.49-1.41-3.33-2.56-2.67-3.63-2.34-7.24-2.24-11.46,.12-4.55,.31-9.1,.58-13.64,.13-2.24,.4-4.44,.6-6.67,.15-1.73,.36-4.01-.97-5.37-.41-.4-.93-.71-1.2-1.21-.42-.77-.09-1.75,.45-2.44s1.27-1.22,1.81-1.91c.96-1.23,1.49-3.53,.28-4.83-.59-.63-2.34-.49-3.14-.68-1.18-.28-2.36-.57-3.54-.86-4.89-1.2-9.75-2.48-14.55-4-1.13-.36-2.28-.74-3.26-1.41-.86-.58-2.21-2-2.2-3.14,0-.78,1.48-1.8,.36-2.44-.36-.21-.8-.21-1.21-.21-3.87,0-7.73,.07-11.59,.18Z"/><path class="c" d="M5.81,65.06c15.53-3.15,31.62-3.89,47.14-.67-.06,28.77,1.05,57.81,.98,86.57l-.12,53.27c-.04,15.89-.64,31.91,.86,47.74,.06,.68,.13,1.41-.19,2.01-.39,.74-1.24,1.1-2.03,1.4-1.75,.67-3.04,1.19-4.88,1.53-2.69,.49-5.38,.98-8.07,1.47-9.12,1.66-21.48,1.07-28.08-5.45"/><path class="c" d="M197.41,60.94c-15.69-2.26-33.2-.65-48.51,3.45,3.48,58.73,5.21,111.24,8.69,169.97,.14,2.35,.32,4.69,.32,7.05,0,2.52-.09,4.82,.32,7.3,.11,.67,.23,1.35,.52,1.97,.83,1.79,2.71,1.84,4.37,2.48,3.26,1.26,6.48,2.58,9.98,3.01,9.2,1.14,23.09-1.35,29.31-8.23"/></svg>