<?xml version="1.0" encoding="UTF-8"?><svg id="a" xmlns="http://www.w3.org/2000/svg" viewBox="0 0 299.53 261.04"><defs><style>.b,.c,.d{fill-rule:evenodd;}.b,.e{fill:#fffced;}.c,.f{fill:#1d1e1c;}.g{fill:#fffdee;}.h{fill:#1d1d1b;}</style></defs><ellipse class="g" cx="149.77" cy="130.52" rx="149.77" ry="130.52"/><g><path class="h" d="M47.38,170.98l-6.14,1.37-1.3-2.18,19.62-4.17,1.5,2.52-12.98,15.3-1.34-2.25,4.09-4.8-3.45-5.78Zm4.85,4.39l3.72-4.42c.85-1,1.67-1.82,2.47-2.62l-.03-.05c-1.09,.32-2.25,.69-3.44,.94l-5.67,1.22,2.95,4.93Z"/><path class="h" d="M64.83,174.69c.98,.79,2.29,2.04,3.38,3.3,1.72,1.98,2.46,3.61,2.43,5.17-.03,1.26-.64,2.53-1.77,3.51-1.87,1.62-4.16,1.52-5.97,.47l-.06,.06c.56,1.42,.11,2.96-1.09,4.6-1.6,2.2-2.68,3.74-2.98,4.52l-1.66-1.92c.22-.6,1.16-1.97,2.62-3.91,1.61-2.14,1.67-3.58,.28-5.31l-1.51-1.75-6.22,5.39-1.6-1.85,14.16-12.27Zm-4.93,7.52l1.64,1.89c1.72,1.98,3.89,2.3,5.53,.87,1.85-1.61,1.5-3.65-.2-5.61-.78-.89-1.37-1.46-1.74-1.7l-5.24,4.54Z"/><path class="h" d="M76.11,189.1l-4.41-3.73,1.35-1.59,10.74,9.08-1.35,1.59-4.43-3.75-10.92,12.91-1.89-1.6,10.92-12.91Z"/><path class="h" d="M79.61,212.63l4.2-6.88,.55-12.47,2.4,1.47-.44,5.86c-.15,1.59-.24,2.89-.43,4.33l.05,.03c1.08-.79,2.3-1.5,3.68-2.34l5.06-3.05,2.36,1.44-11.09,6-4.21,6.9-2.11-1.29Z"/><path class="h" d="M91.79,216.09c.72,1.09,1.95,2.21,3.5,2.89,2.3,1.01,4.17,.39,4.94-1.37,.7-1.6,.19-2.96-1.77-4.87-2.38-2.28-3.48-4.55-2.41-6.97,1.19-2.71,4.32-3.73,7.7-2.25,1.75,.77,2.89,1.76,3.44,2.53l-1.42,1.56c-.39-.57-1.34-1.57-2.91-2.27-2.37-1.04-3.9-.02-4.42,1.16-.72,1.62,0,2.89,1.98,4.87,2.44,2.43,3.29,4.49,2.16,7.05-1.18,2.68-4.17,4.17-8.27,2.36-1.68-.74-3.28-2.06-3.94-3.09l1.42-1.62Z"/><path class="h" d="M114,209.86l-5.53-1.64,.59-2,13.47,4-.59,2-5.56-1.65-4.81,16.2-2.37-.71,4.81-16.2Z"/><path class="h" d="M123.21,223.5l-2.97,5.55-2.5-.43,9.63-17.61,2.89,.5,3.14,19.82-2.58-.45-.98-6.23-6.64-1.15Zm6.49-.82l-.93-5.71c-.21-1.29-.29-2.45-.38-3.58h-.06c-.47,1.03-.95,2.14-1.53,3.21l-2.77,5.1,5.66,.98Z"/><path class="h" d="M160.35,230.9c-1.09,.45-3.27,1.13-5.83,1.2-2.87,.08-5.26-.59-7.17-2.32-1.67-1.53-2.76-4.04-2.83-7-.15-5.66,3.66-9.91,10.02-10.07,2.2-.06,3.96,.37,4.78,.75l-.57,2.02c-1.03-.45-2.3-.76-4.22-.71-4.62,.12-7.56,3.07-7.43,7.84,.13,4.82,3.08,7.59,7.53,7.47,1.61-.04,2.7-.3,3.25-.59l-.15-5.66-3.83,.1-.05-1.97,6.25-.17,.24,9.13Z"/><path class="h" d="M174.57,220.66l-7.26,1.17,1.09,6.76,8.12-1.3,.33,2.03-10.57,1.7-3.01-18.75,10.16-1.63,.33,2.03-7.71,1.24,.95,5.93,7.26-1.17,.32,2Z"/><path class="h" d="M182.27,228.13l-5.6-18.13,2.58-.8,8.62,7.39c1.98,1.72,3.64,3.3,5.05,4.9l.07-.05c-.96-2.36-1.7-4.55-2.57-7.37l-2.34-7.59,2.21-.68,5.6,18.14-2.37,.73-8.6-7.42c-1.89-1.63-3.74-3.33-5.23-5.02l-.07,.05c.84,2.25,1.54,4.42,2.47,7.43l2.39,7.75-2.21,.68Z"/><path class="h" d="M196.33,203.04l7.63,17.38-2.27,1-7.63-17.38,2.27-1Z"/><path class="h" d="M209.39,211.13l1.29,6.15-2.19,1.27-3.94-19.67,2.53-1.47,15.14,13.16-2.26,1.32-4.76-4.14-5.82,3.38Zm4.44-4.8l-4.38-3.78c-.99-.86-1.8-1.69-2.59-2.5l-.05,.03c.31,1.09,.66,2.26,.9,3.45l1.15,5.68,4.97-2.89Z"/><path class="h" d="M214.51,192.6l1.93-1.55,10.61,13.19,6.32-5.08,1.29,1.6-8.25,6.64-11.9-14.79Z"/><path class="h" d="M238.75,197l-14.25-12.53,1.78-2.03,11.21,1.79c2.58,.43,4.83,.91,6.86,1.54l.03-.08c-2.05-1.5-3.82-2.99-6.04-4.94l-5.96-5.24,1.53-1.73,14.25,12.54-1.64,1.86-11.21-1.83c-2.46-.4-4.93-.88-7.08-1.54l-.03,.08c1.89,1.48,3.62,2.96,5.99,5.04l6.09,5.36-1.52,1.73Z"/><path class="h" d="M254.36,176.69l-6.98-4.02-12.48-.22,1.4-2.44,5.87,.29c1.6,.11,2.89,.17,4.34,.32l.03-.05c-.82-1.06-1.56-2.26-2.44-3.61l-3.18-4.98,1.38-2.39,6.29,10.93,7.01,4.03-1.24,2.15Z"/></g><path class="f" d="M149.76,249.38c-76.71,0-139.12-53.42-139.12-119.09S73.05,11.2,149.76,11.2s139.13,53.43,139.13,119.09-62.41,119.09-139.13,119.09Zm0-232.55c-73.6,0-133.49,50.9-133.49,113.46s59.88,113.46,133.49,113.46,133.49-50.9,133.49-113.46S223.37,16.83,149.76,16.83Z"/><g><path class="d" d="M140.54,124.7h.71c.16,.48,.59,.71,1.42,.61v.61c-2.44-.27-3.97,.24-5.68,.61,.07-1.57,2.64-.98,3.55-1.84Z"/><path class="d" d="M145.51,124.7h2.84c.67,2.21-2.79,.85-4.26,1.22,0-.81,1.24-.56,1.42-1.22Z"/><path class="d" d="M151.18,125.32c1.32-1.2,2.6-.19,4.26,0-.09,1.35-3.01,.26-4.26,.61h-.71v-.61h.71Z"/><path class="d" d="M156.86,125.32h1.42c4.24,1.17,5.98,.74,9.93,1.84v1.22c-1.82,1.63-1.01-1.18-2.84-1.22-3.65,1.43-5.37-1.82-8.51-.61h-.71c0-.61,.57-.73,.71-1.22Z"/><path class="d" d="M132.74,125.93h2.84c-.87,.88-2.44,1.16-4.26,1.22,.18-.66,1.41-.41,1.42-1.22Z"/><path class="d" d="M151.18,127.15c-.37-.32,.51-.78,.71-.61,.37,.32-.51,.78-.71,.61Z"/><path class="d" d="M122.8,127.76c-.37-.32,.51-.78,.71-.61,.37,.32-.51,.78-.71,.61Z"/><path class="d" d="M127.06,127.15h.71c1.43-.21,2.22,.13,2.13,1.22-1.05-1.7-3.17,1.29-2.84-1.22Z"/><path class="d" d="M144.09,127.76c0-.62,1.24-.77,1.42,0h-1.42Z"/><path class="d" d="M156.86,128.38c0-.61-.58-.73-.71-1.22h.71c.87,.07,1.68,.18,1.42,1.22h-1.42Z"/><path class="d" d="M138.41,128.38c0-.34,.58-.69,.71,0h-.71Z"/><path class="b" d="M143.38,128.38c.13,.5,.71,.61,.71,1.22-3.39,.36-2.92-.71-.71-1.22Z"/><path class="d" d="M143.38,128.38h1.42c0,.61,.58,.73,.71,1.22h-1.42c0-.61-.58-.73-.71-1.22Z"/><path class="b" d="M151.18,128.38v1.22c-1.11-.06-2.46,.08-2.13-1.22h2.13Z"/><path class="d" d="M151.18,128.38h.71c-.07,.69,1.03,.95,0,1.22h-.71v-1.22Z"/><path class="d" d="M161.11,129.6c-.37-.32,.51-.78,.71-.61,.37,.32-.51,.78-.71,.61Z"/><path class="d" d="M164.66,130.21c-2.31-1.19,2.11-2.2,1.42,0h-1.42Z"/><path class="d" d="M137.7,130.21c.16-.48,.59-.71,1.42-.61,1.14,.19-.06,.87-1.42,.61Z"/><path class="d" d="M158.28,130.21c-.47,1.83-1.52-.58-2.84,0,.04-.37,.1-.72,.71-.61h2.13v.61Z"/><path class="d" d="M122.8,130.82c.02-.6,.87-.47,1.42-.61-.02,.59-.87,.47-1.42,.61Z"/><path class="d" d="M117.84,131.44c-.14-1.72,5.3,.17,1.42,0h-1.42Z"/><path class="d" d="M125.64,131.44c-.23-1.08,3.97-1.09,2.84,.61-.58-.12-.71-.62-1.42-.61h-1.42Z"/><path class="d" d="M159.69,131.44c1.25-2.36,3.51,1.89,.71,0h-.71Z"/><path class="d" d="M162.53,130.82h1.42c-.13,.52,.28,.58,.71,.61v.61c-1.15,.17-1.22-.58-2.13-.61v-.61Z"/><path class="b" d="M163.95,130.82c1.68-.51,3.27,.86,.71,.61-.43-.03-.84-.09-.71-.61Z"/><path class="d" d="M167.5,131.44c.11-.72,1.29-.52,2.13-.61-.12,.72-1.29,.52-2.13,.61Z"/><path class="d" d="M129.19,132.05c1.72-2.01,3.39,1.7,0,0h0Z"/><path class="d" d="M144.09,132.66h-.71c.16-.88,2.11-.21,2.13-1.22,1.96,.26,.03,1.92-1.42,1.22Z"/><path class="d" d="M149.05,132.05c-.22-1.08,3.97-1.09,2.84,.61-.63-.48-1.6-.66-2.84-.61Z"/><path class="d" d="M139.12,132.05h.71c.69,.02,.55,.75,.71,1.22h-1.42v-1.22Z"/><path class="d" d="M154.73,132.05h1.42c.55,.13,.82,.51,.71,1.22-1.26-.14-3.55,.62-2.84-1.22h.71Z"/><path class="d" d="M112.16,133.27c-.37-.32,.52-.78,.71-.61,.37,.32-.51,.78-.71,.61Z"/><path class="d" d="M166.08,133.27c-.2-.97,3.83-.86,2.13,.61,.28-.24-2.14-.66-2.13-.61Z"/><path class="d" d="M171.75,133.27c-.23-1.08,3.98-1.09,2.84,.61-.63-.48-1.6-.66-2.84-.61Z"/><path class="d" d="M117.84,133.88v1.22h-1.42c-1.02-.9-.55-1.94,1.42-1.84v.61Z"/><path class="d" d="M127.06,133.27c-.64,1.06-2.48,1.58-3.55,.61-.12-1.33,2.52-.28,3.55-.61Z"/><path class="d" d="M161.11,134.49h-1.42c.13-.52-.28-.58-.71-.61-.28-1.19,3.23-.89,2.13,.61Z"/><path class="d" d="M127.77,134.49c2.15-2.26,2.39,1.86,0,0h0Z"/><path class="d" d="M130.61,134.49c.11-.72,1.29-.52,2.13-.61v1.83c-.93-.22-1.12-1.08-2.13-1.22Z"/><path class="d" d="M134.86,133.88c-.02,.59-.87,.47-1.42,.61,.02-.6,.87-.47,1.42-.61Z"/><path class="d" d="M161.82,134.49c.52-1.09,1.29-.09,2.13,0-.52,1.09-1.29,.09-2.13,0Z"/><path class="d" d="M143.38,135.11c-.23-1.08,3.97-1.09,2.84,.61-.63-.48-1.6-.66-2.84-.61Z"/><path class="d" d="M151.18,135.72h-.71c-.11-.72-1.29-.52-2.13-.61-.11-1.57,5.87-.33,2.84,.61Z"/><path class="d" d="M156.15,136.33c-.57-.32-1.15-.64-2.13-.61,.22-1.68,2.46-1.29,2.13,.61Z"/><path class="d" d="M164.66,135.11c2.64-2.14,3.6,1.67,0,0h0Z"/><path class="d" d="M115,135.11c-.13,.52,.28,.58,.71,.61,.28,1.19-3.23,.89-2.13-.61h1.42Z"/><path class="d" d="M142.67,135.11c-2.07,2.66-8.12-.39,0,0h0Z"/><path class="b" d="M189.49,135.72c-.37-.32,.51-.78,.71-.61,.37,.32-.52,.78-.71,.61Z"/><path class="d" d="M109.33,135.72c.69,.02,.55,.75,.71,1.22-.69-.02-.55-.75-.71-1.22Z"/><path class="d" d="M161.82,135.72c1.25,.15,1.62,1.05,1.42,2.45-1.23-.55-2.73-1.37-1.42-2.45Z"/><path class="d" d="M168.21,136.33v-.61c2.16-.09,.91,2.49,0,.61Z"/><path class="d" d="M172.46,136.94h-.71c0-2.42,3.59-.8,.71,0Z"/><path class="d" d="M131.32,136.33c1.55-.11,2.26,.5,2.13,1.84-.66-.65-2.62-.19-2.13-1.84Z"/><path class="d" d="M167.5,136.94c-.07,1.56-2.65,1.45-3.55,.61,.49-1.92,1.89-.8,3.55-.61Z"/><path class="d" d="M174.59,136.94c-.37-.32,.51-.78,.71-.61,.36,.32-.52,.78-.71,.61Z"/><path class="d" d="M176.72,136.94c.14-.7,.71-.34,.71,0-.13,.69-.71,.34-.71,0Z"/><path class="d" d="M143.38,136.94c.63,.47,1.6,.66,2.84,.61,.23,1.08-3.97,1.09-2.84-.61Z"/><path class="d" d="M151.89,137.55c.14-.69,.72-.34,.71,0-.13,.69-.71,.34-.71,0Z"/><path class="d" d="M158.28,137.55c-.37-.32,.52-.78,.71-.61,.37,.32-.51,.78-.71,.61Z"/><path class="d" d="M112.87,138.17c-.36-.32,.52-.78,.71-.61,.37,.32-.51,.78-.71,.61Z"/><path class="d" d="M171.75,137.55h.71c-1.38,1.87-5.94-.59-.71,0Z"/><path class="d" d="M183.11,137.55c.37-.32,.91,.44,.71,.61-.37,.32-.91-.44-.71-.61Z"/><path class="d" d="M83.79,138.78h2.84c.56,2.36-3.4,2.36-2.84,0Z"/><path class="d" d="M90.88,139.39c-.37-.32,.51-.78,.71-.61,.37,.32-.51,.78-.71,.61Z"/><path class="d" d="M92.3,139.39c.3-1.37,3.5-.25,4.97-.61-.3,1.37-3.5,.25-4.97,.61Z"/><path class="d" d="M100.81,139.39c-.01-1.81,2.99,1.42,0,.61v-.61Z"/><path class="d" d="M139.83,139.39v.61c-2.49,.38-1.24-2.2,0-.61Z"/><path class="d" d="M190.91,140c-.89-.15-.71-1.22,0-1.22,1.03,.27-.07,.54,0,1.22Z"/><path class="d" d="M104.36,140.61c.18-.77,1.41-.62,1.42,0-.32,.89-.62-.06-1.42,0Z"/><path class="d" d="M107.2,140h.71c.09,1.51-.87,1.04-.71,0Z"/><path class="d" d="M156.86,140.61c.02-.59,.87-.48,1.42-.61-.02,.6-.87,.47-1.42,.61Z"/><path class="b" d="M185.23,140c.08,1.56,.13,3.15,2.13,3.06,.06,.87,.12,1.73-.71,1.84-.49-1.17-1.1,.66,0,.61,.56,2.12-.79,2.58-1.42,3.67-1.4-3.6-1.76-5.71,0-9.18Zm.71,6.73c-.2-.17-1.08,.3-.71,.61,.2,.17,1.08-.3,.71-.61Z"/><path class="d" d="M112.16,140.61v1.22c-1.45-.35-3.35-1.52,0-1.22Z"/><path class="d" d="M139.12,141.84c.11-.72,1.29-.52,2.13-.61v1.84c-.93-.22-1.12-1.08-2.13-1.22Z"/><path class="c" d="M193.04,142.45v.61c-.6-.11-.67,.24-.71,.61v.61c-.91,.03-.98,.78-2.13,.61-.82-1.66-.35-1.52,0-3.67,1.05,.32,1.79,.91,2.84,1.22Z"/><path class="d" d="M105.07,141.84c.69,.02,.55,.75,.71,1.22,2,.51,1.84-.86,3.55-.61,1.1,2.58-3.94-.13-2.84,2.45-1.05-.52-1.52-1.54-1.42-3.06Z"/><path class="d" d="M115,142.45c-.37-.32,.51-.78,.71-.61,.37,.32-.51,.78-.71,.61Z"/><path class="d" d="M128.48,142.45c-.37-.32,.51-.78,.71-.61,.36,.32-.52,.78-.71,.61Z"/><path class="d" d="M144.8,142.45c-.37-.32,.51-.78,.71-.61,.37,.32-.51,.78-.71,.61Z"/><path class="d" d="M207.23,141.84h.71c-.14,.69-.71,.34-.71,0Z"/><path class="b" d="M69.6,143.06c-.13-.52,.28-.58,.71-.61-.04,.37-.11,.72-.71,.61Z"/><path class="d" d="M83.79,143.06c-.37-.32,.52-.78,.71-.61,.36,.32-.51,.78-.71,.61Z"/><path class="b" d="M67.47,143.67c.02-.6,.87-.47,1.42-.61-.16,.48-.6,.71-1.42,.61Z"/><path class="d" d="M99.39,143.67c-.37-.32,.51-.78,.71-.61,.36,.32-.51,.78-.71,.61Z"/><path class="d" d="M115,143.67c-.37-.32,.51-.78,.71-.61,.37,.32-.51,.78-.71,.61Z"/><path class="d" d="M144.09,143.67c-.37-.32,.52-.78,.71-.61,.37,.32-.51,.78-.71,.61Z"/><path class="b" d="M192.33,143.67c.04-.37,.11-.73,.71-.61,.13,.52-.28,.58-.71,.61Z"/><path class="b" d="M65.34,144.28c-.13-.52,.28-.58,.71-.61-.04,.37-.11,.72-.71,.61Z"/><path class="d" d="M78.11,144.28c-.37-.32,.51-.78,.71-.61,.37,.32-.52,.78-.71,.61Z"/><path class="d" d="M102.23,144.28c.02-.59,.87-.47,1.42-.61-.02,.6-.87,.47-1.42,.61Z"/><path class="d" d="M122.8,144.28c-.37-.32,.51-.78,.71-.61,.37,.32-.51,.78-.71,.61Z"/><path class="d" d="M80.24,144.9c-.37-.32,.51-.78,.71-.61,.37,.32-.51,.78-.71,.61Z"/><path class="d" d="M113.58,144.9c-.36-.32,.52-.78,.71-.61,.36,.32-.51,.78-.71,.61Z"/><path class="d" d="M141.25,144.9c.02-.59,.87-.48,1.42-.61-.02,.6-.87,.48-1.42,.61Z"/><path class="d" d="M144.09,144.9c-.37-.32,.52-.78,.71-.61,.37,.32-.51,.78-.71,.61Z"/><path class="d" d="M148.34,144.9c.14-.7,.71-.34,.71,0-.13,.7-.71,.34-.71,0Z"/><path class="b" d="M193.04,144.9c-.13-.52,.28-.58,.71-.61-.04,.38-.11,.73-.71,.61Z"/><path class="d" d="M200.13,144.9c-.37-.32,.52-.78,.71-.61,.37,.32-.51,.78-.71,.61Z"/><path class="b" d="M215.74,144.28c.63,.27,1.27,.54,1.42,1.23h-1.42v-1.23Z"/><path class="d" d="M135.57,144.9c-.11,.72-1.29,.52-2.13,.61,.12-.72,1.29-.52,2.13-.61Z"/><path class="d" d="M84.5,146.12c-.37-.32,.51-.78,.71-.61,.37,.32-.51,.78-.71,.61Z"/><path class="d" d="M119.97,146.12h-2.84c-.51-.99,3.35-.99,2.84,0Z"/><path class="d" d="M131.32,146.12c.13-.7,.71-.34,.71,0h-.71Z"/><path class="d" d="M60.37,146.73c2.38-1.48-1.71,2.05,0,0h0Z"/><path class="d" d="M120.68,146.73c-.36-.32,.51-.78,.71-.61,.37,.31-.51,.78-.71,.61Z"/><path class="d" d="M129.9,146.73c-.37-.32,.51-.78,.71-.61,.37,.31-.51,.78-.71,.61Z"/><path class="d" d="M166.79,146.73c-.36-.32,.52-.78,.71-.61,.36,.31-.52,.78-.71,.61Z"/><path class="d" d="M171.04,146.73c-.37-.32,.51-.78,.71-.61,.37,.31-.51,.78-.71,.61Z"/><path class="b" d="M178.14,146.73c.18-.77,1.41-.62,1.42,0-.63,.38-1.27,.74-1.42,0Z"/><path class="d" d="M128.48,146.73c.37-.32,.9,.44,.71,.61-.37,.32-.91-.44-.71-.61Z"/><path class="d" d="M185.23,147.34c-.37-.32,.51-.78,.71-.61,.37,.32-.51,.78-.71,.61Z"/><path class="d" d="M127.06,147.96c.14-.7,.72-.34,.71,0-.13,.7-.71,.34-.71,0Z"/><path class="d" d="M133.45,148.57c-.33-1.31,1.01-1.17,2.13-1.22v1.84c-.57-.32-1.15-.64-2.13-.61Z"/><path class="d" d="M136.28,147.96c-.37-.32,.51-.78,.71-.61,.37,.32-.51,.78-.71,.61Z"/><path class="d" d="M167.5,147.96c.13-.7,.71-.34,.71,0-.13,.7-.71,.34-.71,0Z"/><path class="b" d="M169.63,147.96c-.37-.32,.51-.78,.71-.61,.37,.32-.51,.78-.71,.61Z"/><path class="d" d="M88.04,148.57c-.36-.32,.52-.78,.71-.61,.37,.32-.51,.78-.71,.61Z"/><path class="d" d="M100.1,148.57c-.37-.32,.51-.78,.71-.61,.37,.32-.52,.78-.71,.61Z"/><path class="b" d="M142.67,148.57c-.37-.32,.51-.78,.71-.61,.37,.32-.52,.78-.71,.61Z"/><path class="b" d="M176.01,148.57c-.36-.32,.52-.78,.71-.61,.37,.32-.51,.78-.71,.61Z"/><path class="d" d="M106.49,149.18c-.36-.32,.51-.78,.71-.61,.37,.32-.51,.78-.71,.61Z"/><path class="d" d="M207.94,149.18c-.37-.32,.52-.78,.71-.61,.37,.32-.51,.78-.71,.61Z"/><path class="d" d="M124.22,149.79c-.37-.32,.52-.78,.71-.61,.36,.32-.52,.78-.71,.61Z"/><path class="d" d="M127.77,149.79c.14-.7,.71-.34,.71,0-.14,.69-.71,.34-.71,0Z"/><path class="b" d="M182.4,149.79c-.37-.32,.51-.78,.71-.61,.37,.32-.52,.78-.71,.61Z"/><path class="b" d="M200.13,149.79c.04-.37,.11-.72,.71-.61,.13,.52-.28,.58-.71,.61Z"/><path class="b" d="M201.55,149.79c-.13-.52,.28-.58,.71-.61-.04,.37-.1,.72-.71,.61Z"/><path class="b" d="M205.81,149.18c.37,.32-.51,.78-.71,.61-.36-.32,.51-.78,.71-.61Z"/><path class="d" d="M210.06,149.79c-.37-.32,.51-.78,.71-.61,.37,.32-.51,.78-.71,.61Z"/><path class="b" d="M220,149.18c.83-.1,1.26,.14,1.42,.61-.55-.14-1.4-.02-1.42-.61Z"/><path class="d" d="M54.7,150.4c.43,.03,.84,.09,.71,.61-.61,.11-.67-.24-.71-.61Z"/><path class="d" d="M76.69,151.01c-.37-.32,.51-.78,.7-.61,.37,.32-.51,.78-.7,.61Z"/><path class="d" d="M93.72,151.01c-.36-.32,.51-.78,.71-.61,.37,.32-.52,.78-.71,.61Z"/><path class="d" d="M125.64,151.63c.02-.6,.86-.48,1.42-.61-.02,.6-.87,.47-1.42,.61Z"/><path class="b" d="M61.79,153.46c-.87-.27-1.46-.78-1.42-1.83,.87,.27,1.46,.78,1.42,1.83Z"/><path class="d" d="M73.14,152.24c.02-.6,.87-.47,1.42-.61-.02,.59-.87,.47-1.42,.61Z"/><path class="b" d="M130.61,152.24c-.31,.75-.91,1.26-2.13,1.22,.31-.75,.91-1.26,2.13-1.22Z"/><path class="b" d="M222.83,152.24v1.22c-.72,0-.89-1.07,0-1.22Z"/><path class="d" d="M160.4,153.46c-.36-.32,.51-.78,.71-.61,.36,.32-.51,.78-.71,.61Z"/><path class="d" d="M162.53,153.46c-.37-.32,.51-.78,.71-.61,.37,.32-.51,.78-.71,.61Z"/><path class="d" d="M169.63,152.85c-.13,.69-.71,.34-.71,0h.71Z"/><path class="b" d="M59.66,154.07c.43,.03,.84,.09,.71,.61-.6,.11-.67-.24-.71-.61Z"/><path class="d" d="M164.66,154.07c.36,.32-.52,.78-.71,.61-.37-.32,.51-.78,.71-.61Z"/><path class="d" d="M171.04,155.91c-.37-.32,.51-.78,.71-.61,.37,.32-.51,.78-.71,.61Z"/><path class="d" d="M117.84,156.52c-.67-1.52,4.06-.18,1.42,0h-1.42Z"/><path class="d" d="M164.66,156.52c.02-.59,.87-.47,1.42-.61-.02,.6-.87,.48-1.42,.61Z"/><path class="d" d="M213.61,156.52c.36-.31,.9,.44,.71,.61-.37,.32-.91-.44-.71-.61Z"/><path class="b" d="M223.54,157.13c.04-.37,.11-.72,.71-.61,.13,.52-.28,.58-.71,.61Z"/><path class="d" d="M122.1,157.75c.13-.7,.71-.34,.71,0h-.71Z"/><path class="b" d="M199.43,158.97c.43,.03,.84,.09,.71,.61-.43-.03-.84-.09-.71-.61Z"/><path class="b" d="M203.68,160.19c.02-.6,.87-.47,1.42-.61-.02,.6-.87,.47-1.42,.61Z"/><path class="d" d="M213.61,161.42c-.37-.32,.51-.78,.71-.61,.36,.32-.51,.78-.71,.61Z"/><path class="d" d="M215.03,161.42c-.37-.32,.51-.78,.71-.61,.37,.32-.51,.78-.71,.61Z"/><path class="b" d="M203.68,162.03c.55,.14,1.4,.02,1.42,.61-.55-.14-1.4-.02-1.42-.61Z"/><path class="d" d="M215.74,164.48c-.37-.32,.51-.78,.71-.61,.37,.32-.51,.78-.71,.61Z"/><path class="d" d="M217.16,165.09c-.37-.32,.51-.78,.71-.61,.37,.32-.52,.78-.71,.61Z"/><path class="b" d="M208.65,170.59v.61c-.4,0-.81-.5,0-.61Z"/><path class="b" d="M208.65,172.43c-.16,.47-.02,1.21-.71,1.22,.16-.48,.02-1.21,.71-1.22Z"/><path class="b" d="M221.42,173.04c-.37-.31,.51-.78,.71-.61,.37,.32-.51,.78-.71,.61Z"/><path class="b" d="M215.03,174.88c-.65,1.07-2.22,1.35-4.26,1.22,.35-1.92-2.45-1.62-.71-3.06,2.11,.22,3.6,.98,4.97,1.84Z"/><path class="b" d="M207.23,174.88c.04-.37,.11-.72,.71-.61-.04,.37-.1,.72-.71,.61Z"/><path class="b" d="M207.94,176.1c.11-.72,1.29-.52,2.13-.61-.11,.72-1.29,.52-2.13,.61Z"/><path class="d" d="M158.28,176.71c-.37-.32,.52-.78,.71-.61,.37,.32-.51,.78-.71,.61Z"/><path class="d" d="M166.79,177.32c-.36-.32,.52-.78,.71-.61,.36,.32-.52,.78-.71,.61Z"/><path class="b" d="M208.65,177.32c-.37-.32,.51-.78,.71-.61,.37,.32-.51,.78-.71,.61Z"/><path class="d" d="M171.75,178.55c-.37,.32-.91-.44-.71-.61,.37-.32,.91,.44,.71,.61Z"/><path class="b" d="M202.26,178.55c.04-.37,.1-.72,.71-.61-.04,.37-.11,.72-.71,.61Z"/><path class="b" d="M200.84,179.16c.04-.37,.11-.72,.71-.61-.04,.37-.1,.72-.71,.61Z"/><path class="d" d="M164.66,179.77c.02-.6,.87-.47,1.42-.61-.02,.6-.87,.47-1.42,.61Z"/><path class="d" d="M170.34,179.77c-.37-.32,.51-.78,.71-.61,.37,.32-.51,.78-.71,.61Z"/><path class="b" d="M178.14,180.99c-.36-.32,.51-.78,.71-.61,.37,.32-.52,.78-.71,.61Z"/><path class="d" d="M205.81,180.99c.13-.69,.71-.34,.71,0-.13,.7-.71,.34-.71,0Z"/><path class="d" d="M207.94,180.99c-.37-.32,.52-.78,.71-.61,.37,.32-.51,.78-.71,.61Z"/><path class="d" d="M175.3,180.99v.61c-.81-.12-.4-.61,0-.61Z"/><path class="d" d="M190.2,181.61c-.37-.32,.51-.78,.71-.61,.37,.32-.51,.78-.71,.61Z"/><path class="d" d="M200.84,180.99c.12,.71-.16,1.09-.71,1.22-.12-.71,.16-1.09,.71-1.22Z"/><path class="d" d="M202.97,181.61c-.37-.32,.51-.78,.71-.61,.36,.32-.52,.78-.71,.61Z"/><path class="d" d="M195.17,182.22c-.37,.32-.91-.44-.71-.61,.37-.32,.91,.44,.71,.61Z"/><path class="d" d="M179.56,182.83c-.02,.6-.87,.47-1.42,.61,.02-.59,.87-.47,1.42-.61Z"/><path class="d" d="M199.43,183.44c.36-.32,.9,.44,.71,.61-.37,.32-.9-.44-.71-.61Z"/><path class="d" d="M186.65,185.28c-.37-.32,.52-.78,.71-.61,.37,.32-.51,.78-.71,.61Z"/><path class="d" d="M198,185.28c2.38-1.48-1.71,2.05,0,0h0Z"/><path class="d" d="M200.84,185.28c-.37-.32,.51-.78,.71-.61,.37,.32-.51,.78-.71,.61Z"/><path class="d" d="M191.62,185.89c-.37-.32,.51-.78,.71-.61,.37,.32-.51,.78-.71,.61Z"/><path class="d" d="M193.75,185.89c.12-.72,1.29-.52,2.13-.61-.12,.72-1.29,.52-2.13,.61Z"/><g><path class="e" d="M171.04,127.76v-.61c-.54-1.37,5.52-.02,2.84-1.22-2.01,.51-1.84-.86-3.55-.61,0,.61-.58,.73-.71,1.22-.15,.69-.79,.95-1.42,1.22v.61c.96-.19,1.36-.87,2.84-.61Z"/><path class="e" d="M179.56,142.45c-1.37-4.87,4.8-6.45,3.55-9.18-1.07,.82-3.06,.2-4.26,0-.1,1.14-.47,2.04-1.42,2.45,.66-1.66,1.13-2.88-.71-3.67,1.46,.7,3.38-.96,1.42-1.22-.64,.69-1.59-.04-2.84,1.22-.63-3.16-5.37-3.09-7.1-3.67-1.82,1.63-1.01-1.18-2.84-1.22-3.65,1.43-5.37-1.82-8.51-.61v.61c.87,.07,1.68,.18,1.42,1.22,0,.81-1.24,.56-1.42,1.22h1.42c1.05-.71,1.79-.71,2.84,0-.37-.32,.51-.78,.71-.61,.37,.32-.51,.78-.71,.61-.7,.99-1.89,1.41-2.84,.61-.47,1.83-1.52-.58-2.84,0,.04-.37,.1-.72,.71-.61-.16-.48-.6-.71-1.42-.61-.53,1.88,1.95,1.18,1.42,3.06,.55,.13,.82,.51,.71,1.22-1.26-.14-3.55,.62-2.84-1.22h.71c-1.05-2.4-1.1-.12-2.13,.61-.17-3.21,.68-5.53,3.55-6.12,0-.61,.57-.73,.71-1.22-.39,0-.81-.5,0-.61,0-.81,1.24-.56,1.42-1.22-1.55,.05-4.59-1.67-4.96-.61,.84,.3,1.61,.65,2.13,1.22h-3.55c0,.61-.57,.73-.71,1.22,1.32-1.2,2.6-.19,4.26,0-.09,1.35-3.01,.26-4.26,.61,0,.34-.58,.7-.71,0v-.61c-3,.09-.01-.96,.71-1.22,0-.81,1.25-.56,1.42-1.22-1.75-.08-3.41-.09-4.25,.61v1.22c.67,2.21-2.79,.85-4.26,1.22,0-.81,1.24-.56,1.42-1.22-2.11-.73-3.05,2.58-1.42,3.06,0-.62,1.24-.77,1.42,0,1.32-.49,2.87-.79,3.55-1.84,.8,1.15,2.75,1.3,3.55,2.45h-.71c-.07,.69,1.03,.95,0,1.22-.94,2.39-3.17,.12-4.96,1.22,.62-1.96-1.09-1.91-2.13-2.45,0,.61,.58,.73,.71,1.22v1.22c-1.05,.71-1.79,.71-2.84,0-.07,.96,.1,2.12-1.42,1.84,.72-1.91-1.47-4.37-2.13-3.06,1.14,.19-.06,.87-1.42,.61,.1,.72,1.26,1.39,0,1.84-.8-1.56-1.74-2.98-2.84-4.28,.44-.18,2.73-1.52,2.84,0-.9,.83-2.15,1.22,0,1.84,.16-.48,.02-1.21,.71-1.22,0-.34,.58-.69,.71,0,.43-2.03,3.87-.09,3.55-2.45-2.44-.27-3.97,.24-5.68,.61,.07-1.57,2.64-.98,3.55-1.84v-.61h-1.42c0,.34-.58,.7-.71,0-.16-.48-.02-1.21-.71-1.22-.08,1.16-2.34,.42-2.13,1.83,0,.34-.58,.7-.71,0-5.7-1.11-7.98,3.52-12.77,1.22-.73,1.57-4.62,2.44-6.38,1.22-1.42,2.59-4.16,2.43-6.39,3.06,.39,0,.81,.5,0,.61v.61c2,.51,1.84-.86,3.54-.61,.3,1.69-2.64,.57-2.84,1.84-.21,1.2,.96,1.21,1.42,1.83h-1.42c-.15,.69-.79,.95-1.42,1.22,0-.61,.58-.73,.71-1.22-.7-1.88-1.89,.7-2.84,.61-.02,.6-.87,.47-1.42,.61,.02-.6,.87-.48,1.42-.61,0-.62,.58-.73,.71-1.22-.71,0-.84-.5-1.42-.61,.13,2.35-.58,.22-2.13,.61-.27,1.6-2.28,1.71-1.42,4.28,.55-.14,1.4-.02,1.42-.61,0-.34,.57-.69,.71,0,.04,.37,.11,.72,.71,.61,.98,.05,.74,1.56-.71,1.22-3.46-.6-2.46-2.68-4.25-3.67-1.18,3.47-9.83,.5-11.35,3.67-.01-1.82-3.35-.78-4.25-1.83-1.03,1.38-3.41,4.78-5.67,3.06,3.11-.38,4.52-2.22,5.67-4.28-2.53-.23-3.5,2.03-4.97,3.06-4.44,3.1-9.34,4.54-15.61,6.12h-4.97c-1.12,.7-3.07,3.82-4.25,2.45,1.51-2.78,6.1-2.89,9.93-3.67-4.22-.58-6.33,.66-9.22,1.23-.04,2-2.02,2.34-1.42,4.89h.71c.43,.03,.84,.09,.71,.61,1.45,.79,1.79,2.53,3.55,3.06-.2-.92-3.05-2.58-1.42-3.06,.94,0,.65,1.07,1.42,1.22-.43-1.96,2.55-.84,.71-2.45,1.35,1.15,1.78,.07,3.55,0,1.21-.14,1.76,.69,0,.61-.06,.96-1.81,.48-1.42,1.84,1.33-.03,1.51,.47,.71,1.22,2.01-.51,1.84,.86,3.55,.61-.04-1.05,.54-1.57,1.42-1.83,2.56,2.14,6.46,.9,10.64,.61,3.8-.26,8.18,.23,11.35-.61,.07,.69-1.03,.95,0,1.22,1.23-.41,4.92-1.8,4.96-1.22-.4,0-.81,.5,0,.61,1.69-2.03,3.16-1.56,2.13-2.45-.93-.8,2.99,.42,2.84-1.22-.39,0-.81-.5,0-.61,0,.61,.57,.73,.71,1.22-.61,.75-4.57,1.69-2.84,2.45,2.77-.67,3.44-3.15,6.39-3.67-.11-1.52,.37-2.54,1.42-3.06,.42,2.2-.83,2.96-1.42,4.28,1.95,.95,3.47,.17,5.67-1.22,.07,.69-1.03,.95,0,1.22,1-1.93,5.16-1.81,5.68-2.45-.55-.13-.83-.51-.71-1.22,1.39,.18,1.41-.83,2.13-1.22,.39,0,.81,.5,0,.61v2.45c.78-.3,4.78-.12,4.25,0,.21-.05,2.49-1.01,2.84-1.22,.35-.21,2.9-1.28,.71-1.84-.16,.47-.02,1.21-.71,1.22-.28-3.39,3.88,.23,4.97-2.45-.5-.41-.78-.62-.96-.75-.23-.16-.27-.2,0,0,.35,.24,1.09,.69,1.67,.75,.03,0,.04-.73,.71-.61,.46,.08,3.54-.3,3.55,1.22h-1.42c-.29,.77-.91,1.25-2.13,1.23,0-.61,.58-.73,.71-1.23-3.26-.36-2.48,2.76-5.68,2.45-1.89,1.84-1.46,5.67-3.55,7.34-2.73,1.11-8.07-.03-9.22,2.45,2.25,0,3.61-1.47,4.96,.61-1.22-.03-1.82,.47-2.12,1.22,0,.34-.58,.69-.71,0-.63,.18-3.11,1.66-1.42,1.84,.09-1.35,3.01-.26,4.26-.61,.03-1.46,3.36-3.16,4.26-1.84-1.91-.42-1.37,1.27-2.13,1.84-.15,.48-.59,.71-1.42,.61-1.47-.33-1.5,2.38-.71,.61,1.65,.2,2.73-.1,3.55-.61,.8-.06,1.1,.89,1.42,0-1.67,0,.26-1.67,1.42-1.22,.68,1.14-2.12,2.04,0,2.45,1.31-.91,1.06-3.16,3.55-3.06,.21-1.2-.96-1.21-1.42-1.84,1.54-.39,2.26,1.74,2.13-.61,.22-1.91-2.05,1.56-2.13-.61,2-.61,1.77-.9,2.84-1.22-.89-.25-1.45-.79-1.42-1.83,1.45-.18,1.89-1.23,2.84-1.84,.16,.47,.02,1.21,.71,1.22,.08-2.17,2.34,1.3,2.13-.61-.4,0-.81-.5,0-.61,4.32,1.64,5.07-3.32,6.39-4.89-1.86-1.66-3.47-3.54-6.39-4.28,0,.34-.58,.7-.71,0-.04-.37-.1-.72-.71-.61,0,.34-.58,.7-.71,0-2.32-2.08-7.99-1.26-10.64-3.06,1.17-.01,.4-1.7,1.42-1.84,2.64-.64,1.39,2.06,2.84,2.45,1.47-1.08,.62-1.9,1.42-2.45,2.79-.98,.25,2.64,2.13,2.45,1-.77,.04-3.23,2.84-2.45,.16,1.16-.8,1.35-.71,2.45,3.01-.04,7.32,1.52,5.68-.61h2.84c-1.99,1.66-.56,1.52,0,3.67-.41-.54-3.82-1.94-2.13-.61,1.31,.91,2.49,1.93,3.55,3.06-1.71,.37,2.11,.95,.71,3.06,1.47,.36,4.66-.76,4.96,.61-.16,.47-.02,1.21-.71,1.22,0-.34-.58-.69-.71,0,2.64,1.96,2.57-1.43,2.84-1.83,.34,1.09,.76-.27,1.42-.61-.26,2.56,2.31,.44,3.55,.61,.52-1.67-1.41-1.23-1.42-2.45,.95-.09,2.14,2.49,2.84,.61-.77-.15-1.7-1.01-.71-1.22-.36-.32,.52-.78,.71-.61,.37,.32-.52,.78-.71,.61,.71,.84,1.17-.26,2.13,1.22-.17-3.61,4.71-2.87,5.67-5.51h-4.25c-.4,0-.81-.5,0-.61,.18-1.43,3.12-.35,3.55,0,.98-2.48-1.54-1.94-1.42-3.67-.82,.1-1.26-.13-1.42-.61,.83-.1,1.26,.13,1.42,.61,.94,1.5,2.64-.67,2.84,.61-1.54-.1-.32,2.17-.71,3.06,3.12,.56,7.7-.7,10.64,1.22-.29-2.21,1.3-.84,.71,.61-.04,.37-.1,.72-.71,.61-4.47-4.29-12.41,.03-14.9,3.06,.84,.3,1.61,.65,2.13,1.23-1.76-.07-2.2-1.15-3.55,0,.39,2.11,2.07,3.11,3.55,4.28-2.43,.26-2.13-1.83-3.55-2.45-.56,5.13,2.26,.97,.71,4.28,1.3-1.12,4.99,.55,3.55-.61-.39,0-.81-.5,0-.61,.8,.13,1.1,.68,1.42,1.22-.84,.3-1.61,.65-2.13,1.22,2.82,1.85,5.48,3.84,8.51,5.51-3.53,.52-4.91-3.12-7.09-1.84v-1.22c-3.6-.05-7.26-.15-9.22,1.22,.94,1.5,2.64-.67,2.84,.61-.84,.3-1.61,.65-2.13,1.22,0,.34-.58,.69-.71,0h-1.42c1.01,3.73,6.41-1.5,7.1,0-.84,.3-1.61,.65-2.13,1.22,0,.34-.58,.69-.71,0-.43,.03-.84,.09-.71,.61-.04,.37-.1,.72-.71,.61v.61c3.7,1.06,6.73-2.57,7.81,0-.84-.78-2.68-.26-3.55,.61,.83,.1,2.01-.11,2.13,.61-2-.51-1.84,.86-3.55,.61,2.29,1.74,5.89-.6,7.8-1.22,1.24,1.81,3.78-.35,5.68,0,.03-.84-.33-1.34-.71-1.84,2.74,.53,2.52-1.49,4.25-1.84,.07,.69-1.03,.95,0,1.22,.62-1.51,3.14-1.37,2.84-3.67-2.95-.72-1.6-1.33-.71-3.06-2.84,0-3.08-2.24-4.96-3.06,1.94-1.02-1.22-2.95,1.42-3.67-.06,1.67,1.18,1.23,0,2.45,1.87,.73,1.83-2.94,2.13,0,3.05,.18,2.31-2.9,4.26-3.67-.74-.03-.56-.78,.71-.61,.53-1.88-1.94-1.17-1.42-3.06-.36,.32-.9-.44-.7-.61,.36-.32,.9,.44,.7,.61,.91-.03,.98-.78,2.13-.61,.39,0,.81,.5,0,.61-.15,.74-.79,.38-1.42,0-.3,1.35,2.13,3.37,2.84,1.84-1.21,.14-1.76-.69,0-.61Zm-19.16-14.07c-.36-.32,.51-.78,.71-.61,.36,.32-.51,.78-.71,.61Zm-9.22-1.22c-.37-.32,.51-.78,.71-.61,.37,.32-.51,.78-.71,.61Zm-14.19-2.45c.37-.32,.91,.44,.71,.61-.36,.32-.91-.44-.71-.61Zm-20.57,33.65c-.37,.32-.91-.44-.71-.61,.37-.32,.91,.44,.71,.61Zm2.84-1.84c-.17,.77-1.41,.62-1.42,0-.67-1.52,4.06-.18,1.42,0Zm1.42,2.45c-.36-.32,.51-.78,.71-.61,.37,.32-.51,.78-.71,.61Zm7.81-12.85c2.16-1.67-1.94,1.86,0,0h0Zm-4.26,6.12c.37,.32-.51,.78-.71,.61-.37-.32,.52-.78,.71-.61Zm-2.13,5.51c.13-.7,.71-.34,.71,0-.14,.7-.71,.34-.71,0Zm.71-.61c.32-.89,.62,.06,1.42,0-.31,.89-.62-.06-1.42,0Zm.71-1.84c-.05-.17,.09-.45,0-.61-.54-.93,.45-.46,.71,0,.48,.82-.48,1.37-.71,.61Zm.71-5.51c-.37-.32,.52-.78,.71-.61,.36,.32-.52,.78-.71,.61Zm.71-2.45c.36-.32,.9,.44,.71,.61-.37,.32-.91-.44-.71-.61Zm.71,6.73c.02-.6,.86-.47,1.42-.61-.02,.6-.87,.47-1.42,.61Zm0-2.45c.02-.6,.86-.48,1.42-.61-.02,.6-.87,.47-1.42,.61Zm1.42-1.22h-1.42v-1.22h1.42v1.22Zm0-2.45c.14-.7,.72-.34,.71,0-.13,.7-.71,.34-.71,0Zm.71,1.84c.14-.7,.71-.34,.71,0-.14,.69-.71,.34-.71,0Zm2.13-1.84c-.37,.32-.91-.44-.71-.61-.37,.32-.91-.44-.71-.61,.37-.32,.9,.44,.71,.61,.36-.32,.91,.44,.71,.61Zm0-1.22c-.37-.32,.51-.78,.71-.61,.37,.31-.51,.78-.71,.61Zm1.42-.61c.13-.7,.71-.34,.71,0,.69,.02,.55,.75,.71,1.22h-1.42v-1.22Zm.71,3.06c-1.93-1.86,2.16,1.67,0,0h0Zm3.55,0c-.57-.32-1.15-.64-2.13-.61,.37,.32-.51,.78-.71,.61-.37-.32,.51-.78,.71-.61-.33-1.31,1.01-1.17,2.13-1.22v1.84Zm-.71-2.45c-.36-.32,.52-.78,.71-.61,.36,.31-.51,.78-.71,.61Zm1.42,1.22c-.37-.32,.51-.78,.71-.61,.37,.32-.51,.78-.71,.61Zm-.71-3.06c.32-.89,.62,.06,1.42,0-.32,.89-.62-.06-1.42,0-.11,.72-1.29,.52-2.13,.61,.12-.72,1.29-.52,2.13-.61Zm-2.13-2.45c.37,.32-.51,.78-.71,.61-.37-.32,.51-.78,.71-.61Zm-4.25-.61c.36,.32-.52,.78-.71,.61-.37-.32,.51-.78,.71-.61Zm6.38-12.24c.36,.32-.51,.78-.71,.61-.36-.32,.52-.78,.71-.61Zm-.71,3.06c-.73,.51-1.28-.54-1.42-.61-2.73-1.37,1.91,.27,1.42,.61Zm-1.42-6.73h2.13c-.87,.88-2.44,1.16-4.26,1.22,.18-.66,1.41-.41,1.42-1.22-1.35-.42,.77-.95,.71,0Zm-2.13,.61c-.69-.02-.55-.75-.71-1.22,.69,.02,.55,.75,.71,1.22Zm-.71,3.67c.63-.27,1.27-.54,1.42-1.22-.99-.73-.06-.24,.71,0-.62,.9-1.06,1.94-2.84,1.84,.12-.71-.15-1.09-.71-1.22-1.71,1.55,1.11-2.21,1.42,.61Zm-2.13-4.28c.37-.32,.9,.44,.71,.61-.37,.32-.91-.44-.71-.61Zm-1.42,1.22c.14-.69,.72-.34,.71,0,1.43-.21,2.22,.13,2.13,1.22-1.05-1.7-3.17,1.29-2.84-1.22Zm0,2.45c-1.74,2.91-3.65-1.71,0,0h0Zm-4.96-3.06c.37-.32,.91,.44,.71,.61-.37,.32-.91-.44-.71-.61Zm.71,1.22c-.37-.32,.51-.78,.71-.61,.37,.32-.51,.78-.71,.61-.02,.6-.87,.47-1.42,.61,.02-.6,.87-.47,1.42-.61Zm0,1.22c2.16-1.67-1.94,1.86,0,0h0Zm-.71,2.45c-.13,.7-.71,.34-.71,0,.13-.69,.71-.34,.71,0Zm-2.13-1.83v-1.22c.83,.1,.6,1.11,.71,1.84h-2.84c.12-.72,1.29-.52,2.13-.61Zm-2.13,1.83c-.14-1.72,5.3,.17,1.42,0-.16,1.08,.72,3.06-1.42,2.45v1.22h-1.42c-1.02-.9-.55-1.94,1.42-1.84v-1.84Zm-1.42,1.22c-.4,1.09-1.98,.09-.71,0-1.43-1.43,.31-1.43,.71,0Zm-.71-3.06c.6,.11,.67-.24,.71-.61,.81,.12,.39,.61,0,.61-.2,.99,.67,1.05,.71,1.83-.68,1.51-1.45-1.94-2.12-2.45,.37-.94,.74-.04,.71,.61Zm-1.42,.61c.89,.15,.72,1.22,0,1.22,.02,4.55-1.37,.49,0-1.22Zm-.71,4.89h1.42c-.37-.32,.51-.78,.71-.61,.37,.32-.51,.78-.71,.61-.13,.52,.28,.58,.71,.61,.28,1.19-3.23,.89-2.13-.61Zm-.71-2.45c.37,.32-.51,.78-.71,.61-.37-.32,.52-.78,.71-.61Zm-2.84,4.28c-.69-.02-.55-.75-.71-1.22,.69,.02,.55,.75,.71,1.22Zm-1.42,4.89c-.37,.32-.91-.44-.71-.61,.37-.32,.91,.44,.71,.61Zm-.71-1.83c.09,1.51-.87,1.04-.71,0-.52-2.21,1.22-2.21,.71,0Zm-2.84-3.06c.22-.83,1.78-.51,2.84-.61,.2,.99-.67,1.05-.71,1.84-.81-.12-.4-.61,0-.61-.12-.72-1.29-.52-2.13-.61Zm-6.39,3.06c-1.94-1.86,2.16,1.67,0,0h0Zm-1.42-1.22c-.3,1.37-3.5,.25-4.97,.61,.3-1.37,3.5-.25,4.97-.61Zm-1.42,2.45c-.37-.32,.51-.78,.71-.61,.37,.32-.51,.78-.71,.61Zm-2.13-.61c-.36-.32,.51-.78,.71-.61,.37,.32-.52,.78-.71,.61Zm-2.13-1.84c.37,.32-.51,.78-.71,.61-.37-.32,.51-.78,.71-.61Zm1.42,1.84c.34,.24-1.64,.88-2.13,.61-.14,.7-.71,.34-.71,0-.81,.12-.39,.61,0,.61-3.48,.59,1.15-2.42,2.84-1.22Zm-5.68,.61c-.83,.62-1.68,.48-.71,0,.87-.44,1.56-.64,.71,0Zm-3.55-2.45h2.84c.56,2.36-3.4,2.36-2.84,0Zm.71,7.34c-.37-.32,.51-.78,.71-.61,.37,.32-.51,.78-.71,.61Zm0-3.67c.36,.32-.51,.78-.71,.61-.37-.32,.52-.78,.71-.61Zm-3.55-1.22c.37-.32,.91,.44,.71,.61-.37,.32-.91-.44-.71-.61Zm-.71,3.67c-.37-.32,.51-.78,.71-.61,.37,.32-.51,.78-.71,.61-.16,.88-2.12,.21-2.13,1.22-1.78-.26,.68-1.75,2.13-1.22Zm-1.42-1.22c.37,.32-.52,.78-.71,.61-.37-.32,.51-.78,.71-.61Zm-1.42-.61c2.16-1.67-1.93,1.86,0,0h0Zm-1.42,.61c-.16,.88-2.12,.21-2.13,1.22-1.78-.26,.68-1.75,2.13-1.22Zm-4.97,1.22c.37,.32-.51,.78-.71,.61-.37-.32,.51-.78,.71-.61Zm-.71,1.84c2.3,.35,3.3-.42,4.97-.61,.85-.86,.28-.05,0,.61-.83-.1-1.27,.13-1.42,.61-2.41-.67-5.38,1.62-3.55-.61Zm-1.42-1.84c.37,.32-.52,.78-.71,.61-.37-.32,.51-.78,.71-.61Zm-2.84,3.06c.37,.32-.52,.78-.71,.61-.37-.32,.51-.78,.71-.61Zm-3.55-1.83c.37,.31-.51,.78-.71,.61-.36-.32,.51-.78,.71-.61Zm-2.13,.61c2.38-1.48-1.71,2.05,0,0h0Zm1.42,2.45c-1.36-.44,1.64-2.2,2.84-2.45,.52,2.08-2.62,1.01-2.84,2.45Zm1.42-.61c3.46,.23,1.31,2.08,0,0h0Zm2.13,3.67c-.37-.32,.51-.78,.71-.61,.37,.32-.52,.78-.71,.61Zm7.8,0c.02-.6,.87-.47,1.42-.61-.02,.59-.87,.47-1.42,.61Zm3.55-1.22c-.37-.32,.51-.78,.7-.61,.37,.32-.51,.78-.7,.61Zm1.42,.61c-.37-.32,.51-.78,.71-.61,.37,.32-.52,.78-.71,.61Zm6.39-.61c-.37-.32,.51-.78,.71-.61,.37,.32-.51,.78-.71,.61Zm4.97,0c-.37-.32,.51-.78,.71-.61,.37,.32-.52,.78-.71,.61Zm2.13-1.22c-.37-.32,.51-.78,.71-.61,.37,.32-.51,.78-.71,.61Zm.71-2.45c-.37-.32,.51-.78,.71-.61,.37,.32-.51,.78-.71,.61Zm1.42,3.67c-.36-.32,.51-.78,.71-.61,.37,.32-.52,.78-.71,.61Zm2.13-2.45c-.35,.15,.09,.61-.71,.61-.74,0-.5-.59-.71-.61-2.46-.3,3.29-.79,1.42,0Zm-2.13-1.83c.14-.5,.71-.61,.71-1.22-1.21,.23-2.97,.18-4.26,.61-.67,.22-1.55,1.62-2.13,1.83-1.05,.38-2.8-.07-1.42,.61,5.08,.29,5.27,1.67,0,.61h-.71c2.22,1.47,2.08,3.06-.71,0-.02-.6-.87-.47-1.42-.61-1.05,.27,.28,.78,0,1.84-.41-.54-3.83-1.94-2.13-.61-.16,.87-3.53-.57-5.68,0v-1.22c-2.2,.35-1.41,3.27-4.97,2.45-.12,.71,.16,1.09,.71,1.22,1.54,1.46-2.95-.1-1.42-2.45-.58,1.54-3.24,1.29-5.68,1.22,1.41-2.68,5.15-2.65,7.09-.61,.55-2.37,4.6-1.74,4.97-4.28,1.41,0,.9,1.67,2.84,1.22,1.69-1.93,1.93-.46,5.67-.61,.83-.1,.6-1.12,.71-1.84,2.96,3.23,4.97-2.92,9.22-2.45,2,.59-2.5,.74-2.84,1.83-.21,.67,3.48,.45,4.97-.61,2.19,.61-1.54,1.01-1.42,1.84-.02,.59-.87,.47-1.42,.61,.19,2.14,2.64-1.54,2.84,.61-1.76,.07-2.2,1.15-3.55,0Zm-5.68,1.83c-.36-.32,.52-.78,.71-.61,.37,.32-.51,.78-.71,.61Zm10.64-3.67c-.83,.62-1.68,.48-.71,0,.88-.44,1.56-.64,.71,0Zm.71-1.22c-.37-.32,.51-.78,.71-.61,.36,.32-.51,.78-.71,.61Zm.71,4.89c-.37-.32,.51-.78,.71-.61,.37,.32-.52,.78-.71,.61Zm.71-8.57c-.81-.12-.39-.61,0-.61-.01-1.81,2.99,1.42,0,.61Zm1.42,4.28c.02-.59,.87-.47,1.42-.61-.02,.6-.87,.47-1.42,.61Zm2.13-3.67c.18-.77,1.41-.62,1.42,0-.32,.89-.62-.06-1.42,0Zm2.13,8.57c-.36-.32,.51-.78,.71-.61,.37,.32-.51,.78-.71,.61Zm0-4.28c-1.05-.52-1.52-1.54-1.42-3.06,.69,.02,.55,.75,.71,1.22,2,.51,1.84-.86,3.55-.61,1.1,2.58-3.94-.13-2.84,2.45Zm3.55-7.34c.02-.6,.87-.48,1.42-.61,.26-1.04-.55-1.16-1.42-1.22,.02-.6,.87-.48,1.42-.61,.69-.02,.55-.75,.71-1.22,1.93-.44-.51,2.88,1.42,2.45-.69,.63-1.4,1.24-2.13,1.84-.17,.66-1.41,.41-1.42,1.22-1.05-.27,.28-.78,0-1.83Zm2.84,.61c-.36-.32,.52-.78,.71-.61,.37,.32-.51,.78-.71,.61Zm-.71,3.67c-1.45-.35-3.35-1.52,0-1.22,2.15,1.05-.54,6.22,0,1.22Zm1.42,3.06c-.36-.32,.52-.78,.71-.61,.36,.32-.51,.78-.71,.61Zm0-1.22c-.36-.32,.52-.78,.71-.61,.36,.32-.51,.78-.71,.61Zm1.42,0c-.37-.32,.51-.78,.71-.61,.37,.32-.51,.78-.71,.61Zm0-1.22c-.37-.32,.51-.78,.71-.61,.37,.32-.51,.78-.71,.61Zm1.42-4.28c-.37,.91-1.05,1.54-1.42,2.45-1.03-.34-1.73-.95-2.13-1.84-1.11,.26-.6,1.92-2.84,1.22,1.56-2.27,3.53-.55,4.97-2.45,1.77-.31,2.91-1.16,4.25-1.84,2.59,1.5-2.91,1.1-2.84,2.45Zm1.42,1.84c-.83-.1-.6-1.12-.71-1.84h2.13c.39,1.36-1.35,.87-1.42,1.84Zm0,.61c.37,.32-.51,.78-.71,.61-.37-.32,.52-.78,.71-.61Zm7.1,.61c-.31,.89-.62-.06-1.42,0,.18-.77,1.41-.62,1.42,0Zm-1.42,2.45c.37,.32-.51,.78-.71,.61-.37-.32,.51-.78,.71-.61Zm-1.42-3.06c-.02,.6-.87,.47-1.42,.61,.02-.6,.87-.47,1.42-.61Zm-.71,5.51c.37,.31-.51,.78-.71,.61-.36-.32,.51-.78,.71-.61Zm-1.42,0h-2.84c-.51-.99,3.35-.99,2.84,0Zm0-14.07c.37-.32,.91,.44,.71,.61-.36,.32-.9-.44-.71-.61Zm2.13,2.45c-.11-.72-1.29-.52-2.13-.61,.62-2.3,3.14-.7,2.84,1.22-.6,.11-.67-.24-.71-.61Zm2.13-4.28c-.02,.59-.87,.47-1.42,.61,.02-.6,.87-.47,1.42-.61Zm-.71,2.45c.06-.1,.24-1.73,.71-1.22,.57,.62-1.72,2.97-.71,1.22Zm0,1.22c-.12-1.33,2.52-.28,3.55-.61-.64,1.06-2.48,1.58-3.55,.61Zm3.55-2.45c.67,1.52-4.06,.18-1.42,0-.23-1.08,3.97-1.09,2.84,.61-.58-.12-.71-.62-1.42-.61Zm.71,3.06c2.15-2.26,2.39,1.86,0,0h0Zm1.42-2.45c1.72-2.01,3.39,1.7,0,0h0Zm.71,1.22c-.37-.32,.51-.78,.71-.61,.37,.32-.51,.78-.71,.61Zm2.84,.61v1.83c-.93-.22-1.12-1.08-2.13-1.22,.11-.72,1.29-.52,2.13-.61Zm-1.42,2.45c1.55-.11,2.26,.5,2.13,1.84-.66-.65-2.62-.19-2.13-1.84Zm3.55,0c-.36-.32,.52-.78,.71-.61,.36,.32-.51,.78-.71,.61Zm0-2.45c-.02,.59-.87,.47-1.42,.61,.02-.6,.87-.47,1.42-.61-.36-.32,.52-.78,.71-.61,.36,.32-.51,.78-.71,.61Zm.71-3.06c.66,.45,1.07,1.11,1.42,1.84-.3,1.54-1.53-1.02-1.42-1.84Zm22.7,9.18c-.02,.6-.87,.47-1.42,.61,.02-.59,.87-.48,1.42-.61Zm-4.96-6.12c.37,.32-.52,.78-.71,.61-.36-.32,.52-.78,.71-.61Zm-1.42-1.22c-.63-.48-1.6-.66-2.84-.61-.22-1.08,3.97-1.09,2.84,.61Zm-.71,3.06c-.14,.7-.71,.34-.71,0-.11-.72-1.29-.52-2.13-.61-.11-1.57,5.87-.33,2.84,.61Zm-2.13-2.45c.37,.32-.51,.78-.71,.61-.36-.32,.51-.78,.71-.61Zm-.71-1.84c.36,.32-.51,.78-.71,.61-.36-.32,.52-.78,.71-.61Zm-.71,2.45c-.13,.69-.71,.34-.71,0,.13-.7,.71-.34,.71,0Zm-4.25-1.22c.16-.88,2.11-.21,2.13-1.22,1.96,.26,.03,1.92-1.42,1.22,.09,1.51-.87,1.04-.71,0Zm2.84,3.06c-.63-.48-1.6-.66-2.84-.61-.23-1.08,3.97-1.09,2.84,.61Zm-2.84,1.22c.63,.47,1.6,.66,2.84,.61,.23,1.08-3.97,1.09-2.84-.61Zm2.13,1.83c-.02,.6-.87,.47-1.42,.61,.02-.6,.87-.47,1.42-.61Zm-4.25-5.51h1.42v1.22h-1.42v-1.22Zm-2.13-1.22c-.09-1.51,.87-1.04,.71,0,.69,.02,.55,.75,.71,1.22h-1.42v-1.22Zm3.55,3.06c-2.07,2.66-8.12-.39,0,0h0Zm-2.84,4.28v-.61c.11-.71-.16-1.09-.71-1.22,.1-1.37,1.78,.79,3.55,0-.52,.57-1.29,.93-2.13,1.22,.3,1.18-.49,2.21-.71,1.22-2.49,.38-1.24-2.2,0-.61Zm-.71,2.45c.11-.72,1.29-.52,2.13-.61v1.84c-.93-.22-1.12-1.08-2.13-1.22Zm2.13,3.06c.02-.59,.87-.48,1.42-.61-.02,.6-.87,.48-1.42,.61Zm1.42-4.28c-.59-.84-.61-1.26-1.42-1.84,2.46-1.21,3.09,4.2,1.42,1.84Zm1.42,4.28c-.37-.32,.52-.78,.71-.61,.37,.32-.51,.78-.71,.61Zm0-1.22c-.37-.32,.52-.78,.71-.61,.37,.32-.51,.78-.71,.61Zm.71-1.22c-.37-.32,.51-.78,.71-.61,.37,.32-.51,.78-.71,.61Zm.71-1.22c-.37-.32,.51-.78,.71-.61,.37,.32-.51,.78-.71,.61Zm.71,1.84c-.37-.32,.51-.78,.71-.61,.37,.32-.51,.78-.71,.61Zm1.42-2.45c-1.93-1.86,2.16,1.67,0,0h0Zm0,2.45c-.36-.32,.52-.78,.71-.61,.36,.32-.51,.78-.71,.61Zm.71,1.84c.14-.7,.71-.34,.71,0-.13,.7-.71,.34-.71,0Zm0-5.51c-1.42,.21-2.22-.13-2.13-1.22,1.29,.92,3.98,.65,4.97,1.84,.54,2.36-2.71,.22-2.84-.61Zm2.84-.61c-2.23,.29-2.77-.87-4.26-1.22-.42-.37,4.91-.62,4.26,1.22Zm.71-1.22c.14-.69,.72-.34,.71,0-.13,.69-.71,.34-.71,0Zm.71,1.83c-1.29-1.95,3.11,3.18,0,0h0Zm0,3.06c.25-.96,1.25,.54,1.42-.61,.83,.1,.6,1.12,.71,1.84-.93-.22-1.12-1.08-2.13-1.22Zm.71-4.28c.13-.7,.71-.34,.71,0,.6,.11,.67-.24,.71-.61,2.19,.77-.79,1.84-1.42,.61Zm2.84-1.84c-.57-.32-1.15-.64-2.13-.61,.22-1.68,2.46-1.29,2.13,.61Zm2.84,.61c.37,.32-.51,.78-.71,.61-.37-.32,.52-.78,.71-.61Zm-4.96,20.8c-.37-.32,.51-.78,.71-.61,.36,.32-.52,.78-.71,.61Zm.71,2.45c-.37-.32,.51-.78,.71-.61,.37,.32-.51,.78-.71,.61Zm3.55-1.84c-.11-.05-2.01-.2-1.42-.61,.71-.49,3.44,1.48,1.42,.61Zm2.13-.61c2.16-1.67-1.93,1.86,0,0h0Zm.71,3.06c-1.4,1.34-1.4-1.16,0-1.83,3,.61-2.5,1.65,0,1.83Zm10.64-5.51c.37,.32-.51,.78-.71,.61-.37-.32,.51-.78,.71-.61Zm-1.42,2.45c.37-.32,.91,.44,.71,.61-.37,.32-.91-.44-.71-.61Zm-2.13-9.79c-.13,.7-.71,.34-.71,0,.13-.7,.71-.34,.71,0Zm-7.81-3.06c1.05,.32,1.79,.9,2.84,1.22-.88,0-2.06,1.52-3.55,.61v-1.22c-1.54,2.54-2.17-.84,.71-.61Zm4.26,.61c-.4,1.77-1.11-.94-2.13-.61,.64-2.06,1.59-.07,2.84-1.22,2.03,.32-1.15,.9-1.42,1.22-.13,.52,.28,.58,.71,.61Zm2.84,3.67c-1.03,.64-3.77-.57-4.97-.61,1.1-1.68,4.26-.06,4.97,.61Zm0,1.83c-.83,.1-1.26-.13-1.42-.61,.83-.1,1.26,.13,1.42,.61Zm.71,1.22c-1.47,2.05-.62,.53-1.42,0-.13,.7-.71,.34-.71,0,.52-1.09,1.29-.09,2.13,0Zm-.71-6.12c.36,.31-.52,.78-.71,.61-.36-.32,.52-.78,.71-.61Zm-1.42-6.12c2.69,1.04-1.54,1.01-1.42,1.83-2.19-.61,1.53-1.01,1.42-1.83Zm-3.55,1.22c.77,.15,.48,1.22,1.42,1.22-.87,.87-2.71,1.39-3.55,.61,2.18,2.04,.48,2.04-.71,0,.19-1.26,3.14-.15,2.84-1.84Zm-2.84,2.45c-.19-.05-.59,1.17-.71,1.22-.44,.19-.3-1.67-.71-1.22-.28-.12,.94-.13,1.42,0Zm-4.26,1.84c.69,.02,.55,.75,.71,1.22-.69-.02-.55-.75-.71-1.22Zm2.13,3.06c-1.78-.26,1.18-1.32,2.13-1.22-.52,.57-1.29,.93-2.13,1.22Zm2.13,1.22c-.81-.12-.39-.61,0-.61,1.25,.17,2.2-2.88,2.84-1.22-1.45,.18-1.39,1.66-2.84,1.84Zm.71,3.67c-.36-.32,.51-.78,.71-.61,.36,.32-.51,.78-.71,.61Zm.71-3.67c2.16-1.67-1.94,1.86,0,0h0Zm1.42,3.67c-.37-.32,.51-.78,.71-.61,.37,.32-.51,.78-.71,.61Zm0-1.22c-1.76-.09-.21-2.07,0-2.45,2.12,.4-.68,1.31,0,2.45Zm3.55-2.45c.21,.63-.38,.44-.71,.61-2.23,1.18-3.07,.92,.71-.61Zm-1.42,2.45c-.37,.32-.91-.44-.71-.61,.36-.32,.9,.44,.71,.61Zm-.71,2.45c-.37-.32,.51-.78,.71-.61,.02-.6,.87-.47,1.42-.61-.02,.6-.87,.47-1.42,.61,.36,.32-.52,.78-.71,.61Zm.71,1.83c.02-.59,.87-.47,1.42-.61-.02,.6-.87,.48-1.42,.61Zm1.42-2.45c.77,.15,.48,1.22,1.42,1.22,2.5,0-1.69,1.88-1.42-1.22Zm2.13,0c-2.38,1.48,1.71-2.05,0,0h0Zm1.42-1.22c-.13,.69-.71,.34-.71,0,.13-.69,.71-.34,.71,0Zm0-7.95c-.79-1.27-.76-1.3,.71-.61,.38,1.27-2.77,1.3-.71,.61Zm5.68-8.57c.36,.32-.52,.78-.71,.61-.37-.32,.51-.78,.71-.61Zm-.71-2.45c-.63-.48-1.6-.66-2.84-.61-.23-1.08,3.98-1.09,2.84,.61Zm-2.13,0c0,1.22-1.93,.78-1.42,2.45-.93-.22-1.12-1.08-2.13-1.22,.31-.89,.62,.06,1.42,0,.72-.4,.73-1.41,2.13-1.22Zm-6.38-.61c-.02,.59-.87,.48-1.42,.61,.02-.6,.87-.48,1.42-.61-.2-.97,3.83-.86,2.13,.61,.28-.24-2.14-.66-2.13-.61Zm-1.42,1.84c2.64-2.14,3.6,1.67,0,0h0Zm3.54-2.45c-.37-.32,.51-.78,.71-.61,.36,.32-.52,.78-.71,.61Zm2.13-.61c-.37,.32-.9-.44-.71-.61,.37-.32,.91,.44,.71,.61Zm-7.81-3.67c1.34,.07,.49,2.02,2.13,1.84-2.31-1.19,2.11-2.2,1.42,0,.57-.32,1.15-.64,2.13-.61,.13,.52-.27,.58-.71,.61-.89,.15-.72,1.22,0,1.22,.11-.72,1.29-.52,2.13-.61-.12,.72-1.29,.52-2.13,.61-.22,.83-1.78,.51-2.84,.61-1.15,.17-1.22-.58-2.13-.61v-.61h-.71c-.09-1.1,.87-1.29,.71-2.45Zm0,4.89c-.69-.02-.55-.75-.71-1.22,.69,.02,.55,.75,.71,1.22Zm-2.84-1.84c1.25-2.36,3.51,1.89,.71,0,.09,1.51-.87,1.04-.71,0Zm-1.42,0c.83,.1,.6,1.12,.71,1.84-.83-.1-.6-1.12-.71-1.84Zm1.42,3.06c.13-.52-.28-.58-.71-.61-.28-1.19,3.23-.89,2.13,.61h-1.42Zm3.55,3.67c-1.23-.55-2.73-1.37-1.42-2.45,1.25,.15,1.62,1.05,1.42,2.45Zm-1.42-3.67c.52-1.09,1.29-.09,2.13,0-.52,1.09-1.29,.09-2.13,0Zm2.13,3.06c.49-1.92,1.89-.8,3.55-.61-.07,1.56-2.65,1.45-3.55,.61Zm4.25-1.22c-.8-.12-.39-.61,0-.61,2.16-.09,.91,2.49,0,.61Zm3.55,1.22v-.61c0-2.42,3.59-.8,.71,0,1.76-.08,1.21,.75,0,.61-1.38,1.87-5.94-.59-.71,0Zm2.13,1.22c-.02,.6-.87,.47-1.42,.61,.02-.6,.87-.47,1.42-.61Zm-2.84,7.95c-.37-.32,.51-.78,.71-.61,.37,.31-.51,.78-.71,.61Zm.71-3.67c-1.3,.16,.43-1.05,.71-1.22,3.14-1.93-.1,1.15-.71,1.22Zm3.55-.61c-.52,.57-1.29,.93-2.13,1.22-1.78-.26,1.18-1.32,2.13-1.22Zm.7-3.06c-.44,1.75-3.63-2.66-.7-.61-2.2-3.59,4.87,2.5,.7,.61Zm.71-2.45c.14-.7,.71-.34,.71,0-.13,.69-.71,.34-.71,0Z"/></g><g><polygon class="f" points="80.24 138.78 80.24 138.77 80.24 138.78 80.24 138.78"/><path class="f" d="M70.31,142.45c-.04,.37-.11,.72-.71,.61h-.71c-.16,.48-.6,.71-1.42,.61h-1.42c-.04,.37-.11,.72-.71,.61h-.71c-3.83,.78-8.42,.9-9.93,3.67,1.19,1.38,3.13-1.74,4.25-2.45h4.97c6.27-1.58,11.17-3.02,15.61-6.12,.25-.17,.48-.39,.71-.61-3.96,.46-4.63,3.75-9.22,3.67h-.71Z"/></g><path class="b" d="M176.72,129.6c-.18-.66-1.41-.42-1.42-1.22-1,.22-.06,1.08,.7,1.22-.7,1.88-1.92-.68-2.13-1.22-.84-.1-2.01,.11-2.13-.61v-.61c2.39-.77,3.75,2.4,4.97,.61-.77-.15-1.7-1.01-.71-1.22,.27,1.4,2.84,.82,3.55,1.84-.87-.2-4.38,.1-2.13,.61v.61h-.71Z"/><path class="b" d="M105.78,132.66c-2.91,.14-3.02,2.7-6.39,2.45,.04,1.05-.54,1.57-1.42,1.84-.94-1.17-3.15,.7-4.96-.61-2.02,1.58-3.38-.17-4.26,.61,.19-.17,.97,.63,0,.61-.43-.85-2.73-.09-2.84-1.22,2.68-1.09,7.67-.47,10.64-1.22,1.48-.38,1.73-2.26,2.84-1.22-.77,.15-1.7,1.01-.71,1.22,1.63-.64,1.97-2.38,3.55-3.06,3.13,.45,2.91-1.98,4.97-2.45,.97,1.39-1.83,2.3,0,2.45,.19-.95,1.56-.42,2.13,0v.61c-.57,.32-1.15,.64-2.13,.61-.58-.12-.71-.61-1.42-.61Zm-3.55,0c.16,.48,.6,.71,1.42,.61-.16-.48-.6-.71-1.42-.61Zm-.71,1.83c.2-.17-.34-.93-.71-.61-.2,.17,.34,.93,.71,.61Z"/><g><path d="M216.49,168.03c-.53-.54-.43-.33,0,0h0Z"/><path d="M127.53,142.92c-.27-.2-.23-.16,0,0h0Z"/></g><path class="d" d="M159.69,145.51c-1.54,2.54-2.17-.84,.71-.61,.13,.52-.28,.58-.71,.61Z"/><path class="d" d="M160.4,143.06c2.18,2.04,.48,2.04-.71,0h.71Z"/><path class="d" d="M153.31,138.17c.13-.7,.71-.34,.71,0,.6,.11,.67-.24,.71-.61,2.19,.77-.79,1.84-1.42,.61Z"/><path class="d" d="M152.6,142.45c.25-.96,1.25,.54,1.42-.61,.83,.1,.6,1.12,.71,1.84-.93-.22-1.12-1.08-2.13-1.22Z"/><path class="d" d="M139.83,138.78c.11-.71-.16-1.09-.71-1.22,.1-1.37,1.78,.79,3.55,0-.52,.57-1.29,.93-2.13,1.22h-.71Z"/><path class="d" d="M85.2,149.18c-.02-.6-.87-.47-1.42-.61-1.05,.27,.28,.78,0,1.84-.41-.54-3.83-1.94-2.13-.61-.16,.87-3.53-.57-5.68,0v-1.22c-2.2,.35-1.41,3.27-4.97,2.45-.12,.71,.16,1.09,.71,1.22,1.54,1.46-2.95-.1-1.42-2.45-.58,1.54-3.24,1.29-5.68,1.22,1.41-2.68,5.15-2.65,7.09-.61,.55-2.37,4.6-1.74,4.97-4.28,1.41,0,.9,1.67,2.84,1.22,1.69-1.93,1.93-.46,5.67-.61,.83-.1,.6-1.12,.71-1.84,2.96,3.23,4.97-2.92,9.22-2.45,2,.59-2.5,.74-2.84,1.83-.21,.67,3.48,.45,4.97-.61,2.19,.61-1.54,1.01-1.42,1.84h-1.42c-1.21,.23-2.97,.18-4.26,.61-.67,.22-1.55,1.62-2.13,1.83-1.05,.38-2.8-.07-1.42,.61v.61h-1.42Zm-8.51-.61c2.63,2.82,.18-4.35,0-.61v.61Z"/><path class="d" d="M63.21,148.57c3.46,.23,1.31,2.08,0,0h0Z"/><path class="d" d="M109.33,132.66h.71c-.21,1.2,.96,1.21,1.42,1.83h-2.13c-.7-1.88-1.89,.7-2.84,.61,0-.62,.58-.73,.71-1.22v-.61c.98,.03,1.56-.29,2.13-.61Z"/><path class="d" d="M110.03,137.55c.55,.14,1.4,.02,1.42,.61-.17,.66-1.41,.41-1.42,1.22-1.05-.27,.28-.78,0-1.83Z"/><path class="d" d="M115,137.55c1.77-.31,2.91-1.16,4.25-1.84,2.59,1.5-2.91,1.1-2.84,2.45-.55-.14-1.4-.02-1.42-.61Z"/><path class="d" d="M122.8,128.99c2.16-1.67-1.94,1.86,0,0h0Z"/><path class="b" d="M147.63,124.09c-1.75,.08-3.42,.09-4.25-.61,.03,.84-.34,1.34-.71,1.83-.82,.1-1.26-.14-1.42-.61,1.75,.08,1.2-.75,0-.61,1.07-1.91,4.83-1.01,6.38,0Z"/><path class="b" d="M166.79,125.93c.14,.7,.72,.34,.71,0,.71,0,.84,.5,1.42,.61,.13,.52-.28,.58-.71,.61-3.95-1.09-5.69-.67-9.93-1.84v-.61c2.24-.84,4.28,1.52,4.97,0-1.14-.85-3.66-.52-4.26-1.83,3.75,.03,5.49,1.79,7.8,3.06Z"/><path class="b" d="M185.23,128.38c-1.36,1.13-3.57-2.19-7.09-1.22-.21-1.65-2.98-1.1-3.55-2.45h-4.26c-.12-1.33,2.52-.28,3.55-.61,4.44,.86,8.54,2.01,11.35,4.28Z"/><path class="b" d="M156.86,128.38c-.77-.15-1.7-1.01-.71-1.22,.13,.5,.71,.61,.71,1.22Z"/><path class="b" d="M212.9,151.01c-1.89,.31-1.03-1.05,0-.61,1.01,.43,.16,1.75,0,.61Z"/><path class="b" d="M182.4,136.94c.11-.72,1.29-.52,2.13-.61-.02-.59-.87-.48-1.42-.61,.19-1.26,3.14-.15,2.84-1.83,1.07,.53-.19,.92,.71,2.45,.71-1.38,3.87,1.32,4.97-.61,1.47,.16,.19,2.69,1.42,3.06,.8-.12,.39-.61,0-.61,1.09-1.83,3.15-.63,4.96,0-.47,1.63-2.13,2.24-3.55,3.06,.32,1.01,3.06-.98,3.55-1.84,2.02,.5,4.06,.98,3.55,3.67,1.71,.25,1.55-1.12,3.55-.61,.26,1.04-.55,1.16-1.42,1.22,1.26,.65,3.24,.05,1.42,2.45,.94,.09,2.64-2.06,2.84-.61,2.05,1.35-1.09-.77-.71,.61,.15,1.47,1.94,.31,2.84,1.22,.21,.21-1.79,1.81,1.42,1.22-.06,2.29-.79,1.74,0,3.67h-.71c-.13-.7-.71-.34-.71,0-2.28,2.12-4.1,4.62-6.38,6.73-1.1,.24-.25-1.56-.71-1.84,.47,.28-3.05,.79-2.13,0,.92-.8-.14-.42-1.42-.61,1.53-1.33-.25-5.51,2.12-6.12,.96,.19,.59,1.53,.71,2.45,.57-.12,.71-.61,1.42-.61-.99,.78-.31,3-2.13,3.06,.14,.5,.72,.61,.71,1.22,.63-.27,1.27-.54,1.42-1.22,.82-.1,1.26,.13,1.42,.61,2-.11,.89-2.91,3.55-2.45-.02-.6-.87-.47-1.42-.61-.09-1.1,.87-1.29,.71-2.45-2.96,.49-1.31,3.15-2.13,4.28h-2.13c-.13-2.15,1.67-2.63,2.84-3.67-.62-1.81-1.06,1.42-2.84,.61,.7-.83,1.89-1.22,2.84-1.84-.25-.8-1.25-.96-1.42-1.84-1.48-.26-1.88,.42-2.84,.61-.13-.52,.28-.58,.71-.61-.31-.89-.62,.06-1.42,0,.55-.54,.76-1.38,.71-2.45-.14,.83-2.1,1.39-2.84,2.45-.26,.37,.87,1.08,0,1.84-.06,.05-1.42,.65-1.42,.61-.11,1.04,1.77,.12,2.13,0-.18,2.09-1.79,2.94-1.42,5.51-1.27,.17-1.45-.58-.71-.61,.34-.93-1.89-.23-2.13-.61-.08-.13,3.85-2.57,0-2.45,1.13-2.34,1.13-.72,0-3.06,2.28-.28,2.44-2.38,3.55-3.67-2.71,1.7-5.67,5.21-4.26,8.57-1.11-.26-.61-1.92-2.84-1.22,1.29-2.49-2.22-5.81,.71-7.34,2.34-1.54,1.02,1.23,.71,2.45,1.73-.34,1.51-2.37,4.26-1.83-.93-1.24-2.33-2.07-4.26-2.45-.13-.52,.28-.58,.71-.61,.81-.12,.39-.61,0-.61h-1.42c-1.05-.32-1.79-.9-2.84-1.22-.35,2.15-.82,2.01,0,3.67,1.14,.17,1.22-.58,2.13-.61-.72,.81-.7,2.26-1.42,3.06-.81,.12-.39,.61,0,.61-1.34,.95,1.02,2.38-.71,3.67-.89-.15-.72-1.22,0-1.22-.2-1.28-1.9,.89-2.84-.61,1.49-2.42-1.2-6.29,2.13-7.95-.69-2.03-1.4,.68-2.13,.61-.06-1.67,1.18-1.23,0-2.45-1.99,0,1.69,1.67-1.42,1.22,.06-.87,.12-1.73-.71-1.84-.09-1.1,.87-1.29,.71-2.45-1.46,.17-.67,2.28-2.13,2.45-.8,.12-.39,.61,0,.61,.06,.87,.12,1.73-.71,1.83-.81,.12-.39,.61,0,.61v6.12c-1.41,0-.9-1.67-2.84-1.22,.58-1.54-.75-4.28,0-5.51,.34-.56,2.27-.26,0-.61,1.61-.45,1.26-2.59,2.13-3.67,.81-.12,.39-.61,0-.61Zm12.77,1.83c.04,.37,.11,.72,.71,.61,0-.81,1.24-.56,1.42-1.22-1.38,.69-3.63-.18-2.13,.61Zm4.96,3.06c2.06-.34-1.09-.95-.71-1.83-2.06,.34,1.09,.95,.71,1.83Zm0,3.67c.16,.47,.02,1.21,.71,1.22-.16-.47-.02-1.21-.71-1.22Zm-16.32-7.34c.2-.17-.34-.93-.71-.61-.2,.17,.34,.93,.71,.61Zm7.81,2.45c.19-.17-.34-.93-.71-.61-.19,.17,.34,.93,.71,.61Zm-.71-1.84c-.71,0-.89,1.07,0,1.22-.07-.69,1.03-.95,0-1.22Zm2.84,2.45c-.2-.17-1.08,.3-.71,.61,.19,.17,1.07-.3,.71-.61Zm3.55,2.45c.09,.48,.9,.46,.71,0-.45-1.07-2.34-1.93-1.42-.61,.07,.09,.62-.08,.71,0,.08,.07-.02,.51,0,.61Zm2.13,.61c-.2-.17-1.08,.3-.71,.61,.2,.17,1.08-.3,.71-.61Zm1.42,0c-.19-.17-1.08,.3-.71,.61,.2,.17,1.08-.3,.71-.61Zm7.81,4.28c-.19-.17-1.08,.3-.71,.61,.2,.17,1.07-.3,.71-.61Zm2.13,.61c-.2-.17-1.08,.3-.71,.61,.2,.17,1.08-.3,.71-.61Zm-1.42,.61c-.19-.17-1.07,.29-.71,.61,.2,.17,1.08-.3,.71-.61Zm0,1.84c-.19-.17-1.07,.3-.71,.61,.2,.17,1.08-.3,.71-.61Zm-14.9-2.45c-1.94,1.86,2.16-1.67,0,0h0Zm-3.55-3.67c-.19-.17-1.08,.3-.71,.61,.2,.17,1.07-.3,.71-.61Zm10.64,8.57c-.19,.17,.35,.93,.71,.61,.2-.17-.34-.93-.71-.61Z"/><path class="d" d="M115.71,132.66c-1.43-1.43,.31-1.43,.71,0h-.71Z"/><path class="d" d="M122.8,135.11c-.6,.11-.67-.24-.71-.61-.11-.72-1.29-.52-2.13-.61,.62-2.3,3.14-.7,2.84,1.22Z"/><path class="d" d="M172.46,133.88c0,1.22-1.93,.78-1.42,2.45-.93-.22-1.12-1.08-2.13-1.22,.31-.89,.62,.06,1.42,0,.72-.4,.73-1.41,2.13-1.22Z"/><path class="d" d="M197.3,138.17c-.18,.66-1.41,.41-1.42,1.22-.6,.11-.67-.24-.71-.61-1.5-.79,.74,.08,2.13-.61Z"/><path class="d" d="M199.43,140c-.38,.88,2.76,1.49,.71,1.83,.38-.88-2.76-1.49-.71-1.83Z"/><path class="c" d="M202.26,148.57c.96-.19,1.35-.87,2.84-.61,.17,.87,1.17,1.03,1.42,1.84-.94,.61-2.14,1.01-2.84,1.84v.61c-.71,0-.85,.5-1.42,.61-.12-.92,.25-2.26-.71-2.45v-.61c.61,.11,.67-.24,.71-.61v-.61Zm2.84,1.22c.2,.17,1.08-.3,.71-.61-.2-.17-1.08,.3-.71,.61Z"/><path class="c" d="M200.13,150.4c-.36,.12-2.24,1.04-2.13,0,0,.03,1.37-.57,1.42-.61,.87-.76-.26-1.46,0-1.84,.73-1.05,2.7-1.62,2.84-2.45,.05,1.07-.16,1.9-.71,2.45-.13,.5-.71,.61-.71,1.22-.6-.11-.67,.24-.71,.61v.61Z"/><path class="c" d="M185.23,139.39c.83,.1,.77,.97,.71,1.84,3.11,.45-.57-1.22,1.42-1.22,1.18,1.22-.06,.78,0,2.45v.61c-1.99,.09-2.04-1.5-2.13-3.06v-.61Z"/><path class="b" d="M147.63,147.34c.37,1.26,3.86-.22,3.55,.61,.14-.37-1.15,.71-.71,.61-.31,.07-3.28,.71-2.84-1.22Z"/><path class="b" d="M185.94,148.57c2.07,1.8-1.64,3.79,0,0h0Z"/><path class="b" d="M203.68,177.94c1.14-.85,2.24-1.73,3.55-2.45-.91,1.05-1.47,2.41-3.55,2.45Z"/><path class="b" d="M205.1,163.25c2.38,1.01,3.17,3.38,3.55,6.12-1.53-1.74-1.65-4.69-3.55-6.12Z"/><path class="b" d="M200.84,159.58c1.46,.17,1.42,1.63,2.13,2.45-1.46-.17-1.41-1.63-2.13-2.45Z"/><path class="b" d="M198,157.13c.8,.13,1.11,.68,1.42,1.22-.63-.27-1.27-.54-1.42-1.22Z"/><path class="d" d="M107.2,137.55c-.12-.72-1.29-.52-2.13-.61,.22-.83,1.78-.51,2.84-.61,.2,.99-.67,1.05-.71,1.84-.81-.12-.4-.61,0-.61Z"/><path class="d" d="M146.92,137.55c-.42-.37,4.91-.62,4.26,1.22-2.23,.29-2.77-.87-4.26-1.22Z"/><path class="d" d="M176.01,139.39c-.44,1.75-3.63-2.66-.7-.61,.6-.11,.67,.24,.7,.61Z"/><path class="d" d="M86.62,141.22c.87-.44,1.56-.64,.71,0-.83,.62-1.68,.48-.71,0Z"/><path class="d" d="M90.17,141.22c-.81,.12-.39,.61,0,.61-3.48,.59,1.15-2.42,2.84-1.22,.34,.24-1.64,.88-2.13,.61h-.71Z"/><path class="d" d="M172.46,141.84c3.14-1.93-.1,1.15-.71,1.22-1.3,.16,.43-1.05,.71-1.22Z"/><path class="d" d="M175.3,142.45c-.52,.57-1.29,.93-2.13,1.22-1.78-.26,1.18-1.32,2.13-1.22Z"/><path class="b" d="M76.69,147.96c.18-3.74,2.63,3.43,0,.61,.8-.12,.39-.61,0-.61Z"/><path class="d" d="M170.34,144.28c.38,1.27-2.77,1.3-.71,.61-.79-1.27-.76-1.3,.71-.61Z"/><path class="c" d="M193.75,144.28v-.61c1.93,.38,3.32,1.21,4.26,2.45-2.75-.53-2.52,1.49-4.26,1.83,.31-1.22,1.63-3.99-.71-2.45v-.61c.6,.11,.67-.24,.71-.61Z"/><path class="b" d="M178.85,144.9c1.08-.46,.53,.38,0,.61-.95,.41-1.59-.41-.71-.61,.2-.05,.53,.08,.71,0Z"/><path class="d" d="M132.03,149.18c-1.93-1.86,2.16,1.67,0,0h0Z"/><path class="d" d="M159.69,149.18c1.25,.17,2.2-2.88,2.84-1.22-1.45,.18-1.39,1.66-2.84,1.84v-.61Z"/><g><path class="c" d="M224.96,160.19c1.67-.17,.43-2.71-.71-2.45-.43-.03-.84-.09-.71-.61,.04-.37,.11-.72,.71-.61v-.61c.71,0,.89-1.07,0-1.22v-.61c-.04-.37-.11-.72-.71-.61h-.71c-.72,0-.89-1.07,0-1.22v-1.22c-.43-.03-.84-.09-.71-.61-.04-.37-.1-.72-.71-.61-.55-.14-1.4-.02-1.42-.61v-.61c2.26-1.21-.89-2.85-2.13-3.06h-2.13v-1.84c0-.61-.57-.73-.71-1.22-.72,0-.85-.5-1.42-.61h-.71c-1.39,.18-1.4-.83-2.13-1.22v-.61c-.15-.69-.79-.95-1.42-1.22h-.71c-.04-.37-.11-.72-.71-.61h-1.42c-.09-1.56-1.03-2.37-2.84-2.45h-.71c-.12-.71-1.12-.66-2.13-.61v-.61c-.04-.37-.1-.72-.71-.61h-.71c-.48-2.03-4.88-.69-5.68-2.45h-.71c-2.83,.61-2.14-1.83-4.97-1.22-3.11-4.66-9.74-6.29-17.03-7.34h-.71c-.63,1.16-2.4,1.14-4.97,.61-1.34-.28-2.24-1.02-3.55-1.22-11.53-1.82-25.89-.92-34.76,3.06h-5.67c-.69,1.25-2.73,1.32-4.96,1.22-2.93,1.16-6.84,3.29-9.93,2.45-2.97,1.72-7.27,2.3-9.22,4.9-2.75-.33-3.46,1.09-6.39,.61h-.71c-.87,.88-2.44,1.16-4.26,1.22h-3.55c-1.4,.42-1.89,1.63-2.13,3.06,1.13-1.11,2.16-2.64,4.26-2.44-1.15,2.07-2.57,3.9-5.67,4.28,2.27,1.72,4.64-1.68,5.67-3.06,.91,1.05,4.24,.01,4.25,1.83,1.53-3.17,10.17-.2,11.35-3.67,1.79,.99,.79,3.07,4.25,3.67,0-.61,.57-.73,.71-1.22-.6,.11-.67-.24-.71-.61h-.71c-.02,.59-.87,.47-1.42,.61-.85-2.57,1.15-2.68,1.42-4.28,1.55-.39,2.26,1.73,2.13-.61v-.61c-2.91,.14-3.02,2.7-6.39,2.45,.04,1.05-.54,1.57-1.42,1.84-.94-1.17-3.15,.7-4.96-.61-2.02,1.58-3.38-.17-4.26,.61,.19-.17,.97,.63,0,.61-.43-.85-2.73-.09-2.84-1.22,2.68-1.09,7.67-.47,10.64-1.22,1.48-.38,1.73-2.26,2.84-1.22-.77,.15-1.7,1.01-.71,1.22,1.63-.64,1.97-2.38,3.55-3.06,3.13,.45,2.91-1.98,4.97-2.45,.97,1.39-1.83,2.3,0,2.45,.19-.95,1.56-.42,2.13,0v-1.84c2.22-.63,4.97-.47,6.39-3.06,1.77,1.22,5.65,.34,6.38-1.22,4.78,2.3,7.06-2.33,12.77-1.22h.71c-.22-1.41,2.05-.68,2.13-1.83,.69,.02,.55,.75,.71,1.22h2.84c1.07-1.91,4.83-1.01,6.38,0h.71v-.61c.84-.7,2.51-.69,4.25-.61-.17,.66-1.41,.41-1.42,1.22h4.26c-.52-.57-1.29-.93-2.13-1.22,.38-1.06,3.42,.66,4.96,.61-.17,.66-1.41,.41-1.42,1.22h1.42c2.24-.84,4.28,1.52,4.97,0-1.14-.85-3.66-.52-4.26-1.83,3.75,.03,5.49,1.79,7.8,3.06h.71c.71,0,.84,.5,1.42,.61h.71c.13-.5,.71-.61,.71-1.22,1.71-.25,1.54,1.12,3.55,.61,2.68,1.21-3.38-.15-2.84,1.22h.71c2.39-.77,3.75,2.4,4.97,.61-.77-.15-1.7-1.01-.71-1.22,.27,1.4,2.84,.82,3.55,1.84-.87-.2-4.38,.1-2.13,.61h.71v.61h-2.13c-.7,1.88-1.92-.68-2.13-1.22-.84-.1-2.01,.11-2.13-.61h-.71c-1.48-.26-1.88,.42-2.84,.61,1.73,.58,6.47,.51,7.1,3.67,1.25-1.26,2.19-.54,2.84-1.22,1.96,.26,.04,1.92-1.42,1.22,1.84,.79,1.37,2.01,.71,3.67,.96-.4,1.32-1.31,1.42-2.45,1.2,.2,3.19,.82,4.26,0,1.25,2.73-4.92,4.31-3.55,9.18v.61c-.71,1.54-3.14-.49-2.84-1.84,.63,.38,1.27,.74,1.42,0v-.61c-1.15-.17-1.22,.58-2.13,.61-.52,1.88,1.95,1.18,1.42,3.06-1.27-.17-1.45,.58-.71,.61-1.95,.77-1.21,3.85-4.26,3.67-.3-2.94-.26,.73-2.13,0,1.18-1.22-.06-.78,0-2.45-2.64,.72,.52,2.65-1.42,3.67,1.88,.82,2.13,3.06,4.96,3.06-.89,1.73-2.24,2.34,.71,3.06,.3,2.3-2.22,2.17-2.84,3.67-1.03-.27,.07-.54,0-1.22-1.73,.34-1.51,2.37-4.25,1.84,.37,.49,.74,.99,.71,1.84-1.9-.35-4.43,1.81-5.68,0-1.91,.62-5.51,2.96-7.8,1.22,0-.81,1.24-.56,1.42-1.22,.86-.87,2.71-1.39,3.55-.61-1.07-2.57-4.11,1.06-7.81,0v-.61c.04-.37,.11-.72,.71-.61-.13-.52,.28-.58,.71-.61h.71c.52-.57,1.29-.93,2.13-1.22-.68-1.5-6.08,3.73-7.1,0h2.13c.52-.57,1.29-.93,2.13-1.22-.2-1.28-1.89,.89-2.84-.61,1.96-1.37,5.62-1.27,9.22-1.22v1.22c2.19-1.28,3.57,2.35,7.09,1.84-3.03-1.67-5.69-3.66-8.51-5.51,.52-.57,1.29-.93,2.13-1.22-.31-.54-.62-1.1-1.42-1.22v.61c1.44,1.16-2.24-.51-3.55,.61,1.55-3.31-1.27,.84-.71-4.28,1.41,.62,1.12,2.71,3.55,2.45-1.48-1.17-3.15-2.18-3.55-4.28,1.35-1.15,1.78-.07,3.55,0-.52-.57-1.29-.93-2.13-1.23,2.49-3.02,10.43-7.35,14.9-3.06,.61,.11,.67-.24,.71-.61-.43-.03-.84-.09-.71-.61-2.94-1.92-7.53-.66-10.64-1.22,.39-.89-.83-3.16,.71-3.06-.2-1.28-1.9,.89-2.84-.61-.12,1.73,2.4,1.19,1.42,3.67-.43-.35-3.37-1.43-3.55,0v.61h4.25c-.96,2.63-5.84,1.9-5.67,5.51-.96-1.48-1.42-.38-2.13-1.22-.99,.22-.06,1.08,.71,1.22-.7,1.88-1.89-.7-2.84-.61,0,1.22,1.93,.78,1.42,2.45-1.24-.18-3.81,1.95-3.55-.61-.66,.34-1.07,1.7-1.42,.61-.27,.41-.2,3.8-2.84,1.83,.13-.69,.71-.34,.71,0,.69-.02,.55-.75,.71-1.22-.3-1.37-3.5-.25-4.96-.61,1.4-2.11-2.42-2.69-.71-3.06-1.06-1.13-2.24-2.15-3.55-3.06-1.69-1.33,1.72,.08,2.13,.61-.56-2.15-1.99-2.01,0-3.67h-2.84c1.65,2.13-2.66,.57-5.68,.61-.09-1.1,.87-1.29,.71-2.45-2.8-.78-1.84,1.67-2.84,2.45-1.88,.19,.66-3.43-2.13-2.45-.8,.55,.04,1.37-1.42,2.45-1.45-.38-.2-3.09-2.84-2.45-1.02,.14-.25,1.83-1.42,1.84,2.65,1.8,8.33,.97,10.64,3.06h.71c.6-.11,.67,.24,.71,.61h.71c2.91,.75,4.52,2.63,6.39,4.28-1.32,1.58-2.07,6.54-6.39,4.89-.81,.12-.4,.61,0,.61,.22,1.91-2.05-1.56-2.13,.61-.69-.02-.55-.75-.71-1.22-.95,.61-1.39,1.65-2.84,1.84-.03,1.05,.53,1.58,1.42,1.83-1.06,.33-.83,.61-2.84,1.22,.08,2.17,2.34-1.3,2.13,.61,.13,2.35-.58,.22-2.13,.61,.46,.62,1.63,.63,1.42,1.84-2.48-.1-2.23,2.15-3.55,3.06-2.12-.4,.68-1.31,0-2.45-1.16-.45-3.08,1.22-1.42,1.22-.32,.89-.62-.06-1.42,0-.82,.51-1.9,.81-3.55,.61-.79,1.77-.76-.94,.71-.61,.16-.48,.6-.71,1.42-.61,.76-.57,.22-2.26,2.13-1.84-.9-1.32-4.23,.38-4.26,1.84-1.24,.35-4.17-.74-4.26,.61-1.69-.18,.79-1.66,1.42-1.84h.71c.31-.75,.91-1.26,2.12-1.22-1.36-2.09-2.72-.62-4.96-.61,1.15-2.47,6.49-1.34,9.22-2.45,2.09-1.67,1.66-5.5,3.55-7.34,3.19,.31,2.41-2.81,5.68-2.45h2.84c-.01-1.52-3.09-1.14-3.55-1.22-.66-.12-.67,.62-.71,.61-.58-.06-1.31-.51-1.67-.75,.17,.13,.45,.35,.96,.75-1.09,2.67-5.25-.94-4.97,2.45,.69-.02,.55-.75,.71-1.22,2.19,.56-.36,1.63-.71,1.84-.34,.21-2.63,1.17-2.84,1.22,.53-.12-3.47-.3-4.25,0v-3.06c-.72,.4-.74,1.41-2.13,1.22-.12,.71,.16,1.09,.71,1.22-.52,.64-4.68,.52-5.68,2.45-1.03-.27,.07-.54,0-1.22-2.2,1.39-3.72,2.18-5.67,1.22,.59-1.32,1.83-2.09,1.42-4.28-1.05,.52-1.52,1.54-1.42,3.06-2.94,.52-3.61,3-6.39,3.67-1.73-.75,2.23-1.69,2.84-2.45-.14-.5-.72-.61-.71-1.22-.81,.12-.39,.61,0,.61,.15,1.64-3.77,.42-2.84,1.22,1.03,.89-.43,.42-2.13,2.45-.81-.12-.4-.61,0-.61-.04-.58-3.73,.81-4.96,1.22-1.03-.27,.07-.54,0-1.22-3.18,.84-7.55,.35-11.35,.61-4.18,.28-8.08,1.52-10.64-.61-.87,.27-1.46,.78-1.42,1.83-1.71,.25-1.54-1.12-3.55-.61,.79-.75,.62-1.26-.71-1.22-.39-1.36,1.36-.87,1.42-1.84v-.61c-1.76,.07-2.2,1.15-3.55,0,1.84,1.61-1.14,.48-.71,2.45-.77-.15-.48-1.22-1.42-1.22-1.63,.48,1.22,2.14,1.42,3.06h.71c.43,.03,.84,.09,.71,.61h.71c.99,1.01,6.81,1.01,7.8,0h.71c1.03-.34,3.67,.71,3.55-.61h1.42c5.05-2.08,11.25,.8,16.32,.61,4.41-.16,7.3-1.56,10.64-3.06,5.42,.19,10.38-.02,13.48-1.84h.71c0-.24,4.9-1.42,6.38,0,.16,1.16-.8,1.35-.71,2.45v.61c.12,1.33-2.52,.28-3.55,.61h-.71c-3.17,.74-6.74,1.12-7.8,3.67,1.06,.1,2.62-.22,2.84,.61v.61c0,1.63-2.24,1.33-2.13,3.06,2.82,.4,2.85-1.62,5.68-1.22v1.22c.93,2.63,6.11-2.09,7.09,1.83,1.26-2.17,4.63-2.53,6.39-4.28,.7-5.11,6.65-5.68,9.93-8.57,4.5-.2,10.06,.52,13.48-.61,1.63,.3,5.59,6.08,3.55,4.28h-.71c-2.18,.97-5.56,.92-7.81,1.84,1.01,1.88,.32,2.75-.71,4.28,1.03,.33,3.67-.72,3.55,.61h-1.42v.61c.31,1.37,3.5,.25,4.97,.61,0,1.22-1.94,.78-1.42,2.45,7.51-.25,15.62,.01,19.16-3.67h.71c1.97-1.15,3.59-2.61,3.55-5.51-.41-1.68-1.76-2.56-2.13-4.28,8.38,.32,15.28,1.91,20.57,4.89h.71c.84,.3,1.61,.65,2.13,1.22h.71c.8,.13,1.11,.68,1.42,1.22v.61c.43,.03,.84,.09,.71,.61h.71c1.46,.17,1.42,1.63,2.13,2.45h.71c.55,.14,1.4,.02,1.42,.61v.61c2.38,1.01,3.17,3.38,3.55,6.12v3.06c-.16,.47-.02,1.21-.71,1.22v.61c-.04,.37-.1,.72-.71,.61v.61c-.91,1.05-1.47,2.41-3.55,2.45h-.71c-.04,.37-.11,.72-.71,.61h-.71c-.04,.37-.1,.72-.71,.61h-2.13c-3.08,.12-5.16,.69-7.8-.61h-.71c.51-.99-3.35-.99-2.84,0h-.71c-.71,0-.89,1.07,0,1.22,.76-1.57,4.09-.33,4.26,.61,.12-.71,1.12-.66,2.13-.61h.71c1.68,1.15,4.1-.77,6.38,.61,1.37-1.24,2.86-1.42,4.97-.61,1.19-.81,2.38-1.62,4.97-1.22,.39,.89-.83,3.16,.71,3.06-.75-2.28,1.49-1.98,2.13-3.06-1.78,.08-2.22,1.17-2.84-.61h.71c.04-.37,.11-.72,.71-.61,1.66,.52,3.06-2.14,3.55-.61-1.63,.59-1.15,3.59,0,2.45,0-.61-.58-.73-.71-1.22,3.11,.42,3.68-4.54,6.38-2.45-2.57-.45-2.22,1.09-2.84,1.83-.36,.43-1.24,.77-1.42,1.22,.04-.09,1.16,.2,.71,.61-1.37,1.26-2.19,1.71-5.68,1.83,.48,1.63-1.21,.73-2.13,1.22-1.1,.59-1.38,2.39-2.84,2.45,1.55-3.52-1.45,2.6-2.84,0,2.19,.86,3.19-3.71,2.13-1.83-1.21,.99-2.51,1.91-3.55,3.06-5.03,.51-10.25,1.06-14.9,.61-.51-.05-.66-.6-.71-.61-6.71-1.08-13.93-2.18-17.73-5.51-.78,1.13-4.01,.37-4.97,0-2.73-1.06-2.24-2.48-2.84-.61-3.16-2.73-9.4-.85-14.19-3.06,.84-.7,2.51-.69,4.26-.61h.71c5.19-.76,9.1-1.01,13.48-1.22,.79,.13,1.1,.68,1.42,1.22,3.11-1.34,5.54,1.88,8.52-.61-.18-.77-1.41-.62-1.42,0-.98-.03-1.56,.29-2.13,.61-.36-2.14-2.94-.32-4.25-.61-.69-.15-.69-1.11-2.13-1.22-2.8-.23-5.95,.85-8.51,0h-.71c-.45,.51-3.32,1.91-3.55,.61h-.71c-1.93,1.19-6.57,.04-6.38,3.06,7.77,1.05,16.16,1.57,21.99,4.28h.71c3.07,.82,6.5,1.33,8.51,3.06h.71c.04,.37,.11,.73,.71,.61h.71c.16,.48,.59,.71,1.42,.61h2.13c.12,.71,1.12,.66,2.13,.61h1.42c.09,1.35,3.01,.26,4.26,.61h4.96c1.47-.36,4.66,.76,4.96-.61h1.42c.55-.14,1.4-.02,1.42-.61h2.13c.43-.03,.84-.09,.71-.61h.71c.55-.14,1.4-.02,1.42-.61h.71c.43-.03,.84-.09,.71-.61h.71c.8-.13,1.1-.68,1.42-1.22h1.42c.8-.13,1.11-.68,1.42-1.22,1.01-.15,1.2-1.01,2.13-1.22,.8-.13,1.11-.68,1.42-1.22v-.61c1.82-.47,3.01-1.49,3.55-3.06v-.61c.43-.03,.84-.09,.71-.61v-.61c.43-.03,.84-.09,.71-.61v-.61c.55-.13,.82-.51,.71-1.22v-.61c1.05-.11,.65-1.48,.71-2.45v-.61c.04-.37,.1-.73,.71-.61v-1.84c-.44-.03-.84-.09-.71-.61v-.61c.79-.13,1.1-.68,1.42-1.22v-.61c.03-.84-.33-1.34-.71-1.84v-.61Zm-46.11-29.98c0-.34,.57-.7,.71,0h-.71Zm-9.22,17.74c-.37-.32,.51-.78,.71-.61,.37,.32-.51,.78-.71,.61Zm-109.25,3.67c.87,.27,1.46,.78,1.42,1.83-.87-.27-1.46-.78-1.42-1.83Zm68.11,1.83c.31-.75,.91-1.26,2.13-1.22-.31,.75-.91,1.26-2.13,1.22Zm14.19-4.89c-.37-.32,.51-.78,.71-.61,.37,.32-.52,.78-.71,.61Zm7.81,0c-.31,.07-3.28,.71-2.84-1.22,.36,1.21,3.53-.08,3.53,.54-.16-.02-1.08,.77-.69,.69Zm25.54,0c-.36-.32,.52-.78,.71-.61,.37,.32-.51,.78-.71,.61Zm2.13-3.67c.2-.05,.53,.08,.71,0,1.08-.46,.53,.38,0,.61-.95,.41-1.59-.41-.71-.61Zm0,1.84c.18-.77,1.41-.62,1.42,0-.63,.38-1.27,.74-1.42,0Zm40.44,6.73c-1.01-.15-1.2-1.01-2.13-1.22v-.61c1.4-1.26,1.89,.42,2.13,1.83Zm0,4.89c1.2-.14,1.76,.69,0,.61v-.61Zm-9.22-16.52c.2,.99-.67,1.05-.71,1.84,1.5,.81,2.1-.3,4.25,.61,.9,2.49,3.46,3.55,4.26,6.12-2.31-1.89-3.71-4.55-6.39-6.12-1.45,1.23-1.39-.27-2.84-.61,.38-.49,.74-.99,.71-1.84h-.71c-.14,.69-.71,.34-.71,0-.32-.54-.62-1.09-1.42-1.22,.56-1.41,2.48,1.05,3.55,1.22Zm2.13,5.51v-.61c2.57,.2,2.57,1.68,0,.61Zm1.42,3.67c-1.89,.31-1.03-1.05,0-.61,1.01,.43,.16,1.75,0,.61Zm-7.8-9.79h-1.42v-.61c-2.19-.8,1.54-.38,1.42,.61Zm-1.42-1.84c-3.35-.95-.95-3.03,0,0h0Zm-2.13,0c.43,.03,.84,.09,.71,.61-.43-.03-.84-.09-.71-.61Zm-1.42-3.06c.04,.37,.11,.72,.71,.61-.04,.37-.1,.72-.71,.61-.84-1.31-3.07-1.43-4.25-2.45,2.65-.65,2.02,1.52,4.25,1.22Zm-5.67-1.84c.37-.32,.91,.44,.71,.61-.37,.32-.91-.44-.71-.61Zm-4.96,1.22c-.37-.32,.51-.78,.71-.61,.37,.32-.52,.78-.71,.61Zm-.71-2.45c.2-.05,.53,.08,.71,0,1.08-.46,.53,.38,0,.61-.96,.41-1.59-.41-.71-.61Zm-2.13-.61h-.71c0-.34,.58-.7,.71,0Zm-6.38-1.84c0-.62,1.24-.77,1.42,0h-1.42Zm-2.13-3.67c-.21-1.65-2.98-1.1-3.55-2.45h-4.26c-.12-1.33,2.52-.28,3.55-.61,4.44,.86,8.54,2.01,11.35,4.28-1.36,1.13-3.57-2.19-7.09-1.22Zm4.97,4.9c0-.34,.58-.69,.71,0h-.71Zm-.71,17.74c-.37-.32,.51-.78,.71-.61,.37,.32-.52,.78-.71,.61Zm3.55-1.22c2.07,1.8-1.64,3.79,0,0h0Zm17.03,8.57c.47,.28-3.05,.79-2.13,0,.92-.8-.14-.42-1.42-.61,1.53-1.33-.25-5.51,2.12-6.12v-.61c-.13-.52,.28-.58,.71-.61v-.61c-.13-.52,.28-.58,.71-.61-.31-.89-.62,.06-1.42,0-.13,.5-.71,.61-.71,1.22,.13,.52-.28,.58-.71,.61v.61c-.18,2.09-1.79,2.94-1.42,5.51-1.27,.17-1.45-.58-.71-.61,.34-.93-1.89-.23-2.13-.61-.08-.13,3.85-2.57,0-2.45,1.13-2.34,1.13-.72,0-3.06,2.28-.28,2.44-2.38,3.55-3.67-2.71,1.7-5.67,5.21-4.26,8.57-1.11-.26-.61-1.92-2.84-1.22,1.29-2.49-2.22-5.81,.71-7.34v-.61c-.13-.52,.28-.58,.71-.61v-.61c-.13-.52,.28-.58,.71-.61v-.61h-1.42v.61c.13,.52-.28,.58-.71,.61v.61c-.72,.81-.7,2.26-1.42,3.06v.61c-1.34,.95,1.02,2.38-.71,3.67-.89-.15-.72-1.22,0-1.22-.2-1.28-1.9,.89-2.84-.61,1.49-2.42-1.2-6.29,2.13-7.95-.69-2.03-1.4,.68-2.13,.61v.61c.06,.87,.12,1.73-.71,1.84v.61c.56,2.12-.79,2.58-1.42,3.67-1.4-3.6-1.76-5.71,0-9.18v-.61c-.09-1.1,.87-1.29,.71-2.45-1.46,.17-.67,2.28-2.13,2.45v.61c.06,.87,.12,1.73-.71,1.83v6.73c-1.41,0-.9-1.67-2.84-1.22,.58-1.54-.75-4.28,0-5.51,.34-.56,2.27-.26,0-.61,1.61-.45,1.26-2.59,2.13-3.67v-.61c.11-.72,1.29-.52,2.13-.61-.02-.59-.87-.48-1.42-.61,.19-1.26,3.14-.15,2.84-1.83,1.07,.53-.19,.92,.71,2.45,.71-1.38,3.87,1.32,4.97-.61,1.47,.16,.19,2.69,1.42,3.06,.8-.12,.39-.61,0-.61,1.09-1.83,3.15-.63,4.96,0-.47,1.63-2.13,2.24-3.55,3.06,.32,1.01,3.06-.98,3.55-1.84,2.02,.5,4.06,.98,3.55,3.67,1.71,.25,1.55-1.12,3.55-.61,.26,1.04-.55,1.16-1.42,1.22,1.26,.65,3.24,.05,1.42,2.45,.94,.09,2.64-2.06,2.84-.61,2.05,1.35-1.09-.77-.71,.61,.15,1.47,1.94,.31,2.84,1.22,.21,.21-1.79,1.81,1.42,1.22-.06,2.29-.79,1.74,0,3.67h-1.42c-2.28,2.12-4.1,4.62-6.38,6.73-1.1,.24-.25-1.56-.71-1.84Zm.71,3.06c.02-.6,.87-.47,1.42-.61-.02,.6-.87,.47-1.42,.61Zm4.96,17.13c-.37-.32,.51-.78,.71-.61,.37,.32-.51,.78-.71,.61Zm-.71-1.22c.11-.72,1.29-.52,2.13-.61-.11,.72-1.29,.52-2.13,.61Zm2.84,0c.35-1.92-2.45-1.62-.71-3.06,2.11,.22,3.6,.98,4.97,1.84-.65,1.07-2.22,1.35-4.26,1.22Zm5.67-.61c-.43-.03-.84-.09-.71-.61,1.47-.68,1.5-.66,.71,.61Zm.71-6.73c.48,.54,.54,.98,.71,1.84-.08-.41-.09,.69-.03,.72,.01-.04,.03-.07,.03-.11-.01,.09-.03,.11-.03,.11-.17,.48-.92,.92-.67,1.73-1.21-.22-1.34,.48-1.42,1.22-2.24-.31-3.12-1.8-5.68-1.84,.61-2.57,4.72-1.91,6.38-.61-.76-1.79-3.37-1.98-6.38-1.84-.46-2.44,2.7-1.75,4.97-1.83-.98-1.58-4.35-.14-5.68,0-.76-3.11,2.73-2.54,4.26-3.67-1.08-1.54-4.6,2.02-5.68,.61,.88-1.28,2.06-2.3,3.55-3.06-.07-1.16-2.77,.38-2.84,1.22-2.68-.38,.77-2.56-2.84-2.45,.06-.87,.12-1.73-.71-1.83,1.36-2.09,2.53-4.35,4.97-5.51h.71v-.61c.84-.71,2.51-.69,4.26-.61,1.82,1.4-.25,3.82,2.13,3.67-.12,.72-1.29,.52-2.13,.61,.22,.83,1.78,.51,2.84,.61-.31,.54-.62,1.09-1.42,1.22,2.73,1.72,2.13,6.32,2.13,10.4-.84,.08-1.64-.38-2.09-.72,.16,.17,.38,.4,.67,.72Zm2.84,4.9h-1.42v-1.22h1.42v1.22Zm-1.42-17.13c0-.62,1.24-.77,1.42,0h-1.42Zm2.13,1.84v-1.22c.21-2.28,1.77,1.8,0,1.22Zm.71,3.67v-.61c-.74-5.2,2.18-1.21,0,.61Zm0,11.01c-.37-.31,.51-.78,.71-.61,.37,.32-.51,.78-.71,.61Zm0-5.51c-.37-.32,.51-.78,.71-.61,.37,.32-.51,.78-.71,.61Zm.71-4.89c.69,.02,.55,.75,.71,1.22-.69-.02-.55-.75-.71-1.22Z"/><path class="d" d="M182.4,179.16c.16-.48,.59-.71,1.42-.61h1.42c3.13-.74-2.85-.61-2.84-.61-2.54-.47-5.92-2.63-7.09-1.22,.43,.03,.84,.09,.7,.61,.87,.34,5.82-.47,6.39,1.84Z"/></g><path class="d" d="M166.08,149.79c.21,.63-.38,.44-.71,.61-2.23,1.18-3.07,.92,.71-.61Z"/><path class="d" d="M203.68,151.63c1.77,.81,2.22-2.42,2.84-.61-1.16,1.04-2.97,1.52-2.84,3.67v.61c-.15,.69-.79,.95-1.42,1.22,0-.61-.57-.73-.71-1.22,1.82-.06,1.14-2.28,2.13-3.06v-.61Z"/><path class="c" d="M203.68,154.69h2.13c.82-1.14-.84-3.79,2.13-4.28,.16,1.16-.8,1.35-.71,2.45,.55,.14,1.4,.02,1.42,.61-2.66-.46-1.55,2.34-3.55,2.45-.16-.48-.59-.71-1.42-.61v-.61Z"/><path class="d" d="M166.08,152.24c.52-1.09,1.29-.09,2.13,0-1.47,2.05-.62,.53-1.42,0h-.71Z"/><path class="b" d="M210.77,153.46v-.61c.84-.71,2.51-.69,4.26-.61,1.82,1.4-.25,3.82,2.13,3.67-.12,.72-1.29,.52-2.13,.61,.22,.83,1.78,.51,2.84,.61-.31,.54-.62,1.09-1.42,1.22,2.73,1.72,2.13,6.32,2.13,10.4-1.92,.19-3.61-2.47-1.42,0,.48,.54,.54,.98,.71,1.84-.1-.49-.09,1.19,0,.61-.08,.52-.97,.97-.71,1.83-1.21-.22-1.34,.48-1.42,1.22-2.24-.31-3.12-1.8-5.68-1.84,.61-2.57,4.72-1.91,6.38-.61-.76-1.79-3.37-1.98-6.38-1.84-.46-2.44,2.7-1.75,4.97-1.83-.98-1.58-4.35-.14-5.68,0-.76-3.11,2.73-2.54,4.26-3.67-1.08-1.54-4.6,2.02-5.68,.61,.88-1.28,2.06-2.3,3.55-3.06-.07-1.16-2.77,.38-2.84,1.22-2.68-.38,.77-2.56-2.84-2.45,.06-.87,.12-1.73-.71-1.83,1.36-2.09,2.53-4.35,4.97-5.51-.21,1.25-1.92,1.2-2.13,2.45,2.8,.78,1.84-1.67,2.84-2.45Zm.71,3.67c-1.4-2.11,2.42-2.69,.71-3.06-.75,1.03-4.37,2.7-2.84,3.67,.16-.48,.59-.71,1.42-.61-1.18,.25-3.48,4.51-2.13,3.06,.98-.99,2.01-1.94,2.84-3.06Zm1.42-3.67c-.16-.48-.59-.71-1.42-.61,.16,.48,.59,.71,1.42,.61Zm0,3.06c.39,.43,2.29-3.58,.71-1.22-.08,.12-1.3,.59-.71,1.22Zm1.42,.61c.19-.17-.34-.93-.71-.61-.2,.17,.34,.93,.71,.61Zm1.42,1.22c-.2-.17-1.08,.3-.71,.61,.19,.17,1.08-.3,.71-.61Zm-1.42,2.45c-.2-.17-1.08,.3-.71,.61,.19,.17,1.07-.3,.71-.61Zm1.42,0c-.2-.17-1.08,.3-.71,.61,.19,.17,1.08-.3,.71-.61Zm.71,3.06c-.19-.17-1.07,.3-.71,.61,.2,.17,1.08-.3,.71-.61Zm1.42,.61c-.2-.17-1.08,.3-.71,.61,.19,.17,1.08-.29,.71-.61Z"/><path class="d" d="M211.48,157.13c-.83,1.12-1.85,2.07-2.84,3.06-1.35,1.45,.94-2.81,2.13-3.06h.71Z"/><path class="c" d="M210.77,157.13c-.83-.1-1.26,.14-1.42,.61-1.53-.97,2.09-2.65,2.84-3.67,1.71,.37-2.11,.95-.71,3.06h-.71Z"/><path class="c" d="M210.77,153.46c-1,.77-.04,3.23-2.84,2.45,.21-1.25,1.92-1.2,2.13-2.45h.71Z"/><path class="d" d="M166.08,154.07c.77,.15,.48,1.22,1.42,1.22,2.5,0-1.69,1.88-1.42-1.22Z"/><path class="b" d="M190.91,178.55c3.81,.5,5.42-.47,7.8,.61-3.08,.12-5.16,.69-7.8-.61Z"/></g><g><path class="f" d="M94.19,73.81h-15.21v-1.12h3.51v-28.88h-3.35v-1.16h15.12c3.43,0,5.5,2.77,5.5,5.58,0,1.78-.83,3.6-2.73,4.67,4.46,1.24,7.81,5.37,7.81,10.25,0,5.87-4.79,10.66-10.66,10.66Zm.12-30h-5.62v8.68h5.58c2.4,0,4.34-1.94,4.34-4.34s-1.94-4.34-4.3-4.34Zm-.12,9.83h-5.49v19.05h5.45c5.25,0,9.59-4.3,9.59-9.54s-4.3-9.5-9.55-9.5Z"/><path class="f" d="M128.74,73.81c-2.4,0-4.46-1.4-5.37-3.59l-6.9-16.57h-1.12v19.05h3.26v1.12h-12.81v-1.12h3.26v-28.88h-3.26v-1.16h15.12c3.02,0,5.5,2.48,5.5,5.5,0,2.52-1.74,4.71-4.17,5.33,.91,.62,1.65,1.53,2.07,2.56l6.69,16.07c.91-.54,1.61-1.32,2.02-2.27l1.03,.45c-.91,2.19-2.97,3.51-5.33,3.51Zm-7.81-30h-5.58v8.68h5.58c2.4,0,4.34-1.94,4.34-4.34s-1.94-4.34-4.34-4.34Z"/><path class="f" d="M158.19,43.81v18.88c0,7.56-5.7,11.32-11.4,11.32s-11.36-3.76-11.36-11.32v-18.88h-3.02v-1.16h12.69v1.16h-3.1v24.46c0,2.69,2.19,4.67,4.79,4.67,5.62,0,10.29-4.22,10.29-10.25v-18.88h-3.68v-1.16h7.56v1.16h-2.77Z"/><path class="f" d="M187.53,43.81v28.88h2.77v1.12h-3.76l-13.8-28.06v26.94h3.39v1.12h-13.18v-1.12h3.51v-28.88h-3.51v-1.16h9.54l13.93,28.35v-27.19h-3.39v-1.16h8.97v1.16h-4.46Z"/><path class="f" d="M206.74,73.97c-8.59,0-15.58-7.15-15.58-15.74s6.98-15.74,15.58-15.74,15.58,7.15,15.58,15.74-7.02,15.74-15.58,15.74Zm6.86-23.47c0-3.64-3.1-6.86-6.9-6.86-3.59,0-6.86,3.06-6.86,6.86v15.45c0,3.64,3.02,6.9,6.86,6.9,3.64,0,6.9-3.06,6.9-6.9v-15.45Z"/><path class="f" d="M81.98,111.49c-6.07,0-11.07-4.13-11.07-10.45l1.16,.04c0,5.62,4.46,9.3,9.92,9.3,3.14,0,7.31-1.45,7.31-4.59,0-2.98-3.88-4.92-6.24-6.24-3.59-1.98-11.41-4.75-11.41-10.91,0-5.29,5.58-8.59,11.41-8.59,2.56,0,8.06,1.53,8.06,4.96,0,1.36-1.03,2.64-2.6,2.64-1.69,0-2.64-1.36-2.64-2.69,0-1.07,.58-2.11,1.9-2.48-1.53-.91-3.14-1.28-4.83-1.28-1.9,0-6.98,.79-6.98,4.42,0,1.28,.91,2.73,2.02,3.31l10,5.37c3.06,1.61,5.37,4.55,5.54,8.51,0,6.03-6.45,8.68-11.53,8.68Z"/><path class="f" d="M110.86,111.36c-8.51,0-15.37-7.07-15.37-15.58,0-9.42,7.64-15.54,15.66-15.54,2.81,0,5.62,.74,8.18,2.35v-2.48h1.12v9.05h-1.12v-5.21c-2.44-1.69-5.29-2.6-8.26-2.6-3.76,0-6.86,3.1-6.86,6.86v15.12c0,3.72,2.97,6.9,6.69,6.9,4.42,0,7.81-2.44,10.08-5.91l.95,.62c-2.52,3.8-6.24,6.4-11.08,6.4Z"/><path class="f" d="M139.08,111.36v-1.12h3.59v-19.05h-8.97v19.05h3.55v1.12h-13.35v-1.12h3.59v-28.88h-3.59v-1.16h13.35v1.16h-3.55v8.68h8.97v-8.68h-3.59v-1.16h13.35v1.16h-3.55v28.88h3.55v1.12h-13.35Z"/><path class="f" d="M180.19,81.37v18.88c0,7.56-5.7,11.32-11.4,11.32s-11.36-3.76-11.36-11.32v-18.88h-3.02v-1.16h12.69v1.16h-3.1v24.46c0,2.69,2.19,4.67,4.79,4.67,5.62,0,10.29-4.22,10.29-10.25v-18.88h-3.68v-1.16h7.56v1.16h-2.77Z"/><path class="f" d="M184.94,111.36v-1.12h3.51v-28.88h-3.51v-1.16h12.77v1.16h-3.02v28.88h11.41v-8.8h1.2v9.92h-22.35Z"/><path class="f" d="M227.7,111.36h-18.43l12.98-30h-7.98c.33,.45,.5,.95,.5,1.49,0,1.45-1.16,2.69-2.64,2.69s-2.68-1.2-2.68-2.69,1.28-2.64,2.77-2.64h17.52l-13.18,30.04h9.01c-.29-.45-.5-.95-.5-1.49,0-1.45,1.32-2.69,2.73-2.69s2.6,1.24,2.6,2.64c0,1.49-1.2,2.64-2.68,2.64Z"/></g><path class="f" d="M277.5,130.25c0,2.29-1.78,4.14-3.97,4.14s-3.97-1.86-3.97-4.14,1.78-4.14,3.97-4.14,3.97,1.86,3.97,4.14Z"/><path class="f" d="M29.51,130.25c0,2.29-1.78,4.14-3.97,4.14s-3.97-1.86-3.97-4.14,1.78-4.14,3.97-4.14,3.97,1.86,3.97,4.14Z"/></svg>