<?xml version="1.0" encoding="UTF-8"?><svg id="a" xmlns="http://www.w3.org/2000/svg" viewBox="0 0 263.69 229.8"><defs><style>.b,.c,.d{fill-rule:evenodd;}.b,.e{fill:#fffced;}.c,.f{fill:#1d1e1c;}.g{fill:#fffdee;}.h{fill:#1d1d1b;}</style></defs><ellipse class="g" cx="131.84" cy="114.9" rx="131.84" ry="114.9"/><g><path class="h" d="M41.71,150.52l-5.4,1.21-1.14-1.92,17.27-3.67,1.32,2.21-11.43,13.47-1.18-1.98,3.6-4.23-3.04-5.09Zm4.27,3.86l3.28-3.89c.75-.88,1.47-1.6,2.17-2.31l-.03-.04c-.96,.28-1.98,.6-3.03,.83l-4.99,1.07,2.59,4.34Z"/><path class="h" d="M57.07,153.78c.87,.7,2.02,1.8,2.98,2.9,1.51,1.74,2.16,3.18,2.14,4.55-.03,1.11-.56,2.23-1.56,3.09-1.65,1.43-3.66,1.34-5.25,.42l-.06,.05c.49,1.25,.1,2.61-.96,4.05-1.4,1.94-2.36,3.3-2.62,3.98l-1.46-1.69c.2-.53,1.02-1.74,2.3-3.44,1.42-1.89,1.47-3.15,.25-4.68l-1.33-1.54-5.47,4.74-1.41-1.63,12.46-10.8Zm-4.34,6.62l1.45,1.67c1.51,1.74,3.42,2.02,4.87,.77,1.63-1.41,1.32-3.21-.17-4.94-.68-.79-1.21-1.28-1.53-1.5l-4.61,4Z"/><path class="h" d="M67,166.47l-3.88-3.28,1.19-1.4,9.45,7.99-1.19,1.4-3.9-3.3-9.61,11.37-1.67-1.41,9.61-11.37Z"/><path class="h" d="M70.08,187.18l3.69-6.05,.48-10.98,2.12,1.29-.39,5.16c-.13,1.4-.21,2.54-.38,3.81l.04,.03c.95-.7,2.03-1.32,3.24-2.06l4.45-2.68,2.07,1.27-9.76,5.28-3.71,6.07-1.86-1.14Z"/><path class="h" d="M80.81,190.23c.64,.96,1.72,1.95,3.08,2.55,2.02,.89,3.67,.34,4.35-1.2,.62-1.41,.17-2.61-1.55-4.29-2.1-2.01-3.06-4-2.12-6.14,1.05-2.38,3.8-3.29,6.78-1.98,1.54,.68,2.54,1.55,3.03,2.23l-1.25,1.37c-.35-.51-1.18-1.39-2.56-2-2.09-.92-3.43-.02-3.89,1.02-.63,1.43,0,2.54,1.74,4.29,2.15,2.14,2.89,3.96,1.91,6.2-1.04,2.36-3.67,3.67-7.28,2.08-1.48-.65-2.89-1.81-3.46-2.72l1.25-1.43Z"/><path class="h" d="M100.36,184.75l-4.87-1.45,.52-1.76,11.86,3.53-.52,1.76-4.9-1.46-4.24,14.26-2.09-.62,4.24-14.26Z"/><path class="h" d="M108.47,196.75l-2.61,4.89-2.2-.38,8.48-15.5,2.54,.44,2.77,17.45-2.27-.39-.86-5.49-5.84-1.01Zm5.71-.72l-.82-5.03c-.18-1.14-.26-2.16-.33-3.16h-.05c-.41,.9-.83,1.89-1.35,2.83l-2.44,4.49,4.99,.86Z"/><path class="h" d="M141.16,203.26c-.96,.4-2.88,.99-5.13,1.05-2.53,.07-4.63-.52-6.31-2.04-1.47-1.35-2.43-3.56-2.49-6.16-.13-4.98,3.22-8.72,8.82-8.87,1.93-.05,3.48,.33,4.21,.66l-.5,1.78c-.9-.4-2.03-.67-3.71-.62-4.07,.11-6.65,2.71-6.54,6.9,.11,4.24,2.71,6.68,6.63,6.57,1.41-.04,2.37-.26,2.86-.52l-.13-4.98-3.37,.09-.05-1.74,5.51-.15,.21,8.03Z"/><path class="h" d="M153.68,194.25l-6.39,1.03,.96,5.95,7.15-1.15,.29,1.79-9.31,1.49-2.65-16.51,8.94-1.44,.29,1.79-6.79,1.09,.84,5.22,6.39-1.03,.28,1.76Z"/><path class="h" d="M160.46,200.83l-4.93-15.96,2.27-.7,7.59,6.5c1.74,1.51,3.21,2.9,4.44,4.31l.06-.05c-.85-2.07-1.5-4-2.26-6.49l-2.06-6.68,1.94-.6,4.93,15.97-2.08,.64-7.57-6.54c-1.66-1.43-3.29-2.93-4.61-4.42l-.06,.05c.74,1.98,1.36,3.89,2.18,6.54l2.11,6.82-1.94,.6Z"/><path class="h" d="M172.84,178.74l6.72,15.3-2,.88-6.72-15.3,2-.88Z"/><path class="h" d="M184.33,185.86l1.14,5.42-1.93,1.12-3.47-17.32,2.23-1.3,13.33,11.59-1.99,1.16-4.19-3.65-5.12,2.98Zm3.91-4.22l-3.85-3.32c-.87-.76-1.58-1.49-2.28-2.2l-.04,.02c.27,.96,.58,1.99,.79,3.04l1.02,5,4.37-2.54Z"/><path class="h" d="M188.84,169.55l1.7-1.37,9.34,11.61,5.57-4.48,1.13,1.41-7.27,5.84-10.47-13.02Z"/><path class="h" d="M210.18,173.42l-12.55-11.03,1.57-1.79,9.87,1.58c2.27,.38,4.25,.8,6.04,1.35l.03-.07c-1.81-1.32-3.37-2.63-5.32-4.35l-5.25-4.62,1.34-1.53,12.55,11.03-1.44,1.64-9.87-1.62c-2.17-.35-4.34-.78-6.24-1.36l-.03,.07c1.66,1.3,3.19,2.61,5.27,4.44l5.36,4.72-1.34,1.53Z"/><path class="h" d="M223.92,155.54l-6.15-3.54-10.98-.2,1.24-2.15,5.17,.26c1.41,.09,2.55,.15,3.82,.28l.02-.04c-.72-.93-1.37-1.99-2.15-3.18l-2.8-4.38,1.21-2.11,5.54,9.62,6.17,3.55-1.09,1.89Z"/></g><path class="f" d="M131.84,219.54c-67.53,0-122.47-47.03-122.47-104.84S64.31,9.86,131.84,9.86s122.48,47.03,122.48,104.84-54.94,104.84-122.48,104.84Zm0-204.72C67.05,14.82,14.33,59.62,14.33,114.7s52.72,99.88,117.51,99.88,117.52-44.81,117.52-99.88S196.64,14.82,131.84,14.82Z"/><g><path class="d" d="M123.72,109.78h.62c.14,.42,.52,.63,1.25,.54v.54c-2.15-.24-3.5,.21-5,.54,.06-1.38,2.33-.86,3.12-1.62Z"/><path class="d" d="M128.09,109.78h2.5c.59,1.95-2.46,.75-3.75,1.08,0-.71,1.09-.49,1.25-1.08Z"/><path class="d" d="M133.09,110.32c1.17-1.06,2.29-.17,3.75,0-.08,1.19-2.65,.23-3.75,.54h-.62v-.54h.62Z"/><path class="d" d="M138.09,110.32h1.25c3.73,1.03,5.27,.65,8.74,1.62v1.08c-1.6,1.43-.89-1.04-2.5-1.08-3.21,1.26-4.72-1.6-7.49-.54h-.62c0-.54,.51-.64,.62-1.08Z"/><path class="d" d="M116.85,110.86h2.5c-.77,.77-2.15,1.02-3.75,1.08,.15-.58,1.24-.36,1.25-1.08Z"/><path class="d" d="M133.09,111.94c-.32-.28,.45-.69,.62-.54,.33,.28-.45,.69-.62,.54Z"/><path class="d" d="M108.11,112.47c-.32-.28,.45-.69,.62-.54,.32,.28-.45,.69-.62,.54Z"/><path class="d" d="M111.85,111.94h.62c1.25-.18,1.95,.11,1.87,1.08-.93-1.5-2.79,1.14-2.5-1.08Z"/><path class="d" d="M126.84,112.47c0-.54,1.09-.68,1.25,0h-1.25Z"/><path class="d" d="M138.09,113.01c0-.54-.51-.64-.62-1.08h.62c.76,.06,1.48,.16,1.25,1.08h-1.25Z"/><path class="d" d="M121.85,113.01c0-.3,.51-.61,.63,0h-.63Z"/><path class="b" d="M126.22,113.01c.12,.44,.63,.54,.62,1.08-2.99,.32-2.57-.63-.62-1.08Z"/><path class="d" d="M126.22,113.01h1.25c0,.54,.51,.64,.62,1.08h-1.25c0-.54-.51-.64-.62-1.08Z"/><path class="b" d="M133.09,113.01v1.08c-.98-.05-2.16,.07-1.87-1.08h1.87Z"/><path class="d" d="M133.09,113.01h.62c-.06,.6,.91,.84,0,1.08h-.62v-1.08Z"/><path class="d" d="M141.83,114.09c-.32-.28,.45-.69,.62-.54,.33,.28-.45,.69-.62,.54Z"/><path class="d" d="M144.96,114.63c-2.03-1.05,1.86-1.94,1.25,0h-1.25Z"/><path class="d" d="M121.22,114.63c.14-.42,.52-.63,1.25-.54,1,.17-.05,.77-1.25,.54Z"/><path class="d" d="M139.33,114.63c-.41,1.61-1.34-.51-2.5,0,.04-.33,.09-.64,.63-.54h1.87v.54Z"/><path class="d" d="M108.11,115.17c.02-.52,.77-.42,1.25-.54-.02,.52-.76,.42-1.25,.54Z"/><path class="d" d="M103.74,115.71c-.13-1.52,4.67,.15,1.25,0h-1.25Z"/><path class="d" d="M110.61,115.71c-.2-.95,3.5-.96,2.5,.54-.51-.1-.62-.54-1.25-.54h-1.25Z"/><path class="d" d="M140.58,115.71c1.1-2.07,3.09,1.66,.62,0h-.62Z"/><path class="d" d="M143.08,115.17h1.25c-.12,.46,.24,.51,.62,.54v.54c-1.01,.15-1.08-.51-1.88-.54v-.54Z"/><path class="b" d="M144.33,115.17c1.48-.45,2.88,.76,.62,.54-.38-.03-.74-.08-.62-.54Z"/><path class="d" d="M147.45,115.71c.1-.63,1.14-.45,1.87-.54-.1,.63-1.14,.45-1.87,.54Z"/><path class="d" d="M113.73,116.25c1.51-1.77,2.98,1.5,0,0h0Z"/><path class="d" d="M126.84,116.78h-.62c.14-.78,1.86-.19,1.87-1.08,1.73,.23,.03,1.69-1.25,1.08Z"/><path class="d" d="M131.21,116.25c-.2-.95,3.5-.96,2.5,.54-.55-.42-1.41-.58-2.5-.54Z"/><path class="d" d="M122.47,116.25h.62c.61,.01,.48,.66,.62,1.08h-1.25v-1.08Z"/><path class="d" d="M136.21,116.25h1.25c.49,.12,.72,.45,.62,1.08-1.11-.12-3.13,.54-2.5-1.08h.62Z"/><path class="d" d="M98.74,117.32c-.32-.28,.45-.69,.62-.54,.33,.28-.45,.69-.62,.54Z"/><path class="d" d="M146.21,117.32c-.18-.86,3.37-.75,1.87,.54,.24-.21-1.88-.58-1.87-.54Z"/><path class="d" d="M151.2,117.32c-.2-.95,3.5-.96,2.5,.54-.56-.42-1.41-.58-2.5-.54Z"/><path class="d" d="M103.74,117.86v1.08h-1.25c-.9-.79-.48-1.71,1.25-1.62v.54Z"/><path class="d" d="M111.85,117.32c-.57,.94-2.19,1.39-3.12,.54-.11-1.17,2.22-.24,3.12-.54Z"/><path class="d" d="M141.83,118.4h-1.25c.11-.46-.24-.51-.62-.54-.25-1.05,2.84-.79,1.87,.54Z"/><path class="d" d="M112.48,118.4c1.89-1.99,2.11,1.64,0,0h0Z"/><path class="d" d="M114.98,118.4c.1-.63,1.14-.45,1.87-.54v1.62c-.82-.19-.98-.95-1.87-1.08Z"/><path class="d" d="M118.72,117.86c-.02,.52-.76,.42-1.25,.54,.02-.52,.76-.42,1.25-.54Z"/><path class="d" d="M142.46,118.4c.46-.96,1.13-.08,1.88,0-.46,.96-1.14,.08-1.88,0Z"/><path class="d" d="M126.22,118.94c-.2-.95,3.5-.96,2.5,.54-.55-.42-1.41-.58-2.5-.54Z"/><path class="d" d="M133.09,119.48h-.62c-.1-.63-1.14-.45-1.87-.54-.1-1.39,5.16-.29,2.5,.54Z"/><path class="d" d="M137.46,120.02c-.51-.28-1.02-.56-1.87-.54,.19-1.48,2.17-1.14,1.87,.54Z"/><path class="d" d="M144.96,118.94c2.32-1.88,3.17,1.47,0,0h0Z"/><path class="d" d="M101.24,118.94c-.12,.46,.24,.51,.62,.54,.25,1.05-2.84,.79-1.88-.54h1.25Z"/><path class="d" d="M125.59,118.94c-1.82,2.34-7.15-.35,0,0h0Z"/><path class="b" d="M166.82,119.48c-.33-.28,.45-.69,.62-.54,.32,.28-.46,.69-.62,.54Z"/><path class="d" d="M96.24,119.48c.61,.02,.48,.66,.62,1.08-.61-.02-.48-.66-.62-1.08Z"/><path class="d" d="M142.46,119.48c1.1,.13,1.43,.93,1.25,2.15-1.09-.49-2.41-1.2-1.25-2.15Z"/><path class="d" d="M148.08,120.02v-.54c1.9-.08,.8,2.19,0,.54Z"/><path class="d" d="M151.83,120.55h-.62c0-2.13,3.16-.7,.62,0Z"/><path class="d" d="M115.6,120.02c1.36-.1,1.99,.44,1.87,1.62-.58-.57-2.3-.17-1.87-1.62Z"/><path class="d" d="M147.45,120.55c-.06,1.37-2.33,1.27-3.12,.54,.43-1.69,1.66-.7,3.12-.54Z"/><path class="d" d="M153.7,120.55c-.32-.28,.45-.69,.63-.54,.32,.28-.45,.69-.63,.54Z"/><path class="d" d="M155.57,120.55c.12-.61,.63-.3,.62,0-.11,.61-.62,.3-.62,0Z"/><path class="d" d="M126.22,120.55c.56,.42,1.41,.58,2.5,.54,.2,.95-3.5,.96-2.5-.54Z"/><path class="d" d="M133.71,121.09c.12-.61,.63-.3,.62,0-.12,.61-.62,.3-.62,0Z"/><path class="d" d="M139.33,121.09c-.32-.28,.45-.69,.62-.54,.32,.28-.45,.69-.62,.54Z"/><path class="d" d="M99.36,121.63c-.32-.28,.45-.69,.62-.54,.33,.28-.45,.69-.62,.54Z"/><path class="d" d="M151.2,121.09h.62c-1.22,1.65-5.23-.52-.62,0Z"/><path class="d" d="M161.19,121.09c.32-.28,.8,.39,.62,.54-.32,.28-.8-.39-.62-.54Z"/><path class="d" d="M73.76,122.17h2.5c.49,2.07-2.99,2.07-2.5,0Z"/><path class="d" d="M80,122.71c-.32-.28,.45-.69,.63-.54,.32,.28-.45,.69-.63,.54Z"/><path class="d" d="M81.25,122.71c.27-1.2,3.08-.22,4.37-.54-.27,1.2-3.08,.22-4.37,.54Z"/><path class="d" d="M88.75,122.71c-.01-1.59,2.63,1.25,0,.54v-.54Z"/><path class="d" d="M123.1,122.71v.54c-2.19,.33-1.09-1.94,0-.54Z"/><path class="d" d="M168.06,123.25c-.78-.13-.63-1.07,0-1.08,.91,.24-.06,.47,0,1.08Z"/><path class="d" d="M91.87,123.79c.16-.68,1.24-.54,1.25,0-.28,.78-.55-.05-1.25,0Z"/><path class="d" d="M94.37,123.25h.62c.08,1.33-.77,.92-.62,0Z"/><path class="d" d="M138.09,123.79c.02-.52,.76-.42,1.25-.54-.02,.52-.76,.42-1.25,.54Z"/><path class="b" d="M163.07,123.25c.07,1.37,.12,2.77,1.87,2.69,.06,.76,.1,1.53-.62,1.62-.43-1.03-.97,.58,0,.54,.49,1.86-.69,2.27-1.25,3.23-1.24-3.17-1.55-5.02,0-8.08Zm.62,5.93c-.17-.15-.95,.26-.62,.54,.17,.15,.95-.26,.62-.54Z"/><path class="d" d="M98.74,123.79v1.08c-1.27-.31-2.95-1.33,0-1.08Z"/><path class="d" d="M122.47,124.86c.1-.63,1.14-.45,1.87-.54v1.62c-.82-.19-.98-.95-1.87-1.08Z"/><path class="c" d="M169.94,125.4v.54c-.53-.1-.59,.21-.63,.54v.54c-.8,.03-.87,.69-1.87,.54-.72-1.46-.31-1.34,0-3.23,.92,.28,1.57,.8,2.5,1.08Z"/><path class="d" d="M92.49,124.86c.61,.02,.49,.66,.62,1.08,1.76,.44,1.62-.76,3.12-.54,.97,2.27-3.47-.12-2.5,2.15-.93-.46-1.34-1.36-1.25-2.69Z"/><path class="d" d="M101.24,125.4c-.33-.28,.45-.69,.62-.54,.32,.28-.45,.69-.62,.54Z"/><path class="d" d="M113.11,125.4c-.32-.28,.45-.69,.62-.54,.32,.28-.45,.69-.62,.54Z"/><path class="d" d="M127.47,125.4c-.32-.28,.45-.69,.62-.54,.32,.28-.45,.69-.62,.54Z"/><path class="d" d="M182.43,124.86h.62c-.12,.61-.63,.3-.62,0Z"/><path class="b" d="M61.27,125.94c-.11-.46,.25-.51,.63-.54-.04,.33-.1,.64-.63,.54Z"/><path class="d" d="M73.76,125.94c-.32-.28,.45-.69,.62-.54,.32,.28-.45,.69-.62,.54Z"/><path class="b" d="M59.39,126.48c.02-.52,.77-.42,1.25-.54-.14,.42-.52,.63-1.25,.54Z"/><path class="d" d="M87.5,126.48c-.32-.28,.45-.69,.63-.54,.32,.28-.45,.69-.63,.54Z"/><path class="d" d="M101.24,126.48c-.33-.28,.45-.69,.62-.54,.32,.28-.45,.69-.62,.54Z"/><path class="d" d="M126.84,126.48c-.32-.28,.45-.69,.62-.54,.32,.28-.45,.69-.62,.54Z"/><path class="b" d="M169.31,126.48c.04-.33,.1-.64,.63-.54,.11,.46-.25,.51-.63,.54Z"/><path class="b" d="M57.52,127.02c-.11-.46,.25-.51,.63-.54-.04,.33-.1,.64-.63,.54Z"/><path class="d" d="M68.76,127.02c-.32-.28,.45-.69,.63-.54,.32,.28-.46,.69-.63,.54Z"/><path class="d" d="M90,127.02c.02-.52,.77-.42,1.25-.54-.02,.52-.76,.42-1.25,.54Z"/><path class="d" d="M108.11,127.02c-.32-.28,.45-.69,.62-.54,.32,.28-.45,.69-.62,.54Z"/><path class="d" d="M70.64,127.56c-.32-.28,.45-.69,.62-.54,.32,.28-.45,.69-.62,.54Z"/><path class="d" d="M99.99,127.56c-.32-.28,.45-.69,.63-.54,.32,.28-.45,.69-.63,.54Z"/><path class="d" d="M124.35,127.56c.02-.52,.76-.42,1.25-.54-.02,.53-.76,.42-1.25,.54Z"/><path class="d" d="M126.84,127.56c-.32-.28,.45-.69,.62-.54,.32,.28-.45,.69-.62,.54Z"/><path class="d" d="M130.59,127.56c.12-.61,.63-.3,.62,0-.12,.61-.63,.3-.62,0Z"/><path class="b" d="M169.94,127.56c-.12-.46,.24-.51,.62-.54-.04,.33-.09,.64-.62,.54Z"/><path class="d" d="M176.18,127.56c-.32-.28,.45-.69,.62-.54,.32,.28-.45,.69-.62,.54Z"/><path class="b" d="M189.92,127.02c.56,.24,1.12,.47,1.25,1.08h-1.25v-1.08Z"/><path class="d" d="M119.35,127.56c-.1,.63-1.14,.45-1.87,.54,.1-.63,1.14-.45,1.87-.54Z"/><path class="d" d="M74.38,128.63c-.32-.28,.45-.69,.62-.54,.32,.28-.45,.69-.62,.54Z"/><path class="d" d="M105.61,128.63h-2.5c-.45-.88,2.95-.88,2.5,0Z"/><path class="d" d="M115.6,128.63c.12-.61,.63-.3,.62,0h-.62Z"/><path class="d" d="M53.15,129.17c2.09-1.3-1.51,1.81,0,0h0Z"/><path class="d" d="M106.23,129.17c-.32-.28,.45-.69,.62-.54,.32,.28-.45,.69-.62,.54Z"/><path class="d" d="M114.35,129.17c-.32-.28,.45-.69,.63-.54,.32,.28-.45,.69-.63,.54Z"/><path class="d" d="M146.83,129.17c-.32-.28,.45-.69,.63-.54,.32,.28-.45,.69-.63,.54Z"/><path class="d" d="M150.58,129.17c-.32-.28,.45-.69,.62-.54,.32,.28-.45,.69-.62,.54Z"/><path class="b" d="M156.82,129.17c.16-.68,1.24-.54,1.25,0-.56,.33-1.12,.65-1.25,0Z"/><path class="d" d="M113.11,129.17c.32-.28,.8,.39,.62,.54-.32,.28-.8-.39-.62-.54Z"/><path class="d" d="M163.07,129.71c-.32-.28,.45-.69,.62-.54,.32,.28-.45,.69-.62,.54Z"/><path class="d" d="M111.85,130.25c.12-.61,.63-.3,.62,0-.12,.61-.62,.3-.62,0Z"/><path class="d" d="M117.48,130.79c-.29-1.15,.89-1.03,1.87-1.08v1.62c-.5-.28-1.01-.56-1.87-.54Z"/><path class="d" d="M119.97,130.25c-.32-.28,.45-.69,.62-.54,.32,.28-.45,.69-.62,.54Z"/><path class="d" d="M147.45,130.25c.12-.61,.63-.3,.62,0-.12,.61-.63,.3-.62,0Z"/><path class="b" d="M149.33,130.25c-.32-.28,.45-.69,.62-.54,.32,.28-.45,.69-.62,.54Z"/><path class="d" d="M77.5,130.79c-.32-.28,.45-.69,.62-.54,.33,.28-.45,.69-.62,.54Z"/><path class="d" d="M88.12,130.79c-.32-.28,.45-.69,.62-.54,.32,.28-.45,.69-.62,.54Z"/><path class="b" d="M125.59,130.79c-.32-.28,.45-.69,.63-.54,.32,.28-.46,.69-.63,.54Z"/><path class="b" d="M154.95,130.79c-.32-.28,.46-.69,.63-.54,.32,.28-.45,.69-.63,.54Z"/><path class="d" d="M93.74,131.33c-.32-.28,.45-.69,.63-.54,.32,.28-.45,.69-.63,.54Z"/><path class="d" d="M183.05,131.33c-.32-.28,.45-.69,.62-.54,.32,.28-.45,.69-.62,.54Z"/><path class="d" d="M109.36,131.87c-.32-.28,.45-.69,.63-.54,.32,.28-.45,.69-.63,.54Z"/><path class="d" d="M112.48,131.87c.12-.61,.63-.3,.63,0-.12,.61-.63,.3-.63,0Z"/><path class="b" d="M160.57,131.87c-.32-.28,.45-.69,.62-.54,.32,.28-.45,.69-.62,.54Z"/><path class="b" d="M176.18,131.87c.04-.33,.09-.64,.62-.54,.11,.46-.24,.51-.62,.54Z"/><path class="b" d="M177.43,131.87c-.11-.46,.25-.51,.63-.54-.04,.33-.09,.64-.63,.54Z"/><path class="b" d="M181.18,131.33c.32,.28-.45,.69-.63,.54-.32-.28,.45-.69,.63-.54Z"/><path class="d" d="M184.93,131.87c-.32-.28,.45-.69,.62-.54,.32,.28-.45,.69-.62,.54Z"/><path class="b" d="M193.67,131.33c.73-.09,1.11,.12,1.25,.54-.48-.12-1.23-.01-1.25-.54Z"/><path class="d" d="M48.15,132.4c.38,.03,.74,.08,.62,.54-.53,.1-.59-.21-.62-.54Z"/><path class="d" d="M67.52,132.94c-.33-.28,.45-.69,.62-.54,.33,.28-.45,.69-.62,.54Z"/><path class="d" d="M82.5,132.94c-.32-.28,.45-.69,.63-.54,.32,.28-.45,.69-.63,.54Z"/><path class="d" d="M110.61,133.48c.02-.52,.76-.42,1.25-.54-.02,.52-.76,.42-1.25,.54Z"/><path class="b" d="M54.4,135.1c-.77-.23-1.28-.69-1.25-1.62,.77,.23,1.28,.69,1.25,1.62Z"/><path class="d" d="M64.39,134.02c.02-.52,.76-.42,1.25-.54-.02,.52-.76,.42-1.25,.54Z"/><path class="b" d="M114.98,134.02c-.27,.66-.8,1.11-1.87,1.08,.27-.66,.8-1.11,1.87-1.08Z"/><path class="b" d="M196.17,134.02v1.08c-.63,0-.79-.94,0-1.08Z"/><path class="d" d="M141.21,135.1c-.32-.28,.45-.69,.63-.54,.32,.28-.45,.69-.63,.54Z"/><path class="d" d="M143.08,135.1c-.32-.28,.45-.69,.62-.54,.32,.28-.45,.69-.62,.54Z"/><path class="d" d="M149.33,134.56c-.12,.61-.63,.3-.62,0h.62Z"/><path class="b" d="M52.52,135.64c.38,.03,.74,.08,.62,.54-.53,.1-.59-.21-.62-.54Z"/><path class="d" d="M144.96,135.64c.32,.28-.45,.69-.62,.54-.33-.28,.45-.69,.62-.54Z"/><path class="d" d="M150.58,137.25c-.32-.28,.45-.69,.62-.54,.32,.28-.45,.69-.62,.54Z"/><path class="d" d="M103.74,137.79c-.59-1.34,3.57-.15,1.25,0h-1.25Z"/><path class="d" d="M144.96,137.79c.02-.52,.76-.42,1.25-.54-.02,.52-.76,.42-1.25,.54Z"/><path class="d" d="M188.05,137.79c.32-.28,.79,.39,.62,.54-.32,.28-.8-.39-.62-.54Z"/><path class="b" d="M196.79,138.33c.04-.33,.09-.64,.63-.54,.11,.46-.25,.51-.63,.54Z"/><path class="d" d="M107.48,138.87c.12-.61,.63-.3,.62,0h-.62Z"/><path class="b" d="M175.56,139.95c.38,.03,.74,.08,.62,.54-.38-.03-.74-.08-.62-.54Z"/><path class="b" d="M179.31,141.02c.02-.52,.76-.42,1.25-.54-.02,.52-.76,.42-1.25,.54Z"/><path class="d" d="M188.05,142.1c-.33-.28,.45-.69,.62-.54,.32,.28-.45,.69-.62,.54Z"/><path class="d" d="M189.3,142.1c-.33-.28,.45-.69,.62-.54,.32,.28-.45,.69-.62,.54Z"/><path class="b" d="M179.31,142.64c.48,.12,1.23,.01,1.25,.54-.48-.12-1.23-.02-1.25-.54Z"/><path class="d" d="M189.92,144.79c-.32-.28,.45-.69,.62-.54,.32,.28-.45,.69-.62,.54Z"/><path class="d" d="M191.17,145.33c-.32-.28,.45-.69,.62-.54,.32,.28-.45,.69-.62,.54Z"/><path class="b" d="M183.68,150.18v.54c-.35,0-.71-.44,0-.54Z"/><path class="b" d="M183.68,151.79c-.14,.42-.02,1.06-.62,1.08,.14-.42,.02-1.06,.62-1.08Z"/><path class="b" d="M194.92,152.33c-.32-.28,.45-.69,.62-.54,.32,.28-.45,.69-.62,.54Z"/><path class="b" d="M189.3,153.95c-.58,.94-1.96,1.19-3.75,1.08,.31-1.69-2.15-1.42-.62-2.69,1.86,.19,3.17,.86,4.37,1.62Z"/><path class="b" d="M182.43,153.95c.04-.33,.09-.64,.62-.54-.04,.33-.09,.64-.62,.54Z"/><path class="b" d="M183.05,155.03c.1-.63,1.14-.45,1.87-.54-.1,.63-1.14,.45-1.87,.54Z"/><path class="d" d="M139.33,155.57c-.32-.28,.45-.69,.62-.54,.32,.28-.45,.69-.62,.54Z"/><path class="d" d="M146.83,156.1c-.32-.28,.45-.69,.63-.54,.32,.28-.45,.69-.63,.54Z"/><path class="b" d="M183.68,156.1c-.32-.28,.45-.69,.62-.54,.32,.28-.45,.69-.62,.54Z"/><path class="d" d="M151.2,157.18c-.32,.28-.8-.39-.62-.54,.32-.28,.8,.39,.62,.54Z"/><path class="b" d="M178.06,157.18c.04-.33,.09-.64,.62-.54-.04,.33-.09,.64-.62,.54Z"/><path class="b" d="M176.81,157.72c.04-.33,.09-.64,.62-.54-.03,.33-.09,.64-.62,.54Z"/><path class="d" d="M144.96,158.26c.02-.52,.76-.42,1.25-.54-.02,.52-.76,.42-1.25,.54Z"/><path class="d" d="M149.95,158.26c-.32-.28,.45-.69,.62-.54,.32,.28-.45,.69-.62,.54Z"/><path class="b" d="M156.82,159.33c-.32-.28,.45-.69,.62-.54,.32,.28-.45,.69-.62,.54Z"/><path class="d" d="M181.18,159.33c.12-.61,.63-.3,.62,0-.12,.61-.63,.3-.62,0Z"/><path class="d" d="M183.05,159.33c-.32-.28,.45-.69,.62-.54,.32,.28-.45,.69-.62,.54Z"/><path class="d" d="M154.33,159.33v.54c-.71-.1-.35-.54,0-.54Z"/><path class="d" d="M167.44,159.87c-.33-.28,.45-.69,.62-.54,.32,.28-.45,.69-.62,.54Z"/><path class="d" d="M176.81,159.33c.1,.63-.14,.96-.62,1.08-.1-.62,.14-.96,.62-1.08Z"/><path class="d" d="M178.68,159.87c-.32-.28,.45-.69,.63-.54,.32,.28-.45,.69-.63,.54Z"/><path class="d" d="M171.81,160.41c-.32,.28-.8-.39-.62-.54,.32-.28,.8,.39,.62,.54Z"/><path class="d" d="M158.07,160.95c-.02,.52-.77,.42-1.25,.54,.02-.52,.76-.42,1.25-.54Z"/><path class="d" d="M175.56,161.49c.32-.28,.79,.39,.62,.54-.32,.28-.8-.39-.62-.54Z"/><path class="d" d="M164.31,163.11c-.32-.28,.45-.69,.62-.54,.33,.28-.45,.69-.62,.54Z"/><path class="d" d="M174.31,163.11c2.1-1.3-1.51,1.81,0,0h0Z"/><path class="d" d="M176.81,163.11c-.32-.28,.45-.69,.62-.54,.33,.28-.45,.69-.62,.54Z"/><path class="d" d="M168.69,163.64c-.32-.28,.45-.69,.62-.54,.32,.28-.45,.69-.62,.54Z"/><path class="d" d="M170.56,163.64c.1-.63,1.14-.45,1.87-.54-.1,.63-1.14,.45-1.87,.54Z"/><g><path class="e" d="M150.58,112.47v-.54c-.48-1.21,4.86-.01,2.5-1.08-1.77,.44-1.62-.76-3.12-.54,0,.54-.51,.64-.62,1.08-.13,.6-.69,.84-1.25,1.08v.54c.84-.17,1.19-.77,2.5-.54Z"/><path class="e" d="M158.07,125.4c-1.21-4.29,4.22-5.68,3.12-8.08-.94,.72-2.69,.17-3.75,0-.09,1-.41,1.8-1.25,2.15,.58-1.46,.99-2.54-.62-3.23,1.28,.62,2.98-.85,1.25-1.08-.57,.61-1.4-.03-2.5,1.08-.56-2.79-4.73-2.72-6.25-3.23-1.6,1.43-.89-1.04-2.5-1.08-3.21,1.26-4.72-1.6-7.49-.54v.54c.76,.06,1.48,.16,1.25,1.08,0,.71-1.09,.49-1.25,1.08h1.25c.93-.62,1.57-.62,2.5,0-.32-.28,.45-.69,.62-.54,.33,.28-.45,.69-.62,.54-.61,.87-1.67,1.24-2.5,.54-.41,1.61-1.34-.51-2.5,0,.04-.33,.09-.64,.63-.54-.14-.42-.52-.63-1.25-.54-.47,1.66,1.71,1.03,1.25,2.69,.49,.12,.72,.45,.62,1.08-1.11-.12-3.13,.54-2.5-1.08h.62c-.93-2.11-.97-.1-1.88,.54-.15-2.83,.6-4.87,3.13-5.39,0-.54,.51-.64,.62-1.08-.35,0-.71-.44,0-.54,0-.71,1.09-.49,1.25-1.08-1.36,.05-4.04-1.47-4.37-.54,.74,.26,1.42,.57,1.87,1.08h-3.12c0,.54-.5,.64-.62,1.08,1.17-1.06,2.29-.17,3.75,0-.08,1.19-2.65,.23-3.75,.54,0,.3-.51,.61-.62,0v-.54c-2.64,.08-.01-.85,.62-1.08,0-.71,1.1-.49,1.25-1.08-1.54-.07-3.01-.08-3.75,.54v1.08c.59,1.95-2.46,.75-3.75,1.08,0-.71,1.09-.49,1.25-1.08-1.86-.64-2.68,2.27-1.25,2.69,0-.54,1.09-.68,1.25,0,1.16-.44,2.52-.7,3.12-1.62,.7,1.01,2.42,1.14,3.12,2.15h-.62c-.06,.6,.91,.84,0,1.08-.83,2.1-2.79,.11-4.37,1.08,.54-1.73-.96-1.68-1.87-2.15,0,.54,.51,.64,.62,1.08v1.08c-.92,.62-1.57,.62-2.5,0-.06,.85,.09,1.87-1.25,1.62,.64-1.68-1.29-3.84-1.87-2.69,1,.17-.05,.77-1.25,.54,.09,.64,1.11,1.22,0,1.62-.7-1.37-1.53-2.63-2.5-3.77,.38-.16,2.41-1.34,2.5,0-.8,.73-1.9,1.08,0,1.62,.14-.42,.02-1.06,.62-1.08,0-.3,.51-.61,.63,0,.38-1.78,3.4-.08,3.12-2.15-2.15-.24-3.5,.21-5,.54,.06-1.38,2.33-.86,3.12-1.62v-.54h-1.25c0,.3-.51,.61-.63,0-.14-.42-.02-1.06-.62-1.08-.07,1.02-2.06,.37-1.87,1.62,0,.3-.51,.61-.63,0-5.02-.97-7.03,3.1-11.24,1.08-.65,1.38-4.06,2.15-5.62,1.08-1.25,2.28-3.66,2.14-5.62,2.69,.35,0,.71,.44,0,.54v.54c1.76,.45,1.62-.76,3.12-.54,.27,1.49-2.33,.51-2.5,1.62-.19,1.06,.84,1.07,1.25,1.62h-1.25c-.13,.6-.69,.84-1.25,1.08,0-.54,.51-.64,.62-1.08-.61-1.65-1.67,.62-2.5,.54-.02,.52-.76,.42-1.25,.54,.02-.52,.76-.42,1.25-.54,0-.54,.51-.64,.63-1.08-.63,0-.74-.44-1.25-.54,.11,2.07-.51,.2-1.87,.54-.24,1.41-2,1.5-1.25,3.77,.49-.12,1.23-.02,1.25-.54,0-.3,.5-.61,.62,0,.04,.33,.09,.64,.62,.54,.87,.05,.66,1.37-.62,1.08-3.05-.53-2.17-2.36-3.75-3.23-1.04,3.05-8.65,.44-10,3.23-.01-1.6-2.94-.69-3.75-1.62-.91,1.21-3,4.2-5,2.69,2.73-.33,3.98-1.95,5-3.77-2.22-.21-3.08,1.79-4.37,2.69-3.91,2.73-8.22,3.99-13.74,5.39h-4.37c-.99,.62-2.7,3.37-3.75,2.15,1.33-2.45,5.37-2.55,8.74-3.23-3.71-.51-5.57,.59-8.12,1.08-.04,1.76-1.78,2.06-1.25,4.31h.62c.38,.03,.74,.08,.62,.54,1.28,.7,1.58,2.23,3.12,2.69-.17-.81-2.68-2.27-1.25-2.69,.82,0,.57,.94,1.25,1.08-.38-1.73,2.25-.74,.62-2.15,1.19,1.01,1.57,.06,3.12,0,1.06-.12,1.55,.61,0,.54-.05,.85-1.59,.42-1.25,1.62,1.17-.03,1.33,.41,.63,1.08,1.77-.45,1.62,.76,3.12,.54-.04-.93,.48-1.38,1.25-1.62,2.25,1.88,5.69,.79,9.37,.54,3.35-.23,7.2,.2,10-.54,.06,.6-.91,.84,0,1.08,1.08-.36,4.33-1.59,4.37-1.08-.35,0-.71,.44,0,.54,1.49-1.79,2.78-1.37,1.87-2.15-.82-.71,2.63,.37,2.5-1.08-.35,0-.71-.44,0-.54,0,.54,.51,.64,.63,1.08-.54,.66-4.02,1.49-2.5,2.15,2.44-.59,3.03-2.77,5.62-3.23-.09-1.34,.32-2.24,1.25-2.69,.37,1.93-.73,2.61-1.25,3.77,1.72,.84,3.06,.15,5-1.08,.06,.6-.91,.84,0,1.08,.88-1.7,4.54-1.59,5-2.15-.49-.12-.73-.45-.63-1.08,1.23,.16,1.24-.73,1.87-1.08,.35,0,.71,.44,0,.54v2.15c.69-.26,4.21-.11,3.75,0,.19-.04,2.19-.89,2.5-1.08,.31-.18,2.55-1.12,.62-1.62-.14,.42-.02,1.06-.62,1.08-.25-2.98,3.42,.2,4.37-2.16-.44-.36-.69-.55-.84-.66-.2-.14-.24-.18,0,0,.31,.21,.96,.61,1.47,.66,.03,0,.04-.64,.62-.54,.4,.07,3.11-.26,3.12,1.08h-1.25c-.25,.68-.8,1.1-1.87,1.08,0-.54,.51-.64,.63-1.08-2.87-.32-2.19,2.43-5,2.16-1.66,1.62-1.29,5-3.12,6.46-2.41,.97-7.11-.02-8.12,2.15,1.98,0,3.18-1.3,4.37,.54-1.07-.03-1.6,.41-1.87,1.08,0,.3-.51,.61-.63,0-.56,.16-2.73,1.46-1.25,1.62,.08-1.19,2.65-.23,3.75-.54,.02-1.28,2.96-2.78,3.75-1.62-1.68-.37-1.21,1.11-1.87,1.62-.14,.42-.52,.63-1.25,.54-1.3-.29-1.32,2.1-.63,.54,1.45,.17,2.4-.09,3.12-.54,.7-.05,.97,.78,1.25,0-1.47,0,.23-1.47,1.25-1.08,.6,1-1.87,1.8,0,2.15,1.16-.8,.94-2.78,3.12-2.69,.19-1.06-.84-1.07-1.25-1.62,1.36-.34,1.99,1.53,1.87-.54,.19-1.68-1.8,1.37-1.87-.54,1.76-.54,1.56-.79,2.5-1.08-.79-.22-1.28-.69-1.25-1.62,1.27-.16,1.66-1.08,2.5-1.62,.14,.42,.02,1.06,.63,1.08,.07-1.91,2.06,1.14,1.87-.54-.35,0-.71-.44,0-.54,3.8,1.45,4.46-2.92,5.62-4.31-1.64-1.46-3.06-3.11-5.62-3.77,0,.3-.51,.61-.63,0-.04-.33-.09-.64-.62-.54,0,.3-.51,.61-.62,0-2.04-1.83-7.04-1.11-9.37-2.69,1.03,0,.35-1.49,1.25-1.62,2.32-.57,1.23,1.82,2.5,2.15,1.29-.95,.55-1.67,1.25-2.15,2.46-.86,.22,2.33,1.87,2.15,.88-.68,.04-2.84,2.5-2.15,.14,1.02-.71,1.19-.63,2.15,2.65-.04,6.45,1.34,5-.54h2.5c-1.75,1.46-.49,1.34,0,3.23-.36-.47-3.37-1.71-1.87-.54,1.15,.8,2.19,1.7,3.12,2.69-1.5,.33,1.86,.83,.62,2.69,1.29,.32,4.1-.67,4.37,.54-.14,.42-.02,1.06-.62,1.08,0-.3-.51-.61-.62,0,2.32,1.73,2.26-1.26,2.5-1.62,.3,.96,.67-.23,1.25-.54-.23,2.26,2.03,.38,3.12,.54,.46-1.47-1.24-1.08-1.25-2.16,.83-.08,1.88,2.19,2.5,.54-.68-.13-1.5-.89-.63-1.08-.32-.28,.45-.69,.63-.54,.32,.28-.45,.69-.63,.54,.63,.74,1.03-.23,1.88,1.08-.15-3.18,4.14-2.53,4.99-4.85h-3.74c-.35,0-.71-.44,0-.54,.16-1.26,2.74-.31,3.12,0,.86-2.18-1.35-1.7-1.25-3.23-.72,.09-1.11-.12-1.25-.54,.73-.09,1.11,.12,1.25,.54,.83,1.32,2.32-.59,2.5,.54-1.36-.09-.28,1.91-.63,2.69,2.74,.5,6.78-.61,9.37,1.08-.26-1.94,1.14-.74,.62,.54-.04,.33-.09,.64-.62,.54-3.93-3.78-10.92,.03-13.11,2.69,.74,.26,1.41,.58,1.87,1.08-1.55-.06-1.93-1.01-3.12,0,.35,1.85,1.82,2.74,3.12,3.77-2.14,.23-1.88-1.61-3.12-2.15-.5,4.51,1.99,.85,.62,3.77,1.15-.99,4.39,.48,3.12-.54-.35,0-.71-.44,0-.54,.7,.11,.97,.6,1.25,1.08-.74,.26-1.41,.57-1.87,1.08,2.48,1.63,4.83,3.38,7.49,4.85-3.1,.46-4.32-2.75-6.24-1.62v-1.08c-3.17-.04-6.39-.13-8.12,1.08,.83,1.32,2.32-.59,2.5,.54-.74,.26-1.41,.57-1.87,1.08,0,.3-.51,.61-.62,0h-1.25c.89,3.28,5.65-1.32,6.25,0-.74,.26-1.42,.57-1.87,1.08,0,.3-.51,.61-.62,0-.38,.03-.74,.08-.63,.54-.03,.33-.09,.64-.62,.54v.54c3.25,.93,5.93-2.26,6.87,0-.74-.69-2.36-.23-3.12,.54,.73,.08,1.77-.09,1.87,.54-1.76-.45-1.62,.76-3.12,.54,2.02,1.53,5.18-.53,6.87-1.08,1.09,1.59,3.33-.31,5,0,.03-.74-.29-1.18-.62-1.62,2.41,.47,2.22-1.32,3.75-1.62,.06,.6-.91,.84,0,1.08,.55-1.33,2.77-1.21,2.5-3.23-2.59-.63-1.41-1.17-.62-2.69-2.5,0-2.72-1.97-4.37-2.69,1.71-.9-1.08-2.59,1.25-3.23-.06,1.47,1.04,1.08,0,2.15,1.65,.64,1.61-2.59,1.87,0,2.68,.16,2.03-2.56,3.75-3.23-.66-.03-.49-.69,.62-.54,.47-1.66-1.71-1.03-1.25-2.69-.32,.28-.79-.39-.62-.54,.32-.28,.79,.39,.62,.54,.8-.03,.87-.69,1.88-.54,.35,0,.71,.44,0,.54-.13,.65-.69,.33-1.25,0-.26,1.19,1.87,2.97,2.5,1.62-1.06,.12-1.55-.61,0-.54Zm-16.86-12.39c-.32-.28,.45-.69,.63-.54,.32,.28-.45,.69-.63,.54Zm-8.12-1.08c-.32-.28,.45-.69,.62-.54,.33,.28-.45,.69-.62,.54Zm-12.49-2.15c.32-.28,.8,.39,.62,.54-.32,.28-.8-.39-.62-.54Zm-18.11,29.62c-.32,.28-.8-.39-.62-.54,.32-.28,.8,.39,.62,.54Zm2.5-1.62c-.15,.68-1.24,.54-1.25,0-.59-1.34,3.57-.15,1.25,0Zm1.25,2.16c-.32-.28,.45-.69,.62-.54,.32,.28-.45,.69-.62,.54Zm6.87-11.31c1.9-1.47-1.7,1.64,0,0h0Zm-3.75,5.39c.32,.28-.45,.69-.62,.54-.32-.28,.45-.69,.62-.54Zm-1.87,4.85c.12-.61,.63-.3,.62,0-.12,.61-.63,.3-.62,0Zm.62-.54c.28-.78,.55,.05,1.25,0-.27,.78-.55-.05-1.25,0Zm.62-1.62c-.05-.15,.08-.4,0-.54-.47-.82,.39-.4,.62,0,.42,.72-.42,1.21-.62,.54Zm.62-4.85c-.32-.28,.45-.69,.63-.54,.32,.28-.45,.69-.63,.54Zm.63-2.15c.32-.28,.8,.39,.62,.54-.32,.28-.8-.39-.62-.54Zm.62,5.92c.02-.52,.76-.42,1.25-.54-.02,.52-.76,.42-1.25,.54Zm0-2.15c.02-.52,.76-.42,1.25-.54-.02,.52-.76,.42-1.25,.54Zm1.25-1.08h-1.25v-1.08h1.25v1.08Zm0-2.15c.12-.61,.63-.3,.62,0-.12,.61-.62,.3-.62,0Zm.62,1.62c.12-.61,.63-.3,.63,0-.12,.61-.63,.3-.63,0Zm1.87-1.62c-.32,.28-.8-.39-.62-.54-.32,.28-.8-.39-.62-.54,.32-.28,.8,.39,.62,.54,.32-.28,.8,.39,.62,.54Zm0-1.08c-.32-.28,.45-.69,.63-.54,.32,.28-.45,.69-.63,.54Zm1.25-.54c.12-.61,.63-.3,.62,0,.61,.01,.49,.66,.63,1.08h-1.25v-1.08Zm.62,2.69c-1.7-1.64,1.9,1.47,0,0h0Zm3.12,0c-.5-.28-1.01-.56-1.87-.54,.32,.28-.45,.69-.62,.54-.32-.28,.45-.69,.62-.54-.29-1.15,.89-1.03,1.87-1.08v1.62Zm-.63-2.15c-.32-.28,.46-.69,.63-.54,.32,.28-.45,.69-.63,.54Zm1.25,1.08c-.32-.28,.45-.69,.62-.54,.32,.28-.45,.69-.62,.54Zm-.62-2.69c.28-.78,.55,.05,1.25,0-.28,.78-.55-.05-1.25,0-.1,.63-1.14,.45-1.87,.54,.1-.63,1.14-.45,1.87-.54Zm-1.87-2.15c.32,.28-.45,.69-.62,.54-.32-.28,.45-.69,.62-.54Zm-3.75-.54c.32,.28-.45,.69-.62,.54-.32-.28,.45-.69,.62-.54Zm5.62-10.77c.32,.28-.45,.69-.63,.54-.32-.28,.46-.69,.63-.54Zm-.63,2.69c-.64,.45-1.13-.48-1.25-.54-2.41-1.2,1.68,.24,1.25,.54Zm-1.25-5.93h1.87c-.77,.77-2.15,1.02-3.75,1.08,.15-.58,1.24-.36,1.25-1.08-1.19-.37,.67-.84,.62,0Zm-1.87,.54c-.61-.01-.48-.66-.62-1.08,.61,.02,.48,.66,.62,1.08Zm-.62,3.23c.55-.24,1.12-.47,1.25-1.08-.87-.65-.05-.21,.63,0-.54,.79-.94,1.71-2.5,1.62,.1-.63-.14-.96-.62-1.08-1.51,1.36,.98-1.95,1.25,.54Zm-1.87-3.77c.32-.28,.8,.39,.62,.54-.32,.28-.8-.39-.62-.54Zm-1.25,1.08c.12-.61,.63-.3,.62,0,1.25-.18,1.95,.11,1.87,1.08-.93-1.5-2.79,1.14-2.5-1.08Zm0,2.16c-1.53,2.56-3.21-1.51,0,0h0Zm-4.37-2.69c.32-.28,.8,.39,.62,.54-.32,.28-.8-.39-.62-.54Zm.62,1.08c-.32-.28,.45-.69,.62-.54,.32,.28-.45,.69-.62,.54-.02,.52-.77,.42-1.25,.54,.02-.52,.77-.42,1.25-.54Zm0,1.08c1.9-1.47-1.71,1.64,0,0h0Zm-.62,2.15c-.12,.61-.63,.3-.62,0,.12-.61,.63-.3,.62,0Zm-1.87-1.62v-1.08c.73,.09,.52,.98,.62,1.62h-2.5c.1-.63,1.14-.45,1.87-.54Zm-1.87,1.62c-.13-1.52,4.67,.15,1.25,0-.14,.95,.63,2.7-1.25,2.16v1.08h-1.25c-.9-.79-.48-1.71,1.25-1.62v-1.62Zm-1.25,1.08c-.36,.96-1.74,.08-.62,0-1.26-1.26,.27-1.26,.62,0Zm-.62-2.69c.53,.1,.59-.21,.62-.54,.71,.1,.35,.54,0,.54-.18,.87,.59,.93,.62,1.62-.6,1.33-1.27-1.71-1.87-2.15,.33-.83,.65-.03,.62,.54Zm-1.25,.54c.79,.13,.63,1.07,0,1.08,.02,4.01-1.21,.43,0-1.08Zm-.63,4.31h1.25c-.33-.28,.45-.69,.62-.54,.32,.28-.45,.69-.62,.54-.12,.46,.24,.51,.62,.54,.25,1.05-2.84,.79-1.88-.54Zm-.62-2.15c.33,.28-.45,.69-.62,.54-.32-.28,.45-.69,.62-.54Zm-2.5,3.77c-.61-.02-.48-.66-.62-1.08,.61,.02,.48,.66,.62,1.08Zm-1.25,4.31c-.32,.28-.8-.39-.62-.54,.32-.28,.8,.39,.62,.54Zm-.62-1.62c.08,1.33-.77,.92-.62,0-.45-1.95,1.08-1.95,.62,0Zm-2.5-2.69c.19-.73,1.56-.45,2.5-.54,.18,.87-.59,.93-.62,1.62-.71-.1-.35-.54,0-.54-.1-.63-1.14-.45-1.87-.54Zm-5.62,2.69c-1.7-1.64,1.9,1.47,0,0h0Zm-1.25-1.08c-.27,1.2-3.08,.22-4.37,.54,.27-1.2,3.08-.22,4.37-.54Zm-1.25,2.15c-.32-.28,.45-.69,.62-.54,.32,.28-.45,.69-.62,.54Zm-1.87-.54c-.32-.28,.45-.69,.63-.54,.32,.28-.45,.69-.63,.54Zm-1.87-1.62c.32,.28-.45,.69-.63,.54-.32-.28,.45-.69,.63-.54Zm1.25,1.62c.3,.21-1.44,.78-1.87,.54-.12,.61-.63,.3-.62,0-.71,.1-.35,.54,0,.54-3.07,.52,1.01-2.13,2.5-1.08Zm-5,.54c-.73,.55-1.48,.43-.62,0,.77-.38,1.37-.56,.62,0Zm-3.12-2.15h2.5c.49,2.07-2.99,2.07-2.5,0Zm.62,6.47c-.32-.28,.45-.69,.62-.54,.32,.28-.45,.69-.62,.54Zm0-3.23c.32,.28-.45,.69-.62,.54-.32-.28,.45-.69,.62-.54Zm-3.12-1.08c.32-.28,.8,.39,.62,.54-.32,.28-.8-.39-.62-.54Zm-.62,3.23c-.32-.28,.45-.69,.62-.54,.32,.28-.45,.69-.62,.54-.14,.78-1.86,.19-1.87,1.08-1.57-.23,.6-1.54,1.87-1.08Zm-1.25-1.08c.32,.28-.46,.69-.63,.54-.32-.28,.45-.69,.63-.54Zm-1.25-.54c1.9-1.47-1.7,1.64,0,0h0Zm-1.25,.54c-.14,.78-1.87,.19-1.87,1.08-1.57-.23,.6-1.54,1.87-1.08Zm-4.37,1.08c.32,.28-.45,.69-.62,.54-.32-.28,.45-.69,.62-.54Zm-.62,1.62c2.03,.31,2.9-.37,4.37-.54,.75-.76,.24-.05,0,.54-.73-.09-1.11,.12-1.25,.54-2.12-.59-4.74,1.42-3.12-.54Zm-1.25-1.62c.32,.28-.45,.69-.62,.54-.32-.28,.45-.69,.62-.54Zm-2.5,2.69c.32,.28-.45,.69-.63,.54-.32-.28,.45-.69,.63-.54Zm-3.12-1.61c.32,.28-.45,.69-.63,.54-.32-.28,.45-.69,.63-.54Zm-1.87,.54c2.09-1.3-1.51,1.81,0,0h0Zm1.25,2.15c-1.2-.39,1.44-1.94,2.5-2.15,.46,1.83-2.3,.89-2.5,2.15Zm1.25-.54c3.05,.2,1.15,1.83,0,0h0Zm1.87,3.23c-.32-.28,.45-.69,.63-.54,.32,.28-.45,.69-.63,.54Zm6.87,0c.02-.52,.76-.42,1.25-.54-.02,.52-.76,.42-1.25,.54Zm3.13-1.08c-.33-.28,.45-.69,.62-.54,.33,.28-.45,.69-.62,.54Zm1.25,.54c-.32-.28,.45-.69,.63-.54,.32,.28-.46,.69-.63,.54Zm5.62-.54c-.32-.28,.45-.69,.62-.54,.32,.28-.45,.69-.62,.54Zm4.37,0c-.32-.28,.45-.69,.62-.54,.32,.28-.45,.69-.62,.54Zm1.87-1.08c-.32-.28,.45-.69,.62-.54,.32,.28-.45,.69-.62,.54Zm.62-2.15c-.32-.28,.45-.69,.62-.54,.32,.28-.45,.69-.62,.54Zm1.25,3.23c-.32-.28,.45-.69,.63-.54,.32,.28-.45,.69-.63,.54Zm1.87-2.15c-.31,.13,.08,.54-.62,.54-.65,0-.44-.52-.62-.54-2.17-.27,2.9-.7,1.25,0Zm-1.87-1.62c.12-.44,.63-.54,.63-1.08-1.07,.2-2.62,.16-3.75,.54-.59,.19-1.36,1.43-1.88,1.61-.92,.34-2.46-.06-1.25,.54,4.47,.25,4.64,1.47,0,.54h-.62c1.95,1.29,1.83,2.7-.63,0-.02-.52-.76-.42-1.25-.54-.92,.23,.25,.69,0,1.62-.36-.47-3.37-1.71-1.87-.54-.14,.77-3.11-.5-5,0v-1.08c-1.93,.31-1.24,2.88-4.37,2.15-.1,.63,.14,.96,.62,1.08,1.36,1.28-2.59-.09-1.25-2.15-.51,1.35-2.85,1.13-5,1.08,1.24-2.36,4.53-2.33,6.24-.54,.49-2.09,4.05-1.53,4.37-3.77,1.24,0,.79,1.47,2.5,1.08,1.49-1.7,1.7-.4,5-.54,.73-.09,.53-.98,.63-1.62,2.61,2.84,4.38-2.57,8.12-2.15,1.76,.52-2.2,.65-2.5,1.61-.18,.59,3.06,.4,4.37-.54,1.93,.54-1.35,.89-1.25,1.62-.02,.52-.76,.42-1.25,.54,.17,1.89,2.33-1.35,2.5,.54-1.55,.06-1.93,1.01-3.12,0Zm-5,1.62c-.32-.28,.45-.69,.62-.54,.33,.28-.45,.69-.62,.54Zm9.37-3.23c-.73,.55-1.48,.43-.62,0,.77-.39,1.37-.56,.62,0Zm.62-1.08c-.32-.28,.45-.69,.63-.54,.32,.28-.45,.69-.63,.54Zm.63,4.31c-.32-.28,.45-.69,.62-.54,.32,.28-.45,.69-.62,.54Zm.62-7.54c-.71-.1-.35-.54,0-.54-.01-1.59,2.63,1.25,0,.54Zm1.25,3.77c.02-.52,.77-.42,1.25-.54-.02,.52-.76,.42-1.25,.54Zm1.87-3.23c.16-.68,1.24-.54,1.25,0-.28,.78-.55-.05-1.25,0Zm1.87,7.54c-.32-.28,.45-.69,.63-.54,.32,.28-.45,.69-.63,.54Zm0-3.77c-.93-.46-1.34-1.36-1.25-2.69,.61,.02,.49,.66,.62,1.08,1.76,.44,1.62-.76,3.12-.54,.97,2.27-3.47-.12-2.5,2.15Zm3.12-6.46c.02-.52,.76-.42,1.25-.54,.23-.92-.49-1.02-1.25-1.08,.02-.52,.76-.42,1.25-.54,.61-.02,.49-.66,.62-1.08,1.7-.39-.45,2.54,1.25,2.15-.61,.55-1.24,1.09-1.87,1.62-.15,.59-1.24,.36-1.25,1.08-.93-.23,.25-.69,0-1.62Zm2.5,.54c-.32-.28,.45-.69,.62-.54,.33,.28-.45,.69-.62,.54Zm-.62,3.23c-1.27-.31-2.95-1.33,0-1.08,1.89,.92-.47,5.48,0,1.08Zm1.25,2.69c-.32-.28,.45-.69,.63-.54,.32,.28-.45,.69-.63,.54Zm0-1.08c-.32-.28,.45-.69,.63-.54,.32,.28-.45,.69-.63,.54Zm1.25,0c-.33-.28,.45-.69,.62-.54,.32,.28-.45,.69-.62,.54Zm0-1.08c-.33-.28,.45-.69,.62-.54,.32,.28-.45,.69-.62,.54Zm1.25-3.77c-.33,.8-.92,1.36-1.25,2.15-.9-.3-1.52-.84-1.88-1.62-.98,.23-.53,1.69-2.5,1.08,1.37-2,3.1-.48,4.37-2.15,1.56-.27,2.56-1.02,3.74-1.62,2.28,1.32-2.57,.97-2.5,2.15Zm1.25,1.62c-.73-.09-.53-.98-.63-1.62h1.87c.35,1.19-1.19,.77-1.25,1.62Zm0,.54c.32,.28-.45,.69-.63,.54-.32-.28,.45-.69,.63-.54Zm6.25,.54c-.28,.78-.55-.05-1.25,0,.16-.68,1.24-.54,1.25,0Zm-1.25,2.15c.32,.28-.45,.69-.62,.54-.32-.28,.45-.69,.62-.54Zm-1.25-2.69c-.02,.52-.77,.42-1.25,.54,.02-.52,.76-.42,1.25-.54Zm-.62,4.85c.32,.28-.45,.69-.62,.54-.32-.28,.45-.69,.62-.54Zm-1.25,0h-2.5c-.45-.88,2.95-.88,2.5,0Zm0-12.39c.32-.28,.8,.39,.62,.54-.32,.28-.8-.39-.62-.54Zm1.87,2.15c-.1-.63-1.14-.45-1.87-.54,.54-2.03,2.76-.62,2.5,1.08-.53,.1-.59-.21-.62-.54Zm1.87-3.77c-.02,.52-.76,.42-1.25,.54,.02-.52,.77-.42,1.25-.54Zm-.62,2.15c.05-.08,.21-1.52,.62-1.08,.5,.54-1.51,2.61-.62,1.08Zm0,1.08c-.11-1.17,2.22-.24,3.12-.54-.57,.94-2.19,1.39-3.12,.54Zm3.12-2.16c.59,1.34-3.57,.16-1.25,0-.2-.95,3.5-.96,2.5,.54-.51-.1-.62-.54-1.25-.54Zm.62,2.69c1.89-1.99,2.11,1.64,0,0h0Zm1.25-2.15c1.51-1.77,2.98,1.5,0,0h0Zm.62,1.08c-.32-.28,.45-.69,.63-.54,.32,.28-.45,.69-.63,.54Zm2.5,.54v1.62c-.82-.19-.98-.95-1.87-1.08,.1-.63,1.14-.45,1.87-.54Zm-1.25,2.15c1.36-.1,1.99,.44,1.87,1.62-.58-.57-2.3-.17-1.87-1.62Zm3.12,0c-.32-.28,.46-.69,.63-.54,.32,.28-.45,.69-.63,.54Zm0-2.15c-.02,.52-.76,.42-1.25,.54,.02-.52,.76-.42,1.25-.54-.32-.28,.46-.69,.63-.54,.32,.28-.45,.69-.63,.54Zm.63-2.69c.58,.39,.94,.98,1.25,1.62-.27,1.35-1.35-.9-1.25-1.62Zm19.98,8.08c-.02,.52-.76,.42-1.25,.54,.02-.52,.76-.42,1.25-.54Zm-4.37-5.39c.32,.28-.45,.69-.63,.54-.32-.28,.45-.69,.63-.54Zm-1.25-1.08c-.55-.42-1.41-.58-2.5-.54-.2-.95,3.5-.96,2.5,.54Zm-.62,2.69c-.12,.61-.63,.3-.62,0-.1-.63-1.14-.45-1.87-.54-.1-1.39,5.16-.29,2.5,.54Zm-1.87-2.15c.32,.28-.45,.69-.62,.54-.32-.28,.45-.69,.62-.54Zm-.62-1.62c.32,.28-.45,.69-.63,.54-.32-.28,.46-.69,.63-.54Zm-.63,2.16c-.12,.61-.62,.3-.62,0,.12-.61,.63-.3,.62,0Zm-3.74-1.08c.14-.78,1.86-.19,1.87-1.08,1.73,.23,.03,1.69-1.25,1.08,.08,1.33-.77,.92-.62,0Zm2.5,2.69c-.55-.42-1.41-.58-2.5-.54-.2-.95,3.5-.96,2.5,.54Zm-2.5,1.08c.56,.42,1.41,.58,2.5,.54,.2,.95-3.5,.96-2.5-.54Zm1.87,1.62c-.02,.52-.76,.42-1.25,.54,.02-.52,.76-.42,1.25-.54Zm-3.75-4.85h1.25v1.08h-1.25v-1.08Zm-1.87-1.08c-.08-1.33,.76-.92,.62,0,.61,.01,.48,.66,.62,1.08h-1.25v-1.08Zm3.12,2.69c-1.82,2.34-7.15-.35,0,0h0Zm-2.5,3.77v-.54c.1-.63-.14-.96-.62-1.08,.09-1.2,1.57,.7,3.12,0-.46,.5-1.14,.82-1.87,1.08,.26,1.04-.43,1.94-.62,1.08-2.19,.33-1.09-1.94,0-.54Zm-.62,2.15c.1-.63,1.14-.45,1.87-.54v1.62c-.82-.19-.98-.95-1.87-1.08Zm1.87,2.69c.02-.52,.76-.42,1.25-.54-.02,.53-.76,.42-1.25,.54Zm1.25-3.77c-.52-.74-.54-1.11-1.25-1.62,2.16-1.07,2.72,3.69,1.25,1.62Zm1.25,3.77c-.32-.28,.45-.69,.62-.54,.32,.28-.45,.69-.62,.54Zm0-1.08c-.32-.28,.45-.69,.62-.54,.32,.28-.45,.69-.62,.54Zm.62-1.08c-.32-.28,.45-.69,.62-.54,.32,.28-.45,.69-.62,.54Zm.62-1.08c-.32-.28,.45-.69,.62-.54,.32,.28-.45,.69-.62,.54Zm.62,1.62c-.32-.28,.45-.69,.62-.54,.32,.28-.45,.69-.62,.54Zm1.25-2.15c-1.7-1.64,1.9,1.47,0,0h0Zm0,2.15c-.32-.28,.46-.69,.63-.54,.32,.28-.45,.69-.63,.54Zm.63,1.62c.12-.61,.63-.3,.62,0-.12,.61-.63,.3-.62,0Zm0-4.85c-1.25,.18-1.95-.11-1.87-1.08,1.14,.81,3.5,.57,4.37,1.62,.47,2.07-2.39,.2-2.5-.54Zm2.5-.54c-1.96,.26-2.44-.77-3.75-1.08-.37-.33,4.32-.55,3.75,1.08Zm.62-1.08c.12-.61,.63-.3,.62,0-.12,.61-.62,.3-.62,0Zm.62,1.62c-1.14-1.72,2.74,2.8,0,0h0Zm0,2.69c.22-.84,1.1,.47,1.25-.54,.73,.09,.52,.98,.62,1.62-.82-.19-.98-.95-1.88-1.08Zm.63-3.77c.12-.61,.62-.3,.62,0,.53,.1,.59-.21,.62-.54,1.92,.68-.7,1.62-1.25,.54Zm2.5-1.62c-.51-.28-1.02-.56-1.87-.54,.19-1.48,2.17-1.14,1.87,.54Zm2.5,.54c.32,.28-.45,.69-.62,.54-.32-.28,.45-.69,.62-.54Zm-4.37,18.31c-.32-.28,.45-.69,.62-.54,.32,.28-.45,.69-.62,.54Zm.62,2.15c-.33-.28,.45-.69,.62-.54,.32,.28-.45,.69-.62,.54Zm3.12-1.62c-.1-.04-1.77-.18-1.25-.54,.63-.43,3.03,1.31,1.25,.54Zm1.87-.54c1.9-1.47-1.7,1.64,0,0h0Zm.63,2.69c-1.24,1.18-1.24-1.02,0-1.61,2.64,.54-2.2,1.46,0,1.61Zm9.37-4.85c.32,.28-.45,.69-.62,.54-.32-.28,.45-.69,.62-.54Zm-1.25,2.15c.32-.28,.8,.39,.62,.54-.32,.28-.8-.39-.62-.54Zm-1.87-8.62c-.12,.61-.63,.3-.62,0,.12-.61,.63-.3,.62,0Zm-6.87-2.69c.93,.28,1.58,.8,2.5,1.08-.77,0-1.82,1.34-3.12,.54v-1.08c-1.36,2.23-1.91-.74,.62-.54Zm3.75,.54c-.35,1.56-.98-.83-1.88-.54,.56-1.81,1.4-.06,2.5-1.08,1.78,.28-1.01,.8-1.25,1.08-.12,.46,.24,.51,.62,.54Zm2.5,3.23c-.91,.56-3.32-.51-4.37-.54,.97-1.48,3.75-.05,4.37,.54Zm0,1.62c-.73,.09-1.11-.12-1.25-.54,.73-.09,1.11,.12,1.25,.54Zm.62,1.08c-1.29,1.8-.55,.47-1.25,0-.11,.61-.62,.3-.62,0,.46-.96,1.13-.08,1.87,0Zm-.62-5.39c.32,.28-.45,.69-.63,.54-.32-.28,.45-.69,.63-.54Zm-1.25-5.39c2.37,.92-1.36,.89-1.25,1.62-1.93-.54,1.35-.89,1.25-1.62Zm-3.12,1.08c.68,.13,.42,1.07,1.25,1.08-.76,.77-2.38,1.22-3.13,.54,1.92,1.8,.42,1.8-.62,0,.17-1.11,2.77-.13,2.5-1.62Zm-2.5,2.15c-.17-.05-.52,1.03-.62,1.08-.39,.17-.26-1.47-.62-1.08-.25-.11,.82-.12,1.25,0Zm-3.75,1.62c.61,.01,.48,.66,.63,1.08-.61-.01-.48-.66-.63-1.08Zm1.87,2.69c-1.57-.23,1.04-1.16,1.87-1.08-.46,.5-1.13,.82-1.87,1.08Zm1.87,1.08c-.71-.1-.35-.54,0-.54,1.1,.15,1.93-2.54,2.5-1.08-1.27,.16-1.22,1.46-2.5,1.62Zm.62,3.23c-.32-.28,.45-.69,.63-.54,.32,.28-.45,.69-.63,.54Zm.63-3.23c1.9-1.47-1.71,1.64,0,0h0Zm1.25,3.23c-.32-.28,.45-.69,.62-.54,.32,.28-.45,.69-.62,.54Zm0-1.08c-1.55-.08-.18-1.82,0-2.15,1.87,.35-.6,1.15,0,2.15Zm3.12-2.15c.18,.55-.33,.38-.62,.54-1.96,1.04-2.7,.81,.62-.54Zm-1.25,2.15c-.33,.28-.8-.39-.62-.54,.32-.28,.8,.39,.62,.54Zm-.62,2.15c-.33-.28,.45-.69,.62-.54,.02-.52,.76-.42,1.25-.54-.02,.52-.76,.42-1.25,.54,.32,.28-.45,.69-.62,.54Zm.62,1.61c.02-.52,.76-.42,1.25-.54-.02,.52-.76,.42-1.25,.54Zm1.25-2.15c.68,.13,.42,1.08,1.25,1.08,2.2,0-1.48,1.65-1.25-1.08Zm1.87,0c-2.1,1.3,1.51-1.81,0,0h0Zm1.25-1.08c-.12,.61-.63,.3-.62,0,.12-.61,.62-.3,.62,0Zm0-7c-.7-1.12-.67-1.14,.62-.54,.34,1.12-2.43,1.14-.62,.54Zm5-7.54c.32,.28-.45,.69-.63,.54-.32-.28,.45-.69,.63-.54Zm-.63-2.15c-.56-.42-1.41-.58-2.5-.54-.2-.95,3.5-.96,2.5,.54Zm-1.87,0c0,1.07-1.7,.68-1.25,2.15-.82-.19-.98-.95-1.87-1.08,.28-.78,.55,.05,1.25,0,.63-.35,.65-1.24,1.87-1.08Zm-5.62-.54c-.02,.52-.76,.42-1.25,.54,.02-.52,.76-.42,1.25-.54-.18-.86,3.37-.75,1.87,.54,.24-.21-1.88-.58-1.87-.54Zm-1.25,1.62c2.32-1.88,3.17,1.47,0,0h0Zm3.12-2.15c-.32-.28,.45-.69,.63-.54,.32,.28-.46,.69-.63,.54Zm1.87-.54c-.32,.28-.8-.39-.62-.54,.32-.28,.8,.39,.62,.54Zm-6.87-3.23c1.18,.06,.43,1.78,1.88,1.62-2.03-1.05,1.86-1.94,1.25,0,.5-.28,1.01-.56,1.87-.54,.12,.46-.24,.51-.62,.54-.79,.13-.63,1.07,0,1.08,.1-.63,1.14-.45,1.87-.54-.1,.63-1.14,.45-1.87,.54-.19,.73-1.56,.45-2.5,.54-1.01,.15-1.08-.51-1.88-.54v-.54h-.62c-.08-.97,.77-1.14,.62-2.15Zm0,4.31c-.61-.01-.48-.66-.62-1.08,.61,.01,.48,.66,.62,1.08Zm-2.5-1.62c1.1-2.07,3.09,1.66,.62,0,.08,1.33-.76,.92-.62,0Zm-1.25,0c.73,.09,.53,.98,.62,1.62-.73-.09-.53-.98-.62-1.62Zm1.25,2.69c.11-.46-.24-.51-.62-.54-.25-1.05,2.84-.79,1.87,.54h-1.25Zm3.12,3.23c-1.09-.49-2.41-1.2-1.25-2.15,1.1,.13,1.43,.93,1.25,2.15Zm-1.25-3.23c.46-.96,1.13-.08,1.88,0-.46,.96-1.14,.08-1.88,0Zm1.88,2.69c.43-1.69,1.66-.7,3.12-.54-.06,1.37-2.33,1.27-3.12,.54Zm3.75-1.08c-.71-.1-.35-.54,0-.54,1.9-.08,.8,2.19,0,.54Zm3.12,1.08v-.54c0-2.13,3.16-.7,.62,0,1.55-.07,1.06,.66,0,.54-1.22,1.65-5.23-.52-.62,0Zm1.87,1.08c-.02,.52-.77,.42-1.25,.54,.02-.52,.77-.42,1.25-.54Zm-2.5,7c-.32-.28,.45-.69,.62-.54,.32,.28-.45,.69-.62,.54Zm.62-3.23c-1.14,.14,.38-.92,.62-1.08,2.76-1.7-.08,1.01-.62,1.08Zm3.13-.54c-.46,.5-1.14,.82-1.88,1.08-1.57-.23,1.04-1.16,1.88-1.08Zm.62-2.69c-.39,1.54-3.2-2.34-.62-.54-1.93-3.16,4.29,2.2,.62,.54Zm.63-2.15c.12-.61,.63-.3,.62,0-.11,.61-.62,.3-.62,0Z"/></g><g><polygon class="f" points="70.64 122.17 70.64 122.17 70.63 122.17 70.64 122.17"/><path class="f" d="M61.89,125.4c-.04,.33-.1,.64-.63,.54h-.62c-.14,.42-.52,.63-1.25,.54h-1.25c-.04,.33-.1,.64-.63,.54h-.62c-3.37,.69-7.42,.79-8.74,3.23,1.05,1.21,2.76-1.53,3.75-2.15h4.37c5.52-1.39,9.84-2.66,13.74-5.39,.22-.15,.42-.34,.62-.54-3.49,.4-4.07,3.31-8.12,3.23h-.62Z"/></g><path class="b" d="M155.57,114.09c-.15-.59-1.24-.37-1.25-1.08-.88,.19-.06,.95,.62,1.08-.62,1.66-1.69-.6-1.87-1.08-.74-.08-1.77,.09-1.87-.54v-.54c2.1-.68,3.3,2.11,4.37,.54-.68-.13-1.5-.89-.63-1.08,.24,1.23,2.5,.72,3.13,1.62-.77-.17-3.86,.09-1.88,.54v.54h-.62Z"/><path class="b" d="M93.12,116.78c-2.57,.12-2.66,2.38-5.62,2.15,.03,.93-.48,1.38-1.25,1.62-.83-1.03-2.77,.62-4.37-.54-1.78,1.39-2.97-.15-3.75,.54,.17-.15,.85,.56,0,.54-.38-.75-2.4-.08-2.5-1.08,2.36-.96,6.75-.41,9.37-1.08,1.3-.33,1.53-1.99,2.5-1.08-.68,.13-1.5,.89-.62,1.08,1.43-.56,1.74-2.09,3.12-2.69,2.75,.4,2.56-1.74,4.37-2.15,.86,1.23-1.61,2.02,0,2.15,.16-.84,1.37-.37,1.87,0v.54c-.5,.28-1.01,.56-1.87,.54-.51-.1-.62-.54-1.25-.54Zm-3.12,0c.14,.42,.52,.62,1.25,.54-.14-.42-.52-.63-1.25-.54Zm-.62,1.62c.17-.15-.3-.82-.62-.54-.17,.15,.3,.82,.62,.54Z"/><g><path d="M190.58,147.92c-.46-.47-.38-.29,0,0h0Z"/><path d="M112.26,125.82c-.24-.18-.2-.14,0,0h0Z"/></g><path class="d" d="M140.58,128.09c-1.36,2.23-1.91-.74,.62-.54,.12,.46-.24,.51-.62,.54Z"/><path class="d" d="M141.21,125.94c1.92,1.8,.42,1.8-.62,0h.62Z"/><path class="d" d="M134.96,121.63c.12-.61,.62-.3,.62,0,.53,.1,.59-.21,.62-.54,1.92,.68-.7,1.62-1.25,.54Z"/><path class="d" d="M134.34,125.4c.22-.84,1.1,.47,1.25-.54,.73,.09,.52,.98,.62,1.62-.82-.19-.98-.95-1.88-1.08Z"/><path class="d" d="M123.1,122.17c.1-.63-.14-.96-.62-1.08,.09-1.2,1.57,.7,3.12,0-.46,.5-1.14,.82-1.87,1.08h-.62Z"/><path class="d" d="M75.01,131.33c-.02-.52-.76-.42-1.25-.54-.92,.23,.25,.69,0,1.62-.36-.47-3.37-1.71-1.87-.54-.14,.77-3.11-.5-5,0v-1.08c-1.93,.31-1.24,2.88-4.37,2.15-.1,.63,.14,.96,.62,1.08,1.36,1.28-2.59-.09-1.25-2.15-.51,1.35-2.85,1.13-5,1.08,1.24-2.36,4.53-2.33,6.24-.54,.49-2.09,4.05-1.53,4.37-3.77,1.24,0,.79,1.47,2.5,1.08,1.49-1.7,1.7-.4,5-.54,.73-.09,.53-.98,.63-1.62,2.61,2.84,4.38-2.57,8.12-2.15,1.76,.52-2.2,.65-2.5,1.61-.18,.59,3.06,.4,4.37-.54,1.93,.54-1.35,.89-1.25,1.62h-1.25c-1.07,.2-2.62,.16-3.75,.54-.59,.19-1.36,1.43-1.88,1.61-.92,.34-2.46-.06-1.25,.54v.54h-1.25Zm-7.49-.54c2.31,2.48,.16-3.83,0-.54v.54Z"/><path class="d" d="M55.65,130.79c3.05,.2,1.15,1.83,0,0h0Z"/><path class="d" d="M96.24,116.78h.62c-.19,1.06,.84,1.07,1.25,1.62h-1.87c-.61-1.65-1.67,.62-2.5,.54,0-.54,.51-.64,.63-1.08v-.54c.86,.02,1.37-.25,1.87-.54Z"/><path class="d" d="M96.87,121.09c.48,.12,1.23,.01,1.25,.54-.15,.59-1.24,.36-1.25,1.08-.93-.23,.25-.69,0-1.62Z"/><path class="d" d="M101.24,121.09c1.56-.27,2.56-1.02,3.74-1.62,2.28,1.32-2.57,.97-2.5,2.15-.49-.12-1.23-.02-1.25-.54Z"/><path class="d" d="M108.11,113.55c1.9-1.47-1.71,1.64,0,0h0Z"/><path class="b" d="M129.97,109.24c-1.54,.07-3.01,.08-3.74-.54,.02,.74-.3,1.18-.63,1.62-.72,.09-1.11-.12-1.25-.54,1.54,.07,1.06-.66,0-.54,.94-1.68,4.25-.89,5.62,0Z"/><path class="b" d="M146.83,110.86c.12,.61,.63,.3,.63,0,.63,0,.74,.44,1.25,.54,.11,.46-.25,.51-.63,.54-3.48-.96-5.01-.59-8.74-1.62v-.54c1.98-.74,3.77,1.33,4.37,0-1.01-.75-3.22-.45-3.75-1.62,3.3,.03,4.83,1.58,6.87,2.69Z"/><path class="b" d="M163.07,113.01c-1.2,1-3.14-1.93-6.24-1.08-.19-1.45-2.63-.97-3.12-2.15h-3.75c-.11-1.17,2.22-.24,3.12-.54,3.91,.76,7.52,1.77,9.99,3.77Z"/><path class="b" d="M138.09,113.01c-.68-.13-1.5-.89-.62-1.08,.12,.44,.62,.54,.62,1.08Z"/><path class="b" d="M187.42,132.94c-1.66,.27-.9-.93,0-.54,.89,.38,.14,1.54,0,.54Z"/><path class="b" d="M160.57,120.55c.1-.63,1.14-.46,1.87-.54-.02-.52-.76-.42-1.25-.54,.17-1.11,2.77-.13,2.5-1.62,.94,.47-.17,.81,.62,2.15,.62-1.21,3.4,1.16,4.37-.54,1.3,.14,.17,2.37,1.25,2.69,.71-.1,.35-.54,0-.54,.96-1.61,2.78-.56,4.37,0-.41,1.44-1.88,1.97-3.12,2.69,.28,.89,2.69-.86,3.12-1.62,1.78,.44,3.57,.87,3.12,3.23,1.51,.22,1.36-.98,3.12-.54,.23,.92-.49,1.02-1.25,1.08,1.11,.57,2.85,.04,1.25,2.16,.83,.08,2.32-1.81,2.5-.54,1.81,1.19-.96-.68-.62,.54,.13,1.29,1.7,.27,2.5,1.08,.19,.19-1.57,1.59,1.25,1.08-.06,2.01-.7,1.54,0,3.23h-.62c-.12-.61-.63-.3-.62,0-2,1.86-3.61,4.06-5.62,5.93-.97,.21-.22-1.38-.63-1.62,.42,.24-2.68,.7-1.87,0,.81-.7-.13-.37-1.25-.54,1.35-1.17-.22-4.85,1.87-5.39,.85,.17,.52,1.35,.63,2.15,.51-.1,.62-.54,1.25-.54-.87,.69-.27,2.64-1.88,2.69,.12,.44,.63,.54,.63,1.08,.56-.24,1.12-.47,1.25-1.08,.72-.09,1.11,.12,1.25,.54,1.76-.1,.78-2.56,3.12-2.15-.02-.52-.77-.42-1.25-.54-.08-.97,.77-1.14,.62-2.15-2.61,.43-1.15,2.77-1.87,3.77h-1.87c-.12-1.89,1.47-2.32,2.5-3.23-.54-1.59-.93,1.25-2.5,.54,.61-.73,1.66-1.08,2.5-1.62-.22-.71-1.1-.85-1.25-1.62-1.31-.23-1.65,.37-2.5,.54-.11-.46,.25-.51,.62-.54-.28-.78-.55,.05-1.25,0,.49-.48,.67-1.22,.63-2.15-.12,.73-1.85,1.23-2.5,2.15-.23,.33,.77,.95,0,1.62-.05,.04-1.25,.57-1.25,.54-.1,.92,1.55,.11,1.87,0-.16,1.84-1.58,2.59-1.25,4.85-1.12,.15-1.28-.51-.62-.54,.3-.82-1.66-.21-1.87-.54-.07-.12,3.39-2.26,0-2.15,.99-2.06,.99-.64,0-2.69,2.01-.25,2.15-2.1,3.12-3.23-2.39,1.49-5,4.59-3.75,7.54-.98-.23-.53-1.69-2.5-1.08,1.13-2.19-1.96-5.12,.63-6.46,2.06-1.35,.89,1.08,.62,2.15,1.53-.3,1.33-2.08,3.75-1.61-.82-1.09-2.05-1.82-3.75-2.16-.11-.46,.24-.51,.62-.54,.71-.1,.35-.54,0-.54h-1.25c-.93-.28-1.58-.8-2.5-1.08-.31,1.89-.72,1.77,0,3.23,1.01,.15,1.07-.51,1.87-.54-.63,.71-.61,1.99-1.25,2.69-.71,.1-.35,.54,0,.54-1.18,.84,.9,2.1-.62,3.23-.79-.13-.63-1.07,0-1.08-.18-1.13-1.67,.78-2.5-.54,1.32-2.13-1.05-5.54,1.88-7-.61-1.78-1.23,.6-1.88,.54-.05-1.47,1.04-1.08,0-2.15-1.75,0,1.49,1.47-1.25,1.08,.05-.76,.1-1.52-.62-1.62-.08-.97,.76-1.14,.62-2.15-1.28,.15-.59,2.01-1.87,2.15-.71,.1-.35,.54,0,.54,.05,.76,.1,1.52-.62,1.62-.71,.1-.35,.54,0,.54v5.39c-1.24,0-.8-1.47-2.5-1.08,.51-1.35-.66-3.77,0-4.85,.3-.49,2-.23,0-.54,1.42-.39,1.11-2.28,1.87-3.23,.71-.1,.35-.54,0-.54Zm11.24,1.62c.04,.33,.09,.64,.62,.54,0-.71,1.09-.49,1.25-1.08-1.22,.61-3.2-.15-1.87,.54Zm4.37,2.69c1.81-.3-.96-.84-.62-1.62-1.81,.3,.96,.84,.62,1.62Zm0,3.23c.14,.42,.02,1.06,.62,1.08-.14-.42-.02-1.06-.62-1.08Zm-14.36-6.46c.17-.15-.3-.82-.62-.54-.17,.15,.3,.82,.62,.54Zm6.87,2.15c.17-.15-.3-.82-.63-.54-.17,.15,.3,.82,.63,.54Zm-.63-1.62c-.63,0-.78,.94,0,1.08-.06-.6,.91-.84,0-1.08Zm2.5,2.15c-.17-.15-.95,.26-.62,.54,.17,.15,.95-.26,.62-.54Zm3.12,2.15c.08,.43,.79,.4,.62,0-.39-.94-2.06-1.7-1.25-.54,.06,.08,.54-.07,.63,0,.07,.06-.02,.45,0,.54Zm1.87,.54c-.17-.15-.95,.26-.63,.54,.17,.15,.95-.26,.63-.54Zm1.25,0c-.17-.15-.95,.26-.62,.54,.17,.15,.95-.26,.62-.54Zm6.87,3.77c-.17-.15-.95,.26-.62,.54,.17,.15,.95-.26,.62-.54Zm1.87,.54c-.17-.15-.95,.26-.62,.54,.17,.15,.95-.26,.62-.54Zm-1.25,.54c-.17-.15-.95,.26-.62,.54,.17,.15,.95-.26,.62-.54Zm0,1.62c-.17-.15-.95,.26-.62,.54,.17,.15,.95-.26,.62-.54Zm-13.11-2.15c-1.7,1.64,1.9-1.47,0,0h0Zm-3.12-3.23c-.17-.15-.95,.26-.62,.54,.17,.15,.95-.26,.62-.54Zm9.37,7.54c-.17,.15,.31,.82,.63,.54,.17-.15-.3-.82-.63-.54Z"/><path class="d" d="M101.86,116.78c-1.26-1.26,.27-1.26,.62,0h-.62Z"/><path class="d" d="M108.11,118.94c-.53,.1-.59-.21-.62-.54-.1-.63-1.14-.45-1.87-.54,.54-2.03,2.76-.62,2.5,1.08Z"/><path class="d" d="M151.83,117.86c0,1.07-1.7,.68-1.25,2.15-.82-.19-.98-.95-1.87-1.08,.28-.78,.55,.05,1.25,0,.63-.35,.65-1.24,1.87-1.08Z"/><path class="d" d="M173.69,121.63c-.15,.59-1.24,.36-1.25,1.08-.53,.1-.59-.21-.62-.54-1.32-.69,.66,.07,1.87-.54Z"/><path class="d" d="M175.56,123.25c-.33,.78,2.43,1.31,.62,1.62,.34-.78-2.43-1.31-.62-1.62Z"/><path class="c" d="M178.06,130.79c.85-.17,1.19-.77,2.5-.54,.15,.77,1.03,.91,1.25,1.62-.83,.54-1.88,.89-2.5,1.62v.54c-.63,0-.75,.44-1.25,.54-.1-.81,.22-1.99-.63-2.15v-.54c.53,.1,.59-.21,.63-.54v-.54Zm2.5,1.08c.17,.15,.95-.26,.63-.54-.17-.15-.95,.26-.63,.54Z"/><path class="c" d="M176.18,132.4c-.32,.11-1.97,.92-1.87,0,0,.03,1.2-.5,1.25-.54,.77-.67-.23-1.29,0-1.62,.65-.93,2.37-1.43,2.5-2.15,.05,.94-.14,1.68-.63,2.15-.11,.44-.62,.54-.62,1.08-.53-.1-.59,.21-.62,.54v.54Z"/><path class="c" d="M163.07,122.71c.73,.09,.68,.85,.62,1.62,2.74,.39-.5-1.07,1.25-1.08,1.04,1.07-.05,.69,0,2.15v.54c-1.76,.08-1.8-1.32-1.87-2.69v-.54Z"/><path class="b" d="M129.97,129.71c.33,1.11,3.4-.2,3.12,.54,.12-.33-1.02,.63-.62,.54-.27,.06-2.89,.62-2.5-1.08Z"/><path class="b" d="M163.69,130.79c1.82,1.58-1.44,3.34,0,0h0Z"/><path class="b" d="M179.31,156.64c1.01-.75,1.98-1.53,3.12-2.15-.8,.92-1.29,2.12-3.12,2.15Z"/><path class="b" d="M180.55,143.71c2.09,.89,2.79,2.98,3.12,5.39-1.35-1.53-1.46-4.13-3.12-5.39Z"/><path class="b" d="M176.81,140.48c1.28,.15,1.25,1.44,1.87,2.15-1.28-.15-1.24-1.44-1.87-2.15Z"/><path class="b" d="M174.31,138.33c.7,.11,.97,.6,1.25,1.08-.56-.24-1.12-.47-1.25-1.08Z"/><path class="d" d="M94.37,121.09c-.1-.63-1.14-.45-1.87-.54,.19-.73,1.56-.45,2.5-.54,.18,.87-.59,.93-.62,1.62-.71-.1-.35-.54,0-.54Z"/><path class="d" d="M129.34,121.09c-.37-.33,4.32-.55,3.75,1.08-1.96,.26-2.44-.77-3.75-1.08Z"/><path class="d" d="M154.95,122.71c-.39,1.54-3.2-2.34-.62-.54,.53-.1,.59,.21,.62,.54Z"/><path class="d" d="M76.26,124.32c.77-.38,1.37-.56,.62,0-.73,.55-1.48,.43-.62,0Z"/><path class="d" d="M79.38,124.32c-.71,.1-.35,.54,0,.54-3.07,.52,1.01-2.13,2.5-1.08,.3,.21-1.44,.78-1.87,.54h-.62Z"/><path class="d" d="M151.83,124.86c2.76-1.7-.08,1.01-.62,1.08-1.14,.14,.38-.92,.62-1.08Z"/><path class="d" d="M154.33,125.4c-.46,.5-1.14,.82-1.88,1.08-1.57-.23,1.04-1.16,1.88-1.08Z"/><path class="b" d="M67.52,130.25c.16-3.29,2.31,3.02,0,.54,.71-.1,.34-.54,0-.54Z"/><path class="d" d="M149.95,127.02c.34,1.12-2.43,1.14-.62,.54-.7-1.12-.67-1.14,.62-.54Z"/><path class="c" d="M170.56,127.02v-.54c1.7,.33,2.93,1.07,3.75,2.16-2.42-.47-2.22,1.31-3.75,1.61,.27-1.07,1.43-3.51-.62-2.15v-.54c.53,.1,.59-.21,.62-.54Z"/><path class="b" d="M157.45,127.56c.95-.41,.47,.34,0,.54-.84,.36-1.4-.36-.62-.54,.17-.04,.47,.07,.62,0Z"/><path class="d" d="M116.23,131.33c-1.7-1.64,1.9,1.47,0,0h0Z"/><path class="d" d="M140.58,131.33c1.1,.15,1.93-2.54,2.5-1.08-1.27,.16-1.22,1.46-2.5,1.62v-.54Z"/><g><path class="c" d="M198.04,141.02c1.47-.15,.38-2.39-.62-2.15-.38-.03-.74-.08-.63-.54,.04-.33,.09-.64,.63-.54v-.54c.63,0,.78-.94,0-1.08v-.54c-.04-.33-.1-.64-.63-.54h-.62c-.63,0-.79-.94,0-1.08v-1.08c-.38-.03-.74-.08-.62-.54-.04-.33-.09-.64-.62-.54-.48-.12-1.23-.01-1.25-.54v-.54c1.99-1.06-.78-2.51-1.87-2.69h-1.87v-1.62c0-.54-.51-.64-.62-1.08-.63,0-.75-.44-1.25-.54h-.63c-1.23,.16-1.24-.73-1.87-1.08v-.54c-.13-.6-.69-.84-1.25-1.08h-.62c-.04-.33-.1-.64-.62-.54h-1.25c-.08-1.37-.91-2.09-2.5-2.15h-.63c-.1-.63-.99-.59-1.87-.54v-.54c-.03-.33-.09-.64-.62-.54h-.62c-.43-1.79-4.3-.6-5-2.16h-.62c-2.49,.53-1.88-1.61-4.37-1.08-2.73-4.1-8.57-5.53-14.99-6.46h-.62c-.56,1.02-2.11,1.01-4.37,.54-1.18-.24-1.98-.9-3.12-1.08-10.15-1.61-22.79-.81-30.6,2.69h-5c-.6,1.1-2.4,1.16-4.37,1.08-2.58,1.02-6.03,2.9-8.75,2.15-2.62,1.51-6.4,2.02-8.12,4.31-2.42-.29-3.05,.96-5.62,.54h-.62c-.77,.77-2.15,1.02-3.75,1.08h-3.12c-1.23,.37-1.66,1.44-1.87,2.69,1-.98,1.9-2.32,3.75-2.15-1.01,1.82-2.26,3.44-5,3.77,2,1.51,4.09-1.48,5-2.69,.8,.92,3.73,.01,3.75,1.62,1.34-2.79,8.96-.18,10-3.23,1.58,.87,.7,2.71,3.75,3.23,0-.54,.5-.64,.62-1.08-.53,.1-.59-.21-.62-.54h-.62c-.02,.52-.76,.42-1.25,.54-.75-2.27,1.01-2.36,1.25-3.77,1.36-.34,1.99,1.53,1.87-.54v-.54c-2.57,.12-2.66,2.38-5.62,2.15,.03,.93-.48,1.38-1.25,1.62-.83-1.03-2.77,.62-4.37-.54-1.78,1.39-2.97-.15-3.75,.54,.17-.15,.85,.56,0,.54-.38-.75-2.4-.08-2.5-1.08,2.36-.96,6.75-.41,9.37-1.08,1.3-.33,1.53-1.99,2.5-1.08-.68,.13-1.5,.89-.62,1.08,1.43-.56,1.74-2.09,3.12-2.69,2.75,.4,2.56-1.74,4.37-2.15,.86,1.23-1.61,2.02,0,2.15,.16-.84,1.37-.37,1.87,0v-1.62c1.96-.56,4.37-.42,5.62-2.69,1.56,1.07,4.97,.3,5.62-1.08,4.21,2.02,6.22-2.05,11.24-1.08h.63c-.19-1.24,1.8-.6,1.87-1.62,.61,.01,.48,.66,.62,1.08h2.5c.94-1.68,4.25-.89,5.62,0h.63v-.54c.74-.62,2.21-.61,3.75-.54-.15,.58-1.24,.36-1.25,1.08h3.75c-.46-.5-1.13-.82-1.87-1.08,.33-.94,3.01,.58,4.37,.54-.15,.59-1.24,.37-1.25,1.08h1.25c1.98-.74,3.77,1.33,4.37,0-1.01-.75-3.22-.45-3.75-1.62,3.3,.03,4.83,1.58,6.87,2.69h.63c.63,0,.74,.44,1.25,.54h.62c.12-.44,.63-.54,.62-1.08,1.5-.22,1.36,.98,3.12,.54,2.36,1.06-2.98-.13-2.5,1.08h.62c2.1-.68,3.3,2.11,4.37,.54-.68-.13-1.5-.89-.63-1.08,.24,1.23,2.5,.72,3.13,1.62-.77-.17-3.86,.09-1.88,.54h.63v.54h-1.88c-.62,1.66-1.69-.6-1.87-1.08-.74-.08-1.77,.09-1.87-.54h-.62c-1.3-.23-1.65,.37-2.5,.54,1.52,.51,5.69,.45,6.25,3.23,1.1-1.11,1.93-.47,2.5-1.08,1.73,.23,.03,1.69-1.25,1.08,1.62,.69,1.2,1.77,.62,3.23,.84-.35,1.16-1.15,1.25-2.15,1.05,.17,2.81,.72,3.75,0,1.1,2.4-4.33,3.79-3.12,8.08v.54c-.63,1.35-2.76-.43-2.5-1.62,.56,.33,1.12,.65,1.25,0v-.54c-1.01-.15-1.08,.51-1.88,.54-.46,1.66,1.72,1.03,1.25,2.69-1.11-.15-1.28,.51-.62,.54-1.71,.68-1.06,3.39-3.75,3.23-.26-2.59-.23,.64-1.87,0,1.04-1.07-.06-.68,0-2.15-2.32,.64,.46,2.33-1.25,3.23,1.65,.72,1.87,2.69,4.37,2.69-.79,1.52-1.97,2.06,.62,2.69,.27,2.03-1.95,1.91-2.5,3.23-.91-.24,.06-.47,0-1.08-1.53,.3-1.33,2.09-3.75,1.62,.33,.43,.65,.87,.62,1.62-1.67-.31-3.9,1.59-5,0-1.69,.54-4.85,2.61-6.87,1.08,0-.71,1.09-.49,1.25-1.08,.76-.77,2.38-1.22,3.12-.54-.94-2.26-3.62,.93-6.87,0v-.54c.04-.33,.1-.64,.62-.54-.11-.46,.25-.51,.63-.54h.62c.46-.5,1.13-.82,1.87-1.08-.6-1.32-5.36,3.28-6.25,0h1.87c.46-.5,1.14-.82,1.87-1.08-.18-1.13-1.67,.78-2.5-.54,1.72-1.2,4.95-1.12,8.12-1.08v1.08c1.92-1.13,3.14,2.07,6.24,1.62-2.67-1.47-5.01-3.22-7.49-4.85,.46-.5,1.13-.82,1.87-1.08-.28-.48-.55-.96-1.25-1.08v.54c1.27,1.02-1.98-.45-3.12,.54,1.37-2.92-1.12,.74-.62-3.77,1.24,.54,.98,2.38,3.12,2.15-1.3-1.03-2.78-1.92-3.12-3.77,1.19-1.01,1.57-.06,3.12,0-.46-.5-1.13-.82-1.87-1.08,2.19-2.66,9.18-6.47,13.11-2.69,.53,.1,.59-.21,.62-.54-.38-.03-.74-.08-.62-.54-2.59-1.69-6.63-.58-9.37-1.08,.34-.78-.73-2.78,.63-2.69-.17-1.13-1.67,.78-2.5-.54-.1,1.53,2.11,1.05,1.25,3.23-.38-.31-2.96-1.26-3.12,0v.54h3.74c-.85,2.32-5.14,1.67-4.99,4.85-.84-1.31-1.25-.34-1.88-1.08-.87,.19-.05,.95,.63,1.08-.61,1.65-1.66-.62-2.5-.54,0,1.07,1.7,.69,1.25,2.16-1.09-.15-3.35,1.72-3.12-.54-.58,.3-.95,1.5-1.25,.54-.24,.36-.17,3.34-2.5,1.62,.12-.61,.63-.3,.62,0,.61-.01,.48-.66,.62-1.08-.27-1.2-3.08-.22-4.37-.54,1.23-1.86-2.13-2.37-.62-2.69-.93-.99-1.97-1.89-3.12-2.69-1.49-1.17,1.51,.07,1.87,.54-.49-1.89-1.75-1.77,0-3.23h-2.5c1.45,1.88-2.34,.5-5,.54-.08-.97,.77-1.14,.63-2.15-2.47-.69-1.62,1.47-2.5,2.15-1.65,.17,.58-3.02-1.87-2.15-.7,.49,.04,1.21-1.25,2.15-1.27-.34-.18-2.72-2.5-2.15-.9,.12-.22,1.61-1.25,1.62,2.33,1.58,7.33,.86,9.37,2.69h.62c.53-.1,.59,.21,.62,.54h.63c2.57,.66,3.98,2.31,5.62,3.77-1.16,1.39-1.82,5.76-5.62,4.31-.71,.1-.35,.54,0,.54,.19,1.68-1.8-1.37-1.87,.54-.61-.02-.49-.66-.63-1.08-.83,.54-1.23,1.46-2.5,1.62-.03,.92,.47,1.39,1.25,1.62-.94,.29-.73,.54-2.5,1.08,.07,1.91,2.06-1.15,1.87,.54,.11,2.07-.51,.19-1.87,.54,.41,.55,1.43,.56,1.25,1.62-2.19-.09-1.96,1.9-3.12,2.69-1.87-.35,.6-1.15,0-2.15-1.02-.39-2.72,1.07-1.25,1.08-.28,.78-.55-.05-1.25,0-.72,.45-1.67,.71-3.12,.54-.7,1.56-.67-.83,.63-.54,.14-.42,.52-.63,1.25-.54,.67-.5,.19-1.99,1.87-1.62-.79-1.16-3.72,.33-3.75,1.62-1.09,.31-3.67-.65-3.75,.54-1.48-.16,.7-1.46,1.25-1.62h.63c.27-.66,.8-1.11,1.87-1.08-1.19-1.84-2.39-.55-4.37-.54,1.01-2.18,5.71-1.18,8.12-2.15,1.84-1.47,1.46-4.85,3.12-6.46,2.81,.27,2.12-2.48,5-2.16h2.5c0-1.34-2.72-1.01-3.12-1.08-.58-.1-.59,.54-.62,.54-.51-.05-1.16-.45-1.47-.66,.15,.12,.4,.31,.84,.66-.96,2.35-4.62-.83-4.37,2.16,.61-.02,.48-.66,.62-1.08,1.92,.49-.32,1.43-.62,1.62-.3,.18-2.31,1.03-2.5,1.08,.46-.11-3.05-.26-3.75,0v-2.69c-.64,.35-.65,1.24-1.87,1.08-.1,.62,.14,.96,.63,1.08-.46,.57-4.12,.46-5,2.15-.91-.24,.06-.47,0-1.08-1.94,1.23-3.28,1.92-5,1.08,.52-1.16,1.61-1.84,1.25-3.77-.93,.46-1.34,1.36-1.25,2.69-2.59,.46-3.18,2.64-5.62,3.23-1.52-.66,1.96-1.49,2.5-2.15-.12-.44-.63-.54-.63-1.08-.71,.1-.35,.54,0,.54,.14,1.44-3.32,.37-2.5,1.08,.91,.78-.38,.37-1.87,2.15-.71-.1-.35-.54,0-.54-.04-.51-3.29,.71-4.37,1.08-.91-.24,.06-.47,0-1.08-2.8,.74-6.65,.31-10,.54-3.68,.25-7.11,1.34-9.37-.54-.77,.23-1.28,.69-1.25,1.62-1.5,.22-1.36-.98-3.12-.54,.7-.66,.54-1.11-.63-1.08-.34-1.19,1.19-.77,1.25-1.62v-.54c-1.55,.06-1.93,1.01-3.12,0,1.62,1.42-1.01,.42-.62,2.15-.68-.13-.42-1.07-1.25-1.08-1.44,.43,1.07,1.88,1.25,2.69h.62c.38,.03,.74,.08,.62,.54h.63c.87,.89,5.99,.89,6.87,0h.62c.91-.3,3.23,.63,3.12-.54h1.25c4.44-1.83,9.91,.7,14.37,.54,3.89-.14,6.42-1.38,9.37-2.69,4.77,.17,9.14-.02,11.87-1.62h.62c0-.21,4.32-1.25,5.62,0,.14,1.02-.7,1.19-.62,2.15v.54c.11,1.17-2.21,.24-3.12,.54h-.63c-2.79,.65-5.93,.99-6.87,3.23,.93,.09,2.3-.19,2.5,.54v.54c0,1.44-1.97,1.17-1.87,2.69,2.48,.35,2.51-1.43,5-1.08v1.08c.82,2.31,5.38-1.84,6.24,1.62,1.11-1.91,4.08-2.23,5.62-3.77,.61-4.5,5.86-5,8.74-7.54,3.96-.17,8.86,.46,11.86-.54,1.44,.27,4.92,5.36,3.13,3.77h-.63c-1.92,.86-4.89,.81-6.87,1.62,.89,1.65,.28,2.42-.62,3.77,.91,.29,3.23-.63,3.12,.54h-1.25v.54c.27,1.21,3.08,.22,4.37,.54,0,1.07-1.7,.68-1.25,2.15,6.61-.22,13.75,.01,16.86-3.23h.62c1.74-1.01,3.16-2.3,3.12-4.85-.36-1.48-1.55-2.25-1.87-3.77,7.38,.28,13.45,1.69,18.11,4.31h.62c.74,.26,1.41,.57,1.87,1.08h.62c.7,.11,.97,.6,1.25,1.08v.54c.38,.03,.74,.08,.62,.54h.62c1.28,.15,1.25,1.44,1.87,2.15h.63c.48,.12,1.23,.01,1.25,.54v.54c2.09,.89,2.79,2.98,3.12,5.39v2.69c-.14,.42-.02,1.06-.62,1.08v.54c-.04,.33-.09,.64-.62,.54v.54c-.8,.92-1.29,2.12-3.12,2.15h-.63c-.04,.33-.09,.64-.62,.54h-.63c-.03,.33-.09,.64-.62,.54h-1.87c-2.72,.11-4.54,.61-6.87-.54h-.62c.45-.87-2.95-.87-2.5,0h-.62c-.63,0-.78,.94,0,1.08,.67-1.39,3.6-.29,3.75,.54,.11-.63,.99-.59,1.88-.54h.62c1.48,1.01,3.61-.68,5.62,.54,1.2-1.09,2.51-1.25,4.37-.54,1.04-.71,2.09-1.43,4.37-1.08,.34,.78-.73,2.78,.62,2.69-.66-2.01,1.32-1.74,1.87-2.69-1.56,.07-1.96,1.03-2.5-.54h.62c.04-.33,.09-.64,.62-.54,1.46,.46,2.69-1.88,3.12-.54-1.43,.52-1.02,3.16,0,2.15,0-.54-.51-.64-.62-1.08,2.74,.37,3.24-4,5.62-2.15-2.26-.39-1.95,.96-2.5,1.62-.32,.38-1.09,.68-1.25,1.08,.03-.08,1.02,.18,.63,.54-1.21,1.11-1.93,1.5-5,1.62,.42,1.43-1.07,.64-1.87,1.08-.97,.52-1.22,2.1-2.5,2.15,1.37-3.1-1.28,2.29-2.5,0,1.93,.76,2.81-3.26,1.87-1.62-1.07,.88-2.21,1.68-3.12,2.69-4.43,.45-9.02,.93-13.12,.54-.45-.04-.58-.53-.62-.54-5.91-.95-12.26-1.92-15.61-4.85-.69,.99-3.53,.33-4.37,0-2.4-.93-1.97-2.18-2.5-.54-2.78-2.41-8.28-.75-12.49-2.69,.74-.62,2.21-.61,3.75-.54h.62c4.57-.67,8.01-.89,11.87-1.08,.7,.11,.97,.6,1.25,1.08,2.74-1.18,4.88,1.65,7.5-.54-.16-.68-1.24-.54-1.25,0-.86-.02-1.37,.25-1.87,.54-.31-1.88-2.59-.28-3.75-.54-.61-.14-.6-.97-1.87-1.08-2.47-.2-5.23,.75-7.49,0h-.62c-.4,.45-2.92,1.69-3.13,.54h-.62c-1.7,1.05-5.78,.04-5.62,2.69,6.84,.93,14.22,1.38,19.36,3.77h.62c2.7,.72,5.72,1.17,7.49,2.69h.62c.04,.33,.1,.64,.63,.54h.62c.14,.42,.52,.63,1.25,.54h1.87c.1,.63,.98,.59,1.87,.54h1.25c.08,1.19,2.65,.23,3.75,.54h4.37c1.29-.32,4.1,.67,4.37-.54h1.25c.49-.12,1.23-.01,1.25-.54h1.87c.38-.03,.74-.08,.63-.54h.62c.48-.12,1.23-.02,1.25-.54h.62c.38-.03,.74-.08,.62-.54h.62c.7-.11,.97-.6,1.25-1.08h1.25c.7-.11,.97-.6,1.25-1.08,.89-.13,1.05-.89,1.87-1.08,.7-.11,.98-.6,1.25-1.08v-.54c1.6-.41,2.65-1.31,3.12-2.69v-.54c.38-.03,.74-.08,.62-.54v-.54c.38-.03,.74-.08,.62-.54v-.54c.49-.12,.72-.45,.62-1.08v-.54c.92-.1,.57-1.3,.63-2.16v-.54c.03-.33,.09-.64,.62-.54v-1.62c-.38-.03-.74-.08-.62-.54v-.54c.7-.11,.97-.6,1.25-1.08v-.54c.03-.74-.29-1.18-.62-1.62v-.54Zm-40.6-26.39c0-.3,.5-.61,.62,0h-.62Zm-8.12,15.62c-.32-.28,.45-.69,.62-.54,.32,.28-.45,.69-.62,.54Zm-96.18,3.23c.77,.23,1.28,.69,1.25,1.62-.77-.23-1.28-.69-1.25-1.62Zm59.96,1.62c.27-.66,.8-1.11,1.87-1.08-.27,.66-.8,1.11-1.87,1.08Zm12.49-4.31c-.32-.28,.45-.69,.63-.54,.32,.28-.46,.69-.63,.54Zm6.87,0c-.27,.06-2.89,.62-2.5-1.08,.31,1.06,3.11-.07,3.11,.47-.14-.02-.95,.68-.61,.6Zm22.48,0c-.32-.28,.46-.69,.63-.54,.32,.28-.45,.69-.63,.54Zm1.88-3.23c.17-.04,.47,.07,.62,0,.95-.41,.47,.34,0,.54-.84,.36-1.4-.36-.62-.54Zm0,1.62c.16-.68,1.24-.54,1.25,0-.56,.33-1.12,.65-1.25,0Zm35.6,5.92c-.89-.13-1.05-.89-1.88-1.08v-.54c1.23-1.11,1.67,.37,1.88,1.62Zm0,4.31c1.06-.12,1.55,.61,0,.54v-.54Zm-8.12-14.54c.18,.87-.59,.93-.62,1.62,1.32,.72,1.85-.27,3.75,.54,.79,2.19,3.04,3.12,3.75,5.39-2.03-1.66-3.26-4.01-5.62-5.39-1.27,1.08-1.23-.24-2.5-.54,.33-.43,.65-.87,.62-1.62h-.62c-.12,.61-.63,.3-.62,0-.28-.48-.55-.96-1.25-1.08,.49-1.24,2.18,.93,3.12,1.08Zm1.87,4.85v-.54c2.26,.18,2.26,1.48,0,.54Zm1.25,3.23c-1.66,.27-.9-.93,0-.54,.89,.38,.14,1.54,0,.54Zm-6.87-8.62h-1.25v-.54c-1.93-.7,1.35-.33,1.25,.54Zm-1.25-1.62c-2.95-.84-.83-2.67,0,0h0Zm-1.88,0c.38,.03,.74,.08,.63,.54-.38-.03-.74-.08-.63-.54Zm-1.25-2.69c.04,.33,.09,.64,.62,.54-.03,.33-.09,.64-.62,.54-.74-1.16-2.71-1.26-3.75-2.15,2.33-.58,1.78,1.34,3.75,1.08Zm-5-1.62c.32-.28,.8,.39,.62,.54-.32,.28-.8-.39-.62-.54Zm-4.37,1.08c-.33-.28,.45-.69,.62-.54,.32,.28-.46,.69-.62,.54Zm-.62-2.15c.17-.04,.46,.07,.62,0,.95-.41,.47,.34,0,.54-.84,.36-1.4-.36-.62-.54Zm-1.88-.54h-.62c0-.3,.51-.61,.62,0Zm-5.62-1.62c0-.54,1.09-.68,1.25,0h-1.25Zm-1.87-3.23c-.19-1.45-2.63-.97-3.12-2.15h-3.75c-.11-1.17,2.22-.24,3.12-.54,3.91,.76,7.52,1.77,9.99,3.77-1.2,1-3.14-1.93-6.24-1.08Zm4.37,4.31c0-.3,.51-.61,.62,0h-.62Zm-.62,15.62c-.32-.28,.45-.69,.62-.54,.32,.28-.45,.69-.62,.54Zm3.12-1.08c1.82,1.58-1.44,3.34,0,0h0Zm14.99,7.54c.42,.24-2.68,.7-1.87,0,.81-.7-.13-.37-1.25-.54,1.35-1.17-.22-4.85,1.87-5.39v-.54c-.11-.46,.25-.51,.63-.54v-.54c-.11-.46,.25-.51,.62-.54-.28-.78-.55,.05-1.25,0-.11,.44-.62,.54-.62,1.08,.11,.46-.24,.51-.62,.54v.54c-.16,1.84-1.58,2.59-1.25,4.85-1.12,.15-1.28-.51-.62-.54,.3-.82-1.66-.21-1.87-.54-.07-.12,3.39-2.26,0-2.15,.99-2.06,.99-.64,0-2.69,2.01-.25,2.15-2.1,3.12-3.23-2.39,1.49-5,4.59-3.75,7.54-.98-.23-.53-1.69-2.5-1.08,1.13-2.19-1.96-5.12,.63-6.46v-.54c-.12-.46,.24-.51,.62-.54v-.54c-.11-.46,.24-.51,.62-.54v-.54h-1.25v.54c.11,.46-.25,.51-.63,.54v.54c-.63,.71-.61,1.99-1.25,2.69v.54c-1.18,.84,.9,2.1-.62,3.23-.79-.13-.63-1.07,0-1.08-.18-1.13-1.67,.78-2.5-.54,1.32-2.13-1.05-5.54,1.88-7-.61-1.78-1.23,.6-1.88,.54v.54c.06,.76,.1,1.53-.62,1.62v.54c.49,1.86-.69,2.27-1.25,3.23-1.24-3.17-1.55-5.02,0-8.08v-.54c-.08-.97,.76-1.14,.62-2.15-1.28,.15-.59,2.01-1.87,2.15v.54c.05,.76,.1,1.52-.62,1.62v5.93c-1.24,0-.8-1.47-2.5-1.08,.51-1.35-.66-3.77,0-4.85,.3-.49,2-.23,0-.54,1.42-.39,1.11-2.28,1.87-3.23v-.54c.1-.63,1.14-.46,1.87-.54-.02-.52-.76-.42-1.25-.54,.17-1.11,2.77-.13,2.5-1.62,.94,.47-.17,.81,.62,2.15,.62-1.21,3.4,1.16,4.37-.54,1.3,.14,.17,2.37,1.25,2.69,.71-.1,.35-.54,0-.54,.96-1.61,2.78-.56,4.37,0-.41,1.44-1.88,1.97-3.12,2.69,.28,.89,2.69-.86,3.12-1.62,1.78,.44,3.57,.87,3.12,3.23,1.51,.22,1.36-.98,3.12-.54,.23,.92-.49,1.02-1.25,1.08,1.11,.57,2.85,.04,1.25,2.16,.83,.08,2.32-1.81,2.5-.54,1.81,1.19-.96-.68-.62,.54,.13,1.29,1.7,.27,2.5,1.08,.19,.19-1.57,1.59,1.25,1.08-.06,2.01-.7,1.54,0,3.23h-1.25c-2,1.86-3.61,4.06-5.62,5.93-.97,.21-.22-1.38-.63-1.62Zm.63,2.69c.02-.52,.76-.42,1.25-.54-.02,.52-.76,.42-1.25,.54Zm4.37,15.08c-.32-.28,.45-.69,.62-.54,.32,.28-.45,.69-.62,.54Zm-.62-1.08c.1-.63,1.14-.45,1.87-.54-.1,.63-1.14,.45-1.87,.54Zm2.5,0c.31-1.69-2.15-1.42-.62-2.69,1.86,.19,3.17,.86,4.37,1.62-.58,.94-1.96,1.19-3.75,1.08Zm5-.54c-.38-.03-.74-.08-.62-.54,1.3-.6,1.32-.58,.62,.54Zm.63-5.93c.42,.48,.48,.86,.62,1.62-.07-.36-.08,.61-.03,.63,.01-.03,.03-.06,.03-.1-.01,.08-.02,.1-.03,.1-.15,.42-.81,.81-.59,1.52-1.06-.2-1.18,.42-1.25,1.08-1.97-.27-2.74-1.59-5-1.62,.54-2.26,4.16-1.69,5.62-.54-.67-1.57-2.97-1.74-5.62-1.62-.41-2.15,2.38-1.54,4.37-1.62-.86-1.39-3.83-.12-5,0-.67-2.73,2.4-2.24,3.75-3.23-.95-1.35-4.05,1.77-5,.54,.78-1.13,1.82-2.02,3.12-2.69-.06-1.02-2.44,.33-2.5,1.08-2.36-.33,.68-2.25-2.5-2.16,.05-.76,.1-1.52-.63-1.61,1.2-1.84,2.22-3.83,4.37-4.85h.62v-.54c.74-.62,2.21-.61,3.75-.54,1.6,1.23-.22,3.36,1.87,3.23-.1,.63-1.14,.45-1.87,.54,.19,.73,1.56,.45,2.5,.54-.28,.48-.55,.96-1.25,1.08,2.4,1.52,1.88,5.56,1.88,9.16-.74,.07-1.45-.34-1.84-.64,.14,.15,.33,.35,.59,.64Zm2.5,4.31h-1.25v-1.08h1.25v1.08Zm-1.25-15.08c0-.54,1.09-.68,1.25,0h-1.25Zm1.87,1.62v-1.08c.18-2.01,1.55,1.59,0,1.08Zm.62,3.23v-.54c-.65-4.57,1.92-1.07,0,.54Zm0,9.69c-.32-.28,.45-.69,.62-.54,.32,.28-.45,.69-.62,.54Zm0-4.85c-.32-.28,.45-.69,.62-.54,.32,.28-.45,.69-.62,.54Zm.62-4.31c.61,.01,.48,.66,.62,1.08-.61-.02-.48-.66-.62-1.08Z"/><path class="d" d="M160.57,157.72c.14-.42,.52-.63,1.25-.54h1.25c2.76-.65-2.51-.54-2.5-.54-2.24-.41-5.21-2.31-6.24-1.08,.38,.03,.74,.08,.62,.54,.77,.3,5.13-.41,5.62,1.62Z"/></g><path class="d" d="M146.21,131.87c.18,.55-.33,.38-.62,.54-1.96,1.04-2.7,.81,.62-.54Z"/><path class="d" d="M179.31,133.48c1.56,.71,1.95-2.13,2.5-.54-1.02,.91-2.61,1.34-2.5,3.23v.54c-.13,.6-.7,.84-1.25,1.08,0-.54-.5-.64-.63-1.08,1.6-.05,1.01-2.01,1.88-2.69v-.54Z"/><path class="c" d="M179.31,136.17h1.87c.72-1-.74-3.34,1.87-3.77,.14,1.02-.7,1.19-.62,2.15,.48,.12,1.23,.01,1.25,.54-2.34-.41-1.36,2.06-3.12,2.15-.14-.42-.52-.63-1.25-.54v-.54Z"/><path class="d" d="M146.21,134.02c.46-.96,1.13-.08,1.87,0-1.29,1.8-.55,.47-1.25,0h-.62Z"/><path class="b" d="M185.55,135.1v-.54c.74-.62,2.21-.61,3.75-.54,1.6,1.23-.22,3.36,1.87,3.23-.1,.63-1.14,.45-1.87,.54,.19,.73,1.56,.45,2.5,.54-.28,.48-.55,.96-1.25,1.08,2.4,1.52,1.88,5.56,1.88,9.16-1.69,.17-3.18-2.17-1.25,0,.42,.48,.48,.86,.62,1.62-.09-.43-.08,1.05,0,.54-.07,.46-.85,.85-.62,1.61-1.06-.2-1.18,.42-1.25,1.08-1.97-.27-2.74-1.59-5-1.62,.54-2.26,4.16-1.69,5.62-.54-.67-1.57-2.97-1.74-5.62-1.62-.41-2.15,2.38-1.54,4.37-1.62-.86-1.39-3.83-.12-5,0-.67-2.73,2.4-2.24,3.75-3.23-.95-1.35-4.05,1.77-5,.54,.78-1.13,1.82-2.02,3.12-2.69-.06-1.02-2.44,.33-2.5,1.08-2.36-.33,.68-2.25-2.5-2.16,.05-.76,.1-1.52-.63-1.61,1.2-1.84,2.22-3.83,4.37-4.85-.18,1.1-1.69,1.06-1.87,2.15,2.46,.69,1.62-1.47,2.5-2.15Zm.62,3.23c-1.24-1.86,2.13-2.37,.62-2.69-.66,.9-3.84,2.38-2.5,3.23,.14-.42,.52-.63,1.25-.54-1.04,.22-3.06,3.97-1.87,2.69,.87-.87,1.77-1.71,2.5-2.69Zm1.25-3.23c-.14-.42-.52-.63-1.25-.54,.14,.42,.52,.63,1.25,.54Zm0,2.69c.35,.38,2.02-3.15,.63-1.08-.07,.11-1.14,.52-.63,1.08Zm1.25,.54c.17-.15-.3-.82-.62-.54-.17,.15,.3,.82,.62,.54Zm1.25,1.08c-.17-.15-.95,.26-.62,.54,.17,.15,.95-.26,.62-.54Zm-1.25,2.15c-.17-.15-.95,.26-.62,.54,.17,.15,.94-.26,.62-.54Zm1.25,0c-.17-.15-.95,.26-.62,.54,.17,.15,.95-.26,.62-.54Zm.62,2.69c-.17-.15-.95,.26-.62,.54,.17,.15,.95-.26,.62-.54Zm1.25,.54c-.17-.15-.95,.26-.62,.54,.17,.15,.95-.26,.62-.54Z"/><path class="d" d="M186.17,138.33c-.73,.99-1.63,1.82-2.5,2.69-1.19,1.28,.83-2.47,1.87-2.69h.62Z"/><path class="c" d="M185.55,138.33c-.73-.09-1.11,.12-1.25,.54-1.35-.85,1.84-2.33,2.5-3.23,1.5,.32-1.86,.83-.62,2.69h-.62Z"/><path class="c" d="M185.55,135.1c-.88,.68-.03,2.84-2.5,2.15,.18-1.1,1.69-1.06,1.87-2.15h.62Z"/><path class="d" d="M146.21,135.64c.68,.13,.42,1.08,1.25,1.08,2.2,0-1.48,1.65-1.25-1.08Z"/><path class="b" d="M168.06,157.18c3.36,.44,4.77-.42,6.87,.54-2.72,.11-4.54,.61-6.87-.54Z"/></g><g><path class="f" d="M82.92,64.97h-13.39v-.98h3.09v-25.43h-2.95v-1.02h13.31c3.02,0,4.84,2.44,4.84,4.91,0,1.56-.73,3.17-2.4,4.11,3.93,1.09,6.87,4.73,6.87,9.02,0,5.17-4.22,9.39-9.39,9.39Zm.11-26.41h-4.95v7.64h4.91c2.11,0,3.82-1.71,3.82-3.82s-1.71-3.82-3.78-3.82Zm-.11,8.66h-4.84v16.77h4.8c4.62,0,8.44-3.78,8.44-8.4s-3.78-8.37-8.4-8.37Z"/><path class="f" d="M113.33,64.97c-2.11,0-3.93-1.24-4.73-3.16l-6.08-14.59h-.98v16.77h2.87v.98h-11.28v-.98h2.87v-25.43h-2.87v-1.02h13.31c2.66,0,4.84,2.18,4.84,4.84,0,2.22-1.53,4.15-3.67,4.69,.8,.55,1.45,1.35,1.82,2.26l5.89,14.15c.8-.47,1.42-1.16,1.78-2l.91,.4c-.8,1.93-2.62,3.09-4.69,3.09Zm-6.88-26.41h-4.91v7.64h4.91c2.11,0,3.82-1.71,3.82-3.82s-1.71-3.82-3.82-3.82Z"/><path class="f" d="M139.26,38.56v16.62c0,6.66-5.02,9.97-10.04,9.97s-10-3.31-10-9.97v-16.62h-2.66v-1.02h11.17v1.02h-2.73v21.53c0,2.36,1.93,4.11,4.22,4.11,4.95,0,9.06-3.71,9.06-9.02v-16.62h-3.24v-1.02h6.66v1.02h-2.44Z"/><path class="f" d="M165.08,38.56v25.43h2.44v.98h-3.31l-12.15-24.7v23.72h2.98v.98h-11.6v-.98h3.09v-25.43h-3.09v-1.02h8.4l12.26,24.95v-23.94h-2.98v-1.02h7.89v1.02h-3.93Z"/><path class="f" d="M181.99,65.12c-7.57,0-13.71-6.29-13.71-13.86s6.15-13.86,13.71-13.86,13.71,6.29,13.71,13.86-6.18,13.86-13.71,13.86Zm6.04-20.66c0-3.2-2.73-6.04-6.08-6.04-3.16,0-6.04,2.69-6.04,6.04v13.6c0,3.2,2.66,6.08,6.04,6.08,3.2,0,6.08-2.69,6.08-6.08v-13.6Z"/><path class="f" d="M72.17,98.15c-5.35,0-9.75-3.64-9.75-9.2l1.02,.04c0,4.95,3.93,8.18,8.73,8.18,2.76,0,6.44-1.27,6.44-4.04,0-2.62-3.42-4.33-5.49-5.49-3.16-1.75-10.04-4.18-10.04-9.6,0-4.66,4.91-7.57,10.04-7.57,2.26,0,7.09,1.35,7.09,4.36,0,1.2-.91,2.33-2.29,2.33-1.49,0-2.33-1.2-2.33-2.36,0-.95,.51-1.85,1.67-2.18-1.34-.8-2.76-1.13-4.26-1.13-1.67,0-6.15,.69-6.15,3.89,0,1.13,.8,2.4,1.78,2.91l8.8,4.73c2.69,1.42,4.73,4,4.87,7.49,0,5.31-5.67,7.64-10.15,7.64Z"/><path class="f" d="M97.6,98.04c-7.49,0-13.53-6.22-13.53-13.71,0-8.29,6.73-13.68,13.79-13.68,2.47,0,4.95,.65,7.2,2.07v-2.18h.98v7.97h-.98v-4.58c-2.15-1.49-4.66-2.29-7.27-2.29-3.31,0-6.04,2.73-6.04,6.04v13.31c0,3.27,2.62,6.07,5.89,6.07,3.89,0,6.87-2.15,8.88-5.2l.84,.55c-2.22,3.35-5.49,5.64-9.75,5.64Z"/><path class="f" d="M122.44,98.04v-.98h3.16v-16.77h-7.89v16.77h3.13v.98h-11.75v-.98h3.16v-25.43h-3.16v-1.02h11.75v1.02h-3.13v7.64h7.89v-7.64h-3.16v-1.02h11.75v1.02h-3.13v25.43h3.13v.98h-11.75Z"/><path class="f" d="M158.63,71.63v16.62c0,6.66-5.02,9.97-10.04,9.97s-10-3.31-10-9.97v-16.62h-2.66v-1.02h11.17v1.02h-2.73v21.53c0,2.36,1.93,4.11,4.22,4.11,4.95,0,9.06-3.71,9.06-9.02v-16.62h-3.24v-1.02h6.66v1.02h-2.44Z"/><path class="f" d="M162.81,98.04v-.98h3.09v-25.43h-3.09v-1.02h11.24v1.02h-2.66v25.43h10.04v-7.75h1.05v8.73h-19.68Z"/><path class="f" d="M200.45,98.04h-16.22l11.42-26.41h-7.02c.29,.4,.44,.84,.44,1.31,0,1.27-1.02,2.36-2.33,2.36s-2.36-1.05-2.36-2.36,1.13-2.33,2.44-2.33h15.42l-11.6,26.45h7.93c-.26-.4-.44-.84-.44-1.31,0-1.27,1.16-2.36,2.4-2.36s2.29,1.09,2.29,2.33c0,1.31-1.05,2.33-2.36,2.33Z"/></g><path class="f" d="M244.29,114.66c0,2.01-1.57,3.65-3.5,3.65s-3.5-1.63-3.5-3.65,1.57-3.65,3.5-3.65,3.5,1.63,3.5,3.65Z"/><path class="f" d="M25.98,114.66c0,2.01-1.57,3.65-3.5,3.65s-3.5-1.63-3.5-3.65,1.57-3.65,3.5-3.65,3.5,1.63,3.5,3.65Z"/></svg>