<?xml version="1.0" encoding="UTF-8"?><svg id="a" xmlns="http://www.w3.org/2000/svg" viewBox="0 0 84.4 96.34"><defs><style>.b{fill:none;}.b,.c{stroke:#fff;stroke-miterlimit:10;stroke-width:2.74px;}.c{fill:#669;}</style></defs><path class="b" d="M13.85,48.32l17.52,3.04c.16,.02,.31,.01,.47,0l18.68-1.62c.16-.02,.32-.02,.48,0l18.63,.92c1.15,.12,2.01,1.09,2.01,2.24l11.39,39.62c0,1.35-1.17,2.39-2.51,2.24l-24.69-2.19c-.15-.02-.31-.02-.46,0l-26.88,2.4c-.21,.02-.41,0-.61-.03l-24.67-3.27c-1.07-.2-1.85-1.14-1.84-2.24L11.37,50.54c.01-1.32,1.16-2.35,2.47-2.22Z"/><line class="b" x1="31.6" y1="51.39" x2="28.19" y2="94.99"/><line class="b" x1="50.76" y1="49.72" x2="55.6" y2="92.54"/><path class="c" d="M60.88,33.31h0l-19.17,38.45L23.16,33.32h0c-1.71-3.09-2.68-6.63-2.68-10.41C20.49,11.01,30.13,1.37,42.02,1.37s21.54,9.64,21.54,21.54c0,3.77-.97,7.32-2.68,10.41Z"/></svg>