<?xml version="1.0" encoding="UTF-8"?><svg id="a" xmlns="http://www.w3.org/2000/svg" viewBox="0 0 95.76 78.22"><defs><style>.b{fill:#fff;}</style></defs><path class="b" d="M0,73.66c0-1.16,.45-2.34,1.33-3.23L44.48,27.28c.93-.93,2.17-1.37,3.39-1.33,1.22-.05,2.46,.39,3.39,1.33l43.15,43.15c1.77,1.78,1.77,4.67,0,6.45-.89,.88-2.06,1.33-3.23,1.33s-2.34-.45-3.23-1.33L47.88,36.79,7.79,76.89c-1.78,1.77-4.67,1.77-6.45,0-.88-.89-1.33-2.06-1.33-3.23Z"/><path class="b" d="M0,47.71c0-1.16,.45-2.34,1.33-3.23L44.48,1.33C45.42,.4,46.66-.05,47.88,0c1.22-.05,2.46,.39,3.39,1.33l43.15,43.15c1.77,1.78,1.77,4.67,0,6.45-.89,.88-2.06,1.33-3.23,1.33s-2.34-.45-3.23-1.33L47.88,10.84,7.79,50.93c-1.78,1.77-4.67,1.77-6.45,0-.88-.89-1.33-2.06-1.33-3.23Z"/></svg>